<svg width="25" height="25" viewBox="0 0 25 25" fill="none" xmlns="http://www.w3.org/2000/svg">
<path d="M11.5 13.5635H6.5C6.21667 13.5635 5.97933 13.4675 5.788 13.2755C5.59667 13.0835 5.50067 12.8461 5.5 12.5635C5.5 12.2801 5.596 12.0428 5.788 11.8515C5.98 11.6601 6.21733 11.5641 6.5 11.5635H11.5V6.56348C11.5 6.28014 11.596 6.04281 11.788 5.85148C11.98 5.66014 12.2173 5.56414 12.5 5.56348C12.7833 5.56348 13.021 5.65948 13.213 5.85148C13.405 6.04348 13.5007 6.28081 13.5 6.56348V11.5635H18.5C18.7833 11.5635 19.021 11.6595 19.213 11.8515C19.405 12.0435 19.5007 12.2808 19.5 12.5635C19.5 12.8468 19.404 13.0845 19.212 13.2765C19.02 13.4685 18.7827 13.5641 18.5 13.5635H13.5V18.5635C13.5 18.8468 13.404 19.0845 13.212 19.2765C13.02 19.4685 12.7827 19.5641 12.5 19.5635C12.2167 19.5635 11.9793 19.4675 11.788 19.2755C11.5967 19.0835 11.5007 18.8461 11.5 18.5635V13.5635Z" fill="#1C1C1C"/>
</svg>
