<svg width="24" height="24" viewBox="0 0 24 24" fill="none" xmlns="http://www.w3.org/2000/svg">
<path d="M16.15 12.9999H5C4.71667 12.9999 4.479 12.9039 4.287 12.7119C4.095 12.5199 3.99934 12.2826 4 11.9999C4 11.7166 4.096 11.4789 4.288 11.2869C4.48 11.0949 4.71734 10.9993 5 10.9999H16.15L13.3 8.14994C13.1 7.94994 13.004 7.71661 13.012 7.44994C13.02 7.18327 13.116 6.94994 13.3 6.74994C13.5 6.54994 13.7377 6.44561 14.013 6.43694C14.2883 6.42827 14.5257 6.52427 14.725 6.72494L19.3 11.2999C19.4 11.3999 19.471 11.5083 19.513 11.6249C19.555 11.7416 19.5757 11.8666 19.575 11.9999C19.575 12.1333 19.554 12.2583 19.512 12.3749C19.47 12.4916 19.3993 12.5999 19.3 12.6999L14.725 17.2749C14.525 17.4749 14.2877 17.5709 14.013 17.5629C13.7383 17.5549 13.5007 17.4506 13.3 17.2499C13.1167 17.0499 13.0207 16.8166 13.012 16.5499C13.0033 16.2833 13.0993 16.0499 13.3 15.8499L16.15 12.9999Z" fill="white"/>
</svg>
