<svg width="15" height="12" viewBox="0 0 15 12" fill="none" xmlns="http://www.w3.org/2000/svg">
<path d="M11.5657 5.68438L1.90952 11.2594C1.66414 11.4011 1.41032 11.4367 1.14804 11.3665C0.885764 11.2962 0.684247 11.1385 0.543491 10.8934C0.401824 10.648 0.366129 10.3942 0.436406 10.1319C0.506683 9.86961 0.664387 9.66809 0.909516 9.52733L10.5657 3.95233L6.67253 2.90916C6.39932 2.83596 6.19952 2.68188 6.07311 2.44694C5.94671 2.212 5.91318 1.96193 5.97253 1.69673C6.04573 1.42352 6.19939 1.21433 6.4335 1.06916C6.66762 0.923987 6.92115 0.888459 7.19411 0.962575L13.4437 2.63714C13.5803 2.67374 13.6959 2.73206 13.7906 2.8121C13.8853 2.89214 13.9657 2.99006 14.0318 3.10586C14.0985 3.22133 14.1428 3.34008 14.1648 3.46212C14.1867 3.58416 14.1797 3.71331 14.1437 3.84958L12.4691 10.0991C12.3959 10.3723 12.2384 10.5742 11.9965 10.7046C11.7546 10.835 11.4966 10.8634 11.2225 10.79C10.9638 10.7085 10.764 10.5544 10.6231 10.3278C10.4823 10.1012 10.4487 9.8511 10.5225 9.57756L11.5657 5.68438Z" fill="#121619"/>
</svg>
