<svg width="25" height="24" viewBox="0 0 25 24" fill="none" xmlns="http://www.w3.org/2000/svg">
<path d="M8.3499 13L11.1999 15.85C11.3999 16.05 11.4959 16.2834 11.4879 16.55C11.4799 16.8167 11.3839 17.05 11.1999 17.25C10.9999 17.45 10.7626 17.5544 10.4879 17.563C10.2132 17.5717 9.97557 17.4757 9.7749 17.275L5.1999 12.7C4.9999 12.5 4.8999 12.2667 4.8999 12C4.8999 11.7334 4.9999 11.5 5.1999 11.3L9.7749 6.72504C9.9749 6.52504 10.2126 6.42937 10.4879 6.43804C10.7632 6.44671 11.0006 6.55071 11.1999 6.75004C11.3832 6.95004 11.4792 7.18337 11.4879 7.45004C11.4966 7.71671 11.4006 7.95004 11.1999 8.15004L8.3499 11H19.4999C19.7832 11 20.0209 11.096 20.2129 11.288C20.4049 11.48 20.5006 11.7174 20.4999 12C20.4999 12.2834 20.4039 12.521 20.2119 12.713C20.0199 12.905 19.7826 13.0007 19.4999 13H8.3499Z" fill="#363A43"/>
</svg>
