<svg width="81" height="27" viewBox="0 0 81 27" fill="none" xmlns="http://www.w3.org/2000/svg">
<path d="M15.136 12.86C14.992 12.932 14.992 13.004 15.136 13.076C17.416 14.252 18.556 16.208 18.556 18.944C18.556 21.272 17.764 23.036 16.18 24.236C14.596 25.412 12.52 26 9.952 26H0.628C0.508 26 0.4 25.964 0.304 25.892C0.232 25.796 0.196 25.688 0.196 25.568V1.232C0.196 1.112 0.232 1.016 0.304 0.943999C0.4 0.847998 0.508 0.799998 0.628 0.799998H9.664C15.352 0.799998 18.196 3.104 18.196 7.712C18.196 10.112 17.176 11.828 15.136 12.86ZM5.452 5.156C5.332 5.156 5.272 5.216 5.272 5.336V10.952C5.272 11.072 5.332 11.132 5.452 11.132H9.664C10.792 11.132 11.668 10.868 12.292 10.34C12.916 9.812 13.228 9.092 13.228 8.18C13.228 7.244 12.916 6.512 12.292 5.984C11.668 5.432 10.792 5.156 9.664 5.156H5.452ZM9.952 21.608C11.056 21.608 11.92 21.332 12.544 20.78C13.168 20.204 13.48 19.424 13.48 18.44C13.48 17.456 13.168 16.688 12.544 16.136C11.92 15.56 11.044 15.272 9.916 15.272H5.452C5.332 15.272 5.272 15.332 5.272 15.452V21.428C5.272 21.548 5.332 21.608 5.452 21.608H9.952ZM21.8722 26C21.7522 26 21.6442 25.964 21.5482 25.892C21.4762 25.796 21.4402 25.688 21.4402 25.568V1.232C21.4402 1.112 21.4762 1.016 21.5482 0.943999C21.6442 0.847998 21.7522 0.799998 21.8722 0.799998H26.0842C26.2042 0.799998 26.3002 0.847998 26.3722 0.943999C26.4682 1.016 26.5162 1.112 26.5162 1.232V21.464C26.5162 21.584 26.5762 21.644 26.6962 21.644H38.4682C38.5882 21.644 38.6842 21.692 38.7562 21.788C38.8522 21.86 38.9002 21.956 38.9002 22.076V25.568C38.9002 25.688 38.8522 25.796 38.7562 25.892C38.6842 25.964 38.5882 26 38.4682 26H21.8722ZM49.6445 26.396C47.7725 26.396 46.1165 26.012 44.6765 25.244C43.2605 24.476 42.1565 23.408 41.3645 22.04C40.5725 20.648 40.1765 19.052 40.1765 17.252V9.548C40.1765 7.772 40.5725 6.2 41.3645 4.832C42.1565 3.464 43.2605 2.408 44.6765 1.664C46.1165 0.895999 47.7725 0.512 49.6445 0.512C51.5405 0.512 53.1965 0.895999 54.6125 1.664C56.0525 2.408 57.1685 3.464 57.9605 4.832C58.7525 6.2 59.1485 7.772 59.1485 9.548V17.252C59.1485 19.052 58.7525 20.648 57.9605 22.04C57.1685 23.432 56.0525 24.512 54.6125 25.28C53.1965 26.024 51.5405 26.396 49.6445 26.396ZM49.6445 22.04C50.9645 22.04 52.0325 21.62 52.8485 20.78C53.6645 19.94 54.0725 18.824 54.0725 17.432V9.512C54.0725 8.12 53.6645 7.004 52.8485 6.164C52.0565 5.3 50.9885 4.868 49.6445 4.868C48.3245 4.868 47.2565 5.3 46.4405 6.164C45.6485 7.004 45.2525 8.12 45.2525 9.512V17.432C45.2525 18.824 45.6485 19.94 46.4405 20.78C47.2565 21.62 48.3245 22.04 49.6445 22.04ZM70.8159 26.288C68.9679 26.288 67.3359 25.916 65.9199 25.172C64.5039 24.428 63.3999 23.396 62.6079 22.076C61.8399 20.732 61.4559 19.184 61.4559 17.432V9.368C61.4559 7.616 61.8399 6.068 62.6079 4.724C63.3999 3.38 64.5039 2.348 65.9199 1.628C67.3359 0.883999 68.9679 0.512 70.8159 0.512C72.6399 0.512 74.2479 0.872 75.6399 1.592C77.0559 2.312 78.1479 3.296 78.9159 4.544C79.7079 5.768 80.1039 7.136 80.1039 8.648V8.9C80.1039 9.02 80.0559 9.128 79.9599 9.224C79.8879 9.296 79.7919 9.332 79.6719 9.332H75.4599C75.3399 9.332 75.2319 9.296 75.1359 9.224C75.0639 9.128 75.0279 9.02 75.0279 8.9V8.792C75.0279 7.688 74.6439 6.764 73.8759 6.02C73.1079 5.252 72.0879 4.868 70.8159 4.868C69.5199 4.868 68.4759 5.276 67.6839 6.092C66.9159 6.884 66.5319 7.928 66.5319 9.224V17.576C66.5319 18.872 66.9519 19.928 67.7919 20.744C68.6319 21.536 69.6999 21.932 70.9959 21.932C72.2439 21.932 73.2399 21.608 73.9839 20.96C74.7279 20.288 75.0999 19.364 75.0999 18.188V16.568C75.0999 16.448 75.0399 16.388 74.9199 16.388H70.8879C70.7679 16.388 70.6599 16.352 70.5639 16.28C70.4919 16.184 70.4559 16.076 70.4559 15.956V12.644C70.4559 12.524 70.4919 12.428 70.5639 12.356C70.6599 12.26 70.7679 12.212 70.8879 12.212H79.6719C79.7919 12.212 79.8879 12.26 79.9599 12.356C80.0559 12.428 80.1039 12.524 80.1039 12.644V17.396C80.1039 19.22 79.7199 20.804 78.9519 22.148C78.1839 23.492 77.0919 24.524 75.6759 25.244C74.2839 25.94 72.6639 26.288 70.8159 26.288Z" fill="url(#paint0_linear_156_2422)"/>
<defs>
<linearGradient id="paint0_linear_156_2422" x1="-15.8296" y1="-34.2926" x2="129.843" y2="-21.3873" gradientUnits="userSpaceOnUse">
<stop stop-color="#0043CE"/>
<stop offset="0.06" stop-color="#7FA9FF"/>
<stop offset="1" stop-color="#E80808"/>
</linearGradient>
</defs>
</svg>
