<svg width="309" height="76" viewBox="0 0 309 76" fill="none" xmlns="http://www.w3.org/2000/svg">
<path d="M71.85 7.20234C71.9034 7.20234 71.946 7.22368 71.978 7.26634C72.0207 7.29834 72.042 7.34101 72.042 7.39434V8.96234C72.042 9.01568 72.0207 9.06368 71.978 9.10634C71.946 9.13834 71.9034 9.15434 71.85 9.15434H68.986C68.9327 9.15434 68.906 9.18101 68.906 9.23434V18.2103C68.906 18.2637 68.8847 18.3117 68.842 18.3543C68.81 18.3863 68.7674 18.4023 68.714 18.4023H66.842C66.7887 18.4023 66.7407 18.3863 66.698 18.3543C66.666 18.3117 66.65 18.2637 66.65 18.2103V9.23434C66.65 9.18101 66.6234 9.15434 66.57 9.15434H63.786C63.7327 9.15434 63.6847 9.13834 63.642 9.10634C63.61 9.06368 63.594 9.01568 63.594 8.96234V7.39434C63.594 7.34101 63.61 7.29834 63.642 7.26634C63.6847 7.22368 63.7327 7.20234 63.786 7.20234H71.85ZM77.3054 10.0503C78.1587 10.0503 78.8467 10.3117 79.3694 10.8343C79.8921 11.357 80.1534 12.0663 80.1534 12.9623V18.2103C80.1534 18.2637 80.1321 18.3117 80.0894 18.3543C80.0574 18.3863 80.0147 18.4023 79.9614 18.4023H78.0894C78.0361 18.4023 77.9881 18.3863 77.9454 18.3543C77.9134 18.3117 77.8974 18.2637 77.8974 18.2103V13.4263C77.8974 12.9997 77.7747 12.653 77.5294 12.3863C77.2947 12.1197 76.9801 11.9863 76.5854 11.9863C76.1907 11.9863 75.8707 12.1197 75.6254 12.3863C75.3907 12.653 75.2734 12.9997 75.2734 13.4263V18.2103C75.2734 18.2637 75.2521 18.3117 75.2094 18.3543C75.1774 18.3863 75.1347 18.4023 75.0814 18.4023H73.2094C73.1561 18.4023 73.1081 18.3863 73.0654 18.3543C73.0334 18.3117 73.0174 18.2637 73.0174 18.2103V7.39434C73.0174 7.34101 73.0334 7.29834 73.0654 7.26634C73.1081 7.22368 73.1561 7.20234 73.2094 7.20234H75.0814C75.1347 7.20234 75.1774 7.22368 75.2094 7.26634C75.2521 7.29834 75.2734 7.34101 75.2734 7.39434V10.9303C75.2734 10.9623 75.2841 10.9837 75.3054 10.9943C75.3267 11.005 75.3427 10.9997 75.3534 10.9783C75.7907 10.3597 76.4414 10.0503 77.3054 10.0503ZM88.6805 13.4423C88.7445 13.8477 88.7659 14.301 88.7445 14.8023C88.7339 14.9303 88.6645 14.9943 88.5365 14.9943H83.5925C83.5285 14.9943 83.5072 15.021 83.5285 15.0743C83.5605 15.2877 83.6192 15.501 83.7045 15.7143C83.9819 16.3117 84.5472 16.6103 85.4005 16.6103C86.0832 16.5997 86.6219 16.3223 87.0165 15.7783C87.0592 15.7143 87.1072 15.6823 87.1605 15.6823C87.1925 15.6823 87.2299 15.7037 87.2725 15.7463L88.4245 16.8823C88.4779 16.9357 88.5045 16.9837 88.5045 17.0263C88.5045 17.0477 88.4832 17.0903 88.4405 17.1543C88.0885 17.5917 87.6352 17.933 87.0805 18.1783C86.5259 18.413 85.9179 18.5303 85.2565 18.5303C84.3392 18.5303 83.5605 18.3223 82.9205 17.9063C82.2912 17.4903 81.8379 16.909 81.5605 16.1623C81.3365 15.629 81.2245 14.9303 81.2245 14.0663C81.2245 13.4797 81.3045 12.9623 81.4645 12.5143C81.7099 11.757 82.1365 11.1543 82.7445 10.7063C83.3632 10.2583 84.0939 10.0343 84.9365 10.0343C86.0032 10.0343 86.8565 10.3437 87.4965 10.9623C88.1472 11.581 88.5419 12.4077 88.6805 13.4423ZM84.9525 11.9863C84.2805 11.9863 83.8379 12.301 83.6245 12.9303C83.5819 13.069 83.5445 13.2397 83.5125 13.4423C83.5125 13.4957 83.5392 13.5223 83.5925 13.5223H86.3605C86.4245 13.5223 86.4459 13.4957 86.4245 13.4423C86.3712 13.133 86.3445 12.9837 86.3445 12.9943C86.2485 12.6743 86.0779 12.429 85.8325 12.2583C85.5979 12.077 85.3045 11.9863 84.9525 11.9863ZM94.1029 10.0503C94.9562 10.0503 95.6442 10.3117 96.1669 10.8343C96.6896 11.357 96.9509 12.0663 96.9509 12.9623V18.2103C96.9509 18.2637 96.9296 18.3117 96.8869 18.3543C96.8549 18.3863 96.8122 18.4023 96.7589 18.4023H94.8869C94.8336 18.4023 94.7856 18.3863 94.7429 18.3543C94.7109 18.3117 94.6949 18.2637 94.6949 18.2103V13.4263C94.6949 12.9997 94.5722 12.653 94.3269 12.3863C94.0922 12.1197 93.7776 11.9863 93.3829 11.9863C92.9882 11.9863 92.6682 12.1197 92.4229 12.3863C92.1882 12.653 92.0709 12.9997 92.0709 13.4263V18.2103C92.0709 18.2637 92.0496 18.3117 92.0069 18.3543C91.9749 18.3863 91.9322 18.4023 91.8789 18.4023H90.0069C89.9536 18.4023 89.9056 18.3863 89.8629 18.3543C89.8309 18.3117 89.8149 18.2637 89.8149 18.2103V10.3703C89.8149 10.317 89.8309 10.2743 89.8629 10.2423C89.9056 10.1997 89.9536 10.1783 90.0069 10.1783H91.8789C91.9322 10.1783 91.9749 10.1997 92.0069 10.2423C92.0496 10.2743 92.0709 10.317 92.0709 10.3703V10.9303C92.0709 10.9623 92.0816 10.9837 92.1029 10.9943C92.1242 11.005 92.1402 10.9997 92.1509 10.9783C92.5882 10.3597 93.2389 10.0503 94.1029 10.0503ZM98.1199 19.9703C97.9919 19.9703 97.9332 19.901 97.9439 19.7623L98.4719 16.0503C98.4826 15.933 98.5519 15.8743 98.6799 15.8743H100.312C100.451 15.8743 100.504 15.9437 100.472 16.0823L99.4799 19.8103C99.4479 19.917 99.3732 19.9703 99.2559 19.9703H98.1199ZM112.197 12.2743C112.4 12.829 112.501 13.4903 112.501 14.2583C112.501 14.9943 112.411 15.6397 112.229 16.1943C111.984 16.9197 111.589 17.4903 111.045 17.9063C110.512 18.3223 109.877 18.5303 109.141 18.5303C108.363 18.5303 107.749 18.237 107.301 17.6503C107.28 17.629 107.259 17.6237 107.237 17.6343C107.216 17.6343 107.205 17.6503 107.205 17.6823V18.2103C107.205 18.2637 107.184 18.3117 107.141 18.3543C107.109 18.3863 107.067 18.4023 107.013 18.4023H105.141C105.088 18.4023 105.04 18.3863 104.997 18.3543C104.965 18.3117 104.949 18.2637 104.949 18.2103V7.39434C104.949 7.34101 104.965 7.29834 104.997 7.26634C105.04 7.22368 105.088 7.20234 105.141 7.20234H107.013C107.067 7.20234 107.109 7.22368 107.141 7.26634C107.184 7.29834 107.205 7.34101 107.205 7.39434V10.8183C107.205 10.8503 107.216 10.8717 107.237 10.8823C107.259 10.893 107.28 10.8823 107.301 10.8503C107.717 10.317 108.309 10.0503 109.077 10.0503C109.856 10.0503 110.507 10.253 111.029 10.6583C111.563 11.053 111.952 11.5917 112.197 12.2743ZM109.829 15.9063C110.053 15.501 110.165 14.9677 110.165 14.3063C110.165 13.5703 110.037 13.005 109.781 12.6103C109.525 12.1943 109.147 11.9863 108.645 11.9863C108.176 11.9863 107.819 12.1943 107.573 12.6103C107.339 13.0157 107.221 13.5757 107.221 14.2903C107.221 15.005 107.328 15.5437 107.541 15.9063C107.797 16.365 108.171 16.5943 108.661 16.5943C109.184 16.5943 109.573 16.365 109.829 15.9063ZM117.245 18.5303C116.349 18.5303 115.581 18.2957 114.941 17.8263C114.301 17.357 113.864 16.717 113.629 15.9063C113.48 15.405 113.405 14.861 113.405 14.2743C113.405 13.645 113.48 13.0797 113.629 12.5783C113.874 11.789 114.317 11.1703 114.957 10.7223C115.597 10.2743 116.365 10.0503 117.261 10.0503C118.136 10.0503 118.882 10.2743 119.501 10.7223C120.12 11.1597 120.557 11.773 120.813 12.5623C120.984 13.0957 121.069 13.6557 121.069 14.2423C121.069 14.8183 120.994 15.357 120.845 15.8583C120.61 16.6903 120.173 17.3463 119.533 17.8263C118.904 18.2957 118.141 18.5303 117.245 18.5303ZM117.245 16.5943C117.597 16.5943 117.896 16.4877 118.141 16.2743C118.386 16.061 118.562 15.7677 118.669 15.3943C118.754 15.053 118.797 14.6797 118.797 14.2743C118.797 13.8263 118.754 13.4477 118.669 13.1383C118.552 12.7757 118.37 12.493 118.125 12.2903C117.88 12.0877 117.581 11.9863 117.229 11.9863C116.866 11.9863 116.562 12.0877 116.317 12.2903C116.082 12.493 115.912 12.7757 115.805 13.1383C115.72 13.3943 115.677 13.773 115.677 14.2743C115.677 14.7543 115.714 15.1277 115.789 15.3943C115.896 15.7677 116.072 16.061 116.317 16.2743C116.573 16.4877 116.882 16.5943 117.245 16.5943ZM125.831 18.5303C124.935 18.5303 124.167 18.2957 123.527 17.8263C122.887 17.357 122.45 16.717 122.215 15.9063C122.066 15.405 121.991 14.861 121.991 14.2743C121.991 13.645 122.066 13.0797 122.215 12.5783C122.461 11.789 122.903 11.1703 123.543 10.7223C124.183 10.2743 124.951 10.0503 125.847 10.0503C126.722 10.0503 127.469 10.2743 128.087 10.7223C128.706 11.1597 129.143 11.773 129.399 12.5623C129.57 13.0957 129.655 13.6557 129.655 14.2423C129.655 14.8183 129.581 15.357 129.431 15.8583C129.197 16.6903 128.759 17.3463 128.119 17.8263C127.49 18.2957 126.727 18.5303 125.831 18.5303ZM125.831 16.5943C126.183 16.5943 126.482 16.4877 126.727 16.2743C126.973 16.061 127.149 15.7677 127.255 15.3943C127.341 15.053 127.383 14.6797 127.383 14.2743C127.383 13.8263 127.341 13.4477 127.255 13.1383C127.138 12.7757 126.957 12.493 126.711 12.2903C126.466 12.0877 126.167 11.9863 125.815 11.9863C125.453 11.9863 125.149 12.0877 124.903 12.2903C124.669 12.493 124.498 12.7757 124.391 13.1383C124.306 13.3943 124.263 13.773 124.263 14.2743C124.263 14.7543 124.301 15.1277 124.375 15.3943C124.482 15.7677 124.658 16.061 124.903 16.2743C125.159 16.4877 125.469 16.5943 125.831 16.5943ZM130.978 18.4023C130.924 18.4023 130.876 18.3863 130.834 18.3543C130.802 18.3117 130.786 18.2637 130.786 18.2103V7.39434C130.786 7.34101 130.802 7.29834 130.834 7.26634C130.876 7.22368 130.924 7.20234 130.978 7.20234H132.85C132.903 7.20234 132.946 7.22368 132.978 7.26634C133.02 7.29834 133.042 7.34101 133.042 7.39434V12.7863C133.042 12.8183 133.052 12.8397 133.074 12.8503C133.095 12.8503 133.116 12.8397 133.138 12.8183L135.314 10.2903C135.388 10.2157 135.468 10.1783 135.554 10.1783H137.682C137.788 10.1783 137.842 10.2157 137.842 10.2903C137.842 10.3223 137.826 10.365 137.794 10.4183L135.762 12.9943C135.74 13.037 135.735 13.0743 135.746 13.1063L138.13 18.1783C138.151 18.221 138.162 18.253 138.162 18.2743C138.162 18.3597 138.103 18.4023 137.986 18.4023H136.018C135.911 18.4023 135.836 18.3543 135.794 18.2583L134.21 14.5143C134.199 14.493 134.178 14.4823 134.146 14.4823C134.124 14.4717 134.108 14.477 134.098 14.4983L133.074 15.7783C133.052 15.821 133.042 15.853 133.042 15.8743V18.2103C133.042 18.2637 133.02 18.3117 132.978 18.3543C132.946 18.3863 132.903 18.4023 132.85 18.4023H130.978ZM145.16 10.0503C145.853 10.0503 146.472 10.173 147.016 10.4183C147.56 10.653 147.981 10.9783 148.28 11.3943C148.589 11.8103 148.744 12.2743 148.744 12.7863V18.2103C148.744 18.2637 148.723 18.3117 148.68 18.3543C148.648 18.3863 148.605 18.4023 148.552 18.4023H146.68C146.627 18.4023 146.579 18.3863 146.536 18.3543C146.504 18.3117 146.488 18.2637 146.488 18.2103V17.6823C146.488 17.6503 146.477 17.629 146.456 17.6183C146.435 17.6077 146.413 17.6183 146.392 17.6503C145.944 18.237 145.224 18.5303 144.232 18.5303C143.4 18.5303 142.728 18.3277 142.216 17.9223C141.704 17.517 141.448 16.9197 141.448 16.1303C141.448 15.309 141.736 14.6743 142.312 14.2263C142.888 13.7677 143.709 13.5383 144.776 13.5383H146.408C146.461 13.5383 146.488 13.5117 146.488 13.4583V13.1063C146.488 12.7543 146.381 12.4823 146.168 12.2903C145.955 12.0877 145.635 11.9863 145.208 11.9863C144.877 11.9863 144.6 12.045 144.376 12.1623C144.163 12.2797 144.024 12.445 143.96 12.6583C143.928 12.7757 143.859 12.829 143.752 12.8183L141.816 12.5623C141.688 12.541 141.629 12.493 141.64 12.4183C141.683 11.9703 141.859 11.565 142.168 11.2023C142.488 10.8397 142.904 10.557 143.416 10.3543C143.939 10.1517 144.52 10.0503 145.16 10.0503ZM144.84 16.8503C145.299 16.8503 145.688 16.7277 146.008 16.4823C146.328 16.237 146.488 15.9223 146.488 15.5383V14.9623C146.488 14.909 146.461 14.8823 146.408 14.8823H145.256C144.776 14.8823 144.397 14.973 144.12 15.1543C143.853 15.3357 143.72 15.5917 143.72 15.9223C143.72 16.2103 143.821 16.4397 144.024 16.6103C144.227 16.7703 144.499 16.8503 144.84 16.8503ZM155.52 18.4023C155.403 18.4023 155.328 18.349 155.296 18.2423L152.464 7.41034L152.448 7.34634C152.448 7.25034 152.507 7.20234 152.624 7.20234H154.608C154.715 7.20234 154.784 7.25568 154.816 7.36234L156.336 13.8743C156.347 13.917 156.363 13.9383 156.384 13.9383C156.405 13.9383 156.421 13.917 156.432 13.8743L157.904 7.37834C157.936 7.26101 158.005 7.20234 158.112 7.20234H160.048C160.165 7.20234 160.24 7.25568 160.272 7.36234L161.872 13.8743C161.883 13.9063 161.899 13.9277 161.92 13.9383C161.941 13.9383 161.957 13.917 161.968 13.8743L163.44 7.37834C163.472 7.26101 163.541 7.20234 163.648 7.20234H165.536C165.685 7.20234 165.744 7.27168 165.712 7.41034L163.088 18.2423C163.056 18.349 162.981 18.4023 162.864 18.4023H160.96C160.853 18.4023 160.784 18.349 160.752 18.2423L159.12 11.3143C159.109 11.2717 159.093 11.2503 159.072 11.2503C159.051 11.2503 159.035 11.2717 159.024 11.3143L157.504 18.2263C157.483 18.3437 157.413 18.4023 157.296 18.4023H155.52ZM169.255 18.5303C168.359 18.5303 167.591 18.2957 166.951 17.8263C166.311 17.357 165.874 16.717 165.639 15.9063C165.49 15.405 165.415 14.861 165.415 14.2743C165.415 13.645 165.49 13.0797 165.639 12.5783C165.884 11.789 166.327 11.1703 166.967 10.7223C167.607 10.2743 168.375 10.0503 169.271 10.0503C170.146 10.0503 170.892 10.2743 171.511 10.7223C172.13 11.1597 172.567 11.773 172.823 12.5623C172.994 13.0957 173.079 13.6557 173.079 14.2423C173.079 14.8183 173.004 15.357 172.855 15.8583C172.62 16.6903 172.183 17.3463 171.543 17.8263C170.914 18.2957 170.151 18.5303 169.255 18.5303ZM169.255 16.5943C169.607 16.5943 169.906 16.4877 170.151 16.2743C170.396 16.061 170.572 15.7677 170.679 15.3943C170.764 15.053 170.807 14.6797 170.807 14.2743C170.807 13.8263 170.764 13.4477 170.679 13.1383C170.562 12.7757 170.38 12.493 170.135 12.2903C169.89 12.0877 169.591 11.9863 169.239 11.9863C168.876 11.9863 168.572 12.0877 168.327 12.2903C168.092 12.493 167.922 12.7757 167.815 13.1383C167.73 13.3943 167.687 13.773 167.687 14.2743C167.687 14.7543 167.724 15.1277 167.799 15.3943C167.906 15.7677 168.082 16.061 168.327 16.2743C168.583 16.4877 168.892 16.5943 169.255 16.5943ZM178.305 10.0663C178.689 10.0663 178.993 10.141 179.217 10.2903C179.303 10.333 179.335 10.413 179.313 10.5303L178.977 12.3543C178.967 12.4823 178.892 12.5197 178.753 12.4663C178.593 12.413 178.407 12.3863 178.193 12.3863C178.108 12.3863 177.991 12.397 177.841 12.4183C177.457 12.4503 177.132 12.5943 176.865 12.8503C176.599 13.0957 176.465 13.4263 176.465 13.8423V18.2103C176.465 18.2637 176.444 18.3117 176.401 18.3543C176.369 18.3863 176.327 18.4023 176.273 18.4023H174.401C174.348 18.4023 174.3 18.3863 174.257 18.3543C174.225 18.3117 174.209 18.2637 174.209 18.2103V10.3703C174.209 10.317 174.225 10.2743 174.257 10.2423C174.3 10.1997 174.348 10.1783 174.401 10.1783H176.273C176.327 10.1783 176.369 10.1997 176.401 10.2423C176.444 10.2743 176.465 10.317 176.465 10.3703V10.9783C176.465 11.0103 176.476 11.0317 176.497 11.0423C176.519 11.053 176.535 11.0477 176.545 11.0263C176.983 10.3863 177.569 10.0663 178.305 10.0663ZM180.206 18.4023C180.153 18.4023 180.105 18.3863 180.062 18.3543C180.03 18.3117 180.014 18.2637 180.014 18.2103V7.39434C180.014 7.34101 180.03 7.29834 180.062 7.26634C180.105 7.22368 180.153 7.20234 180.206 7.20234H182.078C182.132 7.20234 182.174 7.22368 182.206 7.26634C182.249 7.29834 182.27 7.34101 182.27 7.39434V12.7863C182.27 12.8183 182.281 12.8397 182.302 12.8503C182.324 12.8503 182.345 12.8397 182.366 12.8183L184.542 10.2903C184.617 10.2157 184.697 10.1783 184.782 10.1783H186.91C187.017 10.1783 187.07 10.2157 187.07 10.2903C187.07 10.3223 187.054 10.365 187.022 10.4183L184.99 12.9943C184.969 13.037 184.964 13.0743 184.974 13.1063L187.358 18.1783C187.38 18.221 187.39 18.253 187.39 18.2743C187.39 18.3597 187.332 18.4023 187.214 18.4023H185.246C185.14 18.4023 185.065 18.3543 185.022 18.2583L183.438 14.5143C183.428 14.493 183.406 14.4823 183.374 14.4823C183.353 14.4717 183.337 14.477 183.326 14.4983L182.302 15.7783C182.281 15.821 182.27 15.853 182.27 15.8743V18.2103C182.27 18.2637 182.249 18.3117 182.206 18.3543C182.174 18.3863 182.132 18.4023 182.078 18.4023H180.206ZM191.334 18.5143C190.619 18.5143 189.995 18.413 189.462 18.2103C188.928 18.0077 188.512 17.725 188.214 17.3623C187.926 16.9997 187.782 16.589 187.782 16.1303V15.9703C187.782 15.917 187.798 15.8743 187.83 15.8423C187.872 15.7997 187.92 15.7783 187.974 15.7783H189.75C189.803 15.7783 189.846 15.7997 189.878 15.8423C189.92 15.8743 189.942 15.917 189.942 15.9703V15.9863C189.942 16.221 190.07 16.4237 190.326 16.5943C190.592 16.7543 190.923 16.8343 191.318 16.8343C191.68 16.8343 191.974 16.765 192.198 16.6263C192.422 16.477 192.534 16.2957 192.534 16.0823C192.534 15.8903 192.438 15.7463 192.246 15.6503C192.054 15.5543 191.739 15.453 191.302 15.3463C190.8 15.2183 190.406 15.0957 190.118 14.9783C189.435 14.7437 188.891 14.4557 188.486 14.1143C188.08 13.773 187.878 13.2823 187.878 12.6423C187.878 11.853 188.182 11.229 188.79 10.7703C189.408 10.301 190.224 10.0663 191.238 10.0663C191.92 10.0663 192.518 10.1783 193.03 10.4023C193.542 10.6157 193.936 10.9197 194.214 11.3143C194.502 11.709 194.646 12.157 194.646 12.6583C194.646 12.7117 194.624 12.7597 194.582 12.8023C194.55 12.8343 194.507 12.8503 194.454 12.8503H192.742C192.688 12.8503 192.64 12.8343 192.598 12.8023C192.566 12.7597 192.55 12.7117 192.55 12.6583C192.55 12.4237 192.427 12.2263 192.182 12.0663C191.947 11.9063 191.632 11.8263 191.238 11.8263C190.886 11.8263 190.598 11.8903 190.374 12.0183C190.15 12.1463 190.038 12.3223 190.038 12.5463C190.038 12.7597 190.144 12.9197 190.358 13.0263C190.582 13.133 190.95 13.245 191.462 13.3623C191.579 13.3943 191.712 13.4317 191.862 13.4743C192.011 13.5063 192.171 13.549 192.342 13.6023C193.099 13.8263 193.696 14.1143 194.134 14.4663C194.571 14.8183 194.79 15.3303 194.79 16.0023C194.79 16.7917 194.475 17.4103 193.846 17.8583C193.227 18.2957 192.39 18.5143 191.334 18.5143ZM203.109 12.3863C203.301 12.9303 203.397 13.5703 203.397 14.3063C203.397 15.0423 203.296 15.709 203.093 16.3063C202.848 16.989 202.458 17.533 201.925 17.9383C201.402 18.333 200.752 18.5303 199.973 18.5303C199.205 18.5303 198.608 18.2637 198.181 17.7303C198.16 17.6983 198.138 17.6877 198.117 17.6983C198.096 17.709 198.085 17.7303 198.085 17.7623V21.1863C198.085 21.2397 198.064 21.2823 198.021 21.3143C197.989 21.357 197.946 21.3783 197.893 21.3783H196.021C195.968 21.3783 195.92 21.357 195.877 21.3143C195.845 21.2823 195.829 21.2397 195.829 21.1863V10.3703C195.829 10.317 195.845 10.2743 195.877 10.2423C195.92 10.1997 195.968 10.1783 196.021 10.1783H197.893C197.946 10.1783 197.989 10.1997 198.021 10.2423C198.064 10.2743 198.085 10.317 198.085 10.3703V10.8983C198.085 10.9303 198.096 10.9517 198.117 10.9623C198.138 10.9623 198.16 10.9517 198.181 10.9303C198.629 10.3437 199.248 10.0503 200.037 10.0503C200.773 10.0503 201.408 10.2583 201.941 10.6743C202.485 11.0797 202.874 11.6503 203.109 12.3863ZM200.661 15.9703C200.928 15.5543 201.061 14.989 201.061 14.2743C201.061 13.6023 200.949 13.069 200.725 12.6743C200.48 12.2157 200.085 11.9863 199.541 11.9863C199.05 11.9863 198.682 12.2157 198.437 12.6743C198.213 13.0583 198.101 13.597 198.101 14.2903C198.101 15.005 198.218 15.5597 198.453 15.9543C198.698 16.381 199.061 16.5943 199.541 16.5943C200.021 16.5943 200.394 16.3863 200.661 15.9703ZM207.819 10.0503C208.512 10.0503 209.131 10.173 209.675 10.4183C210.219 10.653 210.64 10.9783 210.939 11.3943C211.248 11.8103 211.403 12.2743 211.403 12.7863V18.2103C211.403 18.2637 211.381 18.3117 211.339 18.3543C211.307 18.3863 211.264 18.4023 211.211 18.4023H209.339C209.285 18.4023 209.237 18.3863 209.195 18.3543C209.163 18.3117 209.147 18.2637 209.147 18.2103V17.6823C209.147 17.6503 209.136 17.629 209.115 17.6183C209.093 17.6077 209.072 17.6183 209.051 17.6503C208.603 18.237 207.883 18.5303 206.891 18.5303C206.059 18.5303 205.387 18.3277 204.875 17.9223C204.363 17.517 204.107 16.9197 204.107 16.1303C204.107 15.309 204.395 14.6743 204.971 14.2263C205.547 13.7677 206.368 13.5383 207.435 13.5383H209.067C209.12 13.5383 209.147 13.5117 209.147 13.4583V13.1063C209.147 12.7543 209.04 12.4823 208.827 12.2903C208.613 12.0877 208.293 11.9863 207.867 11.9863C207.536 11.9863 207.259 12.045 207.035 12.1623C206.821 12.2797 206.683 12.445 206.619 12.6583C206.587 12.7757 206.517 12.829 206.411 12.8183L204.475 12.5623C204.347 12.541 204.288 12.493 204.299 12.4183C204.341 11.9703 204.517 11.565 204.827 11.2023C205.147 10.8397 205.563 10.557 206.075 10.3543C206.597 10.1517 207.179 10.0503 207.819 10.0503ZM207.499 16.8503C207.957 16.8503 208.347 16.7277 208.667 16.4823C208.987 16.237 209.147 15.9223 209.147 15.5383V14.9623C209.147 14.909 209.12 14.8823 209.067 14.8823H207.915C207.435 14.8823 207.056 14.973 206.779 15.1543C206.512 15.3357 206.379 15.5917 206.379 15.9223C206.379 16.2103 206.48 16.4397 206.683 16.6103C206.885 16.7703 207.157 16.8503 207.499 16.8503ZM216.288 18.5303C215.434 18.5303 214.693 18.317 214.064 17.8903C213.445 17.4637 213.002 16.877 212.736 16.1303C212.554 15.597 212.464 14.9677 212.464 14.2423C212.464 13.5277 212.554 12.909 212.736 12.3863C212.992 11.661 213.434 11.0903 214.064 10.6743C214.693 10.2583 215.434 10.0503 216.288 10.0503C217.141 10.0503 217.888 10.2637 218.528 10.6903C219.178 11.117 219.61 11.6557 219.824 12.3063C219.909 12.5623 219.952 12.7543 219.952 12.8823V12.9143C219.952 13.0103 219.898 13.069 219.792 13.0903L217.952 13.3623H217.92C217.824 13.3623 217.76 13.309 217.728 13.2023L217.68 12.9463C217.605 12.669 217.44 12.4397 217.184 12.2583C216.928 12.077 216.624 11.9863 216.272 11.9863C215.93 11.9863 215.642 12.0717 215.408 12.2423C215.173 12.413 215.008 12.6477 214.912 12.9463C214.794 13.2663 214.736 13.7037 214.736 14.2583C214.736 14.813 214.789 15.2503 214.896 15.5703C214.992 15.8903 215.157 16.141 215.392 16.3223C215.637 16.5037 215.93 16.5943 216.272 16.5943C216.602 16.5943 216.89 16.509 217.136 16.3383C217.392 16.157 217.568 15.9117 217.664 15.6023C217.674 15.581 217.68 15.549 217.68 15.5063C217.69 15.4957 217.696 15.4797 217.696 15.4583C217.706 15.3303 217.781 15.277 217.92 15.2983L219.76 15.5863C219.866 15.6077 219.92 15.6663 219.92 15.7623C219.92 15.8477 219.888 16.0077 219.824 16.2423C219.6 16.957 219.162 17.517 218.512 17.9223C217.872 18.3277 217.13 18.5303 216.288 18.5303ZM228.132 13.4423C228.196 13.8477 228.217 14.301 228.196 14.8023C228.185 14.9303 228.116 14.9943 227.988 14.9943H223.044C222.98 14.9943 222.958 15.021 222.98 15.0743C223.012 15.2877 223.07 15.501 223.156 15.7143C223.433 16.3117 223.998 16.6103 224.852 16.6103C225.534 16.5997 226.073 16.3223 226.468 15.7783C226.51 15.7143 226.558 15.6823 226.612 15.6823C226.644 15.6823 226.681 15.7037 226.724 15.7463L227.876 16.8823C227.929 16.9357 227.956 16.9837 227.956 17.0263C227.956 17.0477 227.934 17.0903 227.892 17.1543C227.54 17.5917 227.086 17.933 226.532 18.1783C225.977 18.413 225.369 18.5303 224.708 18.5303C223.79 18.5303 223.012 18.3223 222.372 17.9063C221.742 17.4903 221.289 16.909 221.012 16.1623C220.788 15.629 220.676 14.9303 220.676 14.0663C220.676 13.4797 220.756 12.9623 220.916 12.5143C221.161 11.757 221.588 11.1543 222.196 10.7063C222.814 10.2583 223.545 10.0343 224.388 10.0343C225.454 10.0343 226.308 10.3437 226.948 10.9623C227.598 11.581 227.993 12.4077 228.132 13.4423ZM224.404 11.9863C223.732 11.9863 223.289 12.301 223.076 12.9303C223.033 13.069 222.996 13.2397 222.964 13.4423C222.964 13.4957 222.99 13.5223 223.044 13.5223H225.812C225.876 13.5223 225.897 13.4957 225.876 13.4423C225.822 13.133 225.796 12.9837 225.796 12.9943C225.7 12.6743 225.529 12.429 225.284 12.2583C225.049 12.077 224.756 11.9863 224.404 11.9863ZM235.429 10.0503C236.123 10.0503 236.741 10.173 237.285 10.4183C237.829 10.653 238.251 10.9783 238.549 11.3943C238.859 11.8103 239.013 12.2743 239.013 12.7863V18.2103C239.013 18.2637 238.992 18.3117 238.949 18.3543C238.917 18.3863 238.875 18.4023 238.821 18.4023H236.949C236.896 18.4023 236.848 18.3863 236.805 18.3543C236.773 18.3117 236.757 18.2637 236.757 18.2103V17.6823C236.757 17.6503 236.747 17.629 236.725 17.6183C236.704 17.6077 236.683 17.6183 236.661 17.6503C236.213 18.237 235.493 18.5303 234.501 18.5303C233.669 18.5303 232.997 18.3277 232.485 17.9223C231.973 17.517 231.717 16.9197 231.717 16.1303C231.717 15.309 232.005 14.6743 232.581 14.2263C233.157 13.7677 233.979 13.5383 235.045 13.5383H236.677C236.731 13.5383 236.757 13.5117 236.757 13.4583V13.1063C236.757 12.7543 236.651 12.4823 236.437 12.2903C236.224 12.0877 235.904 11.9863 235.477 11.9863C235.147 11.9863 234.869 12.045 234.645 12.1623C234.432 12.2797 234.293 12.445 234.229 12.6583C234.197 12.7757 234.128 12.829 234.021 12.8183L232.085 12.5623C231.957 12.541 231.899 12.493 231.909 12.4183C231.952 11.9703 232.128 11.565 232.437 11.2023C232.757 10.8397 233.173 10.557 233.685 10.3543C234.208 10.1517 234.789 10.0503 235.429 10.0503ZM235.109 16.8503C235.568 16.8503 235.957 16.7277 236.277 16.4823C236.597 16.237 236.757 15.9223 236.757 15.5383V14.9623C236.757 14.909 236.731 14.8823 236.677 14.8823H235.525C235.045 14.8823 234.667 14.973 234.389 15.1543C234.123 15.3357 233.989 15.5917 233.989 15.9223C233.989 16.2103 234.091 16.4397 234.293 16.6103C234.496 16.7703 234.768 16.8503 235.109 16.8503ZM244.831 11.7943C244.831 11.8477 244.809 11.8957 244.767 11.9383C244.735 11.9703 244.692 11.9863 244.639 11.9863H243.103C243.049 11.9863 243.023 12.013 243.023 12.0663V15.4583C243.023 15.8103 243.092 16.0717 243.231 16.2423C243.38 16.413 243.615 16.4983 243.935 16.4983H244.463C244.516 16.4983 244.559 16.5197 244.591 16.5623C244.633 16.5943 244.655 16.637 244.655 16.6903V18.2103C244.655 18.3277 244.591 18.397 244.463 18.4183C244.015 18.4397 243.695 18.4503 243.503 18.4503C242.617 18.4503 241.956 18.3063 241.519 18.0183C241.081 17.7197 240.857 17.165 240.847 16.3543V12.0663C240.847 12.013 240.82 11.9863 240.767 11.9863H239.855C239.801 11.9863 239.753 11.9703 239.711 11.9383C239.679 11.8957 239.663 11.8477 239.663 11.7943V10.3703C239.663 10.317 239.679 10.2743 239.711 10.2423C239.753 10.1997 239.801 10.1783 239.855 10.1783H240.767C240.82 10.1783 240.847 10.1517 240.847 10.0983V8.19434C240.847 8.14101 240.863 8.09834 240.895 8.06634C240.937 8.02368 240.985 8.00234 241.039 8.00234H242.831C242.884 8.00234 242.927 8.02368 242.959 8.06634C243.001 8.09834 243.023 8.14101 243.023 8.19434V10.0983C243.023 10.1517 243.049 10.1783 243.103 10.1783H244.639C244.692 10.1783 244.735 10.1997 244.767 10.2423C244.809 10.2743 244.831 10.317 244.831 10.3703V11.7943ZM101.78 42.5303C100.926 42.5303 100.18 42.397 99.5398 42.1303C98.8998 41.853 98.4038 41.4637 98.0518 40.9623C97.7105 40.4503 97.5398 39.8583 97.5398 39.1863V38.8343C97.5398 38.781 97.5558 38.7383 97.5878 38.7063C97.6305 38.6637 97.6785 38.6423 97.7318 38.6423H99.5558C99.6092 38.6423 99.6518 38.6637 99.6838 38.7063C99.7265 38.7383 99.7478 38.781 99.7478 38.8343V39.0743C99.7478 39.501 99.9452 39.8637 100.34 40.1623C100.734 40.4503 101.268 40.5943 101.94 40.5943C102.505 40.5943 102.926 40.477 103.204 40.2423C103.481 39.997 103.62 39.6983 103.62 39.3463C103.62 39.0903 103.534 38.877 103.364 38.7063C103.193 38.525 102.958 38.3703 102.66 38.2423C102.372 38.1037 101.908 37.917 101.268 37.6823C100.553 37.437 99.9452 37.1863 99.4438 36.9303C98.9532 36.6743 98.5372 36.3277 98.1958 35.8903C97.8652 35.4423 97.6998 34.893 97.6998 34.2423C97.6998 33.6023 97.8652 33.0423 98.1958 32.5623C98.5265 32.0823 98.9852 31.7143 99.5718 31.4583C100.158 31.2023 100.836 31.0743 101.604 31.0743C102.414 31.0743 103.134 31.2183 103.764 31.5063C104.404 31.7943 104.9 32.1997 105.252 32.7223C105.615 33.2343 105.796 33.8317 105.796 34.5143V34.7543C105.796 34.8077 105.775 34.8557 105.732 34.8983C105.7 34.9303 105.657 34.9463 105.604 34.9463H103.764C103.71 34.9463 103.662 34.9303 103.62 34.8983C103.588 34.8557 103.572 34.8077 103.572 34.7543V34.6263C103.572 34.1783 103.385 33.7997 103.012 33.4903C102.649 33.1703 102.148 33.0103 101.508 33.0103C101.006 33.0103 100.612 33.117 100.324 33.3303C100.046 33.5437 99.9078 33.837 99.9078 34.2103C99.9078 34.477 99.9878 34.701 100.148 34.8823C100.318 35.0637 100.564 35.229 100.884 35.3783C101.214 35.517 101.721 35.709 102.404 35.9543C103.161 36.2317 103.753 36.477 104.18 36.6903C104.617 36.9037 105.006 37.2237 105.348 37.6503C105.7 38.0663 105.876 38.6103 105.876 39.2823C105.876 40.285 105.508 41.0797 104.772 41.6663C104.036 42.2423 103.038 42.5303 101.78 42.5303ZM110.623 42.5303C109.727 42.5303 108.959 42.2957 108.319 41.8263C107.679 41.357 107.242 40.717 107.007 39.9063C106.858 39.405 106.783 38.861 106.783 38.2743C106.783 37.645 106.858 37.0797 107.007 36.5783C107.253 35.789 107.695 35.1703 108.335 34.7223C108.975 34.2743 109.743 34.0503 110.639 34.0503C111.514 34.0503 112.261 34.2743 112.879 34.7223C113.498 35.1597 113.935 35.773 114.191 36.5623C114.362 37.0957 114.447 37.6557 114.447 38.2423C114.447 38.8183 114.373 39.357 114.223 39.8583C113.989 40.6903 113.551 41.3463 112.911 41.8263C112.282 42.2957 111.519 42.5303 110.623 42.5303ZM110.623 40.5943C110.975 40.5943 111.274 40.4877 111.519 40.2743C111.765 40.061 111.941 39.7677 112.047 39.3943C112.133 39.053 112.175 38.6797 112.175 38.2743C112.175 37.8263 112.133 37.4477 112.047 37.1383C111.93 36.7757 111.749 36.493 111.503 36.2903C111.258 36.0877 110.959 35.9863 110.607 35.9863C110.245 35.9863 109.941 36.0877 109.695 36.2903C109.461 36.493 109.29 36.7757 109.183 37.1383C109.098 37.3943 109.055 37.773 109.055 38.2743C109.055 38.7543 109.093 39.1277 109.167 39.3943C109.274 39.7677 109.45 40.061 109.695 40.2743C109.951 40.4877 110.261 40.5943 110.623 40.5943ZM115.77 42.4023C115.716 42.4023 115.668 42.3863 115.626 42.3543C115.594 42.3117 115.578 42.2637 115.578 42.2103V31.3943C115.578 31.341 115.594 31.2983 115.626 31.2663C115.668 31.2237 115.716 31.2023 115.77 31.2023H117.642C117.695 31.2023 117.738 31.2237 117.77 31.2663C117.812 31.2983 117.834 31.341 117.834 31.3943V42.2103C117.834 42.2637 117.812 42.3117 117.77 42.3543C117.738 42.3863 117.695 42.4023 117.642 42.4023H115.77ZM123.884 35.7943C123.884 35.8477 123.863 35.8957 123.82 35.9383C123.788 35.9703 123.745 35.9863 123.692 35.9863H122.156C122.103 35.9863 122.076 36.013 122.076 36.0663V39.4583C122.076 39.8103 122.145 40.0717 122.284 40.2423C122.433 40.413 122.668 40.4983 122.988 40.4983H123.516C123.569 40.4983 123.612 40.5197 123.644 40.5623C123.687 40.5943 123.708 40.637 123.708 40.6903V42.2103C123.708 42.3277 123.644 42.397 123.516 42.4183C123.068 42.4397 122.748 42.4503 122.556 42.4503C121.671 42.4503 121.009 42.3063 120.572 42.0183C120.135 41.7197 119.911 41.165 119.9 40.3543V36.0663C119.9 36.013 119.873 35.9863 119.82 35.9863H118.908C118.855 35.9863 118.807 35.9703 118.764 35.9383C118.732 35.8957 118.716 35.8477 118.716 35.7943V34.3703C118.716 34.317 118.732 34.2743 118.764 34.2423C118.807 34.1997 118.855 34.1783 118.908 34.1783H119.82C119.873 34.1783 119.9 34.1517 119.9 34.0983V32.1943C119.9 32.141 119.916 32.0983 119.948 32.0663C119.991 32.0237 120.039 32.0023 120.092 32.0023H121.884C121.937 32.0023 121.98 32.0237 122.012 32.0663C122.055 32.0983 122.076 32.141 122.076 32.1943V34.0983C122.076 34.1517 122.103 34.1783 122.156 34.1783H123.692C123.745 34.1783 123.788 34.1997 123.82 34.2423C123.863 34.2743 123.884 34.317 123.884 34.3703V35.7943ZM132.093 37.4423C132.157 37.8477 132.178 38.301 132.157 38.8023C132.146 38.9303 132.077 38.9943 131.949 38.9943H127.005C126.941 38.9943 126.919 39.021 126.941 39.0743C126.973 39.2877 127.031 39.501 127.117 39.7143C127.394 40.3117 127.959 40.6103 128.813 40.6103C129.495 40.5997 130.034 40.3223 130.429 39.7783C130.471 39.7143 130.519 39.6823 130.573 39.6823C130.605 39.6823 130.642 39.7037 130.685 39.7463L131.837 40.8823C131.89 40.9357 131.917 40.9837 131.917 41.0263C131.917 41.0477 131.895 41.0903 131.853 41.1543C131.501 41.5917 131.047 41.933 130.493 42.1783C129.938 42.413 129.33 42.5303 128.669 42.5303C127.751 42.5303 126.973 42.3223 126.333 41.9063C125.703 41.4903 125.25 40.909 124.973 40.1623C124.749 39.629 124.637 38.9303 124.637 38.0663C124.637 37.4797 124.717 36.9623 124.877 36.5143C125.122 35.757 125.549 35.1543 126.157 34.7063C126.775 34.2583 127.506 34.0343 128.349 34.0343C129.415 34.0343 130.269 34.3437 130.909 34.9623C131.559 35.581 131.954 36.4077 132.093 37.4423ZM128.365 35.9863C127.693 35.9863 127.25 36.301 127.037 36.9303C126.994 37.069 126.957 37.2397 126.925 37.4423C126.925 37.4957 126.951 37.5223 127.005 37.5223H129.773C129.837 37.5223 129.858 37.4957 129.837 37.4423C129.783 37.133 129.757 36.9837 129.757 36.9943C129.661 36.6743 129.49 36.429 129.245 36.2583C129.01 36.077 128.717 35.9863 128.365 35.9863ZM136.843 42.5303C135.99 42.5303 135.248 42.317 134.619 41.8903C134 41.4637 133.558 40.877 133.291 40.1303C133.11 39.597 133.019 38.9677 133.019 38.2423C133.019 37.5277 133.11 36.909 133.291 36.3863C133.547 35.661 133.99 35.0903 134.619 34.6743C135.248 34.2583 135.99 34.0503 136.843 34.0503C137.696 34.0503 138.443 34.2637 139.083 34.6903C139.734 35.117 140.166 35.6557 140.379 36.3063C140.464 36.5623 140.507 36.7543 140.507 36.8823V36.9143C140.507 37.0103 140.454 37.069 140.347 37.0903L138.507 37.3623H138.475C138.379 37.3623 138.315 37.309 138.283 37.2023L138.235 36.9463C138.16 36.669 137.995 36.4397 137.739 36.2583C137.483 36.077 137.179 35.9863 136.827 35.9863C136.486 35.9863 136.198 36.0717 135.963 36.2423C135.728 36.413 135.563 36.6477 135.467 36.9463C135.35 37.2663 135.291 37.7037 135.291 38.2583C135.291 38.813 135.344 39.2503 135.451 39.5703C135.547 39.8903 135.712 40.141 135.947 40.3223C136.192 40.5037 136.486 40.5943 136.827 40.5943C137.158 40.5943 137.446 40.509 137.691 40.3383C137.947 40.157 138.123 39.9117 138.219 39.6023C138.23 39.581 138.235 39.549 138.235 39.5063C138.246 39.4957 138.251 39.4797 138.251 39.4583C138.262 39.3303 138.336 39.277 138.475 39.2983L140.315 39.5863C140.422 39.6077 140.475 39.6663 140.475 39.7623C140.475 39.8477 140.443 40.0077 140.379 40.2423C140.155 40.957 139.718 41.517 139.067 41.9223C138.427 42.3277 137.686 42.5303 136.843 42.5303ZM148.48 34.0663C148.864 34.0663 149.168 34.141 149.392 34.2903C149.477 34.333 149.509 34.413 149.488 34.5303L149.152 36.3543C149.141 36.4823 149.067 36.5197 148.928 36.4663C148.768 36.413 148.581 36.3863 148.368 36.3863C148.283 36.3863 148.165 36.397 148.016 36.4183C147.632 36.4503 147.307 36.5943 147.04 36.8503C146.773 37.0957 146.64 37.4263 146.64 37.8423V42.2103C146.64 42.2637 146.619 42.3117 146.576 42.3543C146.544 42.3863 146.501 42.4023 146.448 42.4023H144.576C144.523 42.4023 144.475 42.3863 144.432 42.3543C144.4 42.3117 144.384 42.2637 144.384 42.2103V34.3703C144.384 34.317 144.4 34.2743 144.432 34.2423C144.475 34.1997 144.523 34.1783 144.576 34.1783H146.448C146.501 34.1783 146.544 34.1997 146.576 34.2423C146.619 34.2743 146.64 34.317 146.64 34.3703V34.9783C146.64 35.0103 146.651 35.0317 146.672 35.0423C146.693 35.053 146.709 35.0477 146.72 35.0263C147.157 34.3863 147.744 34.0663 148.48 34.0663ZM151.405 33.2503C151.042 33.2503 150.738 33.133 150.493 32.8983C150.258 32.653 150.141 32.349 150.141 31.9863C150.141 31.613 150.258 31.309 150.493 31.0743C150.728 30.8397 151.032 30.7223 151.405 30.7223C151.778 30.7223 152.082 30.8397 152.317 31.0743C152.552 31.309 152.669 31.613 152.669 31.9863C152.669 32.349 152.546 32.653 152.301 32.8983C152.066 33.133 151.768 33.2503 151.405 33.2503ZM150.445 42.4023C150.392 42.4023 150.344 42.3863 150.301 42.3543C150.269 42.3117 150.253 42.2637 150.253 42.2103V34.3543C150.253 34.301 150.269 34.2583 150.301 34.2263C150.344 34.1837 150.392 34.1623 150.445 34.1623H152.317C152.37 34.1623 152.413 34.1837 152.445 34.2263C152.488 34.2583 152.509 34.301 152.509 34.3543V42.2103C152.509 42.2637 152.488 42.3117 152.445 42.3543C152.413 42.3863 152.37 42.4023 152.317 42.4023H150.445ZM158.971 34.3703C158.971 34.317 158.987 34.2743 159.019 34.2423C159.062 34.1997 159.11 34.1783 159.163 34.1783H161.035C161.088 34.1783 161.131 34.1997 161.163 34.2423C161.206 34.2743 161.227 34.317 161.227 34.3703V41.6663C161.227 43.0637 160.822 44.061 160.011 44.6583C159.211 45.2557 158.176 45.5543 156.907 45.5543C156.534 45.5543 156.118 45.5277 155.659 45.4743C155.552 45.4637 155.499 45.3943 155.499 45.2663L155.563 43.6183C155.563 43.4797 155.638 43.421 155.787 43.4423C156.171 43.5063 156.523 43.5383 156.843 43.5383C157.526 43.5383 158.048 43.389 158.411 43.0903C158.784 42.7917 158.971 42.3117 158.971 41.6503C158.971 41.6183 158.96 41.6023 158.939 41.6023C158.918 41.5917 158.896 41.597 158.875 41.6183C158.47 42.0557 157.878 42.2743 157.099 42.2743C156.406 42.2743 155.766 42.109 155.179 41.7783C154.603 41.437 154.192 40.893 153.947 40.1463C153.787 39.6557 153.707 39.021 153.707 38.2423C153.707 37.4103 153.803 36.733 153.995 36.2103C154.219 35.5597 154.598 35.037 155.131 34.6423C155.664 34.2477 156.283 34.0503 156.987 34.0503C157.808 34.0503 158.438 34.2957 158.875 34.7863C158.896 34.8077 158.918 34.8183 158.939 34.8183C158.96 34.8077 158.971 34.7863 158.971 34.7543V34.3703ZM158.843 39.5383C158.928 39.2183 158.971 38.781 158.971 38.2263C158.971 37.8957 158.96 37.6397 158.939 37.4583C158.918 37.277 158.88 37.1063 158.827 36.9463C158.731 36.6583 158.571 36.429 158.347 36.2583C158.123 36.077 157.846 35.9863 157.515 35.9863C157.195 35.9863 156.923 36.077 156.699 36.2583C156.475 36.429 156.31 36.6583 156.203 36.9463C156.054 37.2663 155.979 37.6983 155.979 38.2423C155.979 38.8397 156.043 39.2663 156.171 39.5223C156.267 39.8103 156.432 40.045 156.667 40.2263C156.912 40.397 157.2 40.4823 157.531 40.4823C157.872 40.4823 158.155 40.397 158.379 40.2263C158.603 40.045 158.758 39.8157 158.843 39.5383ZM166.806 34.0503C167.659 34.0503 168.347 34.3117 168.87 34.8343C169.392 35.357 169.654 36.0663 169.654 36.9623V42.2103C169.654 42.2637 169.632 42.3117 169.59 42.3543C169.558 42.3863 169.515 42.4023 169.462 42.4023H167.59C167.536 42.4023 167.488 42.3863 167.446 42.3543C167.414 42.3117 167.398 42.2637 167.398 42.2103V37.4263C167.398 36.9997 167.275 36.653 167.03 36.3863C166.795 36.1197 166.48 35.9863 166.086 35.9863C165.691 35.9863 165.371 36.1197 165.126 36.3863C164.891 36.653 164.774 36.9997 164.774 37.4263V42.2103C164.774 42.2637 164.752 42.3117 164.71 42.3543C164.678 42.3863 164.635 42.4023 164.582 42.4023H162.71C162.656 42.4023 162.608 42.3863 162.566 42.3543C162.534 42.3117 162.518 42.2637 162.518 42.2103V31.3943C162.518 31.341 162.534 31.2983 162.566 31.2663C162.608 31.2237 162.656 31.2023 162.71 31.2023H164.582C164.635 31.2023 164.678 31.2237 164.71 31.2663C164.752 31.2983 164.774 31.341 164.774 31.3943V34.9303C164.774 34.9623 164.784 34.9837 164.806 34.9943C164.827 35.005 164.843 34.9997 164.854 34.9783C165.291 34.3597 165.942 34.0503 166.806 34.0503ZM175.668 35.7943C175.668 35.8477 175.646 35.8957 175.604 35.9383C175.572 35.9703 175.529 35.9863 175.476 35.9863H173.94C173.886 35.9863 173.86 36.013 173.86 36.0663V39.4583C173.86 39.8103 173.929 40.0717 174.068 40.2423C174.217 40.413 174.452 40.4983 174.772 40.4983H175.3C175.353 40.4983 175.396 40.5197 175.428 40.5623C175.47 40.5943 175.492 40.637 175.492 40.6903V42.2103C175.492 42.3277 175.428 42.397 175.3 42.4183C174.852 42.4397 174.532 42.4503 174.34 42.4503C173.454 42.4503 172.793 42.3063 172.356 42.0183C171.918 41.7197 171.694 41.165 171.684 40.3543V36.0663C171.684 36.013 171.657 35.9863 171.604 35.9863H170.692C170.638 35.9863 170.59 35.9703 170.548 35.9383C170.516 35.8957 170.5 35.8477 170.5 35.7943V34.3703C170.5 34.317 170.516 34.2743 170.548 34.2423C170.59 34.1997 170.638 34.1783 170.692 34.1783H171.604C171.657 34.1783 171.684 34.1517 171.684 34.0983V32.1943C171.684 32.141 171.7 32.0983 171.732 32.0663C171.774 32.0237 171.822 32.0023 171.876 32.0023H173.668C173.721 32.0023 173.764 32.0237 173.796 32.0663C173.838 32.0983 173.86 32.141 173.86 32.1943V34.0983C173.86 34.1517 173.886 34.1783 173.94 34.1783H175.476C175.529 34.1783 175.572 34.1997 175.604 34.2423C175.646 34.2743 175.668 34.317 175.668 34.3703V35.7943ZM183.877 34.0503C184.73 34.0503 185.418 34.3117 185.941 34.8343C186.464 35.357 186.725 36.0663 186.725 36.9623V42.2103C186.725 42.2637 186.704 42.3117 186.661 42.3543C186.629 42.3863 186.586 42.4023 186.533 42.4023H184.661C184.608 42.4023 184.56 42.3863 184.517 42.3543C184.485 42.3117 184.469 42.2637 184.469 42.2103V37.4263C184.469 36.9997 184.346 36.653 184.101 36.3863C183.866 36.1197 183.552 35.9863 183.157 35.9863C182.762 35.9863 182.442 36.1197 182.197 36.3863C181.962 36.653 181.845 36.9997 181.845 37.4263V42.2103C181.845 42.2637 181.824 42.3117 181.781 42.3543C181.749 42.3863 181.706 42.4023 181.653 42.4023H179.781C179.728 42.4023 179.68 42.3863 179.637 42.3543C179.605 42.3117 179.589 42.2637 179.589 42.2103V34.3703C179.589 34.317 179.605 34.2743 179.637 34.2423C179.68 34.1997 179.728 34.1783 179.781 34.1783H181.653C181.706 34.1783 181.749 34.1997 181.781 34.2423C181.824 34.2743 181.845 34.317 181.845 34.3703V34.9303C181.845 34.9623 181.856 34.9837 181.877 34.9943C181.898 35.005 181.914 34.9997 181.925 34.9783C182.362 34.3597 183.013 34.0503 183.877 34.0503ZM191.604 42.5303C190.708 42.5303 189.94 42.2957 189.3 41.8263C188.66 41.357 188.223 40.717 187.988 39.9063C187.839 39.405 187.764 38.861 187.764 38.2743C187.764 37.645 187.839 37.0797 187.988 36.5783C188.233 35.789 188.676 35.1703 189.316 34.7223C189.956 34.2743 190.724 34.0503 191.62 34.0503C192.495 34.0503 193.241 34.2743 193.86 34.7223C194.479 35.1597 194.916 35.773 195.172 36.5623C195.343 37.0957 195.428 37.6557 195.428 38.2423C195.428 38.8183 195.353 39.357 195.204 39.8583C194.969 40.6903 194.532 41.3463 193.892 41.8263C193.263 42.2957 192.5 42.5303 191.604 42.5303ZM191.604 40.5943C191.956 40.5943 192.255 40.4877 192.5 40.2743C192.745 40.061 192.921 39.7677 193.028 39.3943C193.113 39.053 193.156 38.6797 193.156 38.2743C193.156 37.8263 193.113 37.4477 193.028 37.1383C192.911 36.7757 192.729 36.493 192.484 36.2903C192.239 36.0877 191.94 35.9863 191.588 35.9863C191.225 35.9863 190.921 36.0877 190.676 36.2903C190.441 36.493 190.271 36.7757 190.164 37.1383C190.079 37.3943 190.036 37.773 190.036 38.2743C190.036 38.7543 190.073 39.1277 190.148 39.3943C190.255 39.7677 190.431 40.061 190.676 40.2743C190.932 40.4877 191.241 40.5943 191.604 40.5943ZM198.153 42.4023C198.036 42.4023 197.961 42.349 197.929 42.2423L195.625 34.3863L195.609 34.3223C195.609 34.2157 195.668 34.1623 195.785 34.1623H197.721C197.839 34.1623 197.913 34.2157 197.945 34.3223L199.097 39.1543C199.108 39.1863 199.124 39.2023 199.145 39.2023C199.167 39.2023 199.183 39.1863 199.193 39.1543L200.393 34.3223C200.425 34.2157 200.5 34.1623 200.617 34.1623H202.297C202.415 34.1623 202.489 34.2157 202.521 34.3223L203.785 39.1703C203.796 39.2023 203.812 39.2183 203.833 39.2183C203.855 39.2183 203.871 39.2023 203.881 39.1703L205.129 34.3223C205.161 34.2157 205.236 34.1623 205.353 34.1623L207.273 34.1943C207.337 34.1943 207.38 34.2157 207.401 34.2583C207.433 34.2903 207.444 34.3383 207.433 34.4023L205.097 42.2423C205.065 42.349 204.996 42.4023 204.889 42.4023H202.953C202.836 42.4023 202.761 42.349 202.729 42.2423L201.497 37.9543C201.487 37.9223 201.471 37.9063 201.449 37.9063C201.428 37.9063 201.412 37.9223 201.401 37.9543L200.313 42.2423C200.281 42.349 200.207 42.4023 200.089 42.4023H198.153ZM208.986 42.4663C208.624 42.4663 208.32 42.349 208.074 42.1143C207.84 41.869 207.722 41.565 207.722 41.2023C207.722 40.829 207.84 40.525 208.074 40.2903C208.309 40.0557 208.613 39.9383 208.986 39.9383C209.36 39.9383 209.664 40.0557 209.898 40.2903C210.133 40.525 210.25 40.829 210.25 41.2023C210.25 41.565 210.128 41.869 209.882 42.1143C209.648 42.349 209.349 42.4663 208.986 42.4663Z" fill="white"/>
<path d="M32.4943 12.4023C29.4828 12.4023 26.4712 12.4023 23.4597 12.4023C21.3844 12.4023 19.3091 12.4023 17.2338 12.4023C15.6947 12.4023 13.2095 13.2692 11.7574 14.2445C9.67568 15.6427 8.36686 17.4617 6.81054 19.697C4.73549 22.6773 3.47244 25.9704 2.50391 29.802C-1.37116 45.1319 6.9841 60.6676 14.4002 71.2445" stroke="white" stroke-width="3" stroke-linecap="round"/>
<path d="M1.59888 64.1052C3.86055 64.854 5.71668 66.7444 7.87157 68.1968C7.87157 68.1968 8.6215 68.9712 9.74402 69.6847C10.6248 70.2444 12.3364 71.3333 13.052 71.9164C13.5069 72.2872 13.9401 72.4432 14.3939 72.8257C15.3118 73.5993 15.296 74.0808 15.0805 73.0737C13.8331 67.243 15.6422 61.3401 15.6422 55.55" stroke="white" stroke-width="3" stroke-linecap="round"/>
<path d="M275.689 12.4023C278.7 12.4023 281.712 12.4023 284.723 12.4023C286.799 12.4023 288.874 12.4023 290.949 12.4023C292.488 12.4023 294.973 13.2692 296.426 14.2445C298.507 15.6427 299.816 17.4617 301.372 19.697C303.447 22.6773 304.711 25.9704 305.679 29.802C309.554 45.1319 301.199 60.6676 293.783 71.2445" stroke="white" stroke-width="3" stroke-linecap="round"/>
<path d="M306.584 64.1052C304.322 64.854 302.466 66.7444 300.311 68.1968C300.311 68.1968 299.561 68.9712 298.439 69.6847C297.558 70.2444 295.846 71.3333 295.131 71.9164C294.676 72.2872 294.243 72.4432 293.789 72.8257C292.871 73.5993 292.887 74.0808 293.102 73.0737C294.35 67.243 292.541 61.3401 292.541 55.55" stroke="white" stroke-width="3" stroke-linecap="round"/>
</svg>
