<svg width="25" height="24" viewBox="0 0 25 24" fill="none" xmlns="http://www.w3.org/2000/svg">
<path d="M9.50002 16.1701L6.03002 12.7001C5.84305 12.5131 5.58945 12.4081 5.32502 12.4081C5.0606 12.4081 4.807 12.5131 4.62002 12.7001C4.43305 12.8871 4.328 13.1407 4.328 13.4051C4.328 13.536 4.35379 13.6657 4.4039 13.7866C4.454 13.9076 4.52744 14.0175 4.62002 14.1101L8.80002 18.2901C9.19002 18.6801 9.82002 18.6801 10.21 18.2901L20.79 7.71008C20.977 7.5231 21.082 7.2695 21.082 7.00508C21.082 6.74065 20.977 6.48706 20.79 6.30008C20.603 6.1131 20.3494 6.00806 20.085 6.00806C19.8206 6.00806 19.567 6.1131 19.38 6.30008L9.50002 16.1701Z" fill="#0043CE"/>
</svg>
