<svg width="33" height="32" viewBox="0 0 33 32" fill="none" xmlns="http://www.w3.org/2000/svg">
<path d="M10.447 25.7867H7.88696C3.96696 25.5067 2.20703 22.4934 2.20703 19.8134C2.20703 17.1334 3.96698 14.1067 7.82031 13.8401C8.36698 13.7867 8.84696 14.2134 8.88696 14.7734C8.92696 15.3201 8.51369 15.8001 7.95369 15.8401C5.36703 16.0267 4.20703 17.9734 4.20703 19.8267C4.20703 21.6801 5.36703 23.6267 7.95369 23.8134H10.447C10.9937 23.8134 11.447 24.2667 11.447 24.8134C11.447 25.3601 10.9937 25.7867 10.447 25.7867Z" fill="#9DA1A7"/>
<path d="M22.7266 25.7866C22.6999 25.7866 22.6866 25.7866 22.6599 25.7866C22.1133 25.7866 21.6066 25.3333 21.6066 24.7866C21.6066 24.2133 22.0333 23.7866 22.5933 23.7866C24.2333 23.7866 25.6999 23.2133 26.8466 22.1866C28.9266 20.3733 29.0599 17.76 28.4999 15.92C27.9399 14.0933 26.3799 12 23.6599 11.6666C23.2199 11.6133 22.8732 11.28 22.7932 10.84C22.2599 7.63997 20.5399 5.42663 17.9266 4.62663C15.2333 3.78663 12.0866 4.6133 10.1266 6.66663C8.21989 8.6533 7.7799 11.44 8.88656 14.5066C9.07323 15.0266 8.80663 15.6 8.28663 15.7866C7.76663 15.9733 7.19327 15.7066 7.0066 15.1866C5.65993 11.4266 6.27328 7.82663 8.68661 5.2933C11.1533 2.70663 15.1133 1.67995 18.5133 2.71995C21.6333 3.67995 23.8332 6.25329 24.6332 9.82662C27.3532 10.44 29.5399 12.5066 30.4066 15.36C31.3532 18.4666 30.4999 21.6666 28.1666 23.6933C26.6866 25.0266 24.7532 25.7866 22.7266 25.7866Z" fill="#9DA1A7"/>
<path d="M16.5 29.7067C13.82 29.7067 11.3134 28.28 9.94006 25.9733C9.7934 25.7467 9.64673 25.48 9.52673 25.1867C9.0734 24.24 8.83337 23.16 8.83337 22.04C8.83337 17.8134 12.2734 14.3734 16.5 14.3734C20.7267 14.3734 24.1667 17.8134 24.1667 22.04C24.1667 23.1734 23.9267 24.24 23.4467 25.2267C23.3401 25.48 23.1934 25.7467 23.0334 26C21.6867 28.28 19.18 29.7067 16.5 29.7067ZM16.5 16.3734C13.38 16.3734 10.8334 18.92 10.8334 22.04C10.8334 22.8667 11.0067 23.64 11.34 24.3467C11.4467 24.5733 11.54 24.76 11.6467 24.9334C12.66 26.6534 14.5134 27.7067 16.4867 27.7067C18.46 27.7067 20.3134 26.6534 21.3134 24.96C21.4334 24.76 21.5401 24.5733 21.6201 24.3867C21.9801 23.6533 22.1534 22.88 22.1534 22.0533C22.1667 18.92 19.62 16.3734 16.5 16.3734Z" fill="#9DA1A7"/>
<path d="M15.7399 24.36C15.4866 24.36 15.2333 24.2666 15.0333 24.0666L13.7132 22.7466C13.3266 22.3599 13.3266 21.72 13.7132 21.3333C14.0999 20.9466 14.7399 20.9466 15.1265 21.3333L15.7666 21.9733L17.8999 20C18.3132 19.6266 18.9399 19.6533 19.3132 20.0533C19.6866 20.4533 19.6599 21.0933 19.2599 21.4666L16.4199 24.0933C16.2199 24.2666 15.9799 24.36 15.7399 24.36Z" fill="#9DA1A7"/>
</svg>
