<svg width="20" height="20" viewBox="0 0 20 20" fill="none" xmlns="http://www.w3.org/2000/svg">
<path d="M5.42824 1.6665C4.34135 1.77361 3.60973 2.01569 3.06366 2.56279C2.08423 3.54408 2.08423 5.12344 2.08423 8.28216V11.6325C2.08423 14.7913 2.08423 16.3706 3.06366 17.3519C4.0431 18.3332 5.61948 18.3332 8.77224 18.3332H10.4442C13.597 18.3332 15.1734 18.3332 16.1528 17.3519C17.0417 16.4613 17.1239 15.0878 17.1315 12.4803M8.77183 5.83328L9.60783 8.74992C10.0747 9.67492 10.6604 9.91692 12.1157 9.99992C13.2733 9.97125 13.9454 9.83492 14.518 9.33659C14.9089 8.99634 15.086 8.48417 15.1713 7.97391L15.4596 6.24995M17.5494 4.58328V8.74992M7.16739 4.11033C8.48974 3.01351 9.66849 2.4243 12.1124 1.77585C12.3877 1.7028 12.6788 1.70418 12.9534 1.77971C15.1172 2.3749 16.2849 2.90297 17.8501 4.07789C17.9172 4.12825 17.9367 4.22114 17.8897 4.29049C17.3797 5.0425 16.2382 5.65111 13.4402 6.7365C12.8586 6.96215 12.2104 6.95692 11.6306 6.72659C8.65066 5.5428 7.2811 4.91043 7.11482 4.25244C7.10142 4.1994 7.12522 4.14531 7.16739 4.11033Z" stroke="#fff" stroke-width="1.5" stroke-linecap="round" stroke-linejoin="round"/>
</svg>
