<svg width="75" height="30" viewBox="0 0 75 30" fill="none" xmlns="http://www.w3.org/2000/svg">
<path d="M18.156 4.82556C18.156 4.94556 18.108 5.05356 18.012 5.14956C17.94 5.22156 17.844 5.25756 17.724 5.25756H5.952C5.832 5.25756 5.772 5.31756 5.772 5.43756V11.0176C5.772 11.1376 5.832 11.1976 5.952 11.1976H13.692C13.812 11.1976 13.908 11.2456 13.98 11.3416C14.076 11.4136 14.124 11.5096 14.124 11.6296V15.1216C14.124 15.2416 14.076 15.3496 13.98 15.4456C13.908 15.5176 13.812 15.5536 13.692 15.5536H5.952C5.832 15.5536 5.772 15.6136 5.772 15.7336V25.6696C5.772 25.7896 5.724 25.8976 5.628 25.9936C5.556 26.0656 5.46 26.1016 5.34 26.1016H1.128C1.008 26.1016 0.9 26.0656 0.804 25.9936C0.732 25.8976 0.696 25.7896 0.696 25.6696V1.33356C0.696 1.21356 0.732 1.11756 0.804 1.04556C0.9 0.949561 1.008 0.901561 1.128 0.901561H17.724C17.844 0.901561 17.94 0.949561 18.012 1.04556C18.108 1.11756 18.156 1.21356 18.156 1.33356V4.82556ZM32.968 26.1016C32.728 26.1016 32.572 25.9816 32.5 25.7416L31.42 22.2136C31.372 22.1176 31.312 22.0696 31.24 22.0696H22.384C22.312 22.0696 22.252 22.1176 22.204 22.2136L21.16 25.7416C21.088 25.9816 20.932 26.1016 20.692 26.1016H16.12C15.976 26.1016 15.868 26.0656 15.796 25.9936C15.724 25.8976 15.712 25.7656 15.76 25.5976L23.536 1.26156C23.608 1.02156 23.764 0.901561 24.004 0.901561H29.656C29.896 0.901561 30.052 1.02156 30.124 1.26156L37.9 25.5976C37.924 25.6456 37.936 25.7056 37.936 25.7776C37.936 25.9936 37.804 26.1016 37.54 26.1016H32.968ZM23.5 17.9296C23.476 18.0736 23.524 18.1456 23.644 18.1456H29.98C30.124 18.1456 30.172 18.0736 30.124 17.9296L26.884 7.23756C26.86 7.14156 26.824 7.10556 26.776 7.12956C26.728 7.12956 26.692 7.16556 26.668 7.23756L23.5 17.9296ZM47.7069 0.613562C49.5309 0.613562 51.1389 0.985562 52.5309 1.72956C53.9229 2.47356 55.0029 3.52956 55.7709 4.89756C56.5389 6.26556 56.9229 7.84956 56.9229 9.64956V17.7136C56.9229 19.8496 56.3469 21.6616 55.1949 23.1496C54.0429 24.6136 52.4589 25.5856 50.4429 26.0656C50.3469 26.0896 50.2989 26.1496 50.2989 26.2456V29.1976C50.2989 29.3176 50.2509 29.4136 50.1549 29.4856C50.0829 29.5816 49.9869 29.6296 49.8669 29.6296H45.6549C45.5349 29.6296 45.4269 29.5816 45.3309 29.4856C45.2589 29.4136 45.2229 29.3176 45.2229 29.1976V26.2816C45.2229 26.1856 45.1749 26.1256 45.0789 26.1016C43.0629 25.6216 41.4669 24.6376 40.2909 23.1496C39.1149 21.6616 38.5269 19.8496 38.5269 17.7136V9.64956C38.5269 7.84956 38.9109 6.27756 39.6789 4.93356C40.4469 3.56556 41.5269 2.50956 42.9189 1.76556C44.3109 0.997562 45.9069 0.613562 47.7069 0.613562ZM51.8469 9.39756C51.8469 8.07756 51.4629 7.00956 50.6949 6.19356C49.9509 5.37756 48.9549 4.96956 47.7069 4.96956C46.4829 4.96956 45.4869 5.37756 44.7189 6.19356C43.9749 7.00956 43.6029 8.07756 43.6029 9.39756V17.6056C43.6029 18.9256 43.9749 19.9936 44.7189 20.8096C45.4869 21.6256 46.4829 22.0336 47.7069 22.0336C48.9549 22.0336 49.9509 21.6256 50.6949 20.8096C51.4629 19.9936 51.8469 18.9256 51.8469 17.6056V9.39756ZM66.5628 26.3536C64.9548 26.3536 63.5508 26.1256 62.3508 25.6696C61.1508 25.2136 60.2148 24.5776 59.5428 23.7616C58.8948 22.9456 58.5708 22.0216 58.5708 20.9896V20.6296C58.5708 20.5096 58.6068 20.4136 58.6788 20.3416C58.7748 20.2456 58.8828 20.1976 59.0028 20.1976H62.9988C63.1188 20.1976 63.2148 20.2456 63.2868 20.3416C63.3828 20.4136 63.4308 20.5096 63.4308 20.6296V20.6656C63.4308 21.1936 63.7188 21.6496 64.2948 22.0336C64.8948 22.3936 65.6388 22.5736 66.5268 22.5736C67.3428 22.5736 68.0028 22.4176 68.5068 22.1056C69.0108 21.7696 69.2628 21.3616 69.2628 20.8816C69.2628 20.4496 69.0468 20.1256 68.6148 19.9096C68.1828 19.6936 67.4748 19.4656 66.4908 19.2256C65.3628 18.9376 64.4748 18.6616 63.8268 18.3976C62.2908 17.8696 61.0668 17.2216 60.1548 16.4536C59.2428 15.6856 58.7868 14.5816 58.7868 13.1416C58.7868 11.3656 59.4708 9.96156 60.8388 8.92956C62.2308 7.87356 64.0668 7.34556 66.3468 7.34556C67.8828 7.34556 69.2268 7.59756 70.3788 8.10156C71.5308 8.58156 72.4188 9.26556 73.0428 10.1536C73.6908 11.0416 74.0148 12.0496 74.0148 13.1776C74.0148 13.2976 73.9668 13.4056 73.8708 13.5016C73.7988 13.5736 73.7028 13.6096 73.5828 13.6096H69.7308C69.6108 13.6096 69.5028 13.5736 69.4068 13.5016C69.3348 13.4056 69.2988 13.2976 69.2988 13.1776C69.2988 12.6496 69.0228 12.2056 68.4708 11.8456C67.9428 11.4856 67.2348 11.3056 66.3468 11.3056C65.5548 11.3056 64.9068 11.4496 64.4028 11.7376C63.8988 12.0256 63.6468 12.4216 63.6468 12.9256C63.6468 13.4056 63.8868 13.7656 64.3668 14.0056C64.8708 14.2456 65.6988 14.4976 66.8508 14.7616C67.1148 14.8336 67.4148 14.9176 67.7508 15.0136C68.0868 15.0856 68.4468 15.1816 68.8308 15.3016C70.5348 15.8056 71.8788 16.4536 72.8628 17.2456C73.8468 18.0376 74.3388 19.1896 74.3388 20.7016C74.3388 22.4776 73.6308 23.8696 72.2148 24.8776C70.8228 25.8616 68.9388 26.3536 66.5628 26.3536Z" fill="url(#paint0_linear_156_2152)"/>
<defs>
<linearGradient id="paint0_linear_156_2152" x1="-14.1772" y1="-34.191" x2="119.522" y2="-23.3335" gradientUnits="userSpaceOnUse">
<stop stop-color="#0043CE"/>
<stop offset="0.06" stop-color="#7FA9FF"/>
<stop offset="1" stop-color="#E80808"/>
</linearGradient>
</defs>
</svg>
