<svg width="21" height="21" viewBox="0 0 21 21" fill="none" xmlns="http://www.w3.org/2000/svg">
<path d="M16.3327 7.34269H4.66602C3.28268 7.34269 2.16602 8.45936 2.16602 9.84269V13.176C2.16602 14.0927 2.91602 14.8427 3.83268 14.8427H5.49935V16.5094C5.49935 17.426 6.24935 18.176 7.16602 18.176H13.8327C14.7493 18.176 15.4993 17.426 15.4993 16.5094V14.8427H17.166C18.0827 14.8427 18.8327 14.0927 18.8327 13.176V9.84269C18.8327 8.45936 17.716 7.34269 16.3327 7.34269ZM12.9993 16.5094H7.99935C7.54102 16.5094 7.16602 16.1344 7.16602 15.676V12.3427H13.8327V15.676C13.8327 16.1344 13.4577 16.5094 12.9993 16.5094ZM16.3327 10.676C15.8743 10.676 15.4993 10.301 15.4993 9.84269C15.4993 9.38436 15.8743 9.00936 16.3327 9.00936C16.791 9.00936 17.166 9.38436 17.166 9.84269C17.166 10.301 16.791 10.676 16.3327 10.676ZM14.666 3.17603H6.33268C5.87435 3.17603 5.49935 3.55103 5.49935 4.00936V5.67603C5.49935 6.13436 5.87435 6.50936 6.33268 6.50936H14.666C15.1243 6.50936 15.4993 6.13436 15.4993 5.67603V4.00936C15.4993 3.55103 15.1243 3.17603 14.666 3.17603Z" fill="#121619"/>
</svg>
