<svg width="43" height="44" viewBox="0 0 43 44" fill="none" xmlns="http://www.w3.org/2000/svg">
<path fill-rule="evenodd" clip-rule="evenodd" d="M30.2878 1.66897L30.4198 1.70497C32.6198 2.29497 34.3618 2.76097 35.7318 3.25697C37.1338 3.76297 38.2778 4.34097 39.2198 5.22297C40.5908 6.50802 41.5499 8.17079 41.9758 10.001C42.2698 11.257 42.1998 12.537 41.9358 14.003C41.6818 15.439 41.2158 17.181 40.6258 19.379L39.5538 23.377C38.9658 25.575 38.4978 27.317 38.0038 28.689C37.4958 30.089 36.9178 31.233 36.0358 32.175C34.7927 33.5023 33.1948 34.445 31.4318 34.891C30.9152 36.0752 30.1625 37.1416 29.2198 38.025C28.2778 38.907 27.1338 39.485 25.7318 39.993C24.3618 40.489 22.6198 40.955 20.4218 41.545L20.2878 41.581C18.0878 42.169 16.3478 42.635 14.9118 42.893C13.4458 43.155 12.1658 43.225 10.9078 42.933C9.07784 42.5056 7.41576 41.5451 6.13178 40.173C5.25178 39.233 4.67178 38.089 4.16378 36.687C3.66978 35.317 3.20378 33.575 2.61378 31.375L1.54178 27.379C0.953777 25.179 0.485777 23.439 0.229777 22.003C-0.0322227 20.537 -0.102223 19.257 0.189777 17.999C0.617161 16.169 1.57766 14.507 2.94978 13.223C3.88978 12.343 5.03378 11.763 6.43578 11.255C7.80578 10.761 9.54778 10.295 11.7458 9.70497L11.8138 9.68497L13.3158 9.28497C14.0998 6.48697 14.7878 4.50897 16.1318 3.07497C17.416 1.70359 19.0781 0.743804 20.9078 0.316975C22.1658 0.0249746 23.4438 0.0949745 24.9118 0.356975C26.3458 0.612975 28.0878 1.08097 30.2878 1.66897ZM12.4098 12.633C10.2238 13.219 8.65778 13.643 7.45378 14.077C6.23378 14.517 5.51978 14.925 4.99978 15.413C4.06108 16.2916 3.40404 17.4289 3.11178 18.681C2.95178 19.377 2.95378 20.201 3.18378 21.475C3.41378 22.769 3.84778 24.389 4.45778 26.669L5.49378 30.533C6.10378 32.813 6.53978 34.433 6.98578 35.667C7.42578 36.887 7.83378 37.603 8.32178 38.123C9.2004 39.0617 10.3377 39.7187 11.5898 40.011C12.2838 40.171 13.1098 40.167 14.3838 39.939C15.6778 39.709 17.2978 39.275 19.5778 38.665C21.8578 38.053 23.4778 37.619 24.7138 37.171C25.9318 36.731 26.6478 36.323 27.1678 35.837C27.4438 35.577 27.6938 35.297 27.9198 34.999C27.5487 34.946 27.1793 34.8826 26.8118 34.809C25.4678 34.541 23.8518 34.109 21.8618 33.575L21.7458 33.545C19.5478 32.955 17.8058 32.489 16.4358 31.993C15.0338 31.487 13.8898 30.909 12.9478 30.027C11.5761 28.7422 10.6162 27.0794 10.1898 25.249C9.89778 23.993 9.96778 22.713 10.2298 21.247C10.4858 19.811 10.9538 18.069 11.5418 15.871L12.4098 12.633ZM24.3838 3.31097C23.1078 3.08097 22.2838 3.07697 21.5898 3.23897C20.3377 3.53124 19.2004 4.18828 18.3218 5.12697C17.4498 6.05697 16.9118 7.49697 15.9798 10.913C15.8278 11.469 15.6678 12.067 15.4938 12.717L14.4578 16.581C13.8478 18.861 13.4138 20.481 13.1838 21.775C12.9538 23.049 12.9498 23.875 13.1118 24.569C13.404 25.8211 14.0611 26.9583 14.9998 27.837C15.5198 28.325 16.2358 28.731 17.4538 29.173C18.6898 29.619 20.3098 30.053 22.5898 30.665C24.6398 31.215 26.1598 31.621 27.3958 31.865C28.6258 32.111 29.4618 32.171 30.1458 32.087C30.2958 32.067 30.4378 32.043 30.5778 32.011C31.8299 31.7187 32.9672 31.0617 33.8458 30.123C34.3338 29.603 34.7418 28.887 35.1818 27.669C35.6278 26.433 36.0618 24.813 36.6738 22.533L37.7098 18.669C38.3198 16.389 38.7538 14.769 38.9838 13.475C39.2118 12.201 39.2178 11.375 39.0558 10.681C38.7635 9.42889 38.1065 8.2916 37.1678 7.41297C36.6478 6.92497 35.9318 6.51897 34.7138 6.07697C33.4758 5.63097 31.8578 5.19697 29.5778 4.58497C27.2978 3.97497 25.6778 3.54097 24.3838 3.31097ZM19.6038 17.239C19.6548 17.0487 19.7429 16.8703 19.8629 16.714C19.9829 16.5577 20.1325 16.4266 20.3032 16.3282C20.4739 16.2298 20.6623 16.1659 20.8576 16.1403C21.053 16.1147 21.2515 16.1278 21.4418 16.179L31.1018 18.767C31.4754 18.8793 31.7905 19.1328 31.9803 19.4736C32.1702 19.8145 32.2197 20.2158 32.1185 20.5926C32.0173 20.9694 31.7733 21.2919 31.4382 21.4917C31.1031 21.6916 30.7034 21.753 30.3238 21.663L20.6638 19.075C20.2799 18.9719 19.9526 18.7206 19.7539 18.3763C19.5551 18.0321 19.5011 17.623 19.6038 17.239ZM18.0498 23.035C18.1008 22.8445 18.1889 22.6659 18.3091 22.5094C18.4292 22.353 18.579 22.2218 18.7499 22.1233C18.9208 22.0249 19.1095 21.9611 19.3051 21.9356C19.5007 21.9102 19.6994 21.9235 19.8898 21.975L25.6838 23.527C26.0681 23.6299 26.3958 23.8812 26.5947 24.2257C26.7937 24.5702 26.8477 24.9797 26.7448 25.364C26.6419 25.7483 26.3905 26.076 26.046 26.2749C25.7015 26.4739 25.2921 26.5279 24.9078 26.425L19.1118 24.871C18.7279 24.7679 18.4006 24.5166 18.2019 24.1723C18.0031 23.8281 17.9491 23.419 18.0518 23.035" fill="black"/>
</svg>
