<svg width="320" height="27" viewBox="0 0 320 27" fill="none" xmlns="http://www.w3.org/2000/svg">
<path d="M16.896 1.088C17.016 0.895998 17.184 0.799998 17.4 0.799998H21.612C21.732 0.799998 21.828 0.847998 21.9 0.943999C21.996 1.016 22.044 1.112 22.044 1.232V25.568C22.044 25.688 21.996 25.796 21.9 25.892C21.828 25.964 21.732 26 21.612 26H17.4C17.28 26 17.172 25.964 17.076 25.892C17.004 25.796 16.968 25.688 16.968 25.568V9.692C16.968 9.596 16.944 9.548 16.896 9.548C16.848 9.548 16.8 9.584 16.752 9.656L12.936 15.632C12.816 15.824 12.648 15.92 12.432 15.92H10.308C10.092 15.92 9.924 15.824 9.804 15.632L5.988 9.656C5.94 9.584 5.892 9.56 5.844 9.584C5.796 9.584 5.772 9.632 5.772 9.728V25.568C5.772 25.688 5.724 25.796 5.628 25.892C5.556 25.964 5.46 26 5.34 26H1.128C1.008 26 0.9 25.964 0.804 25.892C0.732 25.796 0.696 25.688 0.696 25.568V1.232C0.696 1.112 0.732 1.016 0.804 0.943999C0.9 0.847998 1.008 0.799998 1.128 0.799998H5.34C5.556 0.799998 5.724 0.895998 5.844 1.088L11.244 9.476C11.316 9.62 11.388 9.62 11.46 9.476L16.896 1.088ZM41.4064 14.84C41.5504 15.752 41.5984 16.772 41.5504 17.9C41.5264 18.188 41.3704 18.332 41.0824 18.332H29.9584C29.8144 18.332 29.7664 18.392 29.8144 18.512C29.8864 18.992 30.0184 19.472 30.2104 19.952C30.8344 21.296 32.1064 21.968 34.0264 21.968C35.5624 21.944 36.7744 21.32 37.6624 20.096C37.7584 19.952 37.8664 19.88 37.9864 19.88C38.0584 19.88 38.1424 19.928 38.2384 20.024L40.8304 22.58C40.9504 22.7 41.0104 22.808 41.0104 22.904C41.0104 22.952 40.9624 23.048 40.8664 23.192C40.0744 24.176 39.0544 24.944 37.8064 25.496C36.5584 26.024 35.1904 26.288 33.7024 26.288C31.6384 26.288 29.8864 25.82 28.4464 24.884C27.0304 23.948 26.0104 22.64 25.3864 20.96C24.8824 19.76 24.6304 18.188 24.6304 16.244C24.6304 14.924 24.8104 13.76 25.1704 12.752C25.7224 11.048 26.6824 9.692 28.0504 8.684C29.4424 7.676 31.0864 7.172 32.9824 7.172C35.3824 7.172 37.3024 7.868 38.7424 9.26C40.2064 10.652 41.0944 12.512 41.4064 14.84ZM33.0184 11.564C31.5064 11.564 30.5104 12.272 30.0304 13.688C29.9344 14 29.8504 14.384 29.7784 14.84C29.7784 14.96 29.8384 15.02 29.9584 15.02H36.1864C36.3304 15.02 36.3784 14.96 36.3304 14.84C36.2104 14.144 36.1504 13.808 36.1504 13.832C35.9344 13.112 35.5504 12.56 34.9984 12.176C34.4704 11.768 33.8104 11.564 33.0184 11.564ZM59.9787 14.84C60.1227 15.752 60.1707 16.772 60.1227 17.9C60.0987 18.188 59.9427 18.332 59.6547 18.332H48.5307C48.3867 18.332 48.3387 18.392 48.3867 18.512C48.4587 18.992 48.5907 19.472 48.7827 19.952C49.4067 21.296 50.6787 21.968 52.5987 21.968C54.1347 21.944 55.3467 21.32 56.2347 20.096C56.3307 19.952 56.4387 19.88 56.5587 19.88C56.6307 19.88 56.7147 19.928 56.8107 20.024L59.4027 22.58C59.5227 22.7 59.5827 22.808 59.5827 22.904C59.5827 22.952 59.5347 23.048 59.4387 23.192C58.6467 24.176 57.6267 24.944 56.3787 25.496C55.1307 26.024 53.7627 26.288 52.2747 26.288C50.2107 26.288 48.4587 25.82 47.0187 24.884C45.6027 23.948 44.5827 22.64 43.9587 20.96C43.4547 19.76 43.2027 18.188 43.2027 16.244C43.2027 14.924 43.3827 13.76 43.7427 12.752C44.2947 11.048 45.2547 9.692 46.6227 8.684C48.0147 7.676 49.6587 7.172 51.5547 7.172C53.9547 7.172 55.8747 7.868 57.3147 9.26C58.7787 10.652 59.6667 12.512 59.9787 14.84ZM51.5907 11.564C50.0787 11.564 49.0827 12.272 48.6027 13.688C48.5067 14 48.4227 14.384 48.3507 14.84C48.3507 14.96 48.4107 15.02 48.5307 15.02H54.7587C54.9027 15.02 54.9507 14.96 54.9027 14.84C54.7827 14.144 54.7227 13.808 54.7227 13.832C54.5067 13.112 54.1227 12.56 53.5707 12.176C53.0427 11.768 52.3827 11.564 51.5907 11.564ZM72.3692 11.132C72.3692 11.252 72.3212 11.36 72.2252 11.456C72.1532 11.528 72.0572 11.564 71.9372 11.564H68.4812C68.3612 11.564 68.3012 11.624 68.3012 11.744V19.376C68.3012 20.168 68.4572 20.756 68.7692 21.14C69.1052 21.524 69.6332 21.716 70.3532 21.716H71.5412C71.6612 21.716 71.7572 21.764 71.8292 21.86C71.9252 21.932 71.9732 22.028 71.9732 22.148V25.568C71.9732 25.832 71.8292 25.988 71.5412 26.036C70.5332 26.084 69.8132 26.108 69.3812 26.108C67.3892 26.108 65.9012 25.784 64.9172 25.136C63.9332 24.464 63.4292 23.216 63.4052 21.392V11.744C63.4052 11.624 63.3452 11.564 63.2252 11.564H61.1732C61.0532 11.564 60.9452 11.528 60.8492 11.456C60.7772 11.36 60.7412 11.252 60.7412 11.132V7.928C60.7412 7.808 60.7772 7.712 60.8492 7.64C60.9452 7.544 61.0532 7.496 61.1732 7.496H63.2252C63.3452 7.496 63.4052 7.436 63.4052 7.316V3.032C63.4052 2.912 63.4412 2.816 63.5132 2.744C63.6092 2.648 63.7172 2.6 63.8372 2.6H67.8692C67.9892 2.6 68.0852 2.648 68.1572 2.744C68.2532 2.816 68.3012 2.912 68.3012 3.032V7.316C68.3012 7.436 68.3612 7.496 68.4812 7.496H71.9372C72.0572 7.496 72.1532 7.544 72.2252 7.64C72.3212 7.712 72.3692 7.808 72.3692 7.928V11.132ZM87.6 25.964C87.48 25.964 87.372 25.928 87.276 25.856C87.204 25.76 87.168 25.652 87.168 25.532V16.424C87.168 16.328 87.156 16.256 87.132 16.208L79.716 1.304C79.668 1.208 79.644 1.136 79.644 1.088C79.644 0.895998 79.776 0.799998 80.04 0.799998H84.576C84.816 0.799998 84.984 0.907998 85.08 1.124L89.58 10.7C89.652 10.844 89.724 10.844 89.796 10.7L94.296 1.124C94.392 0.907998 94.56 0.799998 94.8 0.799998H99.408C99.576 0.799998 99.684 0.847998 99.732 0.943999C99.804 1.016 99.804 1.136 99.732 1.304L92.244 16.208C92.22 16.256 92.208 16.328 92.208 16.424V25.532C92.208 25.652 92.16 25.76 92.064 25.856C91.992 25.928 91.896 25.964 91.776 25.964H87.6ZM106.935 26.288C104.919 26.288 103.191 25.76 101.751 24.704C100.311 23.648 99.3271 22.208 98.7991 20.384C98.4631 19.256 98.2951 18.032 98.2951 16.712C98.2951 15.296 98.4631 14.024 98.7991 12.896C99.3511 11.12 100.347 9.728 101.787 8.72C103.227 7.712 104.955 7.208 106.971 7.208C108.939 7.208 110.619 7.712 112.011 8.72C113.403 9.704 114.387 11.084 114.963 12.86C115.347 14.06 115.539 15.32 115.539 16.64C115.539 17.936 115.371 19.148 115.035 20.276C114.507 22.148 113.523 23.624 112.083 24.704C110.667 25.76 108.951 26.288 106.935 26.288ZM106.935 21.932C107.727 21.932 108.399 21.692 108.951 21.212C109.503 20.732 109.899 20.072 110.139 19.232C110.331 18.464 110.427 17.624 110.427 16.712C110.427 15.704 110.331 14.852 110.139 14.156C109.875 13.34 109.467 12.704 108.915 12.248C108.363 11.792 107.691 11.564 106.899 11.564C106.083 11.564 105.399 11.792 104.847 12.248C104.319 12.704 103.935 13.34 103.695 14.156C103.503 14.732 103.407 15.584 103.407 16.712C103.407 17.792 103.491 18.632 103.659 19.232C103.899 20.072 104.295 20.732 104.847 21.212C105.423 21.692 106.119 21.932 106.935 21.932ZM128.522 7.928C128.522 7.808 128.558 7.712 128.63 7.64C128.726 7.544 128.834 7.496 128.954 7.496H133.166C133.286 7.496 133.382 7.544 133.454 7.64C133.55 7.712 133.598 7.808 133.598 7.928V25.568C133.598 25.688 133.55 25.796 133.454 25.892C133.382 25.964 133.286 26 133.166 26H128.954C128.834 26 128.726 25.964 128.63 25.892C128.558 25.796 128.522 25.688 128.522 25.568V24.344C128.522 24.272 128.498 24.236 128.45 24.236C128.402 24.212 128.354 24.236 128.306 24.308C127.346 25.604 125.858 26.252 123.842 26.252C122.018 26.252 120.518 25.7 119.342 24.596C118.166 23.492 117.578 21.944 117.578 19.952V7.928C117.578 7.808 117.614 7.712 117.686 7.64C117.782 7.544 117.89 7.496 118.01 7.496H122.186C122.306 7.496 122.402 7.544 122.474 7.64C122.57 7.712 122.618 7.808 122.618 7.928V18.692C122.618 19.652 122.87 20.432 123.374 21.032C123.902 21.632 124.622 21.932 125.534 21.932C126.35 21.932 127.022 21.692 127.55 21.212C128.078 20.708 128.402 20.06 128.522 19.268V7.928ZM145.475 7.244C146.339 7.244 147.023 7.412 147.527 7.748C147.719 7.844 147.791 8.024 147.743 8.288L146.987 12.392C146.963 12.68 146.795 12.764 146.483 12.644C146.123 12.524 145.703 12.464 145.223 12.464C145.031 12.464 144.767 12.488 144.431 12.536C143.567 12.608 142.835 12.932 142.235 13.508C141.635 14.06 141.335 14.804 141.335 15.74V25.568C141.335 25.688 141.287 25.796 141.191 25.892C141.119 25.964 141.023 26 140.903 26H136.691C136.571 26 136.463 25.964 136.367 25.892C136.295 25.796 136.259 25.688 136.259 25.568V7.928C136.259 7.808 136.295 7.712 136.367 7.64C136.463 7.544 136.571 7.496 136.691 7.496H140.903C141.023 7.496 141.119 7.544 141.191 7.64C141.287 7.712 141.335 7.808 141.335 7.928V9.296C141.335 9.368 141.359 9.416 141.407 9.44C141.455 9.464 141.491 9.452 141.515 9.404C142.499 7.964 143.819 7.244 145.475 7.244ZM155.844 26C155.724 26 155.616 25.964 155.52 25.892C155.448 25.796 155.412 25.688 155.412 25.568V1.232C155.412 1.112 155.448 1.016 155.52 0.943999C155.616 0.847998 155.724 0.799998 155.844 0.799998H160.056C160.176 0.799998 160.272 0.847998 160.344 0.943999C160.44 1.016 160.488 1.112 160.488 1.232V25.568C160.488 25.688 160.44 25.796 160.344 25.892C160.272 25.964 160.176 26 160.056 26H155.844ZM173.113 7.208C175.033 7.208 176.581 7.796 177.757 8.972C178.933 10.148 179.521 11.744 179.521 13.76V25.568C179.521 25.688 179.473 25.796 179.377 25.892C179.305 25.964 179.209 26 179.089 26H174.877C174.757 26 174.649 25.964 174.553 25.892C174.481 25.796 174.445 25.688 174.445 25.568V14.804C174.445 13.844 174.169 13.064 173.617 12.464C173.089 11.864 172.381 11.564 171.493 11.564C170.605 11.564 169.885 11.864 169.333 12.464C168.805 13.064 168.541 13.844 168.541 14.804V25.568C168.541 25.688 168.493 25.796 168.397 25.892C168.325 25.964 168.229 26 168.109 26H163.897C163.777 26 163.669 25.964 163.573 25.892C163.501 25.796 163.465 25.688 163.465 25.568V7.928C163.465 7.808 163.501 7.712 163.573 7.64C163.669 7.544 163.777 7.496 163.897 7.496H168.109C168.229 7.496 168.325 7.544 168.397 7.64C168.493 7.712 168.541 7.808 168.541 7.928V9.188C168.541 9.26 168.565 9.308 168.613 9.332C168.661 9.356 168.697 9.344 168.721 9.296C169.705 7.904 171.169 7.208 173.113 7.208ZM189.452 26.252C187.844 26.252 186.44 26.024 185.24 25.568C184.04 25.112 183.104 24.476 182.432 23.66C181.784 22.844 181.46 21.92 181.46 20.888V20.528C181.46 20.408 181.496 20.312 181.568 20.24C181.664 20.144 181.772 20.096 181.892 20.096H185.888C186.008 20.096 186.104 20.144 186.176 20.24C186.272 20.312 186.32 20.408 186.32 20.528V20.564C186.32 21.092 186.608 21.548 187.184 21.932C187.784 22.292 188.528 22.472 189.416 22.472C190.232 22.472 190.892 22.316 191.396 22.004C191.9 21.668 192.152 21.26 192.152 20.78C192.152 20.348 191.936 20.024 191.504 19.808C191.072 19.592 190.364 19.364 189.38 19.124C188.252 18.836 187.364 18.56 186.716 18.296C185.18 17.768 183.956 17.12 183.044 16.352C182.132 15.584 181.676 14.48 181.676 13.04C181.676 11.264 182.36 9.86 183.728 8.828C185.12 7.772 186.956 7.244 189.236 7.244C190.772 7.244 192.116 7.496 193.268 8C194.42 8.48 195.308 9.164 195.932 10.052C196.58 10.94 196.904 11.948 196.904 13.076C196.904 13.196 196.856 13.304 196.76 13.4C196.688 13.472 196.592 13.508 196.472 13.508H192.62C192.5 13.508 192.392 13.472 192.296 13.4C192.224 13.304 192.188 13.196 192.188 13.076C192.188 12.548 191.912 12.104 191.36 11.744C190.832 11.384 190.124 11.204 189.236 11.204C188.444 11.204 187.796 11.348 187.292 11.636C186.788 11.924 186.536 12.32 186.536 12.824C186.536 13.304 186.776 13.664 187.256 13.904C187.76 14.144 188.588 14.396 189.74 14.66C190.004 14.732 190.304 14.816 190.64 14.912C190.976 14.984 191.336 15.08 191.72 15.2C193.424 15.704 194.768 16.352 195.752 17.144C196.736 17.936 197.228 19.088 197.228 20.6C197.228 22.376 196.52 23.768 195.104 24.776C193.712 25.76 191.828 26.252 189.452 26.252ZM209.647 11.132C209.647 11.252 209.599 11.36 209.503 11.456C209.431 11.528 209.335 11.564 209.215 11.564H205.759C205.639 11.564 205.579 11.624 205.579 11.744V19.376C205.579 20.168 205.735 20.756 206.047 21.14C206.383 21.524 206.911 21.716 207.631 21.716H208.819C208.939 21.716 209.035 21.764 209.107 21.86C209.203 21.932 209.251 22.028 209.251 22.148V25.568C209.251 25.832 209.107 25.988 208.819 26.036C207.811 26.084 207.091 26.108 206.659 26.108C204.667 26.108 203.179 25.784 202.195 25.136C201.211 24.464 200.707 23.216 200.683 21.392V11.744C200.683 11.624 200.623 11.564 200.503 11.564H198.451C198.331 11.564 198.223 11.528 198.127 11.456C198.055 11.36 198.019 11.252 198.019 11.132V7.928C198.019 7.808 198.055 7.712 198.127 7.64C198.223 7.544 198.331 7.496 198.451 7.496H200.503C200.623 7.496 200.683 7.436 200.683 7.316V3.032C200.683 2.912 200.719 2.816 200.791 2.744C200.887 2.648 200.995 2.6 201.115 2.6H205.147C205.267 2.6 205.363 2.648 205.435 2.744C205.531 2.816 205.579 2.912 205.579 3.032V7.316C205.579 7.436 205.639 7.496 205.759 7.496H209.215C209.335 7.496 209.431 7.544 209.503 7.64C209.599 7.712 209.647 7.808 209.647 7.928V11.132ZM220.839 7.244C221.703 7.244 222.387 7.412 222.891 7.748C223.083 7.844 223.155 8.024 223.107 8.288L222.351 12.392C222.327 12.68 222.159 12.764 221.847 12.644C221.487 12.524 221.067 12.464 220.587 12.464C220.395 12.464 220.131 12.488 219.795 12.536C218.931 12.608 218.199 12.932 217.599 13.508C216.999 14.06 216.699 14.804 216.699 15.74V25.568C216.699 25.688 216.651 25.796 216.555 25.892C216.483 25.964 216.387 26 216.267 26H212.055C211.935 26 211.827 25.964 211.731 25.892C211.659 25.796 211.623 25.688 211.623 25.568V7.928C211.623 7.808 211.659 7.712 211.731 7.64C211.827 7.544 211.935 7.496 212.055 7.496H216.267C216.387 7.496 216.483 7.544 216.555 7.64C216.651 7.712 216.699 7.808 216.699 7.928V9.296C216.699 9.368 216.723 9.416 216.771 9.44C216.819 9.464 216.855 9.452 216.879 9.404C217.863 7.964 219.183 7.244 220.839 7.244ZM235.124 7.928C235.124 7.808 235.16 7.712 235.232 7.64C235.328 7.544 235.436 7.496 235.556 7.496H239.768C239.888 7.496 239.984 7.544 240.056 7.64C240.152 7.712 240.2 7.808 240.2 7.928V25.568C240.2 25.688 240.152 25.796 240.056 25.892C239.984 25.964 239.888 26 239.768 26H235.556C235.436 26 235.328 25.964 235.232 25.892C235.16 25.796 235.124 25.688 235.124 25.568V24.344C235.124 24.272 235.1 24.236 235.052 24.236C235.004 24.212 234.956 24.236 234.908 24.308C233.948 25.604 232.46 26.252 230.444 26.252C228.62 26.252 227.12 25.7 225.944 24.596C224.768 23.492 224.18 21.944 224.18 19.952V7.928C224.18 7.808 224.216 7.712 224.288 7.64C224.384 7.544 224.492 7.496 224.612 7.496H228.788C228.908 7.496 229.004 7.544 229.076 7.64C229.172 7.712 229.22 7.808 229.22 7.928V18.692C229.22 19.652 229.472 20.432 229.976 21.032C230.504 21.632 231.224 21.932 232.136 21.932C232.952 21.932 233.624 21.692 234.152 21.212C234.68 20.708 235.004 20.06 235.124 19.268V7.928ZM250.998 26.288C249.078 26.288 247.41 25.808 245.994 24.848C244.602 23.888 243.606 22.568 243.006 20.888C242.598 19.688 242.394 18.272 242.394 16.64C242.394 15.032 242.598 13.64 243.006 12.464C243.582 10.832 244.578 9.548 245.994 8.612C247.41 7.676 249.078 7.208 250.998 7.208C252.918 7.208 254.598 7.688 256.038 8.648C257.502 9.608 258.474 10.82 258.954 12.284C259.146 12.86 259.242 13.292 259.242 13.58V13.652C259.242 13.868 259.122 14 258.882 14.048L254.742 14.66H254.67C254.454 14.66 254.31 14.54 254.238 14.3L254.13 13.724C253.962 13.1 253.59 12.584 253.014 12.176C252.438 11.768 251.754 11.564 250.962 11.564C250.194 11.564 249.546 11.756 249.018 12.14C248.49 12.524 248.118 13.052 247.902 13.724C247.638 14.444 247.506 15.428 247.506 16.676C247.506 17.924 247.626 18.908 247.866 19.628C248.082 20.348 248.454 20.912 248.982 21.32C249.534 21.728 250.194 21.932 250.962 21.932C251.706 21.932 252.354 21.74 252.906 21.356C253.482 20.948 253.878 20.396 254.094 19.7C254.118 19.652 254.13 19.58 254.13 19.484C254.154 19.46 254.166 19.424 254.166 19.376C254.19 19.088 254.358 18.968 254.67 19.016L258.81 19.664C259.05 19.712 259.17 19.844 259.17 20.06C259.17 20.252 259.098 20.612 258.954 21.14C258.45 22.748 257.466 24.008 256.002 24.92C254.562 25.832 252.894 26.288 250.998 26.288ZM271.737 11.132C271.737 11.252 271.689 11.36 271.593 11.456C271.521 11.528 271.425 11.564 271.305 11.564H267.849C267.729 11.564 267.669 11.624 267.669 11.744V19.376C267.669 20.168 267.825 20.756 268.137 21.14C268.473 21.524 269.001 21.716 269.721 21.716H270.909C271.029 21.716 271.125 21.764 271.197 21.86C271.293 21.932 271.341 22.028 271.341 22.148V25.568C271.341 25.832 271.197 25.988 270.909 26.036C269.901 26.084 269.181 26.108 268.749 26.108C266.757 26.108 265.269 25.784 264.285 25.136C263.301 24.464 262.797 23.216 262.773 21.392V11.744C262.773 11.624 262.713 11.564 262.593 11.564H260.541C260.421 11.564 260.313 11.528 260.217 11.456C260.145 11.36 260.109 11.252 260.109 11.132V7.928C260.109 7.808 260.145 7.712 260.217 7.64C260.313 7.544 260.421 7.496 260.541 7.496H262.593C262.713 7.496 262.773 7.436 262.773 7.316V3.032C262.773 2.912 262.809 2.816 262.881 2.744C262.977 2.648 263.085 2.6 263.205 2.6H267.237C267.357 2.6 267.453 2.648 267.525 2.744C267.621 2.816 267.669 2.912 267.669 3.032V7.316C267.669 7.436 267.729 7.496 267.849 7.496H271.305C271.425 7.496 271.521 7.544 271.593 7.64C271.689 7.712 271.737 7.808 271.737 7.928V11.132ZM281.639 26.288C279.623 26.288 277.895 25.76 276.455 24.704C275.015 23.648 274.031 22.208 273.503 20.384C273.167 19.256 272.999 18.032 272.999 16.712C272.999 15.296 273.167 14.024 273.503 12.896C274.055 11.12 275.051 9.728 276.491 8.72C277.931 7.712 279.659 7.208 281.675 7.208C283.643 7.208 285.323 7.712 286.715 8.72C288.107 9.704 289.091 11.084 289.667 12.86C290.051 14.06 290.243 15.32 290.243 16.64C290.243 17.936 290.075 19.148 289.739 20.276C289.211 22.148 288.227 23.624 286.787 24.704C285.371 25.76 283.655 26.288 281.639 26.288ZM281.639 21.932C282.431 21.932 283.103 21.692 283.655 21.212C284.207 20.732 284.603 20.072 284.843 19.232C285.035 18.464 285.131 17.624 285.131 16.712C285.131 15.704 285.035 14.852 284.843 14.156C284.579 13.34 284.171 12.704 283.619 12.248C283.067 11.792 282.395 11.564 281.603 11.564C280.787 11.564 280.103 11.792 279.551 12.248C279.023 12.704 278.639 13.34 278.399 14.156C278.207 14.732 278.111 15.584 278.111 16.712C278.111 17.792 278.195 18.632 278.363 19.232C278.603 20.072 278.999 20.732 279.551 21.212C280.127 21.692 280.823 21.932 281.639 21.932ZM301.642 7.244C302.506 7.244 303.19 7.412 303.694 7.748C303.886 7.844 303.958 8.024 303.91 8.288L303.154 12.392C303.13 12.68 302.962 12.764 302.65 12.644C302.29 12.524 301.87 12.464 301.39 12.464C301.198 12.464 300.934 12.488 300.598 12.536C299.734 12.608 299.002 12.932 298.402 13.508C297.802 14.06 297.502 14.804 297.502 15.74V25.568C297.502 25.688 297.454 25.796 297.358 25.892C297.286 25.964 297.19 26 297.07 26H292.858C292.738 26 292.63 25.964 292.534 25.892C292.462 25.796 292.426 25.688 292.426 25.568V7.928C292.426 7.808 292.462 7.712 292.534 7.64C292.63 7.544 292.738 7.496 292.858 7.496H297.07C297.19 7.496 297.286 7.544 297.358 7.64C297.454 7.712 297.502 7.808 297.502 7.928V9.296C297.502 9.368 297.526 9.416 297.574 9.44C297.622 9.464 297.658 9.452 297.682 9.404C298.666 7.964 299.986 7.244 301.642 7.244ZM312.226 26.252C310.618 26.252 309.214 26.024 308.014 25.568C306.814 25.112 305.878 24.476 305.206 23.66C304.558 22.844 304.234 21.92 304.234 20.888V20.528C304.234 20.408 304.27 20.312 304.342 20.24C304.438 20.144 304.546 20.096 304.666 20.096H308.662C308.782 20.096 308.878 20.144 308.95 20.24C309.046 20.312 309.094 20.408 309.094 20.528V20.564C309.094 21.092 309.382 21.548 309.958 21.932C310.558 22.292 311.302 22.472 312.19 22.472C313.006 22.472 313.666 22.316 314.17 22.004C314.674 21.668 314.926 21.26 314.926 20.78C314.926 20.348 314.71 20.024 314.278 19.808C313.846 19.592 313.138 19.364 312.154 19.124C311.026 18.836 310.138 18.56 309.49 18.296C307.954 17.768 306.73 17.12 305.818 16.352C304.906 15.584 304.45 14.48 304.45 13.04C304.45 11.264 305.134 9.86 306.502 8.828C307.894 7.772 309.73 7.244 312.01 7.244C313.546 7.244 314.89 7.496 316.042 8C317.194 8.48 318.082 9.164 318.706 10.052C319.354 10.94 319.678 11.948 319.678 13.076C319.678 13.196 319.63 13.304 319.534 13.4C319.462 13.472 319.366 13.508 319.246 13.508H315.394C315.274 13.508 315.166 13.472 315.07 13.4C314.998 13.304 314.962 13.196 314.962 13.076C314.962 12.548 314.686 12.104 314.134 11.744C313.606 11.384 312.898 11.204 312.01 11.204C311.218 11.204 310.57 11.348 310.066 11.636C309.562 11.924 309.31 12.32 309.31 12.824C309.31 13.304 309.55 13.664 310.03 13.904C310.534 14.144 311.362 14.396 312.514 14.66C312.778 14.732 313.078 14.816 313.414 14.912C313.75 14.984 314.11 15.08 314.494 15.2C316.198 15.704 317.542 16.352 318.526 17.144C319.51 17.936 320.002 19.088 320.002 20.6C320.002 22.376 319.294 23.768 317.878 24.776C316.486 25.76 314.602 26.252 312.226 26.252Z" fill="url(#paint0_linear_156_2240)"/>
<defs>
<linearGradient id="paint0_linear_156_2240" x1="-54.6782" y1="-34.2926" x2="451.163" y2="138.024" gradientUnits="userSpaceOnUse">
<stop stop-color="#0043CE"/>
<stop offset="0.06" stop-color="#7FA9FF"/>
<stop offset="1" stop-color="#E80808"/>
</linearGradient>
</defs>
</svg>
