<svg width="24" height="25" viewBox="0 0 24 25" fill="none" xmlns="http://www.w3.org/2000/svg">
<path d="M7.8 2.10571H16.2C19.4 2.10571 22 4.70571 22 7.90571V16.3057C22 17.844 21.3889 19.3192 20.3012 20.4069C19.2135 21.4946 17.7383 22.1057 16.2 22.1057H7.8C4.6 22.1057 2 19.5057 2 16.3057V7.90571C2 6.36746 2.61107 4.8922 3.69878 3.80449C4.78649 2.71678 6.26174 2.10571 7.8 2.10571ZM7.6 4.10571C6.64522 4.10571 5.72955 4.485 5.05442 5.16013C4.37928 5.83526 4 6.75093 4 7.70571V16.5057C4 18.4957 5.61 20.1057 7.6 20.1057H16.4C17.3548 20.1057 18.2705 19.7264 18.9456 19.0513C19.6207 18.3762 20 17.4605 20 16.5057V7.70571C20 5.71571 18.39 4.10571 16.4 4.10571H7.6ZM17.25 5.60571C17.5815 5.60571 17.8995 5.73741 18.1339 5.97183C18.3683 6.20625 18.5 6.52419 18.5 6.85571C18.5 7.18723 18.3683 7.50518 18.1339 7.7396C17.8995 7.97402 17.5815 8.10571 17.25 8.10571C16.9185 8.10571 16.6005 7.97402 16.3661 7.7396C16.1317 7.50518 16 7.18723 16 6.85571C16 6.52419 16.1317 6.20625 16.3661 5.97183C16.6005 5.73741 16.9185 5.60571 17.25 5.60571ZM12 7.10571C13.3261 7.10571 14.5979 7.6325 15.5355 8.57018C16.4732 9.50786 17 10.7796 17 12.1057C17 13.4318 16.4732 14.7036 15.5355 15.6412C14.5979 16.5789 13.3261 17.1057 12 17.1057C10.6739 17.1057 9.40215 16.5789 8.46447 15.6412C7.52678 14.7036 7 13.4318 7 12.1057C7 10.7796 7.52678 9.50786 8.46447 8.57018C9.40215 7.6325 10.6739 7.10571 12 7.10571ZM12 9.10571C11.2044 9.10571 10.4413 9.42178 9.87868 9.98439C9.31607 10.547 9 11.3101 9 12.1057C9 12.9014 9.31607 13.6644 9.87868 14.227C10.4413 14.7896 11.2044 15.1057 12 15.1057C12.7956 15.1057 13.5587 14.7896 14.1213 14.227C14.6839 13.6644 15 12.9014 15 12.1057C15 11.3101 14.6839 10.547 14.1213 9.98439C13.5587 9.42178 12.7956 9.10571 12 9.10571Z" fill="#1C1C1C"/>
</svg>
