<svg width="75" height="52" viewBox="0 0 75 52" fill="none" xmlns="http://www.w3.org/2000/svg">
<path d="M57.9668 32.5586C54.7652 32.5586 51.6355 31.6092 48.9735 29.8305C46.3115 28.0518 44.2367 25.5237 43.0115 22.5658C41.7863 19.6079 41.4657 16.3531 42.0903 13.2131C42.7149 10.073 44.2567 7.18867 46.5205 4.92481C48.7844 2.66095 51.6687 1.11924 54.8088 0.494639C57.9488 -0.129959 61.2036 0.190608 64.1615 1.4158C67.1194 2.64099 69.6475 4.71579 71.4262 7.37781C73.2049 10.0398 74.1543 13.1695 74.1543 16.3711L74.2283 18.6836C74.2283 22.9351 73.3909 27.1451 71.7639 31.073C70.1369 35.0009 67.7522 38.5699 64.7459 41.5762C61.7396 44.5825 58.1706 46.9672 54.2427 48.5942C50.3148 50.2212 46.1049 51.0586 41.8533 51.0586V41.8086C44.8915 41.8168 47.9011 41.2226 50.7082 40.0604C53.5153 38.8982 56.0641 37.191 58.2073 35.0376C59.0403 34.2062 59.8087 33.3125 60.5059 32.3643C59.666 32.4963 58.8171 32.5628 57.9668 32.5632V32.5586ZM16.3418 32.5586C13.1402 32.5586 10.0105 31.6092 7.34851 29.8305C4.68649 28.0518 2.6117 25.5237 1.3865 22.5658C0.161311 19.6079 -0.159256 16.3531 0.465342 13.2131C1.08994 10.073 2.63165 7.18867 4.89551 4.92481C7.15938 2.66095 10.0437 1.11924 13.1838 0.494639C16.3238 -0.129959 19.5786 0.190608 22.5365 1.4158C25.4944 2.64099 28.0225 4.71579 29.8012 7.37781C31.5799 10.0398 32.5293 13.1695 32.5293 16.3711L32.6033 18.6836C32.6033 27.27 29.1924 35.5047 23.1209 41.5762C17.0494 47.6477 8.81469 51.0586 0.228304 51.0586V41.8086C3.26646 41.8168 6.27609 41.2226 9.08317 40.0604C11.8903 38.8982 14.4391 37.191 16.5823 35.0376C17.4153 34.2062 18.1837 33.3125 18.8809 32.3643C18.041 32.4963 17.1921 32.5628 16.3418 32.5632V32.5586Z" fill="#DDEAFF"/>
</svg>
