<svg width="20" height="20" viewBox="0 0 20 20" fill="none" xmlns="http://www.w3.org/2000/svg">
<path d="M15.0001 12.5V7.5C15.0001 5.14297 15.0001 3.96447 14.2678 3.23223C13.5356 2.5 12.3571 2.5 10.0001 2.5H6.66675C4.30972 2.5 3.13121 2.5 2.39898 3.23223C1.66675 3.96447 1.66675 5.14297 1.66675 7.5V12.5C1.66675 14.857 1.66675 16.0355 2.39898 16.7677C3.13121 17.5 4.30972 17.5 6.66675 17.5H16.6667M16.6667 17.5C17.5872 17.5 18.3334 16.7538 18.3334 15.8333V9.16667C18.3334 7.98816 18.3334 7.3989 17.9673 7.03278C17.6012 6.66667 17.0119 6.66667 15.8334 6.66667H15.0001V15.8333C15.0001 16.7538 15.7462 17.5 16.6667 17.5ZM5.00008 6.66667H11.6667M5.00008 10H11.6667M5.00008 13.3333H8.33342" stroke="#fff" stroke-width="1.5" stroke-linecap="round" stroke-linejoin="round"/>
</svg>
