<svg width="16" height="13" viewBox="0 0 16 13" fill="none" xmlns="http://www.w3.org/2000/svg">
<path d="M12.15 7.50006H1C0.71667 7.50006 0.479004 7.40406 0.287004 7.21206C0.0950036 7.02006 -0.000663206 6.78273 3.4602e-06 6.50006C3.4602e-06 6.21673 0.0960036 5.97906 0.288004 5.78706C0.480004 5.59506 0.717337 5.4994 1 5.50006H12.15L9.3 2.65006C9.1 2.45006 9.004 2.21673 9.012 1.95006C9.02 1.6834 9.116 1.45006 9.3 1.25006C9.5 1.05006 9.73767 0.945728 10.013 0.937062C10.2883 0.928395 10.5257 1.0244 10.725 1.22506L15.3 5.80006C15.4 5.90006 15.471 6.0084 15.513 6.12506C15.555 6.24173 15.5757 6.36673 15.575 6.50006C15.575 6.6334 15.554 6.7584 15.512 6.87506C15.47 6.99173 15.3993 7.10006 15.3 7.20006L10.725 11.7751C10.525 11.9751 10.2877 12.0711 10.013 12.0631C9.73834 12.0551 9.50067 11.9507 9.3 11.7501C9.11667 11.5501 9.02067 11.3167 9.012 11.0501C9.00334 10.7834 9.09934 10.5501 9.3 10.3501L12.15 7.50006Z" fill="#fff"/>
</svg>
