<svg width="16" height="20" viewBox="0 0 16 20" fill="none" xmlns="http://www.w3.org/2000/svg">
<path d="M2.3576 2.40536L2.89031 2.9333L2.89031 2.9333L2.3576 2.40536ZM14.2264 2.40536L13.6937 2.9333L13.6937 2.93331L14.2264 2.40536ZM14.5737 17.6755L14.1676 17.0449L14.1675 17.045L14.5737 17.6755ZM12.4829 16.9226L12.0828 17.557L12.0829 17.557L12.4829 16.9226ZM11.6524 16.5329L11.6277 17.2825L11.6279 17.2825L11.6524 16.5329ZM10.7678 16.9226L11.1679 17.557L11.1679 17.5569L10.7678 16.9226ZM9.17537 17.9268L9.57535 18.5613L9.57544 18.5612L9.17537 17.9268ZM7.4087 17.9268L7.00862 18.5612L7.00871 18.5613L7.4087 17.9268ZM5.81631 16.9226L5.41619 17.5569L5.41623 17.557L5.81631 16.9226ZM4.98581 16.5329L4.96106 17.2825L4.9613 17.2825L4.98581 16.5329ZM4.10109 16.9226L4.50113 17.557L4.50117 17.557L4.10109 16.9226ZM2.01032 17.6755L2.41648 17.045L2.41641 17.045L2.01032 17.6755ZM11.6254 5.74984C12.0396 5.74984 12.3754 5.41405 12.3754 4.99984C12.3754 4.58562 12.0396 4.24984 11.6254 4.24984V5.74984ZM4.9587 4.24984C4.54449 4.24984 4.2087 4.58562 4.2087 4.99984C4.2087 5.41405 4.54449 5.74984 4.9587 5.74984V4.24984ZM6.62537 9.08317C7.03958 9.08317 7.37537 8.74738 7.37537 8.33317C7.37537 7.91896 7.03958 7.58317 6.62537 7.58317V9.08317ZM4.9587 7.58317C4.54449 7.58317 4.2087 7.91896 4.2087 8.33317C4.2087 8.74738 4.54449 9.08317 4.9587 9.08317V7.58317ZM10.8588 9.23904C11.0139 9.62311 11.451 9.80871 11.8351 9.65359C12.2191 9.49847 12.4047 9.06137 12.2496 8.6773L10.8588 9.23904ZM11.1254 7.49984C11.1254 7.08562 10.7896 6.74984 10.3754 6.74984C9.96115 6.74984 9.62537 7.08562 9.62537 7.49984H11.1254ZM9.89195 11.594C9.73683 11.2099 9.29973 11.0243 8.91566 11.1794C8.53159 11.3345 8.34599 11.7716 8.50111 12.1557L9.89195 11.594ZM9.62537 13.3332C9.62537 13.7474 9.96115 14.0832 10.3754 14.0832C10.7896 14.0832 11.1254 13.7474 11.1254 13.3332H9.62537ZM2.37537 15.538V6.71172H0.875366V15.538H2.37537ZM2.37537 6.71172C2.37537 5.50153 2.37693 4.66867 2.46033 4.04279C2.54094 3.43779 2.68557 3.13989 2.89031 2.9333L1.82489 1.87742C1.2974 2.40968 1.07591 3.07579 0.973466 3.84468C0.873801 4.59267 0.875366 5.54357 0.875366 6.71172H2.37537ZM2.89031 2.9333C3.09413 2.72764 3.38663 2.58296 3.98301 2.50205C4.60166 2.41813 5.42546 2.4165 6.62537 2.4165V0.916504C5.46824 0.916504 4.52428 0.914883 3.78136 1.01567C3.01617 1.11948 2.3533 1.34423 1.82489 1.87743L2.89031 2.9333ZM6.62537 2.4165H9.9587V0.916504H6.62537V2.4165ZM9.9587 2.4165C11.1586 2.4165 11.9824 2.41813 12.601 2.50205C13.1974 2.58296 13.4899 2.72764 13.6937 2.9333L14.7592 1.87742C14.2307 1.34423 13.5679 1.11948 12.8027 1.01567C12.0598 0.914883 11.1158 0.916504 9.9587 0.916504V2.4165ZM13.6937 2.93331C13.8985 3.1399 14.0431 3.4378 14.1237 4.04279C14.2071 4.66867 14.2087 5.50153 14.2087 6.71172H15.7087C15.7087 5.54357 15.7103 4.59267 15.6106 3.84467C15.5081 3.07579 15.2867 2.40968 14.7592 1.87742L13.6937 2.93331ZM14.2087 6.71172V15.538H15.7087V6.71172H14.2087ZM14.2087 15.538C14.2087 16.1915 14.2069 16.601 14.1677 16.8828C14.1285 17.165 14.0777 17.1028 14.1676 17.0449L14.9798 18.3061C15.4547 18.0002 15.5964 17.4993 15.6534 17.0895C15.7105 16.6796 15.7087 16.1442 15.7087 15.538H14.2087ZM14.1675 17.045C14.2341 17.0021 14.1939 17.0959 13.8235 16.9021C13.6727 16.8232 13.5151 16.7211 13.3524 16.6093C13.2095 16.5111 13.0212 16.3754 12.883 16.2882L12.0829 17.557C12.1892 17.624 12.306 17.7102 12.5027 17.8454C12.6795 17.9669 12.8961 18.1098 13.1282 18.2312C13.5237 18.4381 14.2843 18.7541 14.9799 18.306L14.1675 17.045ZM12.8831 16.2882C12.6934 16.1686 12.5059 16.0493 12.3361 15.9643C12.1519 15.8721 11.936 15.7918 11.677 15.7833L11.6279 17.2825C11.5933 17.2814 11.5905 17.2685 11.6644 17.3055C11.7528 17.3498 11.8683 17.4217 12.0828 17.557L12.8831 16.2882ZM11.6772 15.7833C11.4036 15.7743 11.1722 15.8449 10.9642 15.9426C10.7775 16.0303 10.5752 16.1573 10.3677 16.2882L11.1679 17.5569C11.397 17.4124 11.5159 17.3407 11.6017 17.3004C11.6664 17.27 11.6589 17.2835 11.6277 17.2825L11.6772 15.7833ZM10.3677 16.2882L8.7753 17.2925L9.57544 18.5612L11.1679 17.557L10.3677 16.2882ZM8.77538 17.2924C8.54731 17.4362 8.42439 17.5126 8.33036 17.559C8.25206 17.5976 8.25558 17.5832 8.29203 17.5832V19.0832C8.56749 19.0832 8.79788 19.001 8.9941 18.9041C9.17459 18.8151 9.37384 18.6883 9.57535 18.5613L8.77538 17.2924ZM8.29203 17.5832C8.32849 17.5832 8.332 17.5976 8.25371 17.559C8.15968 17.5126 8.03675 17.4362 7.80868 17.2924L7.00871 18.5613C7.21023 18.6883 7.40947 18.8151 7.58996 18.9041C7.78619 19.001 8.01658 19.0832 8.29203 19.0832V17.5832ZM7.80877 17.2925L6.21638 16.2882L5.41623 17.557L7.00862 18.5612L7.80877 17.2925ZM6.21643 16.2882C6.02674 16.1686 5.83921 16.0493 5.66943 15.9643C5.48529 15.8721 5.2693 15.7918 5.01032 15.7833L4.9613 17.2825C4.92659 17.2814 4.92378 17.2685 4.99778 17.3055C5.08614 17.3498 5.20173 17.4217 5.41619 17.5569L6.21643 16.2882ZM5.01055 15.7833C4.737 15.7743 4.50557 15.8449 4.2976 15.9426C4.11086 16.0302 3.90857 16.1573 3.70102 16.2882L4.50117 17.557C4.73032 17.4125 4.84923 17.3407 4.93508 17.3004C4.99971 17.27 4.99228 17.2835 4.96106 17.2825L5.01055 15.7833ZM3.70105 16.2882C3.5628 16.3754 3.37453 16.5111 3.2317 16.6093C3.06893 16.7211 2.91139 16.8232 2.76053 16.9021C2.3902 17.0959 2.34997 17.0022 2.41648 17.045L1.60417 18.306C2.29978 18.7541 3.06038 18.4381 3.45588 18.2312C3.68794 18.1098 3.90457 17.9669 4.08137 17.8454C4.27812 17.7102 4.39483 17.624 4.50113 17.557L3.70105 16.2882ZM2.41641 17.045C2.50635 17.1029 2.45558 17.165 2.41633 16.8829C2.37712 16.601 2.37537 16.1915 2.37537 15.538H0.875366C0.875366 16.1442 0.873609 16.6796 0.930639 17.0895C0.987631 17.4992 1.12934 18.0002 1.60424 18.3061L2.41641 17.045ZM11.6254 4.24984H4.9587V5.74984H11.6254V4.24984ZM6.62537 7.58317H4.9587V9.08317H6.62537V7.58317ZM10.3754 7.479C9.36804 7.479 8.37537 8.2135 8.37537 9.32275H9.87537C9.87537 9.26294 9.90131 9.18733 9.98536 9.11379C10.0709 9.03895 10.2065 8.979 10.3754 8.979V7.479ZM8.37537 9.32275C8.37537 10.432 9.36804 11.1665 10.3754 11.1665V9.6665C10.2065 9.6665 10.0709 9.60656 9.98536 9.53172C9.90131 9.45818 9.87537 9.38257 9.87537 9.32275H8.37537ZM10.3754 11.1665C10.5442 11.1665 10.6798 11.2264 10.7654 11.3013C10.8494 11.3748 10.8754 11.4504 10.8754 11.5103H12.3754C12.3754 10.401 11.3827 9.6665 10.3754 9.6665V11.1665ZM10.8754 11.5103C10.8754 11.5701 10.8494 11.6457 10.7654 11.7192C10.6798 11.7941 10.5442 11.854 10.3754 11.854V13.354C11.3827 13.354 12.3754 12.6195 12.3754 11.5103H10.8754ZM10.3754 8.979C10.6529 8.979 10.8157 9.13229 10.8588 9.23904L12.2496 8.6773C11.9496 7.93438 11.1863 7.479 10.3754 7.479V8.979ZM11.1254 8.229V7.49984H9.62537V8.229H11.1254ZM10.3754 11.854C10.0978 11.854 9.93507 11.7007 9.89195 11.594L8.50111 12.1557C8.80116 12.8986 9.56443 13.354 10.3754 13.354V11.854ZM9.62537 12.604V13.3332H11.1254V12.604H9.62537Z" fill="#545454"/>
</svg>
