<svg width="116" height="18" viewBox="0 0 116 18" fill="none" xmlns="http://www.w3.org/2000/svg">
<path d="M6.67096 17.264C5.42296 17.264 4.31896 17.008 3.35896 16.496C2.41496 15.984 1.67896 15.272 1.15096 14.36C0.622957 13.432 0.358957 12.368 0.358957 11.168V6.032C0.358957 4.848 0.622957 3.8 1.15096 2.888C1.67896 1.976 2.41496 1.272 3.35896 0.775999C4.31896 0.263999 5.42296 0.0079999 6.67096 0.0079999C7.93496 0.0079999 9.03896 0.263999 9.98296 0.775999C10.943 1.272 11.687 1.976 12.215 2.888C12.743 3.8 13.007 4.848 13.007 6.032V11.168C13.007 12.368 12.743 13.432 12.215 14.36C11.687 15.288 10.943 16.008 9.98296 16.52C9.03896 17.016 7.93496 17.264 6.67096 17.264ZM6.67096 14.36C7.55096 14.36 8.26296 14.08 8.80696 13.52C9.35096 12.96 9.62296 12.216 9.62296 11.288V6.008C9.62296 5.08 9.35096 4.336 8.80696 3.776C8.27896 3.2 7.56696 2.912 6.67096 2.912C5.79096 2.912 5.07896 3.2 4.53496 3.776C4.00696 4.336 3.74296 5.08 3.74296 6.008V11.288C3.74296 12.216 4.00696 12.96 4.53496 13.52C5.07896 14.08 5.79096 14.36 6.67096 14.36ZM21.7452 7.088C21.7452 7.168 21.7132 7.24 21.6492 7.304C21.6012 7.352 21.5372 7.376 21.4572 7.376H19.1532C19.0732 7.376 19.0332 7.416 19.0332 7.496V12.584C19.0332 13.112 19.1372 13.504 19.3452 13.76C19.5692 14.016 19.9212 14.144 20.4012 14.144H21.1932C21.2732 14.144 21.3372 14.176 21.3852 14.24C21.4492 14.288 21.4812 14.352 21.4812 14.432V16.712C21.4812 16.888 21.3852 16.992 21.1932 17.024C20.5212 17.056 20.0412 17.072 19.7532 17.072C18.4252 17.072 17.4332 16.856 16.7772 16.424C16.1212 15.976 15.7852 15.144 15.7692 13.928V7.496C15.7692 7.416 15.7292 7.376 15.6492 7.376H14.2812C14.2012 7.376 14.1292 7.352 14.0652 7.304C14.0172 7.24 13.9932 7.168 13.9932 7.088V4.952C13.9932 4.872 14.0172 4.808 14.0652 4.76C14.1292 4.696 14.2012 4.664 14.2812 4.664H15.6492C15.7292 4.664 15.7692 4.624 15.7692 4.544V1.688C15.7692 1.608 15.7932 1.544 15.8412 1.496C15.9052 1.432 15.9772 1.4 16.0572 1.4H18.7452C18.8252 1.4 18.8892 1.432 18.9372 1.496C19.0012 1.544 19.0332 1.608 19.0332 1.688V4.544C19.0332 4.624 19.0732 4.664 19.1532 4.664H21.4572C21.5372 4.664 21.6012 4.696 21.6492 4.76C21.7132 4.808 21.7452 4.872 21.7452 4.952V7.088ZM29.4944 4.472C30.7744 4.472 31.8064 4.864 32.5904 5.648C33.3744 6.432 33.7664 7.496 33.7664 8.84V16.712C33.7664 16.792 33.7344 16.864 33.6704 16.928C33.6224 16.976 33.5584 17 33.4784 17H30.6704C30.5904 17 30.5184 16.976 30.4544 16.928C30.4064 16.864 30.3824 16.792 30.3824 16.712V9.536C30.3824 8.896 30.1984 8.376 29.8304 7.976C29.4784 7.576 29.0064 7.376 28.4144 7.376C27.8224 7.376 27.3424 7.576 26.9744 7.976C26.6224 8.376 26.4464 8.896 26.4464 9.536V16.712C26.4464 16.792 26.4144 16.864 26.3504 16.928C26.3024 16.976 26.2384 17 26.1584 17H23.3504C23.2704 17 23.1984 16.976 23.1344 16.928C23.0864 16.864 23.0624 16.792 23.0624 16.712V0.487999C23.0624 0.408 23.0864 0.343999 23.1344 0.295999C23.1984 0.231999 23.2704 0.199999 23.3504 0.199999H26.1584C26.2384 0.199999 26.3024 0.231999 26.3504 0.295999C26.4144 0.343999 26.4464 0.408 26.4464 0.487999V5.792C26.4464 5.84 26.4624 5.872 26.4944 5.888C26.5264 5.904 26.5504 5.896 26.5664 5.864C27.2224 4.936 28.1984 4.472 29.4944 4.472ZM46.3171 9.56C46.4131 10.168 46.4451 10.848 46.4131 11.6C46.3971 11.792 46.2931 11.888 46.1011 11.888H38.6851C38.5891 11.888 38.5571 11.928 38.5891 12.008C38.6371 12.328 38.7251 12.648 38.8531 12.968C39.2691 13.864 40.1171 14.312 41.3971 14.312C42.4211 14.296 43.2291 13.88 43.8211 13.064C43.8851 12.968 43.9571 12.92 44.0371 12.92C44.0851 12.92 44.1411 12.952 44.2051 13.016L45.9331 14.72C46.0131 14.8 46.0531 14.872 46.0531 14.936C46.0531 14.968 46.0211 15.032 45.9571 15.128C45.4291 15.784 44.7491 16.296 43.9171 16.664C43.0851 17.016 42.1731 17.192 41.1811 17.192C39.8051 17.192 38.6371 16.88 37.6771 16.256C36.7331 15.632 36.0531 14.76 35.6371 13.64C35.3011 12.84 35.1331 11.792 35.1331 10.496C35.1331 9.616 35.2531 8.84 35.4931 8.168C35.8611 7.032 36.5011 6.128 37.4131 5.456C38.3411 4.784 39.4371 4.448 40.7011 4.448C42.3011 4.448 43.5811 4.912 44.5411 5.84C45.5171 6.768 46.1091 8.008 46.3171 9.56ZM40.7251 7.376C39.7171 7.376 39.0531 7.848 38.7331 8.792C38.6691 9 38.6131 9.256 38.5651 9.56C38.5651 9.64 38.6051 9.68 38.6851 9.68H42.8371C42.9331 9.68 42.9651 9.64 42.9331 9.56C42.8531 9.096 42.8131 8.872 42.8131 8.888C42.6691 8.408 42.4131 8.04 42.0451 7.784C41.6931 7.512 41.2531 7.376 40.7251 7.376ZM53.9226 4.496C54.4986 4.496 54.9546 4.608 55.2906 4.832C55.4186 4.896 55.4666 5.016 55.4346 5.192L54.9306 7.928C54.9146 8.12 54.8026 8.176 54.5946 8.096C54.3546 8.016 54.0746 7.976 53.7546 7.976C53.6266 7.976 53.4506 7.992 53.2266 8.024C52.6506 8.072 52.1626 8.288 51.7626 8.672C51.3626 9.04 51.1626 9.536 51.1626 10.16V16.712C51.1626 16.792 51.1306 16.864 51.0666 16.928C51.0186 16.976 50.9546 17 50.8746 17H48.0666C47.9866 17 47.9146 16.976 47.8506 16.928C47.8026 16.864 47.7786 16.792 47.7786 16.712V4.952C47.7786 4.872 47.8026 4.808 47.8506 4.76C47.9146 4.696 47.9866 4.664 48.0666 4.664H50.8746C50.9546 4.664 51.0186 4.696 51.0666 4.76C51.1306 4.808 51.1626 4.872 51.1626 4.952V5.864C51.1626 5.912 51.1786 5.944 51.2106 5.96C51.2426 5.976 51.2666 5.968 51.2826 5.936C51.9386 4.976 52.8186 4.496 53.9226 4.496ZM67.4828 0.175999C68.5388 0.175999 69.4668 0.391999 70.2668 0.823999C71.0668 1.256 71.6828 1.872 72.1148 2.672C72.5628 3.456 72.7868 4.36 72.7868 5.384C72.7868 6.392 72.5548 7.28 72.0908 8.048C71.6428 8.816 71.0028 9.416 70.1708 9.848C69.3548 10.264 68.4108 10.472 67.3388 10.472H63.9308C63.8508 10.472 63.8108 10.512 63.8108 10.592V16.712C63.8108 16.792 63.7788 16.864 63.7148 16.928C63.6668 16.976 63.6028 17 63.5228 17H60.7148C60.6348 17 60.5628 16.976 60.4988 16.928C60.4508 16.864 60.4268 16.792 60.4268 16.712V0.464C60.4268 0.384 60.4508 0.32 60.4988 0.271999C60.5628 0.207999 60.6348 0.175999 60.7148 0.175999H67.4828ZM66.9788 7.76C67.7148 7.76 68.3068 7.552 68.7548 7.136C69.2028 6.704 69.4268 6.144 69.4268 5.456C69.4268 4.752 69.2028 4.184 68.7548 3.752C68.3068 3.32 67.7148 3.104 66.9788 3.104H63.9308C63.8508 3.104 63.8108 3.144 63.8108 3.224V7.64C63.8108 7.72 63.8508 7.76 63.9308 7.76H66.9788ZM78.676 17.192C77.332 17.192 76.18 16.84 75.22 16.136C74.26 15.432 73.604 14.472 73.252 13.256C73.028 12.504 72.916 11.688 72.916 10.808C72.916 9.864 73.028 9.016 73.252 8.264C73.62 7.08 74.284 6.152 75.244 5.48C76.204 4.808 77.356 4.472 78.7 4.472C80.012 4.472 81.132 4.808 82.06 5.48C82.988 6.136 83.644 7.056 84.028 8.24C84.284 9.04 84.412 9.88 84.412 10.76C84.412 11.624 84.3 12.432 84.076 13.184C83.724 14.432 83.068 15.416 82.108 16.136C81.164 16.84 80.02 17.192 78.676 17.192ZM78.676 14.288C79.204 14.288 79.652 14.128 80.02 13.808C80.388 13.488 80.652 13.048 80.812 12.488C80.94 11.976 81.004 11.416 81.004 10.808C81.004 10.136 80.94 9.568 80.812 9.104C80.636 8.56 80.364 8.136 79.996 7.832C79.628 7.528 79.18 7.376 78.652 7.376C78.108 7.376 77.652 7.528 77.284 7.832C76.932 8.136 76.676 8.56 76.516 9.104C76.388 9.488 76.324 10.056 76.324 10.808C76.324 11.528 76.38 12.088 76.492 12.488C76.652 13.048 76.916 13.488 77.284 13.808C77.668 14.128 78.132 14.288 78.676 14.288ZM90.7874 17.168C89.7154 17.168 88.7794 17.016 87.9794 16.712C87.1794 16.408 86.5554 15.984 86.1074 15.44C85.6754 14.896 85.4594 14.28 85.4594 13.592V13.352C85.4594 13.272 85.4834 13.208 85.5314 13.16C85.5954 13.096 85.6674 13.064 85.7474 13.064H88.4114C88.4914 13.064 88.5554 13.096 88.6034 13.16C88.6674 13.208 88.6994 13.272 88.6994 13.352V13.376C88.6994 13.728 88.8914 14.032 89.2754 14.288C89.6754 14.528 90.1714 14.648 90.7634 14.648C91.3074 14.648 91.7474 14.544 92.0834 14.336C92.4194 14.112 92.5874 13.84 92.5874 13.52C92.5874 13.232 92.4434 13.016 92.1554 12.872C91.8674 12.728 91.3954 12.576 90.7394 12.416C89.9874 12.224 89.3954 12.04 88.9634 11.864C87.9394 11.512 87.1234 11.08 86.5154 10.568C85.9074 10.056 85.6034 9.32 85.6034 8.36C85.6034 7.176 86.0594 6.24 86.9714 5.552C87.8994 4.848 89.1234 4.496 90.6434 4.496C91.6674 4.496 92.5634 4.664 93.3314 5C94.0994 5.32 94.6914 5.776 95.1074 6.368C95.5394 6.96 95.7554 7.632 95.7554 8.384C95.7554 8.464 95.7234 8.536 95.6594 8.6C95.6114 8.648 95.5474 8.672 95.4674 8.672H92.8994C92.8194 8.672 92.7474 8.648 92.6834 8.6C92.6354 8.536 92.6114 8.464 92.6114 8.384C92.6114 8.032 92.4274 7.736 92.0594 7.496C91.7074 7.256 91.2354 7.136 90.6434 7.136C90.1154 7.136 89.6834 7.232 89.3474 7.424C89.0114 7.616 88.8434 7.88 88.8434 8.216C88.8434 8.536 89.0034 8.776 89.3234 8.936C89.6594 9.096 90.2114 9.264 90.9794 9.44C91.1554 9.488 91.3554 9.544 91.5794 9.608C91.8034 9.656 92.0434 9.72 92.2994 9.8C93.4354 10.136 94.3314 10.568 94.9874 11.096C95.6434 11.624 95.9714 12.392 95.9714 13.4C95.9714 14.584 95.4994 15.512 94.5554 16.184C93.6274 16.84 92.3714 17.168 90.7874 17.168ZM104.251 7.088C104.251 7.168 104.219 7.24 104.155 7.304C104.107 7.352 104.043 7.376 103.963 7.376H101.659C101.579 7.376 101.539 7.416 101.539 7.496V12.584C101.539 13.112 101.643 13.504 101.851 13.76C102.075 14.016 102.427 14.144 102.907 14.144H103.699C103.779 14.144 103.843 14.176 103.891 14.24C103.955 14.288 103.987 14.352 103.987 14.432V16.712C103.987 16.888 103.891 16.992 103.699 17.024C103.027 17.056 102.547 17.072 102.259 17.072C100.931 17.072 99.9388 16.856 99.2828 16.424C98.6268 15.976 98.2908 15.144 98.2748 13.928V7.496C98.2748 7.416 98.2348 7.376 98.1548 7.376H96.7868C96.7068 7.376 96.6348 7.352 96.5708 7.304C96.5228 7.24 96.4988 7.168 96.4988 7.088V4.952C96.4988 4.872 96.5228 4.808 96.5708 4.76C96.6348 4.696 96.7068 4.664 96.7868 4.664H98.1548C98.2348 4.664 98.2748 4.624 98.2748 4.544V1.688C98.2748 1.608 98.2988 1.544 98.3468 1.496C98.4108 1.432 98.4828 1.4 98.5628 1.4H101.251C101.331 1.4 101.395 1.432 101.443 1.496C101.507 1.544 101.539 1.608 101.539 1.688V4.544C101.539 4.624 101.579 4.664 101.659 4.664H103.963C104.043 4.664 104.107 4.696 104.155 4.76C104.219 4.808 104.251 4.872 104.251 4.952V7.088ZM110.488 17.168C109.416 17.168 108.48 17.016 107.68 16.712C106.88 16.408 106.256 15.984 105.808 15.44C105.376 14.896 105.16 14.28 105.16 13.592V13.352C105.16 13.272 105.184 13.208 105.232 13.16C105.296 13.096 105.368 13.064 105.448 13.064H108.112C108.192 13.064 108.256 13.096 108.304 13.16C108.368 13.208 108.4 13.272 108.4 13.352V13.376C108.4 13.728 108.592 14.032 108.976 14.288C109.376 14.528 109.872 14.648 110.464 14.648C111.008 14.648 111.448 14.544 111.784 14.336C112.12 14.112 112.288 13.84 112.288 13.52C112.288 13.232 112.144 13.016 111.856 12.872C111.568 12.728 111.096 12.576 110.44 12.416C109.688 12.224 109.096 12.04 108.664 11.864C107.64 11.512 106.824 11.08 106.216 10.568C105.608 10.056 105.304 9.32 105.304 8.36C105.304 7.176 105.76 6.24 106.672 5.552C107.6 4.848 108.824 4.496 110.344 4.496C111.368 4.496 112.264 4.664 113.032 5C113.8 5.32 114.392 5.776 114.808 6.368C115.24 6.96 115.456 7.632 115.456 8.384C115.456 8.464 115.424 8.536 115.36 8.6C115.312 8.648 115.248 8.672 115.168 8.672H112.6C112.52 8.672 112.448 8.648 112.384 8.6C112.336 8.536 112.312 8.464 112.312 8.384C112.312 8.032 112.128 7.736 111.76 7.496C111.408 7.256 110.936 7.136 110.344 7.136C109.816 7.136 109.384 7.232 109.048 7.424C108.712 7.616 108.544 7.88 108.544 8.216C108.544 8.536 108.704 8.776 109.024 8.936C109.36 9.096 109.912 9.264 110.68 9.44C110.856 9.488 111.056 9.544 111.28 9.608C111.504 9.656 111.744 9.72 112 9.8C113.136 10.136 114.032 10.568 114.688 11.096C115.344 11.624 115.672 12.392 115.672 13.4C115.672 14.584 115.2 15.512 114.256 16.184C113.328 16.84 112.072 17.168 110.488 17.168Z" fill="url(#paint0_linear_156_2445)"/>
<defs>
<linearGradient id="paint0_linear_156_2445" x1="-20.1964" y1="-23.3834" x2="179.253" y2="13.4207" gradientUnits="userSpaceOnUse">
<stop stop-color="#0043CE"/>
<stop offset="0.06" stop-color="#7FA9FF"/>
<stop offset="1" stop-color="#E80808"/>
</linearGradient>
</defs>
</svg>
