<svg width="141" height="19" viewBox="0 0 141 19" fill="none" xmlns="http://www.w3.org/2000/svg">
<path d="M6.44 18.0609C5.192 18.0609 4.088 17.8049 3.128 17.2929C2.184 16.7809 1.448 16.0689 0.92 15.1569C0.392 14.2289 0.128 13.1649 0.128 11.9649V6.82887C0.128 5.64487 0.392 4.59687 0.92 3.68488C1.448 2.77287 2.184 2.06887 3.128 1.57287C4.088 1.06087 5.192 0.804875 6.44 0.804875C7.704 0.804875 8.808 1.06087 9.752 1.57287C10.712 2.06887 11.456 2.77287 11.984 3.68488C12.512 4.59687 12.776 5.64487 12.776 6.82887V11.9649C12.776 13.1649 12.512 14.2289 11.984 15.1569C11.456 16.0849 10.712 16.8049 9.752 17.3169C8.808 17.8129 7.704 18.0609 6.44 18.0609ZM6.44 15.1569C7.32 15.1569 8.032 14.8769 8.576 14.3169C9.12 13.7569 9.392 13.0129 9.392 12.0849V6.80487C9.392 5.87687 9.12 5.13287 8.576 4.57288C8.048 3.99687 7.336 3.70887 6.44 3.70887C5.56 3.70887 4.848 3.99687 4.304 4.57288C3.776 5.13287 3.512 5.87687 3.512 6.80487V12.0849C3.512 13.0129 3.776 13.7569 4.304 14.3169C4.848 14.8769 5.56 15.1569 6.44 15.1569ZM21.5142 7.88487C21.5142 7.96487 21.4822 8.03687 21.4183 8.10087C21.3702 8.14887 21.3062 8.17287 21.2262 8.17287H18.9222C18.8422 8.17287 18.8023 8.21287 18.8023 8.29287V13.3809C18.8023 13.9089 18.9062 14.3009 19.1142 14.5569C19.3382 14.8129 19.6902 14.9409 20.1702 14.9409H20.9622C21.0423 14.9409 21.1063 14.9729 21.1543 15.0369C21.2183 15.0849 21.2503 15.1489 21.2503 15.2289V17.5089C21.2503 17.6849 21.1543 17.7889 20.9622 17.8209C20.2902 17.8529 19.8102 17.8689 19.5222 17.8689C18.1942 17.8689 17.2022 17.6529 16.5462 17.2209C15.8902 16.7729 15.5542 15.9409 15.5382 14.7249V8.29287C15.5382 8.21287 15.4982 8.17287 15.4182 8.17287H14.0502C13.9702 8.17287 13.8982 8.14887 13.8342 8.10087C13.7862 8.03687 13.7622 7.96487 13.7622 7.88487V5.74887C13.7622 5.66887 13.7862 5.60487 13.8342 5.55687C13.8982 5.49287 13.9702 5.46088 14.0502 5.46088H15.4182C15.4982 5.46088 15.5382 5.42087 15.5382 5.34087V2.48487C15.5382 2.40487 15.5622 2.34087 15.6102 2.29287C15.6742 2.22887 15.7462 2.19687 15.8262 2.19687H18.5143C18.5943 2.19687 18.6582 2.22887 18.7062 2.29287C18.7702 2.34087 18.8023 2.40487 18.8023 2.48487V5.34087C18.8023 5.42087 18.8422 5.46088 18.9222 5.46088H21.2262C21.3062 5.46088 21.3702 5.49287 21.4183 5.55687C21.4822 5.60487 21.5142 5.66887 21.5142 5.74887V7.88487ZM29.2634 5.26887C30.5434 5.26887 31.5754 5.66087 32.3594 6.44487C33.1434 7.22887 33.5354 8.29287 33.5354 9.63687V17.5089C33.5354 17.5889 33.5034 17.6609 33.4394 17.7249C33.3914 17.7729 33.3274 17.7969 33.2474 17.7969H30.4394C30.3594 17.7969 30.2874 17.7729 30.2234 17.7249C30.1754 17.6609 30.1514 17.5889 30.1514 17.5089V10.3329C30.1514 9.69287 29.9674 9.17287 29.5994 8.77287C29.2474 8.37287 28.7754 8.17287 28.1834 8.17287C27.5914 8.17287 27.1114 8.37287 26.7434 8.77287C26.3914 9.17287 26.2154 9.69287 26.2154 10.3329V17.5089C26.2154 17.5889 26.1834 17.6609 26.1194 17.7249C26.0714 17.7729 26.0074 17.7969 25.9274 17.7969H23.1194C23.0394 17.7969 22.9674 17.7729 22.9034 17.7249C22.8554 17.6609 22.8314 17.5889 22.8314 17.5089V1.28487C22.8314 1.20487 22.8554 1.14087 22.9034 1.09287C22.9674 1.02887 23.0394 0.996874 23.1194 0.996874H25.9274C26.0074 0.996874 26.0714 1.02887 26.1194 1.09287C26.1834 1.14087 26.2154 1.20487 26.2154 1.28487V6.58887C26.2154 6.63687 26.2314 6.66887 26.2634 6.68487C26.2954 6.70087 26.3194 6.69287 26.3354 6.66087C26.9914 5.73287 27.9674 5.26887 29.2634 5.26887ZM46.0861 10.3569C46.1821 10.9649 46.2141 11.6449 46.1821 12.3969C46.1661 12.5889 46.0621 12.6849 45.8701 12.6849H38.4541C38.3581 12.6849 38.3261 12.7249 38.3581 12.8049C38.4061 13.1249 38.4941 13.4449 38.6221 13.7649C39.0381 14.6609 39.8861 15.1089 41.1661 15.1089C42.1901 15.0929 42.9981 14.6769 43.5901 13.8609C43.6541 13.7649 43.7261 13.7169 43.8061 13.7169C43.8541 13.7169 43.9101 13.7489 43.9741 13.8129L45.7021 15.5169C45.7821 15.5969 45.8221 15.6689 45.8221 15.7329C45.8221 15.7649 45.7901 15.8289 45.7261 15.9249C45.1981 16.5809 44.5181 17.0929 43.6861 17.4609C42.8541 17.8129 41.9421 17.9889 40.9501 17.9889C39.5741 17.9889 38.4061 17.6769 37.4461 17.0529C36.5021 16.4289 35.8221 15.5569 35.4061 14.4369C35.0701 13.6369 34.9021 12.5889 34.9021 11.2929C34.9021 10.4129 35.0221 9.63687 35.2621 8.96487C35.6301 7.82887 36.2701 6.92487 37.1821 6.25287C38.1101 5.58087 39.2061 5.24487 40.4701 5.24487C42.0701 5.24487 43.3501 5.70887 44.3101 6.63687C45.2861 7.56487 45.8781 8.80487 46.0861 10.3569ZM40.4941 8.17287C39.4861 8.17287 38.8221 8.64487 38.5021 9.58887C38.4381 9.79687 38.3821 10.0529 38.3341 10.3569C38.3341 10.4369 38.3741 10.4769 38.4541 10.4769H42.6061C42.7021 10.4769 42.7341 10.4369 42.7021 10.3569C42.6221 9.89287 42.5821 9.66887 42.5821 9.68487C42.4381 9.20487 42.1821 8.83687 41.8141 8.58087C41.4621 8.30887 41.0221 8.17287 40.4941 8.17287ZM53.6917 5.29287C54.2677 5.29287 54.7237 5.40487 55.0597 5.62887C55.1877 5.69287 55.2357 5.81287 55.2037 5.98887L54.6997 8.72487C54.6837 8.91687 54.5717 8.97287 54.3637 8.89287C54.1237 8.81287 53.8437 8.77287 53.5237 8.77287C53.3957 8.77287 53.2197 8.78887 52.9957 8.82087C52.4197 8.86887 51.9317 9.08487 51.5317 9.46887C51.1317 9.83687 50.9317 10.3329 50.9317 10.9569V17.5089C50.9317 17.5889 50.8997 17.6609 50.8357 17.7249C50.7877 17.7729 50.7237 17.7969 50.6437 17.7969H47.8357C47.7557 17.7969 47.6837 17.7729 47.6197 17.7249C47.5717 17.6609 47.5477 17.5889 47.5477 17.5089V5.74887C47.5477 5.66887 47.5717 5.60487 47.6197 5.55687C47.6837 5.49287 47.7557 5.46088 47.8357 5.46088H50.6437C50.7237 5.46088 50.7877 5.49287 50.8357 5.55687C50.8997 5.60487 50.9317 5.66887 50.9317 5.74887V6.66087C50.9317 6.70887 50.9477 6.74087 50.9797 6.75687C51.0117 6.77287 51.0357 6.76487 51.0517 6.73287C51.7077 5.77287 52.5877 5.29287 53.6917 5.29287ZM66.2199 17.9889C64.9719 17.9889 63.8759 17.7489 62.9319 17.2689C61.9879 16.7729 61.2599 16.0849 60.7479 15.2049C60.2359 14.3249 59.9799 13.3089 59.9799 12.1569V6.61287C59.9799 5.46087 60.2359 4.44487 60.7479 3.56487C61.2599 2.68487 61.9879 2.00487 62.9319 1.52487C63.8759 1.04487 64.9719 0.804875 66.2199 0.804875C67.4519 0.804875 68.5319 1.03687 69.4599 1.50087C70.4039 1.94887 71.1319 2.59687 71.6439 3.44487C72.1719 4.27687 72.4359 5.24487 72.4359 6.34887C72.4359 6.49287 72.3399 6.58087 72.1479 6.61287L69.3399 6.78087H69.2919C69.1319 6.78087 69.0519 6.69287 69.0519 6.51687C69.0519 5.66887 68.7879 4.98887 68.2599 4.47687C67.7479 3.96487 67.0679 3.70887 66.2199 3.70887C65.3559 3.70887 64.6599 3.96487 64.1319 4.47687C63.6199 4.98887 63.3639 5.66887 63.3639 6.51687V12.3009C63.3639 13.1329 63.6199 13.8049 64.1319 14.3169C64.6599 14.8289 65.3559 15.0849 66.2199 15.0849C67.0679 15.0849 67.7479 14.8289 68.2599 14.3169C68.7879 13.8049 69.0519 13.1329 69.0519 12.3009C69.0519 12.1249 69.1479 12.0369 69.3399 12.0369L72.1479 12.1569C72.2279 12.1569 72.2919 12.1809 72.3399 12.2289C72.4039 12.2769 72.4359 12.3329 72.4359 12.3969C72.4359 13.5009 72.1719 14.4769 71.6439 15.3249C71.1319 16.1729 70.4039 16.8289 69.4599 17.2929C68.5319 17.7569 67.4519 17.9889 66.2199 17.9889ZM79.406 17.9889C78.062 17.9889 76.91 17.6369 75.95 16.9329C74.99 16.2289 74.334 15.2689 73.982 14.0529C73.758 13.3009 73.646 12.4849 73.646 11.6049C73.646 10.6609 73.758 9.81287 73.982 9.06087C74.35 7.87687 75.014 6.94887 75.974 6.27687C76.934 5.60487 78.086 5.26887 79.43 5.26887C80.742 5.26887 81.862 5.60487 82.79 6.27687C83.718 6.93287 84.374 7.85287 84.758 9.03687C85.014 9.83687 85.142 10.6769 85.142 11.5569C85.142 12.4209 85.03 13.2289 84.806 13.9809C84.454 15.2289 83.798 16.2129 82.838 16.9329C81.894 17.6369 80.75 17.9889 79.406 17.9889ZM79.406 15.0849C79.934 15.0849 80.382 14.9249 80.75 14.6049C81.118 14.2849 81.382 13.8449 81.542 13.2849C81.67 12.7729 81.734 12.2129 81.734 11.6049C81.734 10.9329 81.67 10.3649 81.542 9.90087C81.366 9.35687 81.094 8.93287 80.726 8.62887C80.358 8.32487 79.91 8.17287 79.382 8.17287C78.838 8.17287 78.382 8.32487 78.014 8.62887C77.662 8.93287 77.406 9.35687 77.246 9.90087C77.118 10.2849 77.054 10.8529 77.054 11.6049C77.054 12.3249 77.11 12.8849 77.222 13.2849C77.382 13.8449 77.646 14.2849 78.014 14.6049C78.398 14.9249 78.862 15.0849 79.406 15.0849ZM93.7974 5.74887C93.7974 5.66887 93.8214 5.60487 93.8694 5.55687C93.9334 5.49287 94.0054 5.46088 94.0854 5.46088H96.8934C96.9734 5.46088 97.0374 5.49287 97.0854 5.55687C97.1494 5.60487 97.1814 5.66887 97.1814 5.74887V17.5089C97.1814 17.5889 97.1494 17.6609 97.0854 17.7249C97.0374 17.7729 96.9734 17.7969 96.8934 17.7969H94.0854C94.0054 17.7969 93.9334 17.7729 93.8694 17.7249C93.8214 17.6609 93.7974 17.5889 93.7974 17.5089V16.6929C93.7974 16.6449 93.7814 16.6209 93.7494 16.6209C93.7174 16.6049 93.6854 16.6209 93.6534 16.6689C93.0134 17.5329 92.0214 17.9649 90.6774 17.9649C89.4614 17.9649 88.4614 17.5969 87.6774 16.8609C86.8934 16.1249 86.5014 15.0929 86.5014 13.7649V5.74887C86.5014 5.66887 86.5254 5.60487 86.5734 5.55687C86.6374 5.49287 86.7094 5.46088 86.7894 5.46088H89.5734C89.6534 5.46088 89.7174 5.49287 89.7654 5.55687C89.8294 5.60487 89.8614 5.66887 89.8614 5.74887V12.9249C89.8614 13.5649 90.0294 14.0849 90.3654 14.4849C90.7174 14.8849 91.1974 15.0849 91.8054 15.0849C92.3494 15.0849 92.7974 14.9249 93.1494 14.6049C93.5014 14.2689 93.7174 13.8369 93.7974 13.3089V5.74887ZM105.099 5.29287C105.675 5.29287 106.131 5.40487 106.467 5.62887C106.595 5.69287 106.643 5.81287 106.611 5.98887L106.107 8.72487C106.091 8.91687 105.979 8.97287 105.771 8.89287C105.531 8.81287 105.251 8.77287 104.931 8.77287C104.803 8.77287 104.627 8.78887 104.403 8.82087C103.827 8.86887 103.339 9.08487 102.939 9.46887C102.539 9.83687 102.339 10.3329 102.339 10.9569V17.5089C102.339 17.5889 102.307 17.6609 102.243 17.7249C102.195 17.7729 102.131 17.7969 102.051 17.7969H99.2435C99.1635 17.7969 99.0915 17.7729 99.0275 17.7249C98.9795 17.6609 98.9555 17.5889 98.9555 17.5089V5.74887C98.9555 5.66887 98.9795 5.60487 99.0275 5.55687C99.0915 5.49287 99.1635 5.46088 99.2435 5.46088H102.051C102.131 5.46088 102.195 5.49287 102.243 5.55687C102.307 5.60487 102.339 5.66887 102.339 5.74887V6.66087C102.339 6.70887 102.355 6.74087 102.387 6.75687C102.419 6.77287 102.443 6.76487 102.459 6.73287C103.115 5.77287 103.995 5.29287 105.099 5.29287ZM112.156 17.9649C111.084 17.9649 110.148 17.8129 109.348 17.5089C108.548 17.2049 107.924 16.7809 107.476 16.2369C107.044 15.6929 106.828 15.0769 106.828 14.3889V14.1489C106.828 14.0689 106.852 14.0049 106.9 13.9569C106.964 13.8929 107.036 13.8609 107.116 13.8609H109.78C109.86 13.8609 109.924 13.8929 109.972 13.9569C110.036 14.0049 110.068 14.0689 110.068 14.1489V14.1729C110.068 14.5249 110.26 14.8289 110.644 15.0849C111.044 15.3249 111.54 15.4449 112.132 15.4449C112.676 15.4449 113.116 15.3409 113.452 15.1329C113.788 14.9089 113.956 14.6369 113.956 14.3169C113.956 14.0289 113.812 13.8129 113.524 13.6689C113.236 13.5249 112.764 13.3729 112.108 13.2129C111.356 13.0209 110.764 12.8369 110.332 12.6609C109.308 12.3089 108.492 11.8769 107.884 11.3649C107.276 10.8529 106.972 10.1169 106.972 9.15687C106.972 7.97287 107.428 7.03687 108.34 6.34887C109.268 5.64487 110.492 5.29287 112.012 5.29287C113.036 5.29287 113.932 5.46087 114.7 5.79688C115.468 6.11687 116.06 6.57287 116.476 7.16487C116.908 7.75687 117.124 8.42887 117.124 9.18087C117.124 9.26087 117.092 9.33287 117.028 9.39687C116.98 9.44487 116.916 9.46887 116.836 9.46887H114.268C114.188 9.46887 114.116 9.44487 114.052 9.39687C114.004 9.33287 113.98 9.26087 113.98 9.18087C113.98 8.82887 113.796 8.53287 113.428 8.29287C113.076 8.05287 112.604 7.93287 112.012 7.93287C111.484 7.93287 111.052 8.02887 110.716 8.22087C110.38 8.41287 110.212 8.67687 110.212 9.01287C110.212 9.33287 110.372 9.57287 110.692 9.73287C111.028 9.89287 111.58 10.0609 112.348 10.2369C112.524 10.2849 112.724 10.3409 112.948 10.4049C113.172 10.4529 113.412 10.5169 113.668 10.5969C114.804 10.9329 115.7 11.3649 116.356 11.8929C117.012 12.4209 117.34 13.1889 117.34 14.1969C117.34 15.3809 116.868 16.3089 115.924 16.9809C114.996 17.6369 113.74 17.9649 112.156 17.9649ZM129.482 10.3569C129.578 10.9649 129.61 11.6449 129.578 12.3969C129.562 12.5889 129.458 12.6849 129.266 12.6849H121.85C121.754 12.6849 121.722 12.7249 121.754 12.8049C121.802 13.1249 121.89 13.4449 122.018 13.7649C122.434 14.6609 123.282 15.1089 124.562 15.1089C125.586 15.0929 126.394 14.6769 126.986 13.8609C127.05 13.7649 127.122 13.7169 127.202 13.7169C127.25 13.7169 127.306 13.7489 127.37 13.8129L129.098 15.5169C129.178 15.5969 129.218 15.6689 129.218 15.7329C129.218 15.7649 129.186 15.8289 129.122 15.9249C128.594 16.5809 127.914 17.0929 127.082 17.4609C126.25 17.8129 125.338 17.9889 124.346 17.9889C122.97 17.9889 121.802 17.6769 120.842 17.0529C119.898 16.4289 119.218 15.5569 118.802 14.4369C118.466 13.6369 118.298 12.5889 118.298 11.2929C118.298 10.4129 118.418 9.63687 118.658 8.96487C119.026 7.82887 119.666 6.92487 120.578 6.25287C121.506 5.58087 122.602 5.24487 123.866 5.24487C125.466 5.24487 126.746 5.70887 127.706 6.63687C128.682 7.56487 129.274 8.80487 129.482 10.3569ZM123.89 8.17287C122.882 8.17287 122.218 8.64487 121.898 9.58887C121.834 9.79687 121.778 10.0529 121.73 10.3569C121.73 10.4369 121.77 10.4769 121.85 10.4769H126.002C126.098 10.4769 126.13 10.4369 126.098 10.3569C126.018 9.89287 125.978 9.66887 125.978 9.68487C125.834 9.20487 125.578 8.83687 125.21 8.58087C124.858 8.30887 124.418 8.17287 123.89 8.17287ZM135.7 17.9649C134.628 17.9649 133.692 17.8129 132.892 17.5089C132.092 17.2049 131.468 16.7809 131.02 16.2369C130.588 15.6929 130.372 15.0769 130.372 14.3889V14.1489C130.372 14.0689 130.396 14.0049 130.444 13.9569C130.508 13.8929 130.58 13.8609 130.66 13.8609H133.324C133.404 13.8609 133.468 13.8929 133.516 13.9569C133.58 14.0049 133.612 14.0689 133.612 14.1489V14.1729C133.612 14.5249 133.804 14.8289 134.188 15.0849C134.588 15.3249 135.084 15.4449 135.676 15.4449C136.22 15.4449 136.66 15.3409 136.996 15.1329C137.332 14.9089 137.5 14.6369 137.5 14.3169C137.5 14.0289 137.356 13.8129 137.068 13.6689C136.78 13.5249 136.308 13.3729 135.652 13.2129C134.9 13.0209 134.308 12.8369 133.876 12.6609C132.852 12.3089 132.036 11.8769 131.428 11.3649C130.82 10.8529 130.516 10.1169 130.516 9.15687C130.516 7.97287 130.972 7.03687 131.884 6.34887C132.812 5.64487 134.036 5.29287 135.556 5.29287C136.58 5.29287 137.476 5.46087 138.244 5.79688C139.012 6.11687 139.604 6.57287 140.02 7.16487C140.452 7.75687 140.668 8.42887 140.668 9.18087C140.668 9.26087 140.636 9.33287 140.572 9.39687C140.524 9.44487 140.46 9.46887 140.38 9.46887H137.812C137.732 9.46887 137.66 9.44487 137.596 9.39687C137.548 9.33287 137.524 9.26087 137.524 9.18087C137.524 8.82887 137.34 8.53287 136.972 8.29287C136.62 8.05287 136.148 7.93287 135.556 7.93287C135.028 7.93287 134.596 8.02887 134.26 8.22087C133.924 8.41287 133.756 8.67687 133.756 9.01287C133.756 9.33287 133.916 9.57287 134.236 9.73287C134.572 9.89287 135.124 10.0609 135.892 10.2369C136.068 10.2849 136.268 10.3409 136.492 10.4049C136.716 10.4529 136.956 10.5169 137.212 10.5969C138.348 10.9329 139.244 11.3649 139.9 11.8929C140.556 12.4209 140.884 13.1889 140.884 14.1969C140.884 15.3809 140.412 16.3089 139.468 16.9809C138.54 17.6369 137.284 17.9649 135.7 17.9649Z" fill="url(#paint0_linear_156_2246)"/>
<defs>
<linearGradient id="paint0_linear_156_2246" x1="-24.5433" y1="-22.5865" x2="213.49" y2="30.6432" gradientUnits="userSpaceOnUse">
<stop stop-color="#0043CE"/>
<stop offset="0.06" stop-color="#7FA9FF"/>
<stop offset="1" stop-color="#E80808"/>
</linearGradient>
</defs>
</svg>
