<svg width="49" height="49" viewBox="0 0 49 49" fill="none" xmlns="http://www.w3.org/2000/svg">
<path d="M24.5 21.627C22.3783 21.627 20.3434 20.8368 18.8431 19.4303C17.3429 18.0237 16.5 16.1161 16.5 14.127C16.5 12.1378 17.3429 10.2302 18.8431 8.82365C20.3434 7.41713 22.3783 6.62695 24.5 6.62695C26.6217 6.62695 28.6566 7.41713 30.1569 8.82365C31.6571 10.2302 32.5 12.1378 32.5 14.127C32.5 16.1161 31.6571 18.0237 30.1569 19.4303C28.6566 20.8368 26.6217 21.627 24.5 21.627ZM24.5 9.62695C21.844 9.62695 19.7 11.637 19.7 14.127C19.7 16.617 21.844 18.627 24.5 18.627C27.156 18.627 29.3 16.617 29.3 14.127C29.3 11.637 27.156 9.62695 24.5 9.62695Z" fill="#1C1C1C"/>
<path d="M43.7 33.627C42.804 33.627 42.1 32.967 42.1 32.127C42.1 31.287 42.804 30.627 43.7 30.627C44.596 30.627 45.3 29.967 45.3 29.127C45.3 27.1378 44.4571 25.2302 42.9569 23.8237C41.4566 22.4171 39.4217 21.627 37.3 21.627H34.1C33.204 21.627 32.5 20.967 32.5 20.127C32.5 19.287 33.204 18.627 34.1 18.627C36.756 18.627 38.9 16.617 38.9 14.127C38.9 11.637 36.756 9.62695 34.1 9.62695C33.204 9.62695 32.5 8.96695 32.5 8.12695C32.5 7.28695 33.204 6.62695 34.1 6.62695C36.2217 6.62695 38.2566 7.41713 39.7569 8.82365C41.2571 10.2302 42.1 12.1378 42.1 14.127C42.1 15.987 41.396 17.667 40.18 18.987C44.948 20.187 48.5 24.267 48.5 29.127C48.5 31.617 46.356 33.627 43.7 33.627ZM5.3 33.627C2.644 33.627 0.5 31.617 0.5 29.127C0.5 24.267 4.02 20.187 8.82 18.987C7.636 17.667 6.9 15.987 6.9 14.127C6.9 12.1378 7.74285 10.2302 9.24315 8.82365C10.7434 7.41713 12.7783 6.62695 14.9 6.62695C15.796 6.62695 16.5 7.28695 16.5 8.12695C16.5 8.96695 15.796 9.62695 14.9 9.62695C12.244 9.62695 10.1 11.637 10.1 14.127C10.1 16.617 12.244 18.627 14.9 18.627C15.796 18.627 16.5 19.287 16.5 20.127C16.5 20.967 15.796 21.627 14.9 21.627H11.7C9.57827 21.627 7.54344 22.4171 6.04315 23.8237C4.54285 25.2302 3.7 27.1378 3.7 29.127C3.7 29.967 4.404 30.627 5.3 30.627C6.196 30.627 6.9 31.287 6.9 32.127C6.9 32.967 6.196 33.627 5.3 33.627ZM34.1 42.627H14.9C12.244 42.627 10.1 40.617 10.1 38.127V35.127C10.1 29.337 15.124 24.627 21.3 24.627H27.7C33.876 24.627 38.9 29.337 38.9 35.127V38.127C38.9 40.617 36.756 42.627 34.1 42.627ZM21.3 27.627C19.1783 27.627 17.1434 28.4171 15.6431 29.8237C14.1429 31.2302 13.3 33.1378 13.3 35.127V38.127C13.3 38.967 14.004 39.627 14.9 39.627H34.1C34.996 39.627 35.7 38.967 35.7 38.127V35.127C35.7 33.1378 34.8571 31.2302 33.3569 29.8237C31.8566 28.4171 29.8217 27.627 27.7 27.627H21.3Z" fill="black"/>
</svg>
