<svg width="20" height="20" viewBox="0 0 20 20" fill="none" xmlns="http://www.w3.org/2000/svg">
<path d="M18.0003 11.4349H11.3337V18.1015C11.3337 18.8349 10.7337 19.4349 10.0003 19.4349C9.26699 19.4349 8.66699 18.8349 8.66699 18.1015V11.4349H2.00033C1.26699 11.4349 0.666992 10.8349 0.666992 10.1015C0.666992 9.36819 1.26699 8.76819 2.00033 8.76819H8.66699V2.10152C8.66699 1.36819 9.26699 0.768188 10.0003 0.768188C10.7337 0.768188 11.3337 1.36819 11.3337 2.10152V8.76819H18.0003C18.7337 8.76819 19.3337 9.36819 19.3337 10.1015C19.3337 10.8349 18.7337 11.4349 18.0003 11.4349Z" fill="#121619"/>
</svg>
