<svg width="20" height="20" viewBox="0 0 20 20" fill="none" xmlns="http://www.w3.org/2000/svg">
<path d="M2.84454 14.6224L2.33027 15.48L2.33027 15.48L2.84454 14.6224ZM1.88725 13.6036L0.996659 14.0584L0.996669 14.0584L1.88725 13.6036ZM1.82386 10.4188L2.81851 10.5221L2.81852 10.5221L1.82386 10.4188ZM2.40566 7.77576L3.22674 8.34658L3.22675 8.34656L2.40566 7.77576ZM3.33994 6.96136L2.88264 6.07204L2.88263 6.07205L3.33994 6.96136ZM16.66 6.96136L16.2027 7.85067L16.2027 7.85068L16.66 6.96136ZM17.5943 7.77576L18.4154 7.20496L18.4154 7.20494L17.5943 7.77576ZM18.176 10.4188L17.1814 10.5221L17.1814 10.5221L18.176 10.4188ZM18.1126 13.6036L17.2221 13.1487L17.222 13.1488L18.1126 13.6036ZM17.1554 14.6224L16.6411 13.7648L16.6411 13.7648L17.1554 14.6224ZM13.6785 2.15491L12.9714 2.86202L12.9714 2.86203L13.6785 2.15491ZM6.32145 2.15491L7.02855 2.86202L7.02857 2.86201L6.32145 2.15491ZM7.24315 13.4242L7.59286 14.361L7.59307 14.3609L7.24315 13.4242ZM6.45513 14.0917L5.59735 13.5776L5.5973 13.5777L6.45513 14.0917ZM6.10733 15.2271L5.13286 15.0025L5.13286 15.0025L6.10733 15.2271ZM5.85629 17.0125L4.87485 17.2043L4.87486 17.2043L5.85629 17.0125ZM6.68539 18.1646L7.15336 17.2808L7.15318 17.2807L6.68539 18.1646ZM13.3145 18.1646L12.8467 17.2808L12.8466 17.2808L13.3145 18.1646ZM14.1436 17.0125L13.1622 16.8207L13.1622 16.8208L14.1436 17.0125ZM13.8926 15.2271L14.8671 15.0026L14.8671 15.0025L13.8926 15.2271ZM13.5448 14.0917L14.4027 13.5778L14.4025 13.5776L13.5448 14.0917ZM12.7568 13.4242L12.4069 14.361L12.4071 14.361L12.7568 13.4242ZM15 9.00008C14.4477 9.00008 14 9.4478 14 10.0001C14 10.5524 14.4477 11.0001 15 11.0001V9.00008ZM15.0075 11.0001C15.5597 11.0001 16.0075 10.5524 16.0075 10.0001C16.0075 9.4478 15.5597 9.00008 15.0075 9.00008V11.0001ZM6.12826 14.0001C5.22502 14.0001 4.61474 13.9991 4.14934 13.957C3.69497 13.9158 3.48818 13.8424 3.3588 13.7648L2.33027 15.48C2.83072 15.7801 3.38115 15.8955 3.96887 15.9488C4.54556 16.001 5.26224 16.0001 6.12826 16.0001V14.0001ZM3.35881 13.7648C3.10444 13.6123 2.90484 13.3974 2.77784 13.1488L0.996669 14.0584C1.29772 14.6479 1.76136 15.1389 2.33027 15.48L3.35881 13.7648ZM2.77785 13.1488C2.71799 13.0316 2.66409 12.8426 2.66672 12.4127C2.66943 11.9688 2.72842 11.3899 2.81851 10.5221L0.829208 10.3156C0.743254 11.1434 0.670204 11.8362 0.666757 12.4005C0.663225 12.9788 0.72905 13.5343 0.996659 14.0584L2.77785 13.1488ZM2.81852 10.5221C2.89386 9.7964 2.94448 9.31787 3.01577 8.95332C3.08401 8.60436 3.15626 8.44795 3.22674 8.34658L1.58459 7.20494C1.2937 7.62335 1.14853 8.08072 1.05295 8.56948C0.960419 9.04265 0.900823 9.62576 0.829207 10.3156L2.81852 10.5221ZM3.22675 8.34656C3.3689 8.14208 3.5639 7.97066 3.79724 7.85067L2.88263 6.07205C2.36368 6.33891 1.9169 6.7269 1.58457 7.20495L3.22675 8.34656ZM3.79724 7.85067C3.92002 7.78753 4.10191 7.73155 4.47834 7.7001C4.86793 7.66756 5.373 7.66675 6.12826 7.66675V5.66675C5.40659 5.66675 4.80396 5.66594 4.31185 5.70705C3.80659 5.74925 3.33278 5.84057 2.88264 6.07204L3.79724 7.85067ZM6.12826 7.66675H13.8716V5.66675H6.12826V7.66675ZM13.8716 7.66675C14.6269 7.66675 15.132 7.66756 15.5216 7.7001C15.898 7.73155 16.0799 7.78753 16.2027 7.85067L17.1173 6.07205C16.6671 5.84058 16.1933 5.74925 15.6881 5.70705C15.196 5.66594 14.5933 5.66675 13.8716 5.66675V7.66675ZM16.2027 7.85068C16.4361 7.97068 16.6311 8.14211 16.7732 8.34657L18.4154 7.20494C18.083 6.72687 17.6362 6.33888 17.1173 6.07204L16.2027 7.85068ZM16.7732 8.34655C16.8437 8.44793 16.9159 8.60436 16.9842 8.95331C17.0554 9.31785 17.1061 9.79639 17.1814 10.5221L19.1707 10.3156C19.0991 9.62578 19.0395 9.04267 18.947 8.56949C18.8514 8.08073 18.7062 7.62336 18.4154 7.20496L16.7732 8.34655ZM17.1814 10.5221C17.2715 11.3899 17.3305 11.9688 17.3332 12.4127C17.3358 12.8426 17.2819 13.0315 17.2221 13.1487L19.0032 14.0584C19.2708 13.5344 19.3367 12.9788 19.3332 12.4005C19.3297 11.8362 19.2567 11.1434 19.1707 10.3155L17.1814 10.5221ZM17.222 13.1488C17.095 13.3975 16.8955 13.6123 16.6411 13.7648L17.6696 15.4801C18.2386 15.1389 18.7022 14.6478 19.0032 14.0584L17.222 13.1488ZM16.6411 13.7648C16.5117 13.8424 16.3049 13.9158 15.8506 13.957C15.3852 13.9991 14.7749 14.0001 13.8716 14.0001V16.0001C14.7377 16.0001 15.4544 16.001 16.031 15.9488C16.6188 15.8955 17.1692 15.7801 17.6696 15.48L16.6411 13.7648ZM15.1666 6.66675V5.00008H13.1666V6.66675H15.1666ZM15.1666 5.00008C15.1666 4.24268 15.1688 3.57402 15.0967 3.03804C15.0208 2.47329 14.8464 1.90863 14.3856 1.44779L12.9714 2.86203C12.9987 2.88933 13.0684 2.96158 13.1145 3.30454C13.1645 3.67628 13.1666 4.18614 13.1666 5.00008H15.1666ZM14.3856 1.44779C13.9247 0.986953 13.3601 0.812614 12.7953 0.736685C12.2593 0.664624 11.5907 0.666748 10.8333 0.666748V2.66675C11.6472 2.66675 12.1571 2.66887 12.5288 2.71885C12.8718 2.76496 12.944 2.8347 12.9714 2.86202L14.3856 1.44779ZM10.8333 0.666748H9.16663V2.66675H10.8333V0.666748ZM9.16663 0.666748C8.40922 0.666748 7.74057 0.664624 7.20459 0.736685C6.63985 0.812614 6.07519 0.986953 5.61434 1.44781L7.02857 2.86201C7.05587 2.8347 7.12812 2.76496 7.47109 2.71885C7.84282 2.66887 8.35268 2.66675 9.16663 2.66675V0.666748ZM5.61435 1.44779C5.1535 1.90864 4.97916 2.4733 4.90323 3.03805C4.83117 3.57402 4.83329 4.24268 4.83329 5.00008H6.83329C6.83329 4.18614 6.83542 3.67628 6.8854 3.30454C6.93151 2.96158 7.00125 2.88932 7.02855 2.86202L5.61435 1.44779ZM4.83329 5.00008V6.66675H6.83329V5.00008H4.83329ZM11.6572 12.3334H8.34271V14.3334H11.6572V12.3334ZM8.34271 12.3334C7.85347 12.3334 7.34657 12.318 6.89323 12.4874L7.59307 14.3609C7.62563 14.3488 7.68982 14.3334 8.34271 14.3334V12.3334ZM6.89345 12.4873C6.34573 12.6918 5.89419 13.0823 5.59735 13.5776L7.3129 14.6057C7.3895 14.4779 7.49271 14.3984 7.59286 14.361L6.89345 12.4873ZM5.5973 13.5777C5.35605 13.9804 5.25479 14.4734 5.13286 15.0025L7.08179 15.4516C7.23688 14.7786 7.27413 14.6704 7.31296 14.6056L5.5973 13.5777ZM5.13286 15.0025C5.02781 15.4585 4.93707 15.8498 4.8855 16.1735C4.8332 16.5018 4.80518 16.8477 4.87485 17.2043L6.83772 16.8207C6.83381 16.8007 6.82309 16.7235 6.8606 16.4881C6.89884 16.248 6.97042 15.9349 7.08179 15.4516L5.13286 15.0025ZM4.87486 17.2043C5.02669 17.9811 5.50663 18.6721 6.21761 19.0484L7.15318 17.2807C7.01391 17.207 6.88215 17.048 6.83772 16.8207L4.87486 17.2043ZM6.21743 19.0483C6.55159 19.2253 6.89946 19.2835 7.21899 19.3091C7.53129 19.3342 7.91304 19.3334 8.34271 19.3334V17.3334C7.88006 17.3334 7.59258 17.3327 7.37901 17.3155C7.17267 17.299 7.13804 17.2727 7.15336 17.2808L6.21743 19.0483ZM8.34271 19.3334H11.6572V17.3334H8.34271V19.3334ZM11.6572 19.3334C12.0869 19.3334 12.4687 19.3342 12.7809 19.3091C13.1005 19.2835 13.4484 19.2253 13.7825 19.0483L12.8466 17.2808C12.8619 17.2727 12.8273 17.299 12.6209 17.3155C12.4074 17.3327 12.1199 17.3334 11.6572 17.3334V19.3334ZM13.7824 19.0484C14.4932 18.6722 14.9733 17.9812 15.1251 17.2042L13.1622 16.8208C13.1178 17.048 12.986 17.207 12.8467 17.2808L13.7824 19.0484ZM15.1251 17.2043C15.1947 16.8478 15.1667 16.5018 15.1144 16.1735C15.0629 15.8498 14.9722 15.4585 14.8671 15.0026L12.9182 15.4516C13.0295 15.9349 13.1011 16.248 13.1393 16.4881C13.1768 16.7235 13.1661 16.8006 13.1622 16.8207L15.1251 17.2043ZM14.8671 15.0025C14.7451 14.4732 14.6438 13.9804 14.4027 13.5778L12.6869 14.6055C12.7258 14.6704 12.7631 14.7788 12.9182 15.4516L14.8671 15.0025ZM14.4025 13.5776C14.1057 13.0823 13.6543 12.6918 13.1065 12.4873L12.4071 14.361C12.5072 14.3984 12.6104 14.4778 12.6871 14.6058L14.4025 13.5776ZM13.1067 12.4874C12.6533 12.3181 12.1465 12.3334 11.6572 12.3334V14.3334C12.3101 14.3334 12.3743 14.3488 12.4069 14.361L13.1067 12.4874ZM15 11.0001H15.0075V9.00008H15V11.0001Z" fill="#545454"/>
</svg>
