<svg width="71" height="71" viewBox="0 0 71 71" fill="none" xmlns="http://www.w3.org/2000/svg">
<path d="M34.92 64.7751C33.2725 67.3651 31.015 69.1176 29.795 69.6301L18.0775 57.0851V0.370117H52.925V50.4651L41.02 69.5726C38.775 68.5151 36.855 66.2226 35.9175 64.7826C35.6925 64.4376 35.1425 64.4301 34.92 64.7751Z" fill="url(#paint0_linear_766_1325)"/>
<path d="M34.92 64.7751C33.2725 67.3651 31.015 69.1176 29.795 69.6301L18.0775 57.0851V0.370117H52.925V50.4651L41.02 69.5726C38.775 68.5151 36.855 66.2226 35.9175 64.7826C35.6925 64.4376 35.1425 64.4301 34.92 64.7751Z" fill="url(#paint1_radial_766_1325)"/>
<path d="M34.92 64.7751C33.2725 67.3651 31.015 69.1176 29.795 69.6301L18.0775 57.0851V0.370117H52.925V50.4651L41.02 69.5726C38.775 68.5151 36.855 66.2226 35.9175 64.7826C35.6925 64.4376 35.1425 64.4301 34.92 64.7751Z" fill="url(#paint2_linear_766_1325)"/>
<g filter="url(#filter0_f_766_1325)">
<path d="M67.0575 60.8501V30.5876C67.0575 28.4701 66.4825 26.3926 65.4 24.5726L61.3625 17.8001C59.5023 14.6819 58.2621 11.2337 57.71 7.6451L57.6225 7.0801C57.4098 5.69366 56.7077 4.42921 55.6433 3.5157C54.579 2.60219 53.2226 2.10001 51.82 2.1001H49.58C47.3425 2.1001 45.3475 3.5101 44.6 5.6176L36.3125 28.9476C35.7743 30.463 35.4995 32.0594 35.5 33.6676V57.9451C35.5 59.7701 37.385 62.1101 39 62.9601C42.48 64.8001 46.755 67.8976 50.69 67.8976H60.0125C60.9377 67.8976 61.8538 67.7154 62.7085 67.3613C63.5632 67.0073 64.3399 66.4884 64.9941 65.8342C65.6483 65.18 66.1672 64.4033 66.5212 63.5486C66.8753 62.6939 67.0575 61.7753 67.0575 60.8501Z" fill="#9A1D43"/>
</g>
<g filter="url(#filter1_ii_766_1325)">
<path d="M0.422485 62.9101V30.6926C0.422285 28.4374 1.03216 26.2243 2.18749 24.2876L6.48748 17.0851C8.46787 13.765 9.78791 10.0935 10.375 6.27256L10.4675 5.67256C10.6944 4.19734 11.4417 2.85202 12.5743 1.87992C13.7068 0.907816 15.1499 0.373127 16.6425 0.372559H19.0275C21.41 0.372559 23.5325 1.87006 24.3275 4.11256L33.1525 28.9526C33.7225 30.5626 34.015 32.2601 34.015 33.9726V62.9101C34.015 64.8992 33.2248 66.8068 31.8183 68.2134C30.4118 69.6199 28.5041 70.4101 26.515 70.4101H7.92498C5.93586 70.4101 4.02821 69.6199 2.62168 68.2134C1.21516 66.8068 0.424986 64.8992 0.424986 62.9101" fill="url(#paint3_linear_766_1325)"/>
<path d="M0.422485 62.9101V30.6926C0.422285 28.4374 1.03216 26.2243 2.18749 24.2876L6.48748 17.0851C8.46787 13.765 9.78791 10.0935 10.375 6.27256L10.4675 5.67256C10.6944 4.19734 11.4417 2.85202 12.5743 1.87992C13.7068 0.907816 15.1499 0.373127 16.6425 0.372559H19.0275C21.41 0.372559 23.5325 1.87006 24.3275 4.11256L33.1525 28.9526C33.7225 30.5626 34.015 32.2601 34.015 33.9726V62.9101C34.015 64.8992 33.2248 66.8068 31.8183 68.2134C30.4118 69.6199 28.5041 70.4101 26.515 70.4101H7.92498C5.93586 70.4101 4.02821 69.6199 2.62168 68.2134C1.21516 66.8068 0.424986 64.8992 0.424986 62.9101" fill="url(#paint4_linear_766_1325)"/>
<path d="M0.422485 62.9101V30.6926C0.422285 28.4374 1.03216 26.2243 2.18749 24.2876L6.48748 17.0851C8.46787 13.765 9.78791 10.0935 10.375 6.27256L10.4675 5.67256C10.6944 4.19734 11.4417 2.85202 12.5743 1.87992C13.7068 0.907816 15.1499 0.373127 16.6425 0.372559H19.0275C21.41 0.372559 23.5325 1.87006 24.3275 4.11256L33.1525 28.9526C33.7225 30.5626 34.015 32.2601 34.015 33.9726V62.9101C34.015 64.8992 33.2248 66.8068 31.8183 68.2134C30.4118 69.6199 28.5041 70.4101 26.515 70.4101H7.92498C5.93586 70.4101 4.02821 69.6199 2.62168 68.2134C1.21516 66.8068 0.424986 64.8992 0.424986 62.9101" fill="url(#paint5_linear_766_1325)"/>
</g>
<g filter="url(#filter2_ii_766_1325)">
<path d="M70.5399 62.9101V30.6926C70.5394 28.4372 69.9286 26.224 68.7724 24.2876L64.4749 17.0851C62.4946 13.765 61.1745 10.0935 60.5874 6.27256L60.4949 5.67256C60.268 4.19692 59.5203 2.85126 58.3872 1.8791C57.2541 0.906949 55.8104 0.372529 54.3174 0.372559H51.9324C49.5524 0.372559 47.4274 1.87006 46.6324 4.11256L37.8099 28.9526C37.2376 30.5644 36.945 32.2621 36.9449 33.9726V62.9101C36.9449 64.8992 37.7351 66.8068 39.1416 68.2134C40.5482 69.6199 42.4558 70.4101 44.4449 70.4101H63.0399C65.0291 70.4101 66.9367 69.6199 68.3432 68.2134C69.7498 66.8068 70.5399 64.8992 70.5399 62.9101Z" fill="url(#paint6_linear_766_1325)"/>
<path d="M70.5399 62.9101V30.6926C70.5394 28.4372 69.9286 26.224 68.7724 24.2876L64.4749 17.0851C62.4946 13.765 61.1745 10.0935 60.5874 6.27256L60.4949 5.67256C60.268 4.19692 59.5203 2.85126 58.3872 1.8791C57.2541 0.906949 55.8104 0.372529 54.3174 0.372559H51.9324C49.5524 0.372559 47.4274 1.87006 46.6324 4.11256L37.8099 28.9526C37.2376 30.5644 36.945 32.2621 36.9449 33.9726V62.9101C36.9449 64.8992 37.7351 66.8068 39.1416 68.2134C40.5482 69.6199 42.4558 70.4101 44.4449 70.4101H63.0399C65.0291 70.4101 66.9367 69.6199 68.3432 68.2134C69.7498 66.8068 70.5399 64.8992 70.5399 62.9101Z" fill="url(#paint7_linear_766_1325)"/>
<path d="M70.5399 62.9101V30.6926C70.5394 28.4372 69.9286 26.224 68.7724 24.2876L64.4749 17.0851C62.4946 13.765 61.1745 10.0935 60.5874 6.27256L60.4949 5.67256C60.268 4.19692 59.5203 2.85126 58.3872 1.8791C57.2541 0.906949 55.8104 0.372529 54.3174 0.372559H51.9324C49.5524 0.372559 47.4274 1.87006 46.6324 4.11256L37.8099 28.9526C37.2376 30.5644 36.945 32.2621 36.9449 33.9726V62.9101C36.9449 64.8992 37.7351 66.8068 39.1416 68.2134C40.5482 69.6199 42.4558 70.4101 44.4449 70.4101H63.0399C65.0291 70.4101 66.9367 69.6199 68.3432 68.2134C69.7498 66.8068 70.5399 64.8992 70.5399 62.9101Z" fill="url(#paint8_radial_766_1325)"/>
</g>
<path d="M20.4225 0.545118C19.9666 0.428648 19.498 0.369855 19.0275 0.370118H16.6425C16.255 0.370118 15.8725 0.407618 15.5 0.475118V50.1176H0.422485V55.0401H34.015V50.1151H20.425L20.4225 0.545118Z" fill="url(#paint9_linear_766_1325)"/>
<path d="M20.4225 0.545118C19.9666 0.428648 19.498 0.369855 19.0275 0.370118H16.6425C16.255 0.370118 15.8725 0.407618 15.5 0.475118V50.1176H0.422485V55.0401H34.015V50.1151H20.425L20.4225 0.545118Z" fill="url(#paint10_linear_766_1325)"/>
<path d="M20.4225 0.545118C19.9666 0.428648 19.498 0.369855 19.0275 0.370118H16.6425C16.255 0.370118 15.8725 0.407618 15.5 0.475118V50.1176H0.422485V55.0401H34.015V50.1151H20.425L20.4225 0.545118Z" fill="url(#paint11_linear_766_1325)"/>
<path d="M20.4225 0.545118C19.9666 0.428648 19.498 0.369855 19.0275 0.370118H16.6425C16.255 0.370118 15.8725 0.407618 15.5 0.475118V50.1176H0.422485V55.0401H34.015V50.1151H20.425L20.4225 0.545118Z" fill="url(#paint12_linear_766_1325)"/>
<path d="M50.5399 0.545117C50.9874 0.432617 51.4549 0.370117 51.9324 0.370117H54.3174C54.7074 0.370117 55.0899 0.407617 55.4599 0.475117V50.1176H70.5399V55.0401H36.9449V50.1151H50.5399V0.545117Z" fill="url(#paint13_linear_766_1325)"/>
<path d="M50.5399 0.545117C50.9874 0.432617 51.4549 0.370117 51.9324 0.370117H54.3174C54.7074 0.370117 55.0899 0.407617 55.4599 0.475117V50.1176H70.5399V55.0401H36.9449V50.1151H50.5399V0.545117Z" fill="url(#paint14_linear_766_1325)"/>
<path d="M50.5399 0.545117C50.9874 0.432617 51.4549 0.370117 51.9324 0.370117H54.3174C54.7074 0.370117 55.0899 0.407617 55.4599 0.475117V50.1176H70.5399V55.0401H36.9449V50.1151H50.5399V0.545117Z" fill="url(#paint15_linear_766_1325)"/>
<defs>
<filter id="filter0_f_766_1325" x="34.5" y="1.1001" width="33.5575" height="67.7976" filterUnits="userSpaceOnUse" color-interpolation-filters="sRGB">
<feFlood flood-opacity="0" result="BackgroundImageFix"/>
<feBlend mode="normal" in="SourceGraphic" in2="BackgroundImageFix" result="shape"/>
<feGaussianBlur stdDeviation="0.5" result="effect1_foregroundBlur_766_1325"/>
</filter>
<filter id="filter1_ii_766_1325" x="0.322485" y="0.372559" width="34.1925" height="70.0376" filterUnits="userSpaceOnUse" color-interpolation-filters="sRGB">
<feFlood flood-opacity="0" result="BackgroundImageFix"/>
<feBlend mode="normal" in="SourceGraphic" in2="BackgroundImageFix" result="shape"/>
<feColorMatrix in="SourceAlpha" type="matrix" values="0 0 0 0 0 0 0 0 0 0 0 0 0 0 0 0 0 0 127 0" result="hardAlpha"/>
<feOffset dx="0.5"/>
<feGaussianBlur stdDeviation="0.5"/>
<feComposite in2="hardAlpha" operator="arithmetic" k2="-1" k3="1"/>
<feColorMatrix type="matrix" values="0 0 0 0 0.87451 0 0 0 0 0.329412 0 0 0 0 0.278431 0 0 0 1 0"/>
<feBlend mode="normal" in2="shape" result="effect1_innerShadow_766_1325"/>
<feColorMatrix in="SourceAlpha" type="matrix" values="0 0 0 0 0 0 0 0 0 0 0 0 0 0 0 0 0 0 127 0" result="hardAlpha"/>
<feOffset dx="-0.1"/>
<feGaussianBlur stdDeviation="0.375"/>
<feComposite in2="hardAlpha" operator="arithmetic" k2="-1" k3="1"/>
<feColorMatrix type="matrix" values="0 0 0 0 1 0 0 0 0 0.454902 0 0 0 0 0.0862745 0 0 0 1 0"/>
<feBlend mode="normal" in2="effect1_innerShadow_766_1325" result="effect2_innerShadow_766_1325"/>
</filter>
<filter id="filter2_ii_766_1325" x="36.8449" y="0.372559" width="34.195" height="70.0376" filterUnits="userSpaceOnUse" color-interpolation-filters="sRGB">
<feFlood flood-opacity="0" result="BackgroundImageFix"/>
<feBlend mode="normal" in="SourceGraphic" in2="BackgroundImageFix" result="shape"/>
<feColorMatrix in="SourceAlpha" type="matrix" values="0 0 0 0 0 0 0 0 0 0 0 0 0 0 0 0 0 0 127 0" result="hardAlpha"/>
<feOffset dx="0.5"/>
<feGaussianBlur stdDeviation="0.5"/>
<feComposite in2="hardAlpha" operator="arithmetic" k2="-1" k3="1"/>
<feColorMatrix type="matrix" values="0 0 0 0 0.909804 0 0 0 0 0.211765 0 0 0 0 0.0470588 0 0 0 1 0"/>
<feBlend mode="normal" in2="shape" result="effect1_innerShadow_766_1325"/>
<feColorMatrix in="SourceAlpha" type="matrix" values="0 0 0 0 0 0 0 0 0 0 0 0 0 0 0 0 0 0 127 0" result="hardAlpha"/>
<feOffset dx="-0.1"/>
<feGaussianBlur stdDeviation="0.375"/>
<feComposite in2="hardAlpha" operator="arithmetic" k2="-1" k3="1"/>
<feColorMatrix type="matrix" values="0 0 0 0 0.996078 0 0 0 0 0.623529 0 0 0 0 0.403922 0 0 0 1 0"/>
<feBlend mode="normal" in2="effect1_innerShadow_766_1325" result="effect2_innerShadow_766_1325"/>
</filter>
<linearGradient id="paint0_linear_766_1325" x1="35.5" y1="0.370117" x2="35.5" y2="64.4926" gradientUnits="userSpaceOnUse">
<stop offset="0.005" stop-color="#D33B65"/>
<stop offset="0.082" stop-color="#D33567"/>
<stop offset="1" stop-color="#9D244B"/>
</linearGradient>
<radialGradient id="paint1_radial_766_1325" cx="0" cy="0" r="1" gradientUnits="userSpaceOnUse" gradientTransform="translate(35.5 65.2801) rotate(-90) scale(6.5645 3.92642)">
<stop stop-color="#B41C6A"/>
<stop offset="1" stop-color="#B41C6A" stop-opacity="0"/>
</radialGradient>
<linearGradient id="paint2_linear_766_1325" x1="35.5" y1="0.370117" x2="35.5" y2="2.74512" gradientUnits="userSpaceOnUse">
<stop stop-color="#CB375B"/>
<stop offset="1" stop-color="#CB375B" stop-opacity="0"/>
</linearGradient>
<linearGradient id="paint3_linear_766_1325" x1="17.22" y1="0.370059" x2="17.22" y2="70.4101" gradientUnits="userSpaceOnUse">
<stop stop-color="#FD792C"/>
<stop offset="1" stop-color="#FF2F52"/>
</linearGradient>
<linearGradient id="paint4_linear_766_1325" x1="34.6625" y1="62.9101" x2="26.0575" y2="62.9101" gradientUnits="userSpaceOnUse">
<stop stop-color="#FF6652"/>
<stop offset="1" stop-color="#FF6652" stop-opacity="0"/>
</linearGradient>
<linearGradient id="paint5_linear_766_1325" x1="29.685" y1="15.8801" x2="18.1225" y2="19.9426" gradientUnits="userSpaceOnUse">
<stop stop-color="#FFA362"/>
<stop offset="1" stop-color="#FF7F4D" stop-opacity="0"/>
</linearGradient>
<linearGradient id="paint6_linear_766_1325" x1="53.7424" y1="23.1001" x2="53.7424" y2="70.4101" gradientUnits="userSpaceOnUse">
<stop stop-color="#FF7C39"/>
<stop offset="1" stop-color="#FF2F52"/>
</linearGradient>
<linearGradient id="paint7_linear_766_1325" x1="71.3399" y1="62.9101" x2="61.8649" y2="62.9101" gradientUnits="userSpaceOnUse">
<stop stop-color="#FF6652"/>
<stop offset="1" stop-color="#FF6652" stop-opacity="0"/>
</linearGradient>
<radialGradient id="paint8_radial_766_1325" cx="0" cy="0" r="1" gradientUnits="userSpaceOnUse" gradientTransform="translate(65.6249 13.3901) rotate(151.844) scale(11.8159 45.97)">
<stop offset="0.254" stop-color="#FFA967"/>
<stop offset="1" stop-color="#FF7D49" stop-opacity="0"/>
</radialGradient>
<linearGradient id="paint9_linear_766_1325" x1="17.22" y1="10.7476" x2="17.22" y2="55.0401" gradientUnits="userSpaceOnUse">
<stop stop-color="#DBD2E5"/>
<stop offset="1" stop-color="#E3C8FE"/>
</linearGradient>
<linearGradient id="paint10_linear_766_1325" x1="0.422485" y1="53.0051" x2="6.20249" y2="53.0051" gradientUnits="userSpaceOnUse">
<stop stop-color="#B8A7CA"/>
<stop offset="1" stop-color="#B8A7CA" stop-opacity="0"/>
</linearGradient>
<linearGradient id="paint11_linear_766_1325" x1="34.96" y1="55.0401" x2="27.0375" y2="55.0401" gradientUnits="userSpaceOnUse">
<stop offset="0.074" stop-color="#F4DDFF"/>
<stop offset="1" stop-color="#F4DDFF" stop-opacity="0"/>
</linearGradient>
<linearGradient id="paint12_linear_766_1325" x1="34.015" y1="55.0401" x2="31.66" y2="55.0401" gradientUnits="userSpaceOnUse">
<stop offset="0.074" stop-color="#DDC0E3"/>
<stop offset="1" stop-color="#EDD4FF" stop-opacity="0"/>
</linearGradient>
<linearGradient id="paint13_linear_766_1325" x1="53.7424" y1="10.7476" x2="53.7424" y2="55.0401" gradientUnits="userSpaceOnUse">
<stop stop-color="#DBD2E5"/>
<stop offset="1" stop-color="#E3C8FE"/>
</linearGradient>
<linearGradient id="paint14_linear_766_1325" x1="36.9449" y1="53.0051" x2="43.7299" y2="53.0051" gradientUnits="userSpaceOnUse">
<stop stop-color="#B8A7CA"/>
<stop offset="1" stop-color="#B8A7CA" stop-opacity="0"/>
</linearGradient>
<linearGradient id="paint15_linear_766_1325" x1="70.5399" y1="55.0401" x2="63.9699" y2="55.0401" gradientUnits="userSpaceOnUse">
<stop offset="0.074" stop-color="#F4DDFF"/>
<stop offset="1" stop-color="#F4DDFF" stop-opacity="0"/>
</linearGradient>
</defs>
</svg>
