<svg width="24" height="24" viewBox="0 0 24 24" fill="none" xmlns="http://www.w3.org/2000/svg">
<path d="M14.03 13.3371L14.3096 12.9877C14.6725 12.534 14.9632 12.0082 15.1794 11.4061C15.3921 10.8136 15.5 10.1795 15.5 9.50018L14.03 13.3371ZM14.03 13.3371L14.3464 13.6536M14.03 13.3371L14.3464 13.6536M14.3464 13.6536L19.9464 19.2536C20.0268 19.334 20.075 19.4357 20.075 19.6C20.075 19.7643 20.0268 19.866 19.9464 19.9464C19.866 20.0268 19.7643 20.075 19.6 20.075C19.4357 20.075 19.334 20.0268 19.2536 19.9464L13.6536 14.3464L13.3371 14.03M14.3464 13.6536L13.3371 14.03M13.3371 14.03L12.9877 14.3096M13.3371 14.03L12.9877 14.3096M12.9877 14.3096C12.534 14.6725 12.0082 14.9632 11.4061 15.1794C10.8135 15.3921 10.1793 15.5 9.5 15.5C7.81289 15.5 6.4037 14.9212 5.24165 13.7585M12.9877 14.3096L5.24165 13.7585M5.24165 13.7585C4.07948 12.5958 3.50066 11.1865 3.5 9.5L5.24165 13.7585ZM13.0416 13.0406C12.0715 14.0106 10.8813 14.4999 9.50027 14.5C9.50018 14.5 9.50009 14.5 9.5 14.5V14L13.0416 13.0406ZM13.0416 13.0406C14.0117 12.0704 14.5007 10.8804 14.5 9.49973M13.0416 13.0406L14.5 9.49973M14.5 9.49973C14.4999 8.1187 14.0106 6.92851 13.0406 5.95845M14.5 9.49973C14.5 9.49982 14.5 9.49991 14.5 9.5H14L13.0406 5.95845M13.0406 5.95845C12.0705 4.98837 10.8805 4.49933 9.5 4.5L13.0406 5.95845ZM3.5 9.49982C3.50004 7.81278 4.07883 6.40366 5.24146 5.24165C6.40424 4.07948 7.81354 3.50066 9.5 3.5L3.5 9.49982ZM9.50018 3.5C11.1872 3.50004 12.5963 4.07883 13.7584 5.24146C14.9205 6.40424 15.4993 7.81354 15.5 9.5L9.50018 3.5ZM9.49973 4.5C8.11869 4.50006 6.92851 4.98938 5.95845 5.95945C4.98837 6.92952 4.49933 8.11946 4.5 9.5L9.49973 4.5Z" fill="#363A43" stroke="#A3AEBD"/>
</svg>
