<svg width="20" height="20" viewBox="0 0 20 20" fill="none" xmlns="http://www.w3.org/2000/svg">
<path d="M17.7645 5.95108L17.3532 5.23725C17.0421 4.69739 16.8866 4.42746 16.6219 4.31982C16.3572 4.21219 16.0579 4.29712 15.4593 4.46699L14.4425 4.7534C14.0603 4.84154 13.6593 4.79154 13.3104 4.61225L13.0297 4.45027C12.7304 4.25861 12.5003 3.97603 12.3728 3.64387L12.0946 2.81272C11.9116 2.2627 11.8201 1.9877 11.6023 1.8304C11.3845 1.6731 11.0952 1.6731 10.5165 1.6731H9.5875C9.00892 1.6731 8.71958 1.6731 8.50175 1.8304C8.28396 1.9877 8.19247 2.2627 8.00949 2.81272L7.73119 3.64387C7.60379 3.97603 7.37363 4.25861 7.07439 4.45027L6.79366 4.61225C6.4447 4.79154 6.04374 4.84154 5.66157 4.7534L4.64471 4.46699C4.04609 4.29712 3.74679 4.21219 3.48214 4.31982C3.21749 4.42746 3.06196 4.69739 2.75088 5.23725L2.33956 5.95108C2.04797 6.45712 1.90217 6.71015 1.93047 6.9795C1.95876 7.24885 2.15394 7.4659 2.5443 7.90002L3.4035 8.86059C3.6135 9.12642 3.76259 9.58975 3.76259 10.0063C3.76259 10.4231 3.61355 10.8863 3.40353 11.1522L2.5443 12.1128C2.15394 12.5469 1.95877 12.7639 1.93047 13.0333C1.90217 13.3027 2.04797 13.5557 2.33956 14.0617L2.75087 14.7755C3.06194 15.3153 3.21749 15.5853 3.48214 15.6929C3.74679 15.8006 4.0461 15.7157 4.64473 15.5458L5.66153 15.2593C6.04378 15.1712 6.44481 15.2213 6.79381 15.4006L7.0745 15.5626C7.37368 15.7543 7.60378 16.0368 7.73117 16.3689L8.00949 17.2002C8.19247 17.7502 8.28396 18.0252 8.50175 18.1825C8.71958 18.3398 9.00892 18.3398 9.5875 18.3398H10.5165C11.0952 18.3398 11.3845 18.3398 11.6023 18.1825C11.8201 18.0252 11.9116 17.7502 12.0946 17.2002L12.3729 16.3689C12.5003 16.0368 12.7303 15.7543 13.0296 15.5626L13.3103 15.4006C13.6593 15.2213 14.0603 15.1712 14.4425 15.2593L15.4593 15.5458C16.0579 15.7157 16.3572 15.8006 16.6219 15.6929C16.8866 15.5853 17.0421 15.3153 17.3532 14.7755L17.7645 14.0617C18.0561 13.5557 18.2018 13.3027 18.1736 13.0333C18.1452 12.7639 17.9501 12.5469 17.5598 12.1128L16.7005 11.1522C16.4905 10.8863 16.3414 10.4231 16.3414 10.0063C16.3414 9.58975 16.4906 9.12642 16.7005 8.86059L17.5598 7.90002C17.9501 7.4659 18.1452 7.24885 18.1736 6.9795C18.2018 6.71015 18.0561 6.45712 17.7645 5.95108Z" stroke="#fff" stroke-width="1.5"/>
<path d="M12.9328 9.99992C12.9328 11.6108 11.627 12.9166 10.0162 12.9166C8.40533 12.9166 7.09953 11.6108 7.09953 9.99992C7.09953 8.38909 8.40533 7.08325 10.0162 7.08325C11.627 7.08325 12.9328 8.38909 12.9328 9.99992Z" stroke="#fff" stroke-width="1.5"/>
</svg>
