<svg width="40" height="40" viewBox="0 0 40 40" fill="none" xmlns="http://www.w3.org/2000/svg">
<path d="M26.1243 6.66669H13.876C11.436 6.66669 10.2159 6.66669 9.27103 7.35442C8.32614 8.04215 7.87303 9.25995 6.96679 11.6956L5.47849 15.6956C3.62899 20.6664 2.70424 23.1517 3.81106 24.9092C4.91786 26.6667 7.40783 26.6667 12.3878 26.6667H27.6125C32.5925 26.6667 35.0825 26.6667 36.1893 24.9092C37.296 23.1517 36.3713 20.6664 34.5218 15.6956L33.0335 11.6956C32.1273 9.25995 31.6742 8.04215 30.7293 7.35442C29.7845 6.66669 28.5643 6.66669 26.1243 6.66669Z" stroke="#6F6F6F" stroke-width="3" stroke-linecap="round" stroke-linejoin="round"/>
<path d="M20 26.6667V33.3334M20 33.3334H25M20 33.3334H15" stroke="#6F6F6F" stroke-width="3" stroke-linecap="round" stroke-linejoin="round"/>
<path d="M16.6668 6.66669L13.3335 26.6667" stroke="#6F6F6F" stroke-width="3" stroke-linecap="round" stroke-linejoin="round"/>
<path d="M23.3335 6.66669L26.6668 26.6667" stroke="#6F6F6F" stroke-width="3" stroke-linecap="round" stroke-linejoin="round"/>
<path d="M34.1668 16.6667H5.8335" stroke="#6F6F6F" stroke-width="3" stroke-linecap="round" stroke-linejoin="round"/>
</svg>
