<svg width="66" height="32" viewBox="0 0 66 32" fill="none" xmlns="http://www.w3.org/2000/svg">
<path fill-rule="evenodd" clip-rule="evenodd" d="M5.13748 4.68891C8.1068 1.71958 12.1341 0.0514297 16.3333 0.0514297C20.921 0.0514297 24.5243 2.12157 27.4738 4.8976C30.326 7.58204 32.7446 11.1002 34.975 14.3446L35.0601 14.4684C37.3895 17.8566 39.529 20.9496 41.953 23.2309C44.316 25.4549 46.7543 26.7181 49.6667 26.7181C52.5398 26.7181 55.2953 25.5767 57.327 23.5451C59.3586 21.5134 60.5 18.7579 60.5 15.8848C60.5 13.0116 59.3586 10.2561 57.327 8.22444C55.2953 6.19279 52.5398 5.05143 49.6667 5.05143C46.5477 5.05143 43.9639 6.501 41.4386 9.03831C40.4647 10.0169 38.8817 10.0207 37.9031 9.04673C36.9245 8.07275 36.9207 6.48984 37.8947 5.51121C40.9561 2.43519 44.739 0.0514297 49.6667 0.0514297C53.8659 0.0514297 57.8932 1.71958 60.8625 4.68891C63.8318 7.65823 65.5 11.6855 65.5 15.8848C65.5 20.084 63.8318 24.1113 60.8625 27.0806C57.8932 30.0499 53.8659 31.7181 49.6667 31.7181C45.079 31.7181 41.4757 29.648 38.5262 26.8719C35.6739 24.1875 33.2554 20.6693 31.025 17.4249L30.9399 17.3011C28.6105 13.9129 26.471 10.82 24.047 8.5386C21.684 6.31463 19.2457 5.05143 16.3333 5.05143C13.4602 5.05143 10.7047 6.1928 8.67301 8.22444C6.64137 10.2561 5.5 13.0116 5.5 15.8848C5.5 18.7579 6.64137 21.5134 8.67301 23.5451C10.7047 25.5767 13.4602 26.7181 16.3333 26.7181C19.4523 26.7181 22.0361 25.2685 24.5614 22.7312C25.5353 21.7526 27.1183 21.7488 28.0969 22.7228C29.0755 23.6968 29.0793 25.2797 28.1053 26.2583C25.0439 29.3343 21.261 31.7181 16.3333 31.7181C12.1341 31.7181 8.1068 30.0499 5.13748 27.0806C2.16815 24.1113 0.5 20.084 0.5 15.8848C0.5 11.6855 2.16815 7.65823 5.13748 4.68891Z" fill="white"/>
</svg>
