<svg width="148" height="22" viewBox="0 0 148 22" fill="none" xmlns="http://www.w3.org/2000/svg">
<path d="M15.232 1.4C15.3253 1.4 15.4 1.43733 15.456 1.512C15.5307 1.568 15.568 1.64267 15.568 1.736V4.48C15.568 4.57333 15.5307 4.65733 15.456 4.732C15.4 4.788 15.3253 4.816 15.232 4.816H10.22C10.1267 4.816 10.08 4.86267 10.08 4.956V20.664C10.08 20.7573 10.0427 20.8413 9.968 20.916C9.912 20.972 9.83733 21 9.744 21H6.468C6.37467 21 6.29067 20.972 6.216 20.916C6.16 20.8413 6.132 20.7573 6.132 20.664V4.956C6.132 4.86267 6.08533 4.816 5.992 4.816H1.12C1.02667 4.816 0.942667 4.788 0.868 4.732C0.812 4.65733 0.784 4.57333 0.784 4.48V1.736C0.784 1.64267 0.812 1.568 0.868 1.512C0.942667 1.43733 1.02667 1.4 1.12 1.4H15.232ZM27.3833 12.32C27.4953 13.0293 27.5327 13.8227 27.4953 14.7C27.4767 14.924 27.3553 15.036 27.1313 15.036H18.4793C18.3673 15.036 18.33 15.0827 18.3673 15.176C18.4233 15.5493 18.526 15.9227 18.6753 16.296C19.1607 17.3413 20.15 17.864 21.6433 17.864C22.838 17.8453 23.7807 17.36 24.4713 16.408C24.546 16.296 24.63 16.24 24.7233 16.24C24.7793 16.24 24.8447 16.2773 24.9193 16.352L26.9353 18.34C27.0287 18.4333 27.0753 18.5173 27.0753 18.592C27.0753 18.6293 27.038 18.704 26.9633 18.816C26.3473 19.5813 25.554 20.1787 24.5833 20.608C23.6127 21.0187 22.5487 21.224 21.3913 21.224C19.786 21.224 18.4233 20.86 17.3033 20.132C16.202 19.404 15.4087 18.3867 14.9233 17.08C14.5313 16.1467 14.3353 14.924 14.3353 13.412C14.3353 12.3853 14.4753 11.48 14.7553 10.696C15.1847 9.37067 15.9313 8.316 16.9953 7.532C18.078 6.748 19.3567 6.356 20.8313 6.356C22.698 6.356 24.1913 6.89733 25.3113 7.98C26.45 9.06267 27.1407 10.5093 27.3833 12.32ZM20.8593 9.772C19.6833 9.772 18.9087 10.3227 18.5353 11.424C18.4607 11.6667 18.3953 11.9653 18.3393 12.32C18.3393 12.4133 18.386 12.46 18.4793 12.46H23.3233C23.4353 12.46 23.4727 12.4133 23.4353 12.32C23.342 11.7787 23.2953 11.5173 23.2953 11.536C23.1273 10.976 22.8287 10.5467 22.3993 10.248C21.9887 9.93067 21.4753 9.772 20.8593 9.772ZM34.6371 21.196C33.3864 21.196 32.2944 21.0187 31.3611 20.664C30.4278 20.3093 29.6998 19.8147 29.1771 19.18C28.6731 18.5453 28.4211 17.8267 28.4211 17.024V16.744C28.4211 16.6507 28.4491 16.576 28.5051 16.52C28.5798 16.4453 28.6638 16.408 28.7571 16.408H31.8651C31.9584 16.408 32.0331 16.4453 32.0891 16.52C32.1638 16.576 32.2011 16.6507 32.2011 16.744V16.772C32.2011 17.1827 32.4251 17.5373 32.8731 17.836C33.3398 18.116 33.9184 18.256 34.6091 18.256C35.2438 18.256 35.7571 18.1347 36.1491 17.892C36.5411 17.6307 36.7371 17.3133 36.7371 16.94C36.7371 16.604 36.5691 16.352 36.2331 16.184C35.8971 16.016 35.3464 15.8387 34.5811 15.652C33.7038 15.428 33.0131 15.2133 32.5091 15.008C31.3144 14.5973 30.3624 14.0933 29.6531 13.496C28.9438 12.8987 28.5891 12.04 28.5891 10.92C28.5891 9.53867 29.1211 8.44667 30.1851 7.644C31.2678 6.82267 32.6958 6.412 34.4691 6.412C35.6638 6.412 36.7091 6.608 37.6051 7C38.5011 7.37333 39.1918 7.90533 39.6771 8.596C40.1811 9.28667 40.4331 10.0707 40.4331 10.948C40.4331 11.0413 40.3958 11.1253 40.3211 11.2C40.2651 11.256 40.1904 11.284 40.0971 11.284H37.1011C37.0078 11.284 36.9238 11.256 36.8491 11.2C36.7931 11.1253 36.7651 11.0413 36.7651 10.948C36.7651 10.5373 36.5504 10.192 36.1211 9.912C35.7104 9.632 35.1598 9.492 34.4691 9.492C33.8531 9.492 33.3491 9.604 32.9571 9.828C32.5651 10.052 32.3691 10.36 32.3691 10.752C32.3691 11.1253 32.5558 11.4053 32.9291 11.592C33.3211 11.7787 33.9651 11.9747 34.8611 12.18C35.0664 12.236 35.2998 12.3013 35.5611 12.376C35.8224 12.432 36.1024 12.5067 36.4011 12.6C37.7264 12.992 38.7718 13.496 39.5371 14.112C40.3024 14.728 40.6851 15.624 40.6851 16.8C40.6851 18.1813 40.1344 19.264 39.0331 20.048C37.9504 20.8133 36.4851 21.196 34.6371 21.196ZM50.3444 9.436C50.3444 9.52933 50.3071 9.61333 50.2324 9.688C50.1764 9.744 50.1018 9.772 50.0084 9.772H47.3204C47.2271 9.772 47.1804 9.81867 47.1804 9.912V15.848C47.1804 16.464 47.3018 16.9213 47.5444 17.22C47.8058 17.5187 48.2164 17.668 48.7764 17.668H49.7004C49.7938 17.668 49.8684 17.7053 49.9244 17.78C49.9991 17.836 50.0364 17.9107 50.0364 18.004V20.664C50.0364 20.8693 49.9244 20.9907 49.7004 21.028C48.9164 21.0653 48.3564 21.084 48.0204 21.084C46.4711 21.084 45.3138 20.832 44.5484 20.328C43.7831 19.8053 43.3911 18.8347 43.3724 17.416V9.912C43.3724 9.81867 43.3258 9.772 43.2324 9.772H41.6364C41.5431 9.772 41.4591 9.744 41.3844 9.688C41.3284 9.61333 41.3004 9.52933 41.3004 9.436V6.944C41.3004 6.85067 41.3284 6.776 41.3844 6.72C41.4591 6.64533 41.5431 6.608 41.6364 6.608H43.2324C43.3258 6.608 43.3724 6.56133 43.3724 6.468V3.136C43.3724 3.04267 43.4004 2.968 43.4564 2.912C43.5311 2.83733 43.6151 2.8 43.7084 2.8H46.8444C46.9378 2.8 47.0124 2.83733 47.0684 2.912C47.1431 2.968 47.1804 3.04267 47.1804 3.136V6.468C47.1804 6.56133 47.2271 6.608 47.3204 6.608H50.0084C50.1018 6.608 50.1764 6.64533 50.2324 6.72C50.3071 6.776 50.3444 6.85067 50.3444 6.944V9.436ZM54.0092 4.984C53.3745 4.984 52.8425 4.77867 52.4132 4.368C52.0025 3.93867 51.7972 3.40667 51.7972 2.772C51.7972 2.11867 52.0025 1.58667 52.4132 1.176C52.8238 0.765333 53.3558 0.559999 54.0092 0.559999C54.6625 0.559999 55.1945 0.765333 55.6052 1.176C56.0158 1.58667 56.2212 2.11867 56.2212 2.772C56.2212 3.40667 56.0065 3.93867 55.5772 4.368C55.1665 4.77867 54.6438 4.984 54.0092 4.984ZM52.3292 21C52.2358 21 52.1518 20.972 52.0772 20.916C52.0212 20.8413 51.9932 20.7573 51.9932 20.664V6.916C51.9932 6.82267 52.0212 6.748 52.0772 6.692C52.1518 6.61733 52.2358 6.58 52.3292 6.58H55.6052C55.6985 6.58 55.7732 6.61733 55.8292 6.692C55.9038 6.748 55.9412 6.82267 55.9412 6.916V20.664C55.9412 20.7573 55.9038 20.8413 55.8292 20.916C55.7732 20.972 55.6985 21 55.6052 21H52.3292ZM74.1379 6.384C75.5939 6.384 76.7325 6.82267 77.5539 7.7C78.3752 8.57733 78.7859 9.80933 78.7859 11.396V20.664C78.7859 20.7573 78.7485 20.8413 78.6739 20.916C78.6179 20.972 78.5432 21 78.4499 21H75.1739C75.0805 21 74.9965 20.972 74.9219 20.916C74.8659 20.8413 74.8379 20.7573 74.8379 20.664V12.264C74.8379 11.4987 74.6419 10.892 74.2499 10.444C73.8579 9.996 73.3352 9.772 72.6819 9.772C72.0285 9.772 71.4965 9.996 71.0859 10.444C70.6752 10.892 70.4699 11.4893 70.4699 12.236V20.664C70.4699 20.7573 70.4325 20.8413 70.3579 20.916C70.3019 20.972 70.2272 21 70.1339 21H66.8859C66.7925 21 66.7085 20.972 66.6339 20.916C66.5779 20.8413 66.5499 20.7573 66.5499 20.664V12.264C66.5499 11.5173 66.3445 10.92 65.9339 10.472C65.5232 10.0053 64.9912 9.772 64.3379 9.772C63.7405 9.772 63.2365 9.94933 62.8259 10.304C62.4339 10.6587 62.2005 11.1533 62.1259 11.788V20.664C62.1259 20.7573 62.0885 20.8413 62.0139 20.916C61.9579 20.972 61.8832 21 61.7899 21H58.5139C58.4205 21 58.3365 20.972 58.2619 20.916C58.2059 20.8413 58.1779 20.7573 58.1779 20.664V6.944C58.1779 6.85067 58.2059 6.776 58.2619 6.72C58.3365 6.64533 58.4205 6.608 58.5139 6.608H61.7899C61.8832 6.608 61.9579 6.64533 62.0139 6.72C62.0885 6.776 62.1259 6.85067 62.1259 6.944V8.036C62.1259 8.092 62.1445 8.12933 62.1819 8.148C62.2192 8.16667 62.2565 8.148 62.2939 8.092C63.0592 6.95333 64.2445 6.384 65.8499 6.384C66.7832 6.384 67.5952 6.58 68.2859 6.972C68.9952 7.364 69.5365 7.924 69.9099 8.652C69.9659 8.764 70.0312 8.764 70.1059 8.652C70.5165 7.88667 71.0672 7.31733 71.7579 6.944C72.4672 6.57067 73.2605 6.384 74.1379 6.384ZM86.9907 21.224C85.4227 21.224 84.0787 20.8133 82.9587 19.992C81.8387 19.1707 81.0734 18.0507 80.6627 16.632C80.4014 15.7547 80.2707 14.8027 80.2707 13.776C80.2707 12.6747 80.4014 11.6853 80.6627 10.808C81.0921 9.42667 81.8667 8.344 82.9867 7.56C84.1067 6.776 85.4507 6.384 87.0187 6.384C88.5494 6.384 89.8561 6.776 90.9387 7.56C92.0214 8.32533 92.7867 9.39867 93.2348 10.78C93.5334 11.7133 93.6827 12.6933 93.6827 13.72C93.6827 14.728 93.5521 15.6707 93.2907 16.548C92.8801 18.004 92.1147 19.152 90.9947 19.992C89.8934 20.8133 88.5587 21.224 86.9907 21.224ZM86.9907 17.836C87.6067 17.836 88.1294 17.6493 88.5587 17.276C88.9881 16.9027 89.2961 16.3893 89.4827 15.736C89.6321 15.1387 89.7067 14.4853 89.7067 13.776C89.7067 12.992 89.6321 12.3293 89.4827 11.788C89.2774 11.1533 88.9601 10.6587 88.5307 10.304C88.1014 9.94933 87.5787 9.772 86.9627 9.772C86.3281 9.772 85.7961 9.94933 85.3667 10.304C84.9561 10.6587 84.6574 11.1533 84.4707 11.788C84.3214 12.236 84.2467 12.8987 84.2467 13.776C84.2467 14.616 84.3121 15.2693 84.4427 15.736C84.6294 16.3893 84.9374 16.9027 85.3667 17.276C85.8147 17.6493 86.3561 17.836 86.9907 17.836ZM102.885 6.384C104.378 6.384 105.582 6.84133 106.497 7.756C107.411 8.67067 107.869 9.912 107.869 11.48V20.664C107.869 20.7573 107.831 20.8413 107.757 20.916C107.701 20.972 107.626 21 107.533 21H104.257C104.163 21 104.079 20.972 104.005 20.916C103.949 20.8413 103.921 20.7573 103.921 20.664V12.292C103.921 11.5453 103.706 10.9387 103.277 10.472C102.866 10.0053 102.315 9.772 101.625 9.772C100.934 9.772 100.374 10.0053 99.9447 10.472C99.534 10.9387 99.3287 11.5453 99.3287 12.292V20.664C99.3287 20.7573 99.2914 20.8413 99.2167 20.916C99.1607 20.972 99.086 21 98.9927 21H95.7167C95.6234 21 95.5394 20.972 95.4647 20.916C95.4087 20.8413 95.3807 20.7573 95.3807 20.664V6.944C95.3807 6.85067 95.4087 6.776 95.4647 6.72C95.5394 6.64533 95.6234 6.608 95.7167 6.608H98.9927C99.086 6.608 99.1607 6.64533 99.2167 6.72C99.2914 6.776 99.3287 6.85067 99.3287 6.944V7.924C99.3287 7.98 99.3474 8.01733 99.3847 8.036C99.422 8.05467 99.45 8.04533 99.4687 8.008C100.234 6.92533 101.373 6.384 102.885 6.384ZM111.981 4.984C111.347 4.984 110.815 4.77867 110.385 4.368C109.975 3.93867 109.769 3.40667 109.769 2.772C109.769 2.11867 109.975 1.58667 110.385 1.176C110.796 0.765333 111.328 0.559999 111.981 0.559999C112.635 0.559999 113.167 0.765333 113.577 1.176C113.988 1.58667 114.193 2.11867 114.193 2.772C114.193 3.40667 113.979 3.93867 113.549 4.368C113.139 4.77867 112.616 4.984 111.981 4.984ZM110.301 21C110.208 21 110.124 20.972 110.049 20.916C109.993 20.8413 109.965 20.7573 109.965 20.664V6.916C109.965 6.82267 109.993 6.748 110.049 6.692C110.124 6.61733 110.208 6.58 110.301 6.58H113.577C113.671 6.58 113.745 6.61733 113.801 6.692C113.876 6.748 113.913 6.82267 113.913 6.916V20.664C113.913 20.7573 113.876 20.8413 113.801 20.916C113.745 20.972 113.671 21 113.577 21H110.301ZM121.89 6.384C123.103 6.384 124.186 6.59867 125.138 7.028C126.09 7.43867 126.827 8.008 127.35 8.736C127.891 9.464 128.162 10.276 128.162 11.172V20.664C128.162 20.7573 128.125 20.8413 128.05 20.916C127.994 20.972 127.919 21 127.826 21H124.55C124.457 21 124.373 20.972 124.298 20.916C124.242 20.8413 124.214 20.7573 124.214 20.664V19.74C124.214 19.684 124.195 19.6467 124.158 19.628C124.121 19.6093 124.083 19.628 124.046 19.684C123.262 20.7107 122.002 21.224 120.266 21.224C118.81 21.224 117.634 20.8693 116.738 20.16C115.842 19.4507 115.394 18.4053 115.394 17.024C115.394 15.5867 115.898 14.476 116.906 13.692C117.914 12.8893 119.351 12.488 121.218 12.488H124.074C124.167 12.488 124.214 12.4413 124.214 12.348V11.732C124.214 11.116 124.027 10.64 123.654 10.304C123.281 9.94933 122.721 9.772 121.974 9.772C121.395 9.772 120.91 9.87467 120.518 10.08C120.145 10.2853 119.902 10.5747 119.79 10.948C119.734 11.1533 119.613 11.2467 119.426 11.228L116.038 10.78C115.814 10.7427 115.711 10.6587 115.73 10.528C115.805 9.744 116.113 9.03467 116.654 8.4C117.214 7.76533 117.942 7.27067 118.838 6.916C119.753 6.56133 120.77 6.384 121.89 6.384ZM121.33 18.284C122.133 18.284 122.814 18.0693 123.374 17.64C123.934 17.2107 124.214 16.66 124.214 15.988V14.98C124.214 14.8867 124.167 14.84 124.074 14.84H122.058C121.218 14.84 120.555 14.9987 120.07 15.316C119.603 15.6333 119.37 16.0813 119.37 16.66C119.37 17.164 119.547 17.5653 119.902 17.864C120.257 18.144 120.733 18.284 121.33 18.284ZM130.439 21C130.346 21 130.262 20.972 130.187 20.916C130.131 20.8413 130.103 20.7573 130.103 20.664V1.736C130.103 1.64267 130.131 1.568 130.187 1.512C130.262 1.43733 130.346 1.4 130.439 1.4H133.715C133.808 1.4 133.883 1.43733 133.939 1.512C134.014 1.568 134.051 1.64267 134.051 1.736V20.664C134.051 20.7573 134.014 20.8413 133.939 20.916C133.883 20.972 133.808 21 133.715 21H130.439ZM141.839 21.196C140.588 21.196 139.496 21.0187 138.563 20.664C137.629 20.3093 136.901 19.8147 136.379 19.18C135.875 18.5453 135.623 17.8267 135.623 17.024V16.744C135.623 16.6507 135.651 16.576 135.707 16.52C135.781 16.4453 135.865 16.408 135.959 16.408H139.067C139.16 16.408 139.235 16.4453 139.291 16.52C139.365 16.576 139.403 16.6507 139.403 16.744V16.772C139.403 17.1827 139.627 17.5373 140.075 17.836C140.541 18.116 141.12 18.256 141.811 18.256C142.445 18.256 142.959 18.1347 143.351 17.892C143.743 17.6307 143.939 17.3133 143.939 16.94C143.939 16.604 143.771 16.352 143.435 16.184C143.099 16.016 142.548 15.8387 141.783 15.652C140.905 15.428 140.215 15.2133 139.711 15.008C138.516 14.5973 137.564 14.0933 136.855 13.496C136.145 12.8987 135.791 12.04 135.791 10.92C135.791 9.53867 136.323 8.44667 137.387 7.644C138.469 6.82267 139.897 6.412 141.671 6.412C142.865 6.412 143.911 6.608 144.807 7C145.703 7.37333 146.393 7.90533 146.879 8.596C147.383 9.28667 147.635 10.0707 147.635 10.948C147.635 11.0413 147.597 11.1253 147.523 11.2C147.467 11.256 147.392 11.284 147.299 11.284H144.303C144.209 11.284 144.125 11.256 144.051 11.2C143.995 11.1253 143.967 11.0413 143.967 10.948C143.967 10.5373 143.752 10.192 143.323 9.912C142.912 9.632 142.361 9.492 141.671 9.492C141.055 9.492 140.551 9.604 140.159 9.828C139.767 10.052 139.571 10.36 139.571 10.752C139.571 11.1253 139.757 11.4053 140.131 11.592C140.523 11.7787 141.167 11.9747 142.063 12.18C142.268 12.236 142.501 12.3013 142.763 12.376C143.024 12.432 143.304 12.5067 143.603 12.6C144.928 12.992 145.973 13.496 146.739 14.112C147.504 14.728 147.887 15.624 147.887 16.8C147.887 18.1813 147.336 19.264 146.235 20.048C145.152 20.8133 143.687 21.196 141.839 21.196Z" fill="url(#paint0_linear_1263_4692)"/>
<defs>
<linearGradient id="paint0_linear_1263_4692" x1="-24.5311" y1="-26.2081" x2="225.997" y2="23.5819" gradientUnits="userSpaceOnUse">
<stop stop-color="#0043CE"/>
<stop offset="0.06" stop-color="#7FA9FF"/>
<stop offset="1" stop-color="#E80808"/>
</linearGradient>
</defs>
</svg>
