<svg width="345" height="35" viewBox="0 0 345 35" fill="none" xmlns="http://www.w3.org/2000/svg">
<path d="M7.24686 27C6.98286 27 6.81486 26.88 6.74286 26.64L0.370856 2.268L0.334856 2.124C0.334856 1.908 0.466856 1.8 0.730856 1.8H5.19486C5.43486 1.8 5.59086 1.92 5.66286 2.16L9.08286 16.812C9.10686 16.908 9.14286 16.956 9.19086 16.956C9.23886 16.956 9.27486 16.908 9.29886 16.812L12.6109 2.196C12.6829 1.932 12.8389 1.8 13.0789 1.8H17.4349C17.6989 1.8 17.8669 1.92 17.9389 2.16L21.5389 16.812C21.5629 16.884 21.5989 16.932 21.6469 16.956C21.6949 16.956 21.7309 16.908 21.7549 16.812L25.0669 2.196C25.1389 1.932 25.2949 1.8 25.5349 1.8H29.7829C30.1189 1.8 30.2509 1.956 30.1789 2.268L24.2749 26.64C24.2029 26.88 24.0349 27 23.7709 27H19.4869C19.2469 27 19.0909 26.88 19.0189 26.64L15.3469 11.052C15.3229 10.956 15.2869 10.908 15.2389 10.908C15.1909 10.908 15.1549 10.956 15.1309 11.052L11.7109 26.604C11.6629 26.868 11.5069 27 11.2429 27H7.24686ZM41.4812 8.208C43.4012 8.208 44.9492 8.796 46.1252 9.972C47.3012 11.148 47.8892 12.744 47.8892 14.76V26.568C47.8892 26.688 47.8412 26.796 47.7452 26.892C47.6732 26.964 47.5772 27 47.4572 27H43.2452C43.1252 27 43.0172 26.964 42.9212 26.892C42.8492 26.796 42.8132 26.688 42.8132 26.568V15.804C42.8132 14.844 42.5372 14.064 41.9852 13.464C41.4572 12.864 40.7492 12.564 39.8612 12.564C38.9732 12.564 38.2532 12.864 37.7012 13.464C37.1732 14.064 36.9092 14.844 36.9092 15.804V26.568C36.9092 26.688 36.8612 26.796 36.7652 26.892C36.6932 26.964 36.5972 27 36.4772 27H32.2652C32.1452 27 32.0372 26.964 31.9412 26.892C31.8692 26.796 31.8332 26.688 31.8332 26.568V2.232C31.8332 2.112 31.8692 2.016 31.9412 1.944C32.0372 1.848 32.1452 1.8 32.2652 1.8H36.4772C36.5972 1.8 36.6932 1.848 36.7652 1.944C36.8612 2.016 36.9092 2.112 36.9092 2.232V10.188C36.9092 10.26 36.9332 10.308 36.9812 10.332C37.0292 10.356 37.0652 10.344 37.0892 10.296C38.0732 8.904 39.5372 8.208 41.4812 8.208ZM57.8207 8.208C59.3807 8.208 60.7727 8.484 61.9967 9.036C63.2207 9.564 64.1687 10.296 64.8407 11.232C65.5367 12.168 65.8847 13.212 65.8847 14.364V26.568C65.8847 26.688 65.8367 26.796 65.7407 26.892C65.6687 26.964 65.5727 27 65.4527 27H61.2407C61.1207 27 61.0127 26.964 60.9167 26.892C60.8447 26.796 60.8087 26.688 60.8087 26.568V25.38C60.8087 25.308 60.7847 25.26 60.7367 25.236C60.6887 25.212 60.6407 25.236 60.5927 25.308C59.5847 26.628 57.9647 27.288 55.7327 27.288C53.8607 27.288 52.3487 26.832 51.1967 25.92C50.0447 25.008 49.4687 23.664 49.4687 21.888C49.4687 20.04 50.1167 18.612 51.4127 17.604C52.7087 16.572 54.5567 16.056 56.9567 16.056H60.6287C60.7487 16.056 60.8087 15.996 60.8087 15.876V15.084C60.8087 14.292 60.5687 13.68 60.0887 13.248C59.6087 12.792 58.8887 12.564 57.9287 12.564C57.1847 12.564 56.5607 12.696 56.0567 12.96C55.5767 13.224 55.2647 13.596 55.1207 14.076C55.0487 14.34 54.8927 14.46 54.6527 14.436L50.2967 13.86C50.0087 13.812 49.8767 13.704 49.9007 13.536C49.9967 12.528 50.3927 11.616 51.0887 10.8C51.8087 9.984 52.7447 9.348 53.8967 8.892C55.0727 8.436 56.3807 8.208 57.8207 8.208ZM57.1007 23.508C58.1327 23.508 59.0087 23.232 59.7287 22.68C60.4487 22.128 60.8087 21.42 60.8087 20.556V19.26C60.8087 19.14 60.7487 19.08 60.6287 19.08H58.0367C56.9567 19.08 56.1047 19.284 55.4807 19.692C54.8807 20.1 54.5807 20.676 54.5807 21.42C54.5807 22.068 54.8087 22.584 55.2647 22.968C55.7207 23.328 56.3327 23.508 57.1007 23.508ZM78.6135 12.132C78.6135 12.252 78.5655 12.36 78.4695 12.456C78.3975 12.528 78.3015 12.564 78.1815 12.564H74.7255C74.6055 12.564 74.5455 12.624 74.5455 12.744V20.376C74.5455 21.168 74.7015 21.756 75.0135 22.14C75.3495 22.524 75.8775 22.716 76.5975 22.716H77.7855C77.9055 22.716 78.0015 22.764 78.0735 22.86C78.1695 22.932 78.2175 23.028 78.2175 23.148V26.568C78.2175 26.832 78.0735 26.988 77.7855 27.036C76.7775 27.084 76.0575 27.108 75.6255 27.108C73.6335 27.108 72.1455 26.784 71.1615 26.136C70.1775 25.464 69.6735 24.216 69.6495 22.392V12.744C69.6495 12.624 69.5895 12.564 69.4695 12.564H67.4175C67.2975 12.564 67.1895 12.528 67.0935 12.456C67.0215 12.36 66.9855 12.252 66.9855 12.132V8.928C66.9855 8.808 67.0215 8.712 67.0935 8.64C67.1895 8.544 67.2975 8.496 67.4175 8.496H69.4695C69.5895 8.496 69.6495 8.436 69.6495 8.316V4.032C69.6495 3.912 69.6855 3.816 69.7575 3.744C69.8535 3.648 69.9615 3.6 70.0815 3.6H74.1135C74.2335 3.6 74.3295 3.648 74.4015 3.744C74.4975 3.816 74.5455 3.912 74.5455 4.032V8.316C74.5455 8.436 74.6055 8.496 74.7255 8.496H78.1815C78.3015 8.496 78.3975 8.544 78.4695 8.64C78.5655 8.712 78.6135 8.808 78.6135 8.928V12.132ZM103.24 13.464C103.672 14.688 103.888 16.128 103.888 17.784C103.888 19.44 103.66 20.94 103.204 22.284C102.652 23.82 101.776 25.044 100.576 25.956C99.4003 26.844 97.9363 27.288 96.1843 27.288C94.4563 27.288 93.1123 26.688 92.1523 25.488C92.1043 25.416 92.0563 25.392 92.0083 25.416C91.9603 25.44 91.9363 25.488 91.9363 25.56V33.264C91.9363 33.384 91.8883 33.48 91.7923 33.552C91.7203 33.648 91.6243 33.696 91.5043 33.696H87.2923C87.1723 33.696 87.0643 33.648 86.9683 33.552C86.8963 33.48 86.8603 33.384 86.8603 33.264V8.928C86.8603 8.808 86.8963 8.712 86.9683 8.64C87.0643 8.544 87.1723 8.496 87.2923 8.496H91.5043C91.6243 8.496 91.7203 8.544 91.7923 8.64C91.8883 8.712 91.9363 8.808 91.9363 8.928V10.116C91.9363 10.188 91.9603 10.236 92.0083 10.26C92.0563 10.26 92.1043 10.236 92.1523 10.188C93.1603 8.868 94.5523 8.208 96.3283 8.208C97.9843 8.208 99.4123 8.676 100.612 9.612C101.836 10.524 102.712 11.808 103.24 13.464ZM97.7323 21.528C98.3323 20.592 98.6323 19.32 98.6323 17.712C98.6323 16.2 98.3803 15 97.8763 14.112C97.3243 13.08 96.4363 12.564 95.2123 12.564C94.1083 12.564 93.2803 13.08 92.7283 14.112C92.2243 14.976 91.9723 16.188 91.9723 17.748C91.9723 19.356 92.2363 20.604 92.7643 21.492C93.3163 22.452 94.1323 22.932 95.2123 22.932C96.2923 22.932 97.1323 22.464 97.7323 21.528ZM122.372 15.84C122.516 16.752 122.564 17.772 122.516 18.9C122.492 19.188 122.336 19.332 122.048 19.332H110.924C110.78 19.332 110.732 19.392 110.78 19.512C110.852 19.992 110.984 20.472 111.176 20.952C111.8 22.296 113.072 22.968 114.992 22.968C116.528 22.944 117.74 22.32 118.628 21.096C118.724 20.952 118.832 20.88 118.952 20.88C119.024 20.88 119.108 20.928 119.204 21.024L121.796 23.58C121.916 23.7 121.976 23.808 121.976 23.904C121.976 23.952 121.928 24.048 121.832 24.192C121.04 25.176 120.02 25.944 118.772 26.496C117.524 27.024 116.156 27.288 114.668 27.288C112.604 27.288 110.852 26.82 109.412 25.884C107.996 24.948 106.976 23.64 106.352 21.96C105.848 20.76 105.596 19.188 105.596 17.244C105.596 15.924 105.776 14.76 106.136 13.752C106.688 12.048 107.648 10.692 109.016 9.684C110.408 8.676 112.052 8.172 113.948 8.172C116.348 8.172 118.268 8.868 119.708 10.26C121.172 11.652 122.06 13.512 122.372 15.84ZM113.984 12.564C112.472 12.564 111.476 13.272 110.996 14.688C110.9 15 110.816 15.384 110.744 15.84C110.744 15.96 110.804 16.02 110.924 16.02H117.152C117.296 16.02 117.344 15.96 117.296 15.84C117.176 15.144 117.116 14.808 117.116 14.832C116.9 14.112 116.516 13.56 115.964 13.176C115.436 12.768 114.776 12.564 113.984 12.564ZM132.736 27.288C130.72 27.288 128.992 26.76 127.552 25.704C126.112 24.648 125.128 23.208 124.6 21.384C124.264 20.256 124.096 19.032 124.096 17.712C124.096 16.296 124.264 15.024 124.6 13.896C125.152 12.12 126.148 10.728 127.588 9.72C129.028 8.712 130.756 8.208 132.772 8.208C134.74 8.208 136.42 8.712 137.812 9.72C139.204 10.704 140.188 12.084 140.764 13.86C141.148 15.06 141.34 16.32 141.34 17.64C141.34 18.936 141.172 20.148 140.836 21.276C140.308 23.148 139.324 24.624 137.884 25.704C136.468 26.76 134.752 27.288 132.736 27.288ZM132.736 22.932C133.528 22.932 134.2 22.692 134.752 22.212C135.304 21.732 135.7 21.072 135.94 20.232C136.132 19.464 136.228 18.624 136.228 17.712C136.228 16.704 136.132 15.852 135.94 15.156C135.676 14.34 135.268 13.704 134.716 13.248C134.164 12.792 133.492 12.564 132.7 12.564C131.884 12.564 131.2 12.792 130.648 13.248C130.12 13.704 129.736 14.34 129.496 15.156C129.304 15.732 129.208 16.584 129.208 17.712C129.208 18.792 129.292 19.632 129.46 20.232C129.7 21.072 130.096 21.732 130.648 22.212C131.224 22.692 131.92 22.932 132.736 22.932ZM160.047 13.464C160.479 14.688 160.695 16.128 160.695 17.784C160.695 19.44 160.467 20.94 160.011 22.284C159.459 23.82 158.583 25.044 157.383 25.956C156.207 26.844 154.743 27.288 152.991 27.288C151.263 27.288 149.919 26.688 148.959 25.488C148.911 25.416 148.863 25.392 148.815 25.416C148.767 25.44 148.743 25.488 148.743 25.56V33.264C148.743 33.384 148.695 33.48 148.599 33.552C148.527 33.648 148.431 33.696 148.311 33.696H144.099C143.979 33.696 143.871 33.648 143.775 33.552C143.703 33.48 143.667 33.384 143.667 33.264V8.928C143.667 8.808 143.703 8.712 143.775 8.64C143.871 8.544 143.979 8.496 144.099 8.496H148.311C148.431 8.496 148.527 8.544 148.599 8.64C148.695 8.712 148.743 8.808 148.743 8.928V10.116C148.743 10.188 148.767 10.236 148.815 10.26C148.863 10.26 148.911 10.236 148.959 10.188C149.967 8.868 151.359 8.208 153.135 8.208C154.791 8.208 156.219 8.676 157.419 9.612C158.643 10.524 159.519 11.808 160.047 13.464ZM154.539 21.528C155.139 20.592 155.439 19.32 155.439 17.712C155.439 16.2 155.187 15 154.683 14.112C154.131 13.08 153.243 12.564 152.019 12.564C150.915 12.564 150.087 13.08 149.535 14.112C149.031 14.976 148.779 16.188 148.779 17.748C148.779 19.356 149.043 20.604 149.571 21.492C150.123 22.452 150.939 22.932 152.019 22.932C153.099 22.932 153.939 22.464 154.539 21.528ZM163.336 27C163.216 27 163.108 26.964 163.012 26.892C162.94 26.796 162.904 26.688 162.904 26.568V2.232C162.904 2.112 162.94 2.016 163.012 1.944C163.108 1.848 163.216 1.8 163.336 1.8H167.548C167.668 1.8 167.764 1.848 167.836 1.944C167.932 2.016 167.98 2.112 167.98 2.232V26.568C167.98 26.688 167.932 26.796 167.836 26.892C167.764 26.964 167.668 27 167.548 27H163.336ZM186.993 15.84C187.137 16.752 187.185 17.772 187.137 18.9C187.113 19.188 186.957 19.332 186.669 19.332H175.545C175.401 19.332 175.353 19.392 175.401 19.512C175.473 19.992 175.605 20.472 175.797 20.952C176.421 22.296 177.693 22.968 179.613 22.968C181.149 22.944 182.361 22.32 183.249 21.096C183.345 20.952 183.453 20.88 183.573 20.88C183.645 20.88 183.729 20.928 183.825 21.024L186.417 23.58C186.537 23.7 186.597 23.808 186.597 23.904C186.597 23.952 186.549 24.048 186.453 24.192C185.661 25.176 184.641 25.944 183.393 26.496C182.145 27.024 180.777 27.288 179.289 27.288C177.225 27.288 175.473 26.82 174.033 25.884C172.617 24.948 171.597 23.64 170.973 21.96C170.469 20.76 170.217 19.188 170.217 17.244C170.217 15.924 170.397 14.76 170.757 13.752C171.309 12.048 172.269 10.692 173.637 9.684C175.029 8.676 176.673 8.172 178.569 8.172C180.969 8.172 182.889 8.868 184.329 10.26C185.793 11.652 186.681 13.512 186.993 15.84ZM178.605 12.564C177.093 12.564 176.097 13.272 175.617 14.688C175.521 15 175.437 15.384 175.365 15.84C175.365 15.96 175.425 16.02 175.545 16.02H181.773C181.917 16.02 181.965 15.96 181.917 15.84C181.797 15.144 181.737 14.808 181.737 14.832C181.521 14.112 181.137 13.56 180.585 13.176C180.057 12.768 179.397 12.564 178.605 12.564ZM202.693 8.208C204.253 8.208 205.645 8.484 206.869 9.036C208.093 9.564 209.041 10.296 209.713 11.232C210.409 12.168 210.757 13.212 210.757 14.364V26.568C210.757 26.688 210.709 26.796 210.613 26.892C210.541 26.964 210.445 27 210.325 27H206.113C205.993 27 205.885 26.964 205.789 26.892C205.717 26.796 205.681 26.688 205.681 26.568V25.38C205.681 25.308 205.657 25.26 205.609 25.236C205.561 25.212 205.513 25.236 205.465 25.308C204.457 26.628 202.837 27.288 200.605 27.288C198.733 27.288 197.221 26.832 196.069 25.92C194.917 25.008 194.341 23.664 194.341 21.888C194.341 20.04 194.989 18.612 196.285 17.604C197.581 16.572 199.429 16.056 201.829 16.056H205.501C205.621 16.056 205.681 15.996 205.681 15.876V15.084C205.681 14.292 205.441 13.68 204.961 13.248C204.481 12.792 203.761 12.564 202.801 12.564C202.057 12.564 201.433 12.696 200.929 12.96C200.449 13.224 200.137 13.596 199.993 14.076C199.921 14.34 199.765 14.46 199.525 14.436L195.169 13.86C194.881 13.812 194.749 13.704 194.773 13.536C194.869 12.528 195.265 11.616 195.961 10.8C196.681 9.984 197.617 9.348 198.769 8.892C199.945 8.436 201.253 8.208 202.693 8.208ZM201.973 23.508C203.005 23.508 203.881 23.232 204.601 22.68C205.321 22.128 205.681 21.42 205.681 20.556V19.26C205.681 19.14 205.621 19.08 205.501 19.08H202.909C201.829 19.08 200.977 19.284 200.353 19.692C199.753 20.1 199.453 20.676 199.453 21.42C199.453 22.068 199.681 22.584 200.137 22.968C200.593 23.328 201.205 23.508 201.973 23.508ZM222.468 8.244C223.332 8.244 224.016 8.412 224.52 8.748C224.712 8.844 224.784 9.024 224.736 9.288L223.98 13.392C223.956 13.68 223.788 13.764 223.476 13.644C223.116 13.524 222.696 13.464 222.216 13.464C222.024 13.464 221.76 13.488 221.424 13.536C220.56 13.608 219.828 13.932 219.228 14.508C218.628 15.06 218.328 15.804 218.328 16.74V26.568C218.328 26.688 218.28 26.796 218.184 26.892C218.112 26.964 218.016 27 217.896 27H213.684C213.564 27 213.456 26.964 213.36 26.892C213.288 26.796 213.252 26.688 213.252 26.568V8.928C213.252 8.808 213.288 8.712 213.36 8.64C213.456 8.544 213.564 8.496 213.684 8.496H217.896C218.016 8.496 218.112 8.544 218.184 8.64C218.28 8.712 218.328 8.808 218.328 8.928V10.296C218.328 10.368 218.352 10.416 218.4 10.44C218.448 10.464 218.484 10.452 218.508 10.404C219.492 8.964 220.812 8.244 222.468 8.244ZM241.876 15.84C242.02 16.752 242.068 17.772 242.02 18.9C241.996 19.188 241.84 19.332 241.552 19.332H230.428C230.284 19.332 230.236 19.392 230.284 19.512C230.356 19.992 230.488 20.472 230.68 20.952C231.304 22.296 232.576 22.968 234.496 22.968C236.032 22.944 237.244 22.32 238.132 21.096C238.228 20.952 238.336 20.88 238.456 20.88C238.528 20.88 238.612 20.928 238.708 21.024L241.3 23.58C241.42 23.7 241.48 23.808 241.48 23.904C241.48 23.952 241.432 24.048 241.336 24.192C240.544 25.176 239.524 25.944 238.276 26.496C237.028 27.024 235.66 27.288 234.172 27.288C232.108 27.288 230.356 26.82 228.916 25.884C227.5 24.948 226.48 23.64 225.856 21.96C225.352 20.76 225.1 19.188 225.1 17.244C225.1 15.924 225.28 14.76 225.64 13.752C226.192 12.048 227.152 10.692 228.52 9.684C229.912 8.676 231.556 8.172 233.452 8.172C235.852 8.172 237.772 8.868 239.212 10.26C240.676 11.652 241.564 13.512 241.876 15.84ZM233.488 12.564C231.976 12.564 230.98 13.272 230.5 14.688C230.404 15 230.32 15.384 230.248 15.84C230.248 15.96 230.308 16.02 230.428 16.02H236.656C236.8 16.02 236.848 15.96 236.8 15.84C236.68 15.144 236.62 14.808 236.62 14.832C236.404 14.112 236.02 13.56 235.468 13.176C234.94 12.768 234.28 12.564 233.488 12.564ZM257.576 27.252C255.968 27.252 254.564 27.024 253.364 26.568C252.164 26.112 251.228 25.476 250.556 24.66C249.908 23.844 249.584 22.92 249.584 21.888V21.528C249.584 21.408 249.62 21.312 249.692 21.24C249.788 21.144 249.896 21.096 250.016 21.096H254.012C254.132 21.096 254.228 21.144 254.3 21.24C254.396 21.312 254.444 21.408 254.444 21.528V21.564C254.444 22.092 254.732 22.548 255.308 22.932C255.908 23.292 256.652 23.472 257.54 23.472C258.356 23.472 259.016 23.316 259.52 23.004C260.024 22.668 260.276 22.26 260.276 21.78C260.276 21.348 260.06 21.024 259.628 20.808C259.196 20.592 258.488 20.364 257.504 20.124C256.376 19.836 255.488 19.56 254.84 19.296C253.304 18.768 252.08 18.12 251.168 17.352C250.256 16.584 249.8 15.48 249.8 14.04C249.8 12.264 250.484 10.86 251.852 9.828C253.244 8.772 255.08 8.244 257.36 8.244C258.896 8.244 260.24 8.496 261.392 9C262.544 9.48 263.432 10.164 264.056 11.052C264.704 11.94 265.028 12.948 265.028 14.076C265.028 14.196 264.98 14.304 264.884 14.4C264.812 14.472 264.716 14.508 264.596 14.508H260.744C260.624 14.508 260.516 14.472 260.42 14.4C260.348 14.304 260.312 14.196 260.312 14.076C260.312 13.548 260.036 13.104 259.484 12.744C258.956 12.384 258.248 12.204 257.36 12.204C256.568 12.204 255.92 12.348 255.416 12.636C254.912 12.924 254.66 13.32 254.66 13.824C254.66 14.304 254.9 14.664 255.38 14.904C255.884 15.144 256.712 15.396 257.864 15.66C258.128 15.732 258.428 15.816 258.764 15.912C259.1 15.984 259.46 16.08 259.844 16.2C261.548 16.704 262.892 17.352 263.876 18.144C264.86 18.936 265.352 20.088 265.352 21.6C265.352 23.376 264.644 24.768 263.228 25.776C261.836 26.76 259.952 27.252 257.576 27.252ZM274.566 8.208C276.126 8.208 277.518 8.484 278.742 9.036C279.966 9.564 280.914 10.296 281.586 11.232C282.282 12.168 282.63 13.212 282.63 14.364V26.568C282.63 26.688 282.582 26.796 282.486 26.892C282.414 26.964 282.318 27 282.198 27H277.986C277.866 27 277.758 26.964 277.662 26.892C277.59 26.796 277.554 26.688 277.554 26.568V25.38C277.554 25.308 277.53 25.26 277.482 25.236C277.434 25.212 277.386 25.236 277.338 25.308C276.33 26.628 274.71 27.288 272.478 27.288C270.606 27.288 269.094 26.832 267.942 25.92C266.79 25.008 266.214 23.664 266.214 21.888C266.214 20.04 266.862 18.612 268.158 17.604C269.454 16.572 271.302 16.056 273.702 16.056H277.374C277.494 16.056 277.554 15.996 277.554 15.876V15.084C277.554 14.292 277.314 13.68 276.834 13.248C276.354 12.792 275.634 12.564 274.674 12.564C273.93 12.564 273.306 12.696 272.802 12.96C272.322 13.224 272.01 13.596 271.866 14.076C271.794 14.34 271.638 14.46 271.398 14.436L267.042 13.86C266.754 13.812 266.622 13.704 266.646 13.536C266.742 12.528 267.138 11.616 267.834 10.8C268.554 9.984 269.49 9.348 270.642 8.892C271.818 8.436 273.126 8.208 274.566 8.208ZM273.846 23.508C274.878 23.508 275.754 23.232 276.474 22.68C277.194 22.128 277.554 21.42 277.554 20.556V19.26C277.554 19.14 277.494 19.08 277.374 19.08H274.782C273.702 19.08 272.85 19.284 272.226 19.692C271.626 20.1 271.326 20.676 271.326 21.42C271.326 22.068 271.554 22.584 272.01 22.968C272.466 23.328 273.078 23.508 273.846 23.508ZM284.525 34.164C284.453 34.164 284.393 34.116 284.345 34.02C284.297 33.948 284.273 33.852 284.273 33.732V30.42C284.273 30.3 284.309 30.192 284.381 30.096C284.477 30.024 284.585 29.988 284.705 29.988C285.713 29.964 286.505 29.88 287.081 29.736C287.681 29.592 288.149 29.316 288.485 28.908C288.845 28.5 289.121 27.9 289.313 27.108C289.337 27.06 289.337 26.988 289.313 26.892L283.409 8.964C283.385 8.916 283.373 8.856 283.373 8.784C283.373 8.568 283.505 8.46 283.769 8.46H288.269C288.533 8.46 288.701 8.58 288.773 8.82L291.797 20.484C291.821 20.556 291.857 20.592 291.905 20.592C291.953 20.592 291.989 20.556 292.013 20.484L295.037 8.82C295.109 8.58 295.277 8.46 295.541 8.46H299.933C300.077 8.46 300.173 8.508 300.221 8.604C300.293 8.676 300.305 8.796 300.257 8.964L294.029 27.684C293.429 29.436 292.817 30.744 292.193 31.608C291.569 32.496 290.693 33.144 289.565 33.552C288.437 33.96 286.841 34.164 284.777 34.164H284.525ZM304.43 6.408C303.614 6.408 302.93 6.144 302.378 5.616C301.85 5.064 301.586 4.38 301.586 3.564C301.586 2.724 301.85 2.04 302.378 1.512C302.906 0.983999 303.59 0.719999 304.43 0.719999C305.27 0.719999 305.954 0.983999 306.482 1.512C307.01 2.04 307.274 2.724 307.274 3.564C307.274 4.38 306.998 5.064 306.446 5.616C305.918 6.144 305.246 6.408 304.43 6.408ZM302.27 27C302.15 27 302.042 26.964 301.946 26.892C301.874 26.796 301.838 26.688 301.838 26.568V8.892C301.838 8.772 301.874 8.676 301.946 8.604C302.042 8.508 302.15 8.46 302.27 8.46H306.482C306.602 8.46 306.698 8.508 306.77 8.604C306.866 8.676 306.914 8.772 306.914 8.892V26.568C306.914 26.688 306.866 26.796 306.77 26.892C306.698 26.964 306.602 27 306.482 27H302.27ZM319.438 8.208C321.358 8.208 322.906 8.796 324.082 9.972C325.258 11.148 325.846 12.744 325.846 14.76V26.568C325.846 26.688 325.798 26.796 325.702 26.892C325.63 26.964 325.534 27 325.414 27H321.202C321.082 27 320.974 26.964 320.878 26.892C320.806 26.796 320.77 26.688 320.77 26.568V15.804C320.77 14.844 320.494 14.064 319.942 13.464C319.414 12.864 318.706 12.564 317.818 12.564C316.93 12.564 316.21 12.864 315.658 13.464C315.13 14.064 314.866 14.844 314.866 15.804V26.568C314.866 26.688 314.818 26.796 314.722 26.892C314.65 26.964 314.554 27 314.434 27H310.222C310.102 27 309.994 26.964 309.898 26.892C309.826 26.796 309.79 26.688 309.79 26.568V8.928C309.79 8.808 309.826 8.712 309.898 8.64C309.994 8.544 310.102 8.496 310.222 8.496H314.434C314.554 8.496 314.65 8.544 314.722 8.64C314.818 8.712 314.866 8.808 314.866 8.928V10.188C314.866 10.26 314.89 10.308 314.938 10.332C314.986 10.356 315.022 10.344 315.046 10.296C316.03 8.904 317.494 8.208 319.438 8.208ZM339.701 8.928C339.701 8.808 339.737 8.712 339.809 8.64C339.905 8.544 340.013 8.496 340.133 8.496H344.345C344.465 8.496 344.561 8.544 344.633 8.64C344.729 8.712 344.777 8.808 344.777 8.928V25.344C344.777 28.488 343.865 30.732 342.041 32.076C340.241 33.42 337.913 34.092 335.057 34.092C334.217 34.092 333.281 34.032 332.249 33.912C332.009 33.888 331.889 33.732 331.889 33.444L332.033 29.736C332.033 29.424 332.201 29.292 332.537 29.34C333.401 29.484 334.193 29.556 334.913 29.556C336.449 29.556 337.625 29.22 338.441 28.548C339.281 27.876 339.701 26.796 339.701 25.308C339.701 25.236 339.677 25.2 339.629 25.2C339.581 25.176 339.533 25.188 339.485 25.236C338.573 26.22 337.241 26.712 335.489 26.712C333.929 26.712 332.489 26.34 331.169 25.596C329.873 24.828 328.949 23.604 328.397 21.924C328.037 20.82 327.857 19.392 327.857 17.64C327.857 15.768 328.073 14.244 328.505 13.068C329.009 11.604 329.861 10.428 331.061 9.54C332.261 8.652 333.653 8.208 335.237 8.208C337.085 8.208 338.501 8.76 339.485 9.864C339.533 9.912 339.581 9.936 339.629 9.936C339.677 9.912 339.701 9.864 339.701 9.792V8.928ZM339.413 20.556C339.605 19.836 339.701 18.852 339.701 17.604C339.701 16.86 339.677 16.284 339.629 15.876C339.581 15.468 339.497 15.084 339.377 14.724C339.161 14.076 338.801 13.56 338.297 13.176C337.793 12.768 337.169 12.564 336.425 12.564C335.705 12.564 335.093 12.768 334.589 13.176C334.085 13.56 333.713 14.076 333.473 14.724C333.137 15.444 332.969 16.416 332.969 17.64C332.969 18.984 333.113 19.944 333.401 20.52C333.617 21.168 333.989 21.696 334.517 22.104C335.069 22.488 335.717 22.68 336.461 22.68C337.229 22.68 337.865 22.488 338.369 22.104C338.873 21.696 339.221 21.18 339.413 20.556Z" fill="url(#paint0_linear_1263_1106)"/>
<defs>
<linearGradient id="paint0_linear_1263_1106" x1="-58.2941" y1="-33.2926" x2="477.737" y2="163.441" gradientUnits="userSpaceOnUse">
<stop stop-color="#0043CE"/>
<stop offset="0.06" stop-color="#7FA9FF"/>
<stop offset="1" stop-color="#E80808"/>
</linearGradient>
</defs>
</svg>
