<svg width="395" height="34" viewBox="0 0 395 34" fill="none" xmlns="http://www.w3.org/2000/svg">
<path d="M19.084 0.674022C19.204 0.674022 19.3 0.722022 19.372 0.818022C19.468 0.890023 19.516 0.986023 19.516 1.10602V4.63402C19.516 4.75402 19.468 4.86202 19.372 4.95802C19.3 5.03002 19.204 5.06602 19.084 5.06602H12.64C12.52 5.06602 12.46 5.12602 12.46 5.24602V25.442C12.46 25.562 12.412 25.67 12.316 25.766C12.244 25.838 12.148 25.874 12.028 25.874H7.816C7.696 25.874 7.588 25.838 7.492 25.766C7.42 25.67 7.384 25.562 7.384 25.442V5.24602C7.384 5.12602 7.324 5.06602 7.204 5.06602H0.94C0.82 5.06602 0.712 5.03002 0.616 4.95802C0.544 4.86202 0.508 4.75402 0.508 4.63402V1.10602C0.508 0.986023 0.544 0.890023 0.616 0.818022C0.712 0.722022 0.82 0.674022 0.94 0.674022H19.084ZM28.5275 7.11802C29.3915 7.11802 30.0755 7.28602 30.5795 7.62202C30.7715 7.71802 30.8435 7.89802 30.7955 8.16202L30.0395 12.266C30.0155 12.554 29.8475 12.638 29.5355 12.518C29.1755 12.398 28.7555 12.338 28.2755 12.338C28.0835 12.338 27.8195 12.362 27.4835 12.41C26.6195 12.482 25.8875 12.806 25.2875 13.382C24.6875 13.934 24.3875 14.678 24.3875 15.614V25.442C24.3875 25.562 24.3395 25.67 24.2435 25.766C24.1715 25.838 24.0755 25.874 23.9555 25.874H19.7435C19.6235 25.874 19.5155 25.838 19.4195 25.766C19.3475 25.67 19.3115 25.562 19.3115 25.442V7.80202C19.3115 7.68202 19.3475 7.58602 19.4195 7.51402C19.5155 7.41802 19.6235 7.37002 19.7435 7.37002H23.9555C24.0755 7.37002 24.1715 7.41802 24.2435 7.51402C24.3395 7.58602 24.3875 7.68202 24.3875 7.80202V9.17002C24.3875 9.24202 24.4115 9.29002 24.4595 9.31402C24.5075 9.33802 24.5435 9.32602 24.5675 9.27802C25.5515 7.83802 26.8715 7.11802 28.5275 7.11802ZM32.2915 33.038C32.2195 33.038 32.1595 32.99 32.1115 32.894C32.0635 32.822 32.0395 32.726 32.0395 32.606V29.294C32.0395 29.174 32.0755 29.066 32.1475 28.97C32.2435 28.898 32.3515 28.862 32.4715 28.862C33.4795 28.838 34.2715 28.754 34.8475 28.61C35.4475 28.466 35.9155 28.19 36.2515 27.782C36.6115 27.374 36.8875 26.774 37.0795 25.982C37.1035 25.934 37.1035 25.862 37.0795 25.766L31.1755 7.83802C31.1515 7.79002 31.1395 7.73002 31.1395 7.65802C31.1395 7.44202 31.2715 7.33402 31.5355 7.33402H36.0355C36.2995 7.33402 36.4675 7.45402 36.5395 7.69402L39.5635 19.358C39.5875 19.43 39.6235 19.466 39.6715 19.466C39.7195 19.466 39.7555 19.43 39.7795 19.358L42.8035 7.69402C42.8755 7.45402 43.0435 7.33402 43.3075 7.33402H47.6995C47.8435 7.33402 47.9395 7.38202 47.9875 7.47802C48.0595 7.55002 48.0715 7.67002 48.0235 7.83802L41.7955 26.558C41.1955 28.31 40.5835 29.618 39.9595 30.482C39.3355 31.37 38.4595 32.018 37.3315 32.426C36.2035 32.834 34.6075 33.038 32.5435 33.038H32.2915ZM63.7592 26.162C61.7432 26.162 60.0152 25.634 58.5752 24.578C57.1352 23.522 56.1512 22.082 55.6232 20.258C55.2872 19.13 55.1192 17.906 55.1192 16.586C55.1192 15.17 55.2872 13.898 55.6232 12.77C56.1752 10.994 57.1712 9.60202 58.6112 8.59402C60.0512 7.58602 61.7792 7.08202 63.7952 7.08202C65.7632 7.08202 67.4432 7.58602 68.8352 8.59402C70.2272 9.57802 71.2112 10.958 71.7872 12.734C72.1712 13.934 72.3632 15.194 72.3632 16.514C72.3632 17.81 72.1952 19.022 71.8592 20.15C71.3312 22.022 70.3472 23.498 68.9072 24.578C67.4912 25.634 65.7752 26.162 63.7592 26.162ZM63.7592 21.806C64.5512 21.806 65.2232 21.566 65.7752 21.086C66.3272 20.606 66.7232 19.946 66.9632 19.106C67.1552 18.338 67.2512 17.498 67.2512 16.586C67.2512 15.578 67.1552 14.726 66.9632 14.03C66.6992 13.214 66.2912 12.578 65.7392 12.122C65.1872 11.666 64.5152 11.438 63.7232 11.438C62.9072 11.438 62.2232 11.666 61.6712 12.122C61.1432 12.578 60.7592 13.214 60.5192 14.03C60.3272 14.606 60.2312 15.458 60.2312 16.586C60.2312 17.666 60.3152 18.506 60.4832 19.106C60.7232 19.946 61.1192 20.606 61.6712 21.086C62.2472 21.566 62.9432 21.806 63.7592 21.806ZM85.3462 7.80202C85.3462 7.68202 85.3822 7.58602 85.4542 7.51402C85.5502 7.41802 85.6582 7.37002 85.7782 7.37002H89.9902C90.1102 7.37002 90.2062 7.41802 90.2782 7.51402C90.3742 7.58602 90.4222 7.68202 90.4222 7.80202V25.442C90.4222 25.562 90.3742 25.67 90.2782 25.766C90.2062 25.838 90.1102 25.874 89.9902 25.874H85.7782C85.6582 25.874 85.5502 25.838 85.4542 25.766C85.3822 25.67 85.3462 25.562 85.3462 25.442V24.218C85.3462 24.146 85.3222 24.11 85.2742 24.11C85.2262 24.086 85.1782 24.11 85.1302 24.182C84.1702 25.478 82.6822 26.126 80.6662 26.126C78.8422 26.126 77.3422 25.574 76.1662 24.47C74.9902 23.366 74.4022 21.818 74.4022 19.826V7.80202C74.4022 7.68202 74.4382 7.58602 74.5102 7.51402C74.6062 7.41802 74.7142 7.37002 74.8342 7.37002H79.0102C79.1302 7.37002 79.2262 7.41802 79.2982 7.51402C79.3942 7.58602 79.4422 7.68202 79.4422 7.80202V18.566C79.4422 19.526 79.6942 20.306 80.1982 20.906C80.7262 21.506 81.4462 21.806 82.3582 21.806C83.1742 21.806 83.8462 21.566 84.3742 21.086C84.9022 20.582 85.2262 19.934 85.3462 19.142V7.80202ZM103.703 11.006C103.703 11.126 103.655 11.234 103.559 11.33C103.487 11.402 103.391 11.438 103.271 11.438H99.8154C99.6954 11.438 99.6354 11.498 99.6354 11.618V19.25C99.6354 20.042 99.7914 20.63 100.103 21.014C100.439 21.398 100.967 21.59 101.687 21.59H102.875C102.995 21.59 103.091 21.638 103.163 21.734C103.259 21.806 103.307 21.902 103.307 22.022V25.442C103.307 25.706 103.163 25.862 102.875 25.91C101.867 25.958 101.147 25.982 100.715 25.982C98.7234 25.982 97.2354 25.658 96.2514 25.01C95.2674 24.338 94.7634 23.09 94.7394 21.266V11.618C94.7394 11.498 94.6794 11.438 94.5594 11.438H92.5074C92.3874 11.438 92.2794 11.402 92.1834 11.33C92.1114 11.234 92.0754 11.126 92.0754 11.006V7.80202C92.0754 7.68202 92.1114 7.58602 92.1834 7.51402C92.2794 7.41802 92.3874 7.37002 92.5074 7.37002H94.5594C94.6794 7.37002 94.7394 7.31002 94.7394 7.19002V2.90602C94.7394 2.78602 94.7754 2.69002 94.8474 2.61802C94.9434 2.52202 95.0514 2.47402 95.1714 2.47402H99.2034C99.3234 2.47402 99.4194 2.52202 99.4914 2.61802C99.5874 2.69002 99.6354 2.78602 99.6354 2.90602V7.19002C99.6354 7.31002 99.6954 7.37002 99.8154 7.37002H103.271C103.391 7.37002 103.487 7.41802 103.559 7.51402C103.655 7.58602 103.703 7.68202 103.703 7.80202V11.006ZM119.978 26.162C117.962 26.162 116.234 25.634 114.794 24.578C113.354 23.522 112.37 22.082 111.842 20.258C111.506 19.13 111.338 17.906 111.338 16.586C111.338 15.17 111.506 13.898 111.842 12.77C112.394 10.994 113.39 9.60202 114.83 8.59402C116.27 7.58602 117.998 7.08202 120.014 7.08202C121.982 7.08202 123.662 7.58602 125.054 8.59402C126.446 9.57802 127.43 10.958 128.006 12.734C128.39 13.934 128.582 15.194 128.582 16.514C128.582 17.81 128.414 19.022 128.078 20.15C127.55 22.022 126.566 23.498 125.126 24.578C123.71 25.634 121.994 26.162 119.978 26.162ZM119.978 21.806C120.77 21.806 121.442 21.566 121.994 21.086C122.546 20.606 122.942 19.946 123.182 19.106C123.374 18.338 123.47 17.498 123.47 16.586C123.47 15.578 123.374 14.726 123.182 14.03C122.918 13.214 122.51 12.578 121.958 12.122C121.406 11.666 120.734 11.438 119.942 11.438C119.126 11.438 118.442 11.666 117.89 12.122C117.362 12.578 116.978 13.214 116.738 14.03C116.546 14.606 116.45 15.458 116.45 16.586C116.45 17.666 116.534 18.506 116.702 19.106C116.942 19.946 117.338 20.606 117.89 21.086C118.466 21.566 119.162 21.806 119.978 21.806ZM140.413 7.08202C142.333 7.08202 143.881 7.67002 145.057 8.84602C146.233 10.022 146.821 11.618 146.821 13.634V25.442C146.821 25.562 146.773 25.67 146.677 25.766C146.605 25.838 146.509 25.874 146.389 25.874H142.177C142.057 25.874 141.949 25.838 141.853 25.766C141.781 25.67 141.745 25.562 141.745 25.442V14.678C141.745 13.718 141.469 12.938 140.917 12.338C140.389 11.738 139.681 11.438 138.793 11.438C137.905 11.438 137.185 11.738 136.633 12.338C136.105 12.938 135.841 13.718 135.841 14.678V25.442C135.841 25.562 135.793 25.67 135.697 25.766C135.625 25.838 135.529 25.874 135.409 25.874H131.197C131.077 25.874 130.969 25.838 130.873 25.766C130.801 25.67 130.765 25.562 130.765 25.442V7.80202C130.765 7.68202 130.801 7.58602 130.873 7.51402C130.969 7.41802 131.077 7.37002 131.197 7.37002H135.409C135.529 7.37002 135.625 7.41802 135.697 7.51402C135.793 7.58602 135.841 7.68202 135.841 7.80202V9.06202C135.841 9.13402 135.865 9.18202 135.913 9.20602C135.961 9.23002 135.997 9.21802 136.021 9.17002C137.005 7.77802 138.469 7.08202 140.413 7.08202ZM165.647 14.714C165.791 15.626 165.839 16.646 165.791 17.774C165.767 18.062 165.611 18.206 165.323 18.206H154.199C154.055 18.206 154.007 18.266 154.055 18.386C154.127 18.866 154.259 19.346 154.451 19.826C155.075 21.17 156.347 21.842 158.267 21.842C159.803 21.818 161.015 21.194 161.903 19.97C161.999 19.826 162.107 19.754 162.227 19.754C162.299 19.754 162.383 19.802 162.479 19.898L165.071 22.454C165.191 22.574 165.251 22.682 165.251 22.778C165.251 22.826 165.203 22.922 165.107 23.066C164.315 24.05 163.295 24.818 162.047 25.37C160.799 25.898 159.431 26.162 157.943 26.162C155.879 26.162 154.127 25.694 152.687 24.758C151.271 23.822 150.251 22.514 149.627 20.834C149.123 19.634 148.871 18.062 148.871 16.118C148.871 14.798 149.051 13.634 149.411 12.626C149.963 10.922 150.923 9.56602 152.291 8.55802C153.683 7.55002 155.327 7.04602 157.223 7.04602C159.623 7.04602 161.543 7.74202 162.983 9.13402C164.447 10.526 165.335 12.386 165.647 14.714ZM157.259 11.438C155.747 11.438 154.751 12.146 154.271 13.562C154.175 13.874 154.091 14.258 154.019 14.714C154.019 14.834 154.079 14.894 154.199 14.894H160.427C160.571 14.894 160.619 14.834 160.571 14.714C160.451 14.018 160.391 13.682 160.391 13.706C160.175 12.986 159.791 12.434 159.239 12.05C158.711 11.642 158.051 11.438 157.259 11.438ZM182.139 26.162C180.123 26.162 178.395 25.634 176.955 24.578C175.515 23.522 174.531 22.082 174.003 20.258C173.667 19.13 173.499 17.906 173.499 16.586C173.499 15.17 173.667 13.898 174.003 12.77C174.555 10.994 175.551 9.60202 176.991 8.59402C178.431 7.58602 180.159 7.08202 182.175 7.08202C184.143 7.08202 185.823 7.58602 187.215 8.59402C188.607 9.57802 189.591 10.958 190.167 12.734C190.551 13.934 190.743 15.194 190.743 16.514C190.743 17.81 190.575 19.022 190.239 20.15C189.711 22.022 188.727 23.498 187.287 24.578C185.871 25.634 184.155 26.162 182.139 26.162ZM182.139 21.806C182.931 21.806 183.603 21.566 184.155 21.086C184.707 20.606 185.103 19.946 185.343 19.106C185.535 18.338 185.631 17.498 185.631 16.586C185.631 15.578 185.535 14.726 185.343 14.03C185.079 13.214 184.671 12.578 184.119 12.122C183.567 11.666 182.895 11.438 182.103 11.438C181.287 11.438 180.603 11.666 180.051 12.122C179.523 12.578 179.139 13.214 178.899 14.03C178.707 14.606 178.611 15.458 178.611 16.586C178.611 17.666 178.695 18.506 178.863 19.106C179.103 19.946 179.499 20.606 180.051 21.086C180.627 21.566 181.323 21.806 182.139 21.806ZM202.982 7.33402C203.102 7.33402 203.198 7.38202 203.27 7.47802C203.366 7.55002 203.414 7.64602 203.414 7.76602V11.186C203.414 11.306 203.366 11.414 203.27 11.51C203.198 11.582 203.102 11.618 202.982 11.618H199.49C199.37 11.618 199.31 11.678 199.31 11.798V25.442C199.31 25.562 199.262 25.67 199.166 25.766C199.094 25.838 198.998 25.874 198.878 25.874H194.666C194.546 25.874 194.438 25.838 194.342 25.766C194.27 25.67 194.234 25.562 194.234 25.442V11.798C194.234 11.678 194.174 11.618 194.054 11.618H191.93C191.81 11.618 191.702 11.582 191.606 11.51C191.534 11.414 191.498 11.306 191.498 11.186V7.76602C191.498 7.64602 191.534 7.55002 191.606 7.47802C191.702 7.38202 191.81 7.33402 191.93 7.33402H194.054C194.174 7.33402 194.234 7.27402 194.234 7.15402V6.36202C194.234 4.87402 194.462 3.72202 194.918 2.90602C195.374 2.06602 196.106 1.47802 197.114 1.14202C198.146 0.782022 199.562 0.626022 201.362 0.674022H202.73C202.85 0.674022 202.946 0.722022 203.018 0.818022C203.114 0.890023 203.162 0.986023 203.162 1.10602V4.02202C203.162 4.14202 203.114 4.25002 203.018 4.34602C202.946 4.41802 202.85 4.45402 202.73 4.45402H201.542C200.702 4.47802 200.114 4.65802 199.778 4.99402C199.466 5.30602 199.31 5.89402 199.31 6.75802V7.15402C199.31 7.27402 199.37 7.33402 199.49 7.33402H202.982ZM219.574 26.162C217.558 26.162 215.83 25.634 214.39 24.578C212.95 23.522 211.966 22.082 211.438 20.258C211.102 19.13 210.934 17.906 210.934 16.586C210.934 15.17 211.102 13.898 211.438 12.77C211.99 10.994 212.986 9.60202 214.426 8.59402C215.866 7.58602 217.594 7.08202 219.61 7.08202C221.578 7.08202 223.258 7.58602 224.65 8.59402C226.042 9.57802 227.026 10.958 227.602 12.734C227.986 13.934 228.178 15.194 228.178 16.514C228.178 17.81 228.01 19.022 227.674 20.15C227.146 22.022 226.162 23.498 224.722 24.578C223.306 25.634 221.59 26.162 219.574 26.162ZM219.574 21.806C220.366 21.806 221.038 21.566 221.59 21.086C222.142 20.606 222.538 19.946 222.778 19.106C222.97 18.338 223.066 17.498 223.066 16.586C223.066 15.578 222.97 14.726 222.778 14.03C222.514 13.214 222.106 12.578 221.554 12.122C221.002 11.666 220.33 11.438 219.538 11.438C218.722 11.438 218.038 11.666 217.486 12.122C216.958 12.578 216.574 13.214 216.334 14.03C216.142 14.606 216.046 15.458 216.046 16.586C216.046 17.666 216.13 18.506 216.298 19.106C216.538 19.946 216.934 20.606 217.486 21.086C218.062 21.566 218.758 21.806 219.574 21.806ZM241.162 7.80202C241.162 7.68202 241.198 7.58602 241.27 7.51402C241.366 7.41802 241.474 7.37002 241.594 7.37002H245.806C245.926 7.37002 246.022 7.41802 246.094 7.51402C246.19 7.58602 246.238 7.68202 246.238 7.80202V25.442C246.238 25.562 246.19 25.67 246.094 25.766C246.022 25.838 245.926 25.874 245.806 25.874H241.594C241.474 25.874 241.366 25.838 241.27 25.766C241.198 25.67 241.162 25.562 241.162 25.442V24.218C241.162 24.146 241.138 24.11 241.09 24.11C241.042 24.086 240.994 24.11 240.946 24.182C239.986 25.478 238.498 26.126 236.482 26.126C234.658 26.126 233.158 25.574 231.982 24.47C230.806 23.366 230.218 21.818 230.218 19.826V7.80202C230.218 7.68202 230.254 7.58602 230.326 7.51402C230.422 7.41802 230.53 7.37002 230.65 7.37002H234.826C234.946 7.37002 235.042 7.41802 235.114 7.51402C235.21 7.58602 235.258 7.68202 235.258 7.80202V18.566C235.258 19.526 235.51 20.306 236.014 20.906C236.542 21.506 237.262 21.806 238.174 21.806C238.99 21.806 239.662 21.566 240.19 21.086C240.718 20.582 241.042 19.934 241.162 19.142V7.80202ZM258.115 7.11802C258.979 7.11802 259.663 7.28602 260.167 7.62202C260.359 7.71802 260.431 7.89802 260.383 8.16202L259.627 12.266C259.603 12.554 259.435 12.638 259.123 12.518C258.763 12.398 258.343 12.338 257.863 12.338C257.671 12.338 257.407 12.362 257.071 12.41C256.207 12.482 255.475 12.806 254.875 13.382C254.275 13.934 253.975 14.678 253.975 15.614V25.442C253.975 25.562 253.927 25.67 253.831 25.766C253.759 25.838 253.663 25.874 253.543 25.874H249.331C249.211 25.874 249.103 25.838 249.007 25.766C248.935 25.67 248.899 25.562 248.899 25.442V7.80202C248.899 7.68202 248.935 7.58602 249.007 7.51402C249.103 7.41802 249.211 7.37002 249.331 7.37002H253.543C253.663 7.37002 253.759 7.41802 253.831 7.51402C253.927 7.58602 253.975 7.68202 253.975 7.80202V9.17002C253.975 9.24202 253.999 9.29002 254.047 9.31402C254.095 9.33802 254.131 9.32602 254.155 9.27802C255.139 7.83802 256.459 7.11802 258.115 7.11802ZM275.863 26.162C273.943 26.162 272.275 25.682 270.859 24.722C269.467 23.762 268.471 22.442 267.871 20.762C267.463 19.562 267.259 18.146 267.259 16.514C267.259 14.906 267.463 13.514 267.871 12.338C268.447 10.706 269.443 9.42202 270.859 8.48602C272.275 7.55002 273.943 7.08202 275.863 7.08202C277.783 7.08202 279.463 7.56202 280.903 8.52202C282.367 9.48202 283.339 10.694 283.819 12.158C284.011 12.734 284.107 13.166 284.107 13.454V13.526C284.107 13.742 283.987 13.874 283.747 13.922L279.607 14.534H279.535C279.319 14.534 279.175 14.414 279.103 14.174L278.995 13.598C278.827 12.974 278.455 12.458 277.879 12.05C277.303 11.642 276.619 11.438 275.827 11.438C275.059 11.438 274.411 11.63 273.883 12.014C273.355 12.398 272.983 12.926 272.767 13.598C272.503 14.318 272.371 15.302 272.371 16.55C272.371 17.798 272.491 18.782 272.731 19.502C272.947 20.222 273.319 20.786 273.847 21.194C274.399 21.602 275.059 21.806 275.827 21.806C276.571 21.806 277.219 21.614 277.771 21.23C278.347 20.822 278.743 20.27 278.959 19.574C278.983 19.526 278.995 19.454 278.995 19.358C279.019 19.334 279.031 19.298 279.031 19.25C279.055 18.962 279.223 18.842 279.535 18.89L283.675 19.538C283.915 19.586 284.035 19.718 284.035 19.934C284.035 20.126 283.963 20.486 283.819 21.014C283.315 22.622 282.331 23.882 280.867 24.794C279.427 25.706 277.759 26.162 275.863 26.162ZM293.944 26.162C291.928 26.162 290.2 25.634 288.76 24.578C287.32 23.522 286.336 22.082 285.808 20.258C285.472 19.13 285.304 17.906 285.304 16.586C285.304 15.17 285.472 13.898 285.808 12.77C286.36 10.994 287.356 9.60202 288.796 8.59402C290.236 7.58602 291.964 7.08202 293.98 7.08202C295.948 7.08202 297.628 7.58602 299.02 8.59402C300.412 9.57802 301.396 10.958 301.972 12.734C302.356 13.934 302.548 15.194 302.548 16.514C302.548 17.81 302.38 19.022 302.044 20.15C301.516 22.022 300.532 23.498 299.092 24.578C297.676 25.634 295.96 26.162 293.944 26.162ZM293.944 21.806C294.736 21.806 295.408 21.566 295.96 21.086C296.512 20.606 296.908 19.946 297.148 19.106C297.34 18.338 297.436 17.498 297.436 16.586C297.436 15.578 297.34 14.726 297.148 14.03C296.884 13.214 296.476 12.578 295.924 12.122C295.372 11.666 294.7 11.438 293.908 11.438C293.092 11.438 292.408 11.666 291.856 12.122C291.328 12.578 290.944 13.214 290.704 14.03C290.512 14.606 290.416 15.458 290.416 16.586C290.416 17.666 290.5 18.506 290.668 19.106C290.908 19.946 291.304 20.606 291.856 21.086C292.432 21.566 293.128 21.806 293.944 21.806ZM315.531 7.80202C315.531 7.68202 315.567 7.58602 315.639 7.51402C315.735 7.41802 315.843 7.37002 315.963 7.37002H320.175C320.295 7.37002 320.391 7.41802 320.463 7.51402C320.559 7.58602 320.607 7.68202 320.607 7.80202V25.442C320.607 25.562 320.559 25.67 320.463 25.766C320.391 25.838 320.295 25.874 320.175 25.874H315.963C315.843 25.874 315.735 25.838 315.639 25.766C315.567 25.67 315.531 25.562 315.531 25.442V24.218C315.531 24.146 315.507 24.11 315.459 24.11C315.411 24.086 315.363 24.11 315.315 24.182C314.355 25.478 312.867 26.126 310.851 26.126C309.027 26.126 307.527 25.574 306.351 24.47C305.175 23.366 304.587 21.818 304.587 19.826V7.80202C304.587 7.68202 304.623 7.58602 304.695 7.51402C304.791 7.41802 304.899 7.37002 305.019 7.37002H309.195C309.315 7.37002 309.411 7.41802 309.483 7.51402C309.579 7.58602 309.627 7.68202 309.627 7.80202V18.566C309.627 19.526 309.879 20.306 310.383 20.906C310.911 21.506 311.631 21.806 312.543 21.806C313.359 21.806 314.031 21.566 314.559 21.086C315.087 20.582 315.411 19.934 315.531 19.142V7.80202ZM332.484 7.11802C333.348 7.11802 334.032 7.28602 334.536 7.62202C334.728 7.71802 334.8 7.89802 334.752 8.16202L333.996 12.266C333.972 12.554 333.804 12.638 333.492 12.518C333.132 12.398 332.712 12.338 332.232 12.338C332.04 12.338 331.776 12.362 331.44 12.41C330.576 12.482 329.844 12.806 329.244 13.382C328.644 13.934 328.344 14.678 328.344 15.614V25.442C328.344 25.562 328.296 25.67 328.2 25.766C328.128 25.838 328.032 25.874 327.912 25.874H323.7C323.58 25.874 323.472 25.838 323.376 25.766C323.304 25.67 323.268 25.562 323.268 25.442V7.80202C323.268 7.68202 323.304 7.58602 323.376 7.51402C323.472 7.41802 323.58 7.37002 323.7 7.37002H327.912C328.032 7.37002 328.128 7.41802 328.2 7.51402C328.296 7.58602 328.344 7.68202 328.344 7.80202V9.17002C328.344 9.24202 328.368 9.29002 328.416 9.31402C328.464 9.33802 328.5 9.32602 328.524 9.27802C329.508 7.83802 330.828 7.11802 332.484 7.11802ZM343.068 26.126C341.46 26.126 340.056 25.898 338.856 25.442C337.656 24.986 336.72 24.35 336.048 23.534C335.4 22.718 335.076 21.794 335.076 20.762V20.402C335.076 20.282 335.112 20.186 335.184 20.114C335.28 20.018 335.388 19.97 335.508 19.97H339.504C339.624 19.97 339.72 20.018 339.792 20.114C339.888 20.186 339.936 20.282 339.936 20.402V20.438C339.936 20.966 340.224 21.422 340.8 21.806C341.4 22.166 342.144 22.346 343.032 22.346C343.848 22.346 344.508 22.19 345.012 21.878C345.516 21.542 345.768 21.134 345.768 20.654C345.768 20.222 345.552 19.898 345.12 19.682C344.688 19.466 343.98 19.238 342.996 18.998C341.868 18.71 340.98 18.434 340.332 18.17C338.796 17.642 337.572 16.994 336.66 16.226C335.748 15.458 335.292 14.354 335.292 12.914C335.292 11.138 335.976 9.73402 337.344 8.70202C338.736 7.64602 340.572 7.11802 342.852 7.11802C344.388 7.11802 345.732 7.37002 346.884 7.87402C348.036 8.35402 348.924 9.03802 349.548 9.92602C350.196 10.814 350.52 11.822 350.52 12.95C350.52 13.07 350.472 13.178 350.376 13.274C350.304 13.346 350.208 13.382 350.088 13.382H346.236C346.116 13.382 346.008 13.346 345.912 13.274C345.84 13.178 345.804 13.07 345.804 12.95C345.804 12.422 345.528 11.978 344.976 11.618C344.448 11.258 343.74 11.078 342.852 11.078C342.06 11.078 341.412 11.222 340.908 11.51C340.404 11.798 340.152 12.194 340.152 12.698C340.152 13.178 340.392 13.538 340.872 13.778C341.376 14.018 342.204 14.27 343.356 14.534C343.62 14.606 343.92 14.69 344.256 14.786C344.592 14.858 344.952 14.954 345.336 15.074C347.04 15.578 348.384 16.226 349.368 17.018C350.352 17.81 350.844 18.962 350.844 20.474C350.844 22.25 350.136 23.642 348.72 24.65C347.328 25.634 345.444 26.126 343.068 26.126ZM369.059 14.714C369.203 15.626 369.251 16.646 369.203 17.774C369.179 18.062 369.023 18.206 368.735 18.206H357.611C357.467 18.206 357.419 18.266 357.467 18.386C357.539 18.866 357.671 19.346 357.863 19.826C358.487 21.17 359.759 21.842 361.679 21.842C363.215 21.818 364.427 21.194 365.315 19.97C365.411 19.826 365.519 19.754 365.639 19.754C365.711 19.754 365.795 19.802 365.891 19.898L368.483 22.454C368.603 22.574 368.663 22.682 368.663 22.778C368.663 22.826 368.615 22.922 368.519 23.066C367.727 24.05 366.707 24.818 365.459 25.37C364.211 25.898 362.843 26.162 361.355 26.162C359.291 26.162 357.539 25.694 356.099 24.758C354.683 23.822 353.663 22.514 353.039 20.834C352.535 19.634 352.283 18.062 352.283 16.118C352.283 14.798 352.463 13.634 352.823 12.626C353.375 10.922 354.335 9.56602 355.703 8.55802C357.095 7.55002 358.739 7.04602 360.635 7.04602C363.035 7.04602 364.955 7.74202 366.395 9.13402C367.859 10.526 368.747 12.386 369.059 14.714ZM360.671 11.438C359.159 11.438 358.163 12.146 357.683 13.562C357.587 13.874 357.503 14.258 357.431 14.714C357.431 14.834 357.491 14.894 357.611 14.894H363.839C363.983 14.894 364.031 14.834 363.983 14.714C363.863 14.018 363.803 13.682 363.803 13.706C363.587 12.986 363.203 12.434 362.651 12.05C362.123 11.642 361.463 11.438 360.671 11.438ZM378.385 26.126C376.777 26.126 375.373 25.898 374.173 25.442C372.973 24.986 372.037 24.35 371.365 23.534C370.717 22.718 370.393 21.794 370.393 20.762V20.402C370.393 20.282 370.429 20.186 370.501 20.114C370.597 20.018 370.705 19.97 370.825 19.97H374.821C374.941 19.97 375.037 20.018 375.109 20.114C375.205 20.186 375.253 20.282 375.253 20.402V20.438C375.253 20.966 375.541 21.422 376.117 21.806C376.717 22.166 377.461 22.346 378.349 22.346C379.165 22.346 379.825 22.19 380.329 21.878C380.833 21.542 381.085 21.134 381.085 20.654C381.085 20.222 380.869 19.898 380.437 19.682C380.005 19.466 379.297 19.238 378.313 18.998C377.185 18.71 376.297 18.434 375.649 18.17C374.113 17.642 372.889 16.994 371.977 16.226C371.065 15.458 370.609 14.354 370.609 12.914C370.609 11.138 371.293 9.73402 372.661 8.70202C374.053 7.64602 375.889 7.11802 378.169 7.11802C379.705 7.11802 381.049 7.37002 382.201 7.87402C383.353 8.35402 384.241 9.03802 384.865 9.92602C385.513 10.814 385.837 11.822 385.837 12.95C385.837 13.07 385.789 13.178 385.693 13.274C385.621 13.346 385.525 13.382 385.405 13.382H381.553C381.433 13.382 381.325 13.346 381.229 13.274C381.157 13.178 381.121 13.07 381.121 12.95C381.121 12.422 380.845 11.978 380.293 11.618C379.765 11.258 379.057 11.078 378.169 11.078C377.377 11.078 376.729 11.222 376.225 11.51C375.721 11.798 375.469 12.194 375.469 12.698C375.469 13.178 375.709 13.538 376.189 13.778C376.693 14.018 377.521 14.27 378.673 14.534C378.937 14.606 379.237 14.69 379.573 14.786C379.909 14.858 380.269 14.954 380.653 15.074C382.357 15.578 383.701 16.226 384.685 17.018C385.669 17.81 386.161 18.962 386.161 20.474C386.161 22.25 385.453 23.642 384.037 24.65C382.645 25.634 380.761 26.126 378.385 26.126ZM390.731 17.234C390.611 17.234 390.503 17.198 390.407 17.126C390.335 17.03 390.299 16.922 390.299 16.802L389.831 1.10602C389.831 0.986023 389.867 0.890023 389.939 0.818022C390.035 0.722022 390.143 0.674022 390.263 0.674022H394.475C394.595 0.674022 394.691 0.722022 394.763 0.818022C394.859 0.890023 394.907 0.986023 394.907 1.10602L394.367 16.802C394.367 16.922 394.319 17.03 394.223 17.126C394.151 17.198 394.055 17.234 393.935 17.234H390.731ZM392.135 25.838C391.319 25.838 390.635 25.574 390.083 25.046C389.555 24.494 389.291 23.81 389.291 22.994C389.291 22.154 389.555 21.47 390.083 20.942C390.611 20.414 391.295 20.15 392.135 20.15C392.975 20.15 393.647 20.414 394.151 20.942C394.679 21.47 394.943 22.154 394.943 22.994C394.943 23.81 394.679 24.494 394.151 25.046C393.623 25.574 392.951 25.838 392.135 25.838Z" fill="url(#paint0_linear_156_2075)"/>
<defs>
<linearGradient id="paint0_linear_156_2075" x1="-66.1907" y1="-34.4185" x2="526.272" y2="214.894" gradientUnits="userSpaceOnUse">
<stop stop-color="#0043CE"/>
<stop offset="0.06" stop-color="#7FA9FF"/>
<stop offset="1" stop-color="#E80808"/>
</linearGradient>
</defs>
</svg>
