<svg width="23" height="22" viewBox="0 0 23 22" fill="none" xmlns="http://www.w3.org/2000/svg">
<path d="M3.49992 21.6666C2.76659 21.6666 2.13859 21.4052 1.61592 20.8826C1.09325 20.3599 0.832365 19.7323 0.833254 18.9999V16.3332C0.833254 15.9555 0.961254 15.6386 1.21725 15.3826C1.47325 15.1266 1.7897 14.999 2.16659 14.9999C2.54437 14.9999 2.86125 15.1279 3.11725 15.3839C3.37325 15.6399 3.50081 15.9563 3.49992 16.3332V18.9999H19.4999V16.3332C19.4999 15.9555 19.6279 15.6386 19.8839 15.3826C20.1399 15.1266 20.4564 14.999 20.8333 14.9999C21.211 14.9999 21.5279 15.1279 21.7839 15.3839C22.0399 15.6399 22.1675 15.9563 22.1666 16.3332V18.9999C22.1666 19.7332 21.9053 20.3612 21.3826 20.8839C20.8599 21.4066 20.2324 21.6675 19.4999 21.6666H3.49992ZM10.1666 5.46657L7.66659 7.96657C7.39992 8.23324 7.08303 8.36124 6.71592 8.35057C6.34881 8.3399 6.03236 8.20079 5.76659 7.93324C5.52214 7.66657 5.39414 7.35546 5.38259 6.9999C5.37103 6.64435 5.49903 6.33324 5.76659 6.06657L10.5666 1.26657C10.6999 1.13324 10.8444 1.03901 10.9999 0.983902C11.1555 0.928791 11.3221 0.900791 11.4999 0.899902C11.6777 0.899902 11.8444 0.927902 11.9999 0.983902C12.1555 1.0399 12.2999 1.13412 12.4333 1.26657L17.2333 6.06657C17.4999 6.33324 17.6279 6.64435 17.6173 6.9999C17.6066 7.35546 17.4786 7.66657 17.2333 7.93324C16.9666 8.1999 16.6497 8.33901 16.2826 8.35057C15.9155 8.36212 15.599 8.23413 15.3333 7.96657L12.8333 5.46657V14.9999C12.8333 15.3777 12.7053 15.6946 12.4493 15.9506C12.1933 16.2066 11.8768 16.3341 11.4999 16.3332C11.1221 16.3332 10.8053 16.2052 10.5493 15.9492C10.2933 15.6932 10.1657 15.3768 10.1666 14.9999V5.46657Z" fill="#121619"/>
</svg>
