<svg width="24" height="24" viewBox="0 0 24 24" fill="none" xmlns="http://www.w3.org/2000/svg">
<path d="M8.11991 9.28995L11.9999 13.1699L15.8799 9.28995C15.9725 9.19736 16.0824 9.12392 16.2034 9.07382C16.3243 9.02371 16.454 8.99792 16.5849 8.99792C16.7158 8.99792 16.8455 9.02371 16.9665 9.07382C17.0874 9.12392 17.1973 9.19736 17.2899 9.28995C17.3825 9.38253 17.4559 9.49244 17.506 9.6134C17.5561 9.73437 17.5819 9.86401 17.5819 9.99495C17.5819 10.1259 17.5561 10.2555 17.506 10.3765C17.4559 10.4975 17.3825 10.6074 17.2899 10.6999L12.6999 15.2899C12.6074 15.3826 12.4975 15.4562 12.3765 15.5064C12.2556 15.5566 12.1259 15.5824 11.9949 15.5824C11.8639 15.5824 11.7343 15.5566 11.6133 15.5064C11.4923 15.4562 11.3824 15.3826 11.2899 15.2899L6.69991 10.6999C6.60721 10.6074 6.53366 10.4975 6.48348 10.3766C6.4333 10.2556 6.40747 10.1259 6.40747 9.99495C6.40747 9.86398 6.4333 9.73429 6.48348 9.61332C6.53366 9.49235 6.60721 9.38246 6.69991 9.28995C7.08991 8.90995 7.72991 8.89995 8.11991 9.28995Z" fill="#121619"/>
</svg>
