<svg width="18" height="18" viewBox="0 0 18 18" fill="none" xmlns="http://www.w3.org/2000/svg">
<path d="M2.16 4.33514C3.36 4.33514 4.32 3.36014 4.32 2.17514C4.32 0.990137 3.345 0.0151367 2.16 0.0151367C0.975 0.0151367 0 0.990137 0 2.17514C0 3.36014 0.975 4.33514 2.16 4.33514ZM6.375 5.97014V18.0001H10.095V12.0601C10.095 10.4851 10.395 8.97014 12.33 8.97014C14.265 8.97014 14.265 10.7701 14.265 12.1501V18.0001H18V11.4001C18 8.16014 17.31 5.67014 13.53 5.67014C11.715 5.67014 10.5 6.66014 10.005 7.60514H9.96V5.95514H6.39L6.375 5.97014ZM0.3 5.97014H4.035V18.0001H0.3V5.97014Z" fill="black"/>
</svg>
