<svg width="24" height="25" viewBox="0 0 24 25" fill="none" xmlns="http://www.w3.org/2000/svg">
<path d="M5.16 7.44061C6.36 7.44061 7.32 6.46561 7.32 5.28061C7.32 4.09561 6.345 3.12061 5.16 3.12061C3.975 3.12061 3 4.09561 3 5.28061C3 6.46561 3.975 7.44061 5.16 7.44061ZM9.375 9.07561V21.1056H13.095V15.1656C13.095 13.5906 13.395 12.0756 15.33 12.0756C17.265 12.0756 17.265 13.8756 17.265 15.2556V21.1056H21V14.5056C21 11.2656 20.31 8.77561 16.53 8.77561C14.715 8.77561 13.5 9.76561 13.005 10.7106H12.96V9.06061H9.39L9.375 9.07561ZM3.3 9.07561H7.035V21.1056H3.3V9.07561Z" fill="#1C1C1C"/>
</svg>
