<svg width="75" height="52" viewBox="0 0 75 52" fill="none" xmlns="http://www.w3.org/2000/svg">
<path d="M58.4176 33.25C55.216 33.25 52.0863 32.3006 49.4243 30.5219C46.7623 28.7432 44.6875 26.2151 43.4623 23.2572C42.2371 20.2993 41.9165 17.0445 42.5411 13.9045C43.1657 10.7644 44.7075 7.88007 46.9713 5.61621C49.2352 3.35235 52.1195 1.81064 55.2596 1.18604C58.3997 0.56144 61.6544 0.882006 64.6123 2.1072C67.5702 3.33239 70.0983 5.40719 71.877 8.06921C73.6557 10.7312 74.6051 13.8609 74.6051 17.0625L74.6791 19.375C74.6791 23.6265 73.8417 27.8365 72.2147 31.7644C70.5877 35.6923 68.203 39.2613 65.1967 42.2676C62.1904 45.2739 58.6214 47.6586 54.6935 49.2856C50.7656 50.9126 46.5557 51.75 42.3041 51.75V42.5C45.3423 42.5082 48.3519 41.914 51.159 40.7518C53.9661 39.5896 56.5149 37.8824 58.6581 35.729C59.4911 34.8976 60.2595 34.0039 60.9567 33.0557C60.1168 33.1877 59.2679 33.2542 58.4176 33.2546V33.25ZM16.7926 33.25C13.591 33.25 10.4613 32.3006 7.79932 30.5219C5.1373 28.7432 3.0625 26.2151 1.83731 23.2572C0.612116 20.2993 0.29155 17.0445 0.916148 13.9045C1.54075 10.7644 3.08246 7.88007 5.34632 5.61621C7.61018 3.35235 10.4945 1.81064 13.6346 1.18604C16.7747 0.56144 20.0294 0.882006 22.9873 2.1072C25.9452 3.33239 28.4733 5.40719 30.252 8.06921C32.0307 10.7312 32.9801 13.8609 32.9801 17.0625L33.0541 19.375C33.0541 27.9614 29.6432 36.1961 23.5717 42.2676C17.5002 48.3391 9.26549 51.75 0.67911 51.75V42.5C3.71726 42.5082 6.7269 41.914 9.53398 40.7518C12.3411 39.5896 14.8899 37.8824 17.0331 35.729C17.8661 34.8976 18.6345 34.0039 19.3317 33.0557C18.4918 33.1877 17.6429 33.2542 16.7926 33.2546V33.25Z" fill="#EEEEEE"/>
</svg>
