<svg width="24" height="24" viewBox="0 0 24 24" fill="none" xmlns="http://www.w3.org/2000/svg">
<path fill-rule="evenodd" clip-rule="evenodd" d="M3.6001 5.9998C3.6001 5.68154 3.72653 5.37632 3.95157 5.15128C4.17661 4.92623 4.48184 4.7998 4.8001 4.7998H19.2001C19.5184 4.7998 19.8236 4.92623 20.0486 5.15128C20.2737 5.37632 20.4001 5.68154 20.4001 5.9998C20.4001 6.31806 20.2737 6.62329 20.0486 6.84833C19.8236 7.07338 19.5184 7.1998 19.2001 7.1998H4.8001C4.48184 7.1998 4.17661 7.07338 3.95157 6.84833C3.72653 6.62329 3.6001 6.31806 3.6001 5.9998ZM3.6001 11.9998C3.6001 11.6815 3.72653 11.3763 3.95157 11.1513C4.17661 10.9262 4.48184 10.7998 4.8001 10.7998H12.0001C12.3184 10.7998 12.6236 10.9262 12.8486 11.1513C13.0737 11.3763 13.2001 11.6815 13.2001 11.9998C13.2001 12.3181 13.0737 12.6233 12.8486 12.8483C12.6236 13.0734 12.3184 13.1998 12.0001 13.1998H4.8001C4.48184 13.1998 4.17661 13.0734 3.95157 12.8483C3.72653 12.6233 3.6001 12.3181 3.6001 11.9998ZM3.6001 17.9998C3.6001 17.6815 3.72653 17.3763 3.95157 17.1513C4.17661 16.9262 4.48184 16.7998 4.8001 16.7998H19.2001C19.5184 16.7998 19.8236 16.9262 20.0486 17.1513C20.2737 17.3763 20.4001 17.6815 20.4001 17.9998C20.4001 18.3181 20.2737 18.6233 20.0486 18.8483C19.8236 19.0734 19.5184 19.1998 19.2001 19.1998H4.8001C4.48184 19.1998 4.17661 19.0734 3.95157 18.8483C3.72653 18.6233 3.6001 18.3181 3.6001 17.9998Z" fill="white"/>
</svg>
