<svg width="9" height="14" viewBox="0 0 9 14" fill="none" xmlns="http://www.w3.org/2000/svg">
<path d="M0.838738 11.4007L5.3654 6.87405L0.838738 2.34739C0.730726 2.23937 0.645046 2.11114 0.58659 1.97002C0.528134 1.82889 0.498047 1.67764 0.498047 1.52489C0.498047 1.37213 0.528134 1.22088 0.58659 1.07975C0.645046 0.938627 0.730726 0.810398 0.838738 0.702385C0.94675 0.594373 1.07498 0.508693 1.2161 0.450237C1.35723 0.391781 1.50849 0.361694 1.66124 0.361694C1.81399 0.361694 1.96525 0.391781 2.10637 0.450237C2.2475 0.508693 2.37573 0.594373 2.48374 0.702385L7.83874 6.05739C8.29374 6.51239 8.29374 7.24739 7.83874 7.70238L2.48374 13.0574C2.3758 13.1655 2.2476 13.2513 2.10647 13.3099C1.96533 13.3684 1.81403 13.3986 1.66124 13.3986C1.50844 13.3986 1.35714 13.3684 1.21601 13.3099C1.07487 13.2513 0.94667 13.1655 0.838738 13.0574C0.395404 12.6024 0.383738 11.8557 0.838738 11.4007Z" fill="#1C1C1C"/>
</svg>
