<svg width="9" height="14" viewBox="0 0 9 14" fill="none" xmlns="http://www.w3.org/2000/svg">
<path d="M8.1615 11.4007L3.63483 6.87405L8.1615 2.34739C8.26951 2.23937 8.35519 2.11114 8.41364 1.97002C8.4721 1.82889 8.50219 1.67764 8.50219 1.52489C8.50219 1.37213 8.4721 1.22088 8.41364 1.07975C8.35519 0.938627 8.26951 0.810398 8.1615 0.702385C8.05348 0.594373 7.92526 0.508693 7.78413 0.450237C7.64301 0.391781 7.49175 0.361694 7.339 0.361694C7.18624 0.361694 7.03499 0.391781 6.89386 0.450237C6.75274 0.508693 6.62451 0.594373 6.5165 0.702385L1.1615 6.05739C1.05334 6.16532 0.967538 6.29352 0.908993 6.43466C0.850448 6.57579 0.820312 6.72709 0.820312 6.87989C0.820312 7.03268 0.850448 7.18398 0.908993 7.32511C0.967538 7.46625 1.05334 7.59445 1.1615 7.70238L6.5165 13.0574C6.9715 13.5124 7.7065 13.5124 8.1615 13.0574C8.60483 12.6024 8.6165 11.8557 8.1615 11.4007Z" fill="#1C1C1C"/>
</svg>
