<svg width="63" height="21" viewBox="0 0 63 21" fill="none" xmlns="http://www.w3.org/2000/svg">
<path d="M12.2364 9.78C12.1244 9.836 12.1244 9.892 12.2364 9.948C14.0098 10.8627 14.8964 12.384 14.8964 14.512C14.8964 16.3227 14.2804 17.6947 13.0484 18.628C11.8164 19.5427 10.2018 20 8.20443 20H0.952432C0.859099 20 0.775099 19.972 0.700432 19.916C0.644432 19.8413 0.616432 19.7573 0.616432 19.664V0.735999C0.616432 0.642666 0.644432 0.567999 0.700432 0.511999C0.775099 0.437332 0.859099 0.399999 0.952432 0.399999H7.98043C12.4044 0.399999 14.6164 2.192 14.6164 5.776C14.6164 7.64267 13.8231 8.97733 12.2364 9.78ZM4.70443 3.788C4.6111 3.788 4.56443 3.83467 4.56443 3.928V8.296C4.56443 8.38933 4.6111 8.436 4.70443 8.436H7.98043C8.85777 8.436 9.5391 8.23067 10.0244 7.82C10.5098 7.40933 10.7524 6.84933 10.7524 6.14C10.7524 5.412 10.5098 4.84267 10.0244 4.432C9.5391 4.00267 8.85777 3.788 7.98043 3.788H4.70443ZM8.20443 16.584C9.0631 16.584 9.7351 16.3693 10.2204 15.94C10.7058 15.492 10.9484 14.8853 10.9484 14.12C10.9484 13.3547 10.7058 12.7573 10.2204 12.328C9.7351 11.88 9.05377 11.656 8.17643 11.656H4.70443C4.6111 11.656 4.56443 11.7027 4.56443 11.796V16.444C4.56443 16.5373 4.6111 16.584 4.70443 16.584H8.20443ZM17.4757 20C17.3824 20 17.2984 19.972 17.2237 19.916C17.1677 19.8413 17.1397 19.7573 17.1397 19.664V0.735999C17.1397 0.642666 17.1677 0.567999 17.2237 0.511999C17.2984 0.437332 17.3824 0.399999 17.4757 0.399999H20.7517C20.8451 0.399999 20.9197 0.437332 20.9757 0.511999C21.0504 0.567999 21.0877 0.642666 21.0877 0.735999V16.472C21.0877 16.5653 21.1344 16.612 21.2277 16.612H30.3837C30.4771 16.612 30.5517 16.6493 30.6077 16.724C30.6824 16.78 30.7197 16.8547 30.7197 16.948V19.664C30.7197 19.7573 30.6824 19.8413 30.6077 19.916C30.5517 19.972 30.4771 20 30.3837 20H17.4757ZM39.0764 20.308C37.6204 20.308 36.3324 20.0093 35.2124 19.412C34.1111 18.8147 33.2524 17.984 32.6364 16.92C32.0204 15.8373 31.7124 14.596 31.7124 13.196V7.204C31.7124 5.82267 32.0204 4.6 32.6364 3.536C33.2524 2.472 34.1111 1.65067 35.2124 1.072C36.3324 0.474666 37.6204 0.176 39.0764 0.176C40.5511 0.176 41.8391 0.474666 42.9404 1.072C44.0604 1.65067 44.9284 2.472 45.5444 3.536C46.1604 4.6 46.4684 5.82267 46.4684 7.204V13.196C46.4684 14.596 46.1604 15.8373 45.5444 16.92C44.9284 18.0027 44.0604 18.8427 42.9404 19.44C41.8391 20.0187 40.5511 20.308 39.0764 20.308ZM39.0764 16.92C40.1031 16.92 40.9337 16.5933 41.5684 15.94C42.2031 15.2867 42.5204 14.4187 42.5204 13.336V7.176C42.5204 6.09333 42.2031 5.22533 41.5684 4.572C40.9524 3.9 40.1217 3.564 39.0764 3.564C38.0497 3.564 37.2191 3.9 36.5844 4.572C35.9684 5.22533 35.6604 6.09333 35.6604 7.176V13.336C35.6604 14.4187 35.9684 15.2867 36.5844 15.94C37.2191 16.5933 38.0497 16.92 39.0764 16.92ZM55.543 20.224C54.1057 20.224 52.8364 19.9347 51.735 19.356C50.6337 18.7773 49.775 17.9747 49.159 16.948C48.5617 15.9027 48.263 14.6987 48.263 13.336V7.064C48.263 5.70133 48.5617 4.49733 49.159 3.452C49.775 2.40667 50.6337 1.604 51.735 1.044C52.8364 0.465333 54.1057 0.176 55.543 0.176C56.9617 0.176 58.2124 0.456 59.295 1.016C60.3964 1.576 61.2457 2.34133 61.843 3.312C62.459 4.264 62.767 5.328 62.767 6.504V6.7C62.767 6.79333 62.7297 6.87733 62.655 6.952C62.599 7.008 62.5244 7.036 62.431 7.036H59.155C59.0617 7.036 58.9777 7.008 58.903 6.952C58.847 6.87733 58.819 6.79333 58.819 6.7V6.616C58.819 5.75733 58.5204 5.03867 57.923 4.46C57.3257 3.86267 56.5324 3.564 55.543 3.564C54.535 3.564 53.723 3.88133 53.107 4.516C52.5097 5.132 52.211 5.944 52.211 6.952V13.448C52.211 14.456 52.5377 15.2773 53.191 15.912C53.8444 16.528 54.675 16.836 55.683 16.836C56.6537 16.836 57.4284 16.584 58.007 16.08C58.5857 15.5573 58.875 14.8387 58.875 13.924V12.664C58.875 12.5707 58.8284 12.524 58.735 12.524H55.599C55.5057 12.524 55.4217 12.496 55.347 12.44C55.291 12.3653 55.263 12.2813 55.263 12.188V9.612C55.263 9.51867 55.291 9.444 55.347 9.388C55.4217 9.31333 55.5057 9.276 55.599 9.276H62.431C62.5244 9.276 62.599 9.31333 62.655 9.388C62.7297 9.444 62.767 9.51867 62.767 9.612V13.308C62.767 14.7267 62.4684 15.9587 61.871 17.004C61.2737 18.0493 60.4244 18.852 59.323 19.412C58.2404 19.9533 56.9804 20.224 55.543 20.224Z" fill="url(#paint0_linear_156_3062)"/>
<defs>
<linearGradient id="paint0_linear_156_3062" x1="-196.471" y1="-27.2081" x2="299.265" y2="199.592" gradientUnits="userSpaceOnUse">
<stop stop-color="#0043CE"/>
<stop offset="0.06" stop-color="#7FA9FF"/>
<stop offset="1" stop-color="#E80808"/>
</linearGradient>
</defs>
</svg>
