<svg width="65" height="33" viewBox="0 0 65 33" fill="none" xmlns="http://www.w3.org/2000/svg">
<path d="M15.136 12.2448C14.992 12.3168 14.992 12.3888 15.136 12.4608C17.416 13.6368 18.556 15.5928 18.556 18.3288C18.556 20.6568 17.764 22.4208 16.18 23.6208C14.596 24.7968 12.52 25.3848 9.952 25.3848H0.628C0.508 25.3848 0.4 25.3488 0.304 25.2768C0.232 25.1808 0.196 25.0728 0.196 24.9528V0.616765C0.196 0.496765 0.232 0.400765 0.304 0.328764C0.4 0.232764 0.508 0.184764 0.628 0.184764H9.664C15.352 0.184764 18.196 2.48876 18.196 7.09677C18.196 9.49676 17.176 11.2128 15.136 12.2448ZM5.452 4.54076C5.332 4.54076 5.272 4.60076 5.272 4.72077V10.3368C5.272 10.4568 5.332 10.5168 5.452 10.5168H9.664C10.792 10.5168 11.668 10.2528 12.292 9.72476C12.916 9.19676 13.228 8.47676 13.228 7.56476C13.228 6.62876 12.916 5.89676 12.292 5.36876C11.668 4.81676 10.792 4.54076 9.664 4.54076H5.452ZM9.952 20.9928C11.056 20.9928 11.92 20.7168 12.544 20.1648C13.168 19.5888 13.48 18.8088 13.48 17.8248C13.48 16.8408 13.168 16.0728 12.544 15.5208C11.92 14.9448 11.044 14.6568 9.916 14.6568H5.452C5.332 14.6568 5.272 14.7168 5.272 14.8368V20.8128C5.272 20.9328 5.332 20.9928 5.452 20.9928H9.952ZM21.5482 25.3848C21.4282 25.3848 21.3202 25.3488 21.2242 25.2768C21.1522 25.1808 21.1162 25.0728 21.1162 24.9528V0.616765C21.1162 0.496765 21.1522 0.400765 21.2242 0.328764C21.3202 0.232764 21.4282 0.184764 21.5482 0.184764H25.7602C25.8802 0.184764 25.9762 0.232764 26.0482 0.328764C26.1442 0.400765 26.1922 0.496765 26.1922 0.616765V24.9528C26.1922 25.0728 26.1442 25.1808 26.0482 25.2768C25.9762 25.3488 25.8802 25.3848 25.7602 25.3848H21.5482ZM36.9973 25.6728C34.9813 25.6728 33.2533 25.1448 31.8133 24.0888C30.3733 23.0328 29.3893 21.5928 28.8613 19.7688C28.5253 18.6408 28.3573 17.4168 28.3573 16.0968C28.3573 14.6808 28.5253 13.4088 28.8613 12.2808C29.4133 10.5048 30.4093 9.11276 31.8493 8.10476C33.2893 7.09677 35.0173 6.59277 37.0333 6.59277C39.0013 6.59277 40.6813 7.09677 42.0733 8.10476C43.4653 9.08877 44.4493 10.4688 45.0253 12.2448C45.4093 13.4448 45.6013 14.7048 45.6013 16.0248C45.6013 17.3208 45.4333 18.5328 45.0973 19.6608C44.5693 21.5328 43.5853 23.0088 42.1453 24.0888C40.7293 25.1448 39.0133 25.6728 36.9973 25.6728ZM36.9973 21.3168C37.7893 21.3168 38.4613 21.0768 39.0133 20.5968C39.5653 20.1168 39.9613 19.4568 40.2013 18.6168C40.3933 17.8488 40.4893 17.0088 40.4893 16.0968C40.4893 15.0888 40.3933 14.2368 40.2013 13.5408C39.9373 12.7248 39.5293 12.0888 38.9773 11.6328C38.4253 11.1768 37.7533 10.9488 36.9613 10.9488C36.1453 10.9488 35.4613 11.1768 34.9093 11.6328C34.3813 12.0888 33.9973 12.7248 33.7573 13.5408C33.5653 14.1168 33.4693 14.9688 33.4693 16.0968C33.4693 17.1768 33.5533 18.0168 33.7213 18.6168C33.9613 19.4568 34.3573 20.1168 34.9093 20.5968C35.4853 21.0768 36.1813 21.3168 36.9973 21.3168ZM59.0883 7.31276C59.0883 7.19276 59.1243 7.09676 59.1963 7.02476C59.2923 6.92877 59.4003 6.88077 59.5203 6.88077H63.7323C63.8523 6.88077 63.9483 6.92877 64.0203 7.02476C64.1163 7.09676 64.1643 7.19276 64.1643 7.31276V23.7288C64.1643 26.8728 63.2523 29.1168 61.4283 30.4608C59.6283 31.8048 57.3003 32.4768 54.4443 32.4768C53.6043 32.4768 52.6683 32.4168 51.6363 32.2968C51.3963 32.2728 51.2763 32.1168 51.2763 31.8288L51.4203 28.1208C51.4203 27.8088 51.5883 27.6768 51.9243 27.7248C52.7883 27.8688 53.5803 27.9408 54.3003 27.9408C55.8363 27.9408 57.0123 27.6048 57.8283 26.9328C58.6683 26.2608 59.0883 25.1808 59.0883 23.6928C59.0883 23.6208 59.0643 23.5848 59.0163 23.5848C58.9683 23.5608 58.9203 23.5728 58.8723 23.6208C57.9603 24.6048 56.6283 25.0968 54.8763 25.0968C53.3163 25.0968 51.8763 24.7248 50.5563 23.9808C49.2603 23.2128 48.3363 21.9888 47.7843 20.3088C47.4243 19.2048 47.2443 17.7768 47.2443 16.0248C47.2443 14.1528 47.4603 12.6288 47.8923 11.4528C48.3963 9.98877 49.2483 8.81277 50.4483 7.92477C51.6483 7.03677 53.0403 6.59277 54.6243 6.59277C56.4723 6.59277 57.8883 7.14477 58.8723 8.24877C58.9203 8.29676 58.9683 8.32076 59.0163 8.32076C59.0643 8.29676 59.0883 8.24876 59.0883 8.17677V7.31276ZM58.8003 18.9408C58.9923 18.2208 59.0883 17.2368 59.0883 15.9888C59.0883 15.2448 59.0643 14.6688 59.0163 14.2608C58.9683 13.8528 58.8843 13.4688 58.7643 13.1088C58.5483 12.4608 58.1883 11.9448 57.6843 11.5608C57.1803 11.1528 56.5563 10.9488 55.8123 10.9488C55.0923 10.9488 54.4803 11.1528 53.9763 11.5608C53.4723 11.9448 53.1003 12.4608 52.8603 13.1088C52.5243 13.8288 52.3563 14.8008 52.3563 16.0248C52.3563 17.3688 52.5003 18.3288 52.7883 18.9048C53.0043 19.5528 53.3763 20.0808 53.9043 20.4888C54.4563 20.8728 55.1043 21.0648 55.8483 21.0648C56.6163 21.0648 57.2523 20.8728 57.7563 20.4888C58.2603 20.0808 58.6083 19.5648 58.8003 18.9408Z" fill="url(#paint0_linear_156_2098)"/>
<defs>
<linearGradient id="paint0_linear_156_2098" x1="-13.1954" y1="-34.9078" x2="105.047" y2="-26.4278" gradientUnits="userSpaceOnUse">
<stop stop-color="#0043CE"/>
<stop offset="0.06" stop-color="#7FA9FF"/>
<stop offset="1" stop-color="#E80808"/>
</linearGradient>
</defs>
</svg>
