<svg width="567" height="83" viewBox="0 0 567 83" fill="none" xmlns="http://www.w3.org/2000/svg">
<path d="M72.1103 11.2C72.1903 11.2 72.2543 11.232 72.3023 11.296C72.3663 11.344 72.3983 11.408 72.3983 11.488V13.84C72.3983 13.92 72.3663 13.992 72.3023 14.056C72.2543 14.104 72.1903 14.128 72.1103 14.128H67.8143C67.7343 14.128 67.6943 14.168 67.6943 14.248V27.712C67.6943 27.792 67.6623 27.864 67.5983 27.928C67.5503 27.976 67.4863 28 67.4063 28H64.5983C64.5183 28 64.4463 27.976 64.3823 27.928C64.3343 27.864 64.3103 27.792 64.3103 27.712V14.248C64.3103 14.168 64.2703 14.128 64.1903 14.128H60.0143C59.9343 14.128 59.8623 14.104 59.7983 14.056C59.7503 13.992 59.7263 13.92 59.7263 13.84V11.488C59.7263 11.408 59.7503 11.344 59.7983 11.296C59.8623 11.232 59.9343 11.2 60.0143 11.2H72.1103ZM80.2934 15.472C81.5734 15.472 82.6054 15.864 83.3894 16.648C84.1734 17.432 84.5654 18.496 84.5654 19.84V27.712C84.5654 27.792 84.5334 27.864 84.4694 27.928C84.4214 27.976 84.3574 28 84.2774 28H81.4694C81.3894 28 81.3174 27.976 81.2534 27.928C81.2054 27.864 81.1814 27.792 81.1814 27.712V20.536C81.1814 19.896 80.9974 19.376 80.6294 18.976C80.2774 18.576 79.8054 18.376 79.2134 18.376C78.6214 18.376 78.1414 18.576 77.7734 18.976C77.4214 19.376 77.2454 19.896 77.2454 20.536V27.712C77.2454 27.792 77.2134 27.864 77.1494 27.928C77.1014 27.976 77.0374 28 76.9574 28H74.1494C74.0694 28 73.9974 27.976 73.9334 27.928C73.8854 27.864 73.8614 27.792 73.8614 27.712V11.488C73.8614 11.408 73.8854 11.344 73.9334 11.296C73.9974 11.232 74.0694 11.2 74.1494 11.2H76.9574C77.0374 11.2 77.1014 11.232 77.1494 11.296C77.2134 11.344 77.2454 11.408 77.2454 11.488V16.792C77.2454 16.84 77.2614 16.872 77.2934 16.888C77.3254 16.904 77.3494 16.896 77.3654 16.864C78.0214 15.936 78.9974 15.472 80.2934 15.472ZM97.3561 20.56C97.4521 21.168 97.4841 21.848 97.4521 22.6C97.4361 22.792 97.3321 22.888 97.1401 22.888H89.7241C89.6281 22.888 89.5961 22.928 89.6281 23.008C89.6761 23.328 89.7641 23.648 89.8921 23.968C90.3081 24.864 91.1561 25.312 92.4361 25.312C93.4601 25.296 94.2681 24.88 94.8601 24.064C94.9241 23.968 94.9961 23.92 95.0761 23.92C95.1241 23.92 95.1801 23.952 95.2441 24.016L96.9721 25.72C97.0521 25.8 97.0921 25.872 97.0921 25.936C97.0921 25.968 97.0601 26.032 96.9961 26.128C96.4681 26.784 95.7881 27.296 94.9561 27.664C94.1241 28.016 93.2121 28.192 92.2201 28.192C90.8441 28.192 89.6761 27.88 88.7161 27.256C87.7721 26.632 87.0921 25.76 86.6761 24.64C86.3401 23.84 86.1721 22.792 86.1721 21.496C86.1721 20.616 86.2921 19.84 86.5321 19.168C86.9001 18.032 87.5401 17.128 88.4521 16.456C89.3801 15.784 90.4761 15.448 91.7401 15.448C93.3401 15.448 94.6201 15.912 95.5801 16.84C96.5561 17.768 97.1481 19.008 97.3561 20.56ZM91.7641 18.376C90.7561 18.376 90.0921 18.848 89.7721 19.792C89.7081 20 89.6521 20.256 89.6041 20.56C89.6041 20.64 89.6441 20.68 89.7241 20.68H93.8761C93.9721 20.68 94.0041 20.64 93.9721 20.56C93.8921 20.096 93.8521 19.872 93.8521 19.888C93.7081 19.408 93.4521 19.04 93.0841 18.784C92.7321 18.512 92.2921 18.376 91.7641 18.376ZM105.49 15.472C106.77 15.472 107.802 15.864 108.586 16.648C109.37 17.432 109.762 18.496 109.762 19.84V27.712C109.762 27.792 109.73 27.864 109.666 27.928C109.618 27.976 109.554 28 109.474 28H106.666C106.586 28 106.514 27.976 106.45 27.928C106.402 27.864 106.378 27.792 106.378 27.712V20.536C106.378 19.896 106.194 19.376 105.826 18.976C105.474 18.576 105.002 18.376 104.41 18.376C103.818 18.376 103.338 18.576 102.97 18.976C102.618 19.376 102.442 19.896 102.442 20.536V27.712C102.442 27.792 102.41 27.864 102.346 27.928C102.298 27.976 102.234 28 102.154 28H99.3456C99.2656 28 99.1936 27.976 99.1296 27.928C99.0816 27.864 99.0576 27.792 99.0576 27.712V15.952C99.0576 15.872 99.0816 15.808 99.1296 15.76C99.1936 15.696 99.2656 15.664 99.3456 15.664H102.154C102.234 15.664 102.298 15.696 102.346 15.76C102.41 15.808 102.442 15.872 102.442 15.952V16.792C102.442 16.84 102.458 16.872 102.49 16.888C102.522 16.904 102.546 16.896 102.562 16.864C103.218 15.936 104.194 15.472 105.49 15.472ZM111.515 30.352C111.323 30.352 111.235 30.248 111.251 30.04L112.043 24.472C112.059 24.296 112.163 24.208 112.355 24.208H114.803C115.011 24.208 115.091 24.312 115.043 24.52L113.555 30.112C113.507 30.272 113.395 30.352 113.219 30.352H111.515ZM132.631 18.808C132.935 19.64 133.087 20.632 133.087 21.784C133.087 22.888 132.951 23.856 132.679 24.688C132.311 25.776 131.719 26.632 130.903 27.256C130.103 27.88 129.151 28.192 128.047 28.192C126.879 28.192 125.959 27.752 125.287 26.872C125.255 26.84 125.223 26.832 125.191 26.848C125.159 26.848 125.143 26.872 125.143 26.92V27.712C125.143 27.792 125.111 27.864 125.047 27.928C124.999 27.976 124.935 28 124.855 28H122.047C121.967 28 121.895 27.976 121.831 27.928C121.783 27.864 121.759 27.792 121.759 27.712V11.488C121.759 11.408 121.783 11.344 121.831 11.296C121.895 11.232 121.967 11.2 122.047 11.2H124.855C124.935 11.2 124.999 11.232 125.047 11.296C125.111 11.344 125.143 11.408 125.143 11.488V16.624C125.143 16.672 125.159 16.704 125.191 16.72C125.223 16.736 125.255 16.72 125.287 16.672C125.911 15.872 126.799 15.472 127.951 15.472C129.119 15.472 130.095 15.776 130.879 16.384C131.679 16.976 132.263 17.784 132.631 18.808ZM129.079 24.256C129.415 23.648 129.583 22.848 129.583 21.856C129.583 20.752 129.391 19.904 129.007 19.312C128.623 18.688 128.055 18.376 127.303 18.376C126.599 18.376 126.063 18.688 125.695 19.312C125.343 19.92 125.167 20.76 125.167 21.832C125.167 22.904 125.327 23.712 125.647 24.256C126.031 24.944 126.591 25.288 127.327 25.288C128.111 25.288 128.695 24.944 129.079 24.256ZM140.203 28.192C138.859 28.192 137.707 27.84 136.747 27.136C135.787 26.432 135.131 25.472 134.779 24.256C134.555 23.504 134.443 22.688 134.443 21.808C134.443 20.864 134.555 20.016 134.779 19.264C135.147 18.08 135.811 17.152 136.771 16.48C137.731 15.808 138.883 15.472 140.227 15.472C141.539 15.472 142.659 15.808 143.587 16.48C144.515 17.136 145.171 18.056 145.555 19.24C145.811 20.04 145.939 20.88 145.939 21.76C145.939 22.624 145.827 23.432 145.603 24.184C145.251 25.432 144.595 26.416 143.635 27.136C142.691 27.84 141.547 28.192 140.203 28.192ZM140.203 25.288C140.731 25.288 141.179 25.128 141.547 24.808C141.915 24.488 142.179 24.048 142.339 23.488C142.467 22.976 142.531 22.416 142.531 21.808C142.531 21.136 142.467 20.568 142.339 20.104C142.163 19.56 141.891 19.136 141.523 18.832C141.155 18.528 140.707 18.376 140.179 18.376C139.635 18.376 139.179 18.528 138.811 18.832C138.459 19.136 138.203 19.56 138.043 20.104C137.915 20.488 137.851 21.056 137.851 21.808C137.851 22.528 137.907 23.088 138.019 23.488C138.179 24.048 138.443 24.488 138.811 24.808C139.195 25.128 139.659 25.288 140.203 25.288ZM153.082 28.192C151.738 28.192 150.586 27.84 149.626 27.136C148.666 26.432 148.01 25.472 147.658 24.256C147.434 23.504 147.322 22.688 147.322 21.808C147.322 20.864 147.434 20.016 147.658 19.264C148.026 18.08 148.69 17.152 149.65 16.48C150.61 15.808 151.762 15.472 153.106 15.472C154.418 15.472 155.538 15.808 156.466 16.48C157.394 17.136 158.05 18.056 158.434 19.24C158.69 20.04 158.818 20.88 158.818 21.76C158.818 22.624 158.706 23.432 158.482 24.184C158.13 25.432 157.474 26.416 156.514 27.136C155.57 27.84 154.426 28.192 153.082 28.192ZM153.082 25.288C153.61 25.288 154.058 25.128 154.426 24.808C154.794 24.488 155.058 24.048 155.218 23.488C155.346 22.976 155.41 22.416 155.41 21.808C155.41 21.136 155.346 20.568 155.218 20.104C155.042 19.56 154.77 19.136 154.402 18.832C154.034 18.528 153.586 18.376 153.058 18.376C152.514 18.376 152.058 18.528 151.69 18.832C151.338 19.136 151.082 19.56 150.922 20.104C150.794 20.488 150.73 21.056 150.73 21.808C150.73 22.528 150.786 23.088 150.898 23.488C151.058 24.048 151.322 24.488 151.69 24.808C152.074 25.128 152.538 25.288 153.082 25.288ZM160.802 28C160.722 28 160.65 27.976 160.586 27.928C160.538 27.864 160.514 27.792 160.514 27.712V11.488C160.514 11.408 160.538 11.344 160.586 11.296C160.65 11.232 160.722 11.2 160.802 11.2H163.61C163.69 11.2 163.754 11.232 163.802 11.296C163.866 11.344 163.898 11.408 163.898 11.488V19.576C163.898 19.624 163.914 19.656 163.946 19.672C163.978 19.672 164.01 19.656 164.042 19.624L167.306 15.832C167.418 15.72 167.538 15.664 167.666 15.664H170.858C171.018 15.664 171.098 15.72 171.098 15.832C171.098 15.88 171.074 15.944 171.026 16.024L167.978 19.888C167.946 19.952 167.938 20.008 167.954 20.056L171.53 27.664C171.562 27.728 171.578 27.776 171.578 27.808C171.578 27.936 171.49 28 171.314 28H168.362C168.202 28 168.09 27.928 168.026 27.784L165.65 22.168C165.634 22.136 165.602 22.12 165.554 22.12C165.522 22.104 165.498 22.112 165.482 22.144L163.946 24.064C163.914 24.128 163.898 24.176 163.898 24.208V27.712C163.898 27.792 163.866 27.864 163.802 27.928C163.754 27.976 163.69 28 163.61 28H160.802ZM182.075 15.472C183.115 15.472 184.043 15.656 184.859 16.024C185.675 16.376 186.307 16.864 186.755 17.488C187.219 18.112 187.451 18.808 187.451 19.576V27.712C187.451 27.792 187.419 27.864 187.355 27.928C187.307 27.976 187.243 28 187.163 28H184.355C184.275 28 184.203 27.976 184.139 27.928C184.091 27.864 184.067 27.792 184.067 27.712V26.92C184.067 26.872 184.051 26.84 184.019 26.824C183.987 26.808 183.955 26.824 183.923 26.872C183.251 27.752 182.171 28.192 180.683 28.192C179.435 28.192 178.427 27.888 177.659 27.28C176.891 26.672 176.507 25.776 176.507 24.592C176.507 23.36 176.939 22.408 177.803 21.736C178.667 21.048 179.899 20.704 181.499 20.704H183.947C184.027 20.704 184.067 20.664 184.067 20.584V20.056C184.067 19.528 183.907 19.12 183.587 18.832C183.267 18.528 182.787 18.376 182.147 18.376C181.651 18.376 181.235 18.464 180.899 18.64C180.579 18.816 180.371 19.064 180.275 19.384C180.227 19.56 180.123 19.64 179.963 19.624L177.059 19.24C176.867 19.208 176.779 19.136 176.795 19.024C176.859 18.352 177.123 17.744 177.587 17.2C178.067 16.656 178.691 16.232 179.459 15.928C180.243 15.624 181.115 15.472 182.075 15.472ZM181.595 25.672C182.283 25.672 182.867 25.488 183.347 25.12C183.827 24.752 184.067 24.28 184.067 23.704V22.84C184.067 22.76 184.027 22.72 183.947 22.72H182.219C181.499 22.72 180.931 22.856 180.515 23.128C180.115 23.4 179.915 23.784 179.915 24.28C179.915 24.712 180.067 25.056 180.371 25.312C180.675 25.552 181.083 25.672 181.595 25.672ZM197.616 28C197.44 28 197.328 27.92 197.28 27.76L193.032 11.512L193.008 11.416C193.008 11.272 193.096 11.2 193.272 11.2H196.248C196.408 11.2 196.512 11.28 196.56 11.44L198.84 21.208C198.856 21.272 198.88 21.304 198.912 21.304C198.944 21.304 198.968 21.272 198.984 21.208L201.192 11.464C201.24 11.288 201.344 11.2 201.504 11.2H204.408C204.584 11.2 204.696 11.28 204.744 11.44L207.144 21.208C207.16 21.256 207.184 21.288 207.216 21.304C207.248 21.304 207.272 21.272 207.288 21.208L209.496 11.464C209.544 11.288 209.648 11.2 209.808 11.2H212.64C212.864 11.2 212.952 11.304 212.904 11.512L208.968 27.76C208.92 27.92 208.808 28 208.632 28H205.776C205.616 28 205.512 27.92 205.464 27.76L203.016 17.368C203 17.304 202.976 17.272 202.944 17.272C202.912 17.272 202.888 17.304 202.872 17.368L200.592 27.736C200.56 27.912 200.456 28 200.28 28H197.616ZM218.218 28.192C216.874 28.192 215.722 27.84 214.762 27.136C213.802 26.432 213.146 25.472 212.794 24.256C212.57 23.504 212.458 22.688 212.458 21.808C212.458 20.864 212.57 20.016 212.794 19.264C213.162 18.08 213.826 17.152 214.786 16.48C215.746 15.808 216.898 15.472 218.242 15.472C219.554 15.472 220.674 15.808 221.602 16.48C222.53 17.136 223.186 18.056 223.57 19.24C223.826 20.04 223.954 20.88 223.954 21.76C223.954 22.624 223.842 23.432 223.618 24.184C223.266 25.432 222.61 26.416 221.65 27.136C220.706 27.84 219.562 28.192 218.218 28.192ZM218.218 25.288C218.746 25.288 219.194 25.128 219.562 24.808C219.93 24.488 220.194 24.048 220.354 23.488C220.482 22.976 220.546 22.416 220.546 21.808C220.546 21.136 220.482 20.568 220.354 20.104C220.178 19.56 219.906 19.136 219.538 18.832C219.17 18.528 218.722 18.376 218.194 18.376C217.65 18.376 217.194 18.528 216.826 18.832C216.474 19.136 216.218 19.56 216.058 20.104C215.93 20.488 215.866 21.056 215.866 21.808C215.866 22.528 215.922 23.088 216.034 23.488C216.194 24.048 216.458 24.488 216.826 24.808C217.21 25.128 217.674 25.288 218.218 25.288ZM231.793 15.496C232.369 15.496 232.825 15.608 233.161 15.832C233.289 15.896 233.337 16.016 233.305 16.192L232.801 18.928C232.785 19.12 232.673 19.176 232.465 19.096C232.225 19.016 231.945 18.976 231.625 18.976C231.497 18.976 231.321 18.992 231.097 19.024C230.521 19.072 230.033 19.288 229.633 19.672C229.233 20.04 229.033 20.536 229.033 21.16V27.712C229.033 27.792 229.001 27.864 228.937 27.928C228.889 27.976 228.825 28 228.745 28H225.937C225.857 28 225.785 27.976 225.721 27.928C225.673 27.864 225.649 27.792 225.649 27.712V15.952C225.649 15.872 225.673 15.808 225.721 15.76C225.785 15.696 225.857 15.664 225.937 15.664H228.745C228.825 15.664 228.889 15.696 228.937 15.76C229.001 15.808 229.033 15.872 229.033 15.952V16.864C229.033 16.912 229.049 16.944 229.081 16.96C229.113 16.976 229.137 16.968 229.153 16.936C229.809 15.976 230.689 15.496 231.793 15.496ZM234.645 28C234.565 28 234.493 27.976 234.429 27.928C234.381 27.864 234.357 27.792 234.357 27.712V11.488C234.357 11.408 234.381 11.344 234.429 11.296C234.493 11.232 234.565 11.2 234.645 11.2H237.453C237.533 11.2 237.597 11.232 237.645 11.296C237.709 11.344 237.741 11.408 237.741 11.488V19.576C237.741 19.624 237.757 19.656 237.789 19.672C237.821 19.672 237.853 19.656 237.885 19.624L241.149 15.832C241.261 15.72 241.381 15.664 241.509 15.664H244.701C244.861 15.664 244.941 15.72 244.941 15.832C244.941 15.88 244.917 15.944 244.869 16.024L241.821 19.888C241.789 19.952 241.781 20.008 241.797 20.056L245.373 27.664C245.405 27.728 245.421 27.776 245.421 27.808C245.421 27.936 245.333 28 245.157 28H242.205C242.045 28 241.933 27.928 241.869 27.784L239.493 22.168C239.477 22.136 239.445 22.12 239.397 22.12C239.365 22.104 239.341 22.112 239.325 22.144L237.789 24.064C237.757 24.128 237.741 24.176 237.741 24.208V27.712C237.741 27.792 237.709 27.864 237.645 27.928C237.597 27.976 237.533 28 237.453 28H234.645ZM251.336 28.168C250.264 28.168 249.328 28.016 248.528 27.712C247.728 27.408 247.104 26.984 246.656 26.44C246.224 25.896 246.008 25.28 246.008 24.592V24.352C246.008 24.272 246.032 24.208 246.08 24.16C246.144 24.096 246.216 24.064 246.296 24.064H248.96C249.04 24.064 249.104 24.096 249.152 24.16C249.216 24.208 249.248 24.272 249.248 24.352V24.376C249.248 24.728 249.44 25.032 249.824 25.288C250.224 25.528 250.72 25.648 251.312 25.648C251.856 25.648 252.296 25.544 252.632 25.336C252.968 25.112 253.136 24.84 253.136 24.52C253.136 24.232 252.992 24.016 252.704 23.872C252.416 23.728 251.944 23.576 251.288 23.416C250.536 23.224 249.944 23.04 249.512 22.864C248.488 22.512 247.672 22.08 247.064 21.568C246.456 21.056 246.152 20.32 246.152 19.36C246.152 18.176 246.608 17.24 247.52 16.552C248.448 15.848 249.672 15.496 251.192 15.496C252.216 15.496 253.112 15.664 253.88 16C254.648 16.32 255.24 16.776 255.656 17.368C256.088 17.96 256.304 18.632 256.304 19.384C256.304 19.464 256.272 19.536 256.208 19.6C256.16 19.648 256.096 19.672 256.016 19.672H253.448C253.368 19.672 253.296 19.648 253.232 19.6C253.184 19.536 253.16 19.464 253.16 19.384C253.16 19.032 252.976 18.736 252.608 18.496C252.256 18.256 251.784 18.136 251.192 18.136C250.664 18.136 250.232 18.232 249.896 18.424C249.56 18.616 249.392 18.88 249.392 19.216C249.392 19.536 249.552 19.776 249.872 19.936C250.208 20.096 250.76 20.264 251.528 20.44C251.704 20.488 251.904 20.544 252.128 20.608C252.352 20.656 252.592 20.72 252.848 20.8C253.984 21.136 254.88 21.568 255.536 22.096C256.192 22.624 256.52 23.392 256.52 24.4C256.52 25.584 256.048 26.512 255.104 27.184C254.176 27.84 252.92 28.168 251.336 28.168ZM268.999 18.976C269.287 19.792 269.431 20.752 269.431 21.856C269.431 22.96 269.279 23.96 268.975 24.856C268.607 25.88 268.023 26.696 267.223 27.304C266.439 27.896 265.463 28.192 264.295 28.192C263.143 28.192 262.247 27.792 261.607 26.992C261.575 26.944 261.543 26.928 261.511 26.944C261.479 26.96 261.463 26.992 261.463 27.04V32.176C261.463 32.256 261.431 32.32 261.367 32.368C261.319 32.432 261.255 32.464 261.175 32.464H258.367C258.287 32.464 258.215 32.432 258.151 32.368C258.103 32.32 258.079 32.256 258.079 32.176V15.952C258.079 15.872 258.103 15.808 258.151 15.76C258.215 15.696 258.287 15.664 258.367 15.664H261.175C261.255 15.664 261.319 15.696 261.367 15.76C261.431 15.808 261.463 15.872 261.463 15.952V16.744C261.463 16.792 261.479 16.824 261.511 16.84C261.543 16.84 261.575 16.824 261.607 16.792C262.279 15.912 263.207 15.472 264.391 15.472C265.495 15.472 266.447 15.784 267.247 16.408C268.063 17.016 268.647 17.872 268.999 18.976ZM265.327 24.352C265.727 23.728 265.927 22.88 265.927 21.808C265.927 20.8 265.759 20 265.423 19.408C265.055 18.72 264.463 18.376 263.647 18.376C262.911 18.376 262.359 18.72 261.991 19.408C261.655 19.984 261.487 20.792 261.487 21.832C261.487 22.904 261.663 23.736 262.015 24.328C262.383 24.968 262.927 25.288 263.647 25.288C264.367 25.288 264.927 24.976 265.327 24.352ZM276.063 15.472C277.103 15.472 278.031 15.656 278.847 16.024C279.663 16.376 280.295 16.864 280.743 17.488C281.207 18.112 281.439 18.808 281.439 19.576V27.712C281.439 27.792 281.407 27.864 281.343 27.928C281.295 27.976 281.231 28 281.151 28H278.343C278.263 28 278.191 27.976 278.127 27.928C278.079 27.864 278.055 27.792 278.055 27.712V26.92C278.055 26.872 278.039 26.84 278.007 26.824C277.975 26.808 277.943 26.824 277.911 26.872C277.239 27.752 276.159 28.192 274.671 28.192C273.423 28.192 272.415 27.888 271.647 27.28C270.879 26.672 270.495 25.776 270.495 24.592C270.495 23.36 270.927 22.408 271.791 21.736C272.655 21.048 273.887 20.704 275.487 20.704H277.935C278.015 20.704 278.055 20.664 278.055 20.584V20.056C278.055 19.528 277.895 19.12 277.575 18.832C277.255 18.528 276.775 18.376 276.135 18.376C275.639 18.376 275.223 18.464 274.887 18.64C274.567 18.816 274.359 19.064 274.263 19.384C274.215 19.56 274.111 19.64 273.951 19.624L271.047 19.24C270.855 19.208 270.767 19.136 270.783 19.024C270.847 18.352 271.111 17.744 271.575 17.2C272.055 16.656 272.679 16.232 273.447 15.928C274.231 15.624 275.103 15.472 276.063 15.472ZM275.583 25.672C276.271 25.672 276.855 25.488 277.335 25.12C277.815 24.752 278.055 24.28 278.055 23.704V22.84C278.055 22.76 278.015 22.72 277.935 22.72H276.207C275.487 22.72 274.919 22.856 274.503 23.128C274.103 23.4 273.903 23.784 273.903 24.28C273.903 24.712 274.055 25.056 274.359 25.312C274.663 25.552 275.071 25.672 275.583 25.672ZM288.767 28.192C287.487 28.192 286.375 27.872 285.431 27.232C284.503 26.592 283.839 25.712 283.439 24.592C283.167 23.792 283.031 22.848 283.031 21.76C283.031 20.688 283.167 19.76 283.439 18.976C283.823 17.888 284.487 17.032 285.431 16.408C286.375 15.784 287.487 15.472 288.767 15.472C290.047 15.472 291.167 15.792 292.127 16.432C293.103 17.072 293.751 17.88 294.071 18.856C294.199 19.24 294.263 19.528 294.263 19.72V19.768C294.263 19.912 294.183 20 294.023 20.032L291.263 20.44H291.215C291.071 20.44 290.975 20.36 290.927 20.2L290.855 19.816C290.743 19.4 290.495 19.056 290.111 18.784C289.727 18.512 289.271 18.376 288.743 18.376C288.231 18.376 287.799 18.504 287.447 18.76C287.095 19.016 286.847 19.368 286.703 19.816C286.527 20.296 286.439 20.952 286.439 21.784C286.439 22.616 286.519 23.272 286.679 23.752C286.823 24.232 287.071 24.608 287.423 24.88C287.791 25.152 288.231 25.288 288.743 25.288C289.239 25.288 289.671 25.16 290.039 24.904C290.423 24.632 290.687 24.264 290.831 23.8C290.847 23.768 290.855 23.72 290.855 23.656C290.871 23.64 290.879 23.616 290.879 23.584C290.895 23.392 291.007 23.312 291.215 23.344L293.975 23.776C294.135 23.808 294.215 23.896 294.215 24.04C294.215 24.168 294.167 24.408 294.071 24.76C293.735 25.832 293.079 26.672 292.103 27.28C291.143 27.888 290.031 28.192 288.767 28.192ZM306.533 20.56C306.629 21.168 306.661 21.848 306.629 22.6C306.613 22.792 306.509 22.888 306.317 22.888H298.901C298.805 22.888 298.773 22.928 298.805 23.008C298.853 23.328 298.941 23.648 299.069 23.968C299.485 24.864 300.333 25.312 301.613 25.312C302.637 25.296 303.445 24.88 304.037 24.064C304.101 23.968 304.173 23.92 304.253 23.92C304.301 23.92 304.357 23.952 304.421 24.016L306.149 25.72C306.229 25.8 306.269 25.872 306.269 25.936C306.269 25.968 306.237 26.032 306.173 26.128C305.645 26.784 304.965 27.296 304.133 27.664C303.301 28.016 302.389 28.192 301.397 28.192C300.021 28.192 298.853 27.88 297.893 27.256C296.949 26.632 296.269 25.76 295.853 24.64C295.517 23.84 295.349 22.792 295.349 21.496C295.349 20.616 295.469 19.84 295.709 19.168C296.077 18.032 296.717 17.128 297.629 16.456C298.557 15.784 299.653 15.448 300.917 15.448C302.517 15.448 303.797 15.912 304.757 16.84C305.733 17.768 306.325 19.008 306.533 20.56ZM300.941 18.376C299.933 18.376 299.269 18.848 298.949 19.792C298.885 20 298.829 20.256 298.781 20.56C298.781 20.64 298.821 20.68 298.901 20.68H303.053C303.149 20.68 303.181 20.64 303.149 20.56C303.069 20.096 303.029 19.872 303.029 19.888C302.885 19.408 302.629 19.04 302.261 18.784C301.909 18.512 301.469 18.376 300.941 18.376ZM317.479 15.472C318.519 15.472 319.447 15.656 320.263 16.024C321.079 16.376 321.711 16.864 322.159 17.488C322.623 18.112 322.855 18.808 322.855 19.576V27.712C322.855 27.792 322.823 27.864 322.759 27.928C322.711 27.976 322.647 28 322.567 28H319.759C319.679 28 319.607 27.976 319.543 27.928C319.495 27.864 319.471 27.792 319.471 27.712V26.92C319.471 26.872 319.455 26.84 319.423 26.824C319.391 26.808 319.359 26.824 319.327 26.872C318.655 27.752 317.575 28.192 316.087 28.192C314.839 28.192 313.831 27.888 313.063 27.28C312.295 26.672 311.911 25.776 311.911 24.592C311.911 23.36 312.343 22.408 313.207 21.736C314.071 21.048 315.303 20.704 316.903 20.704H319.351C319.431 20.704 319.471 20.664 319.471 20.584V20.056C319.471 19.528 319.311 19.12 318.991 18.832C318.671 18.528 318.191 18.376 317.551 18.376C317.055 18.376 316.639 18.464 316.303 18.64C315.983 18.816 315.775 19.064 315.679 19.384C315.631 19.56 315.527 19.64 315.367 19.624L312.463 19.24C312.271 19.208 312.183 19.136 312.199 19.024C312.263 18.352 312.527 17.744 312.991 17.2C313.471 16.656 314.095 16.232 314.863 15.928C315.647 15.624 316.519 15.472 317.479 15.472ZM316.999 25.672C317.687 25.672 318.271 25.488 318.751 25.12C319.231 24.752 319.471 24.28 319.471 23.704V22.84C319.471 22.76 319.431 22.72 319.351 22.72H317.623C316.903 22.72 316.335 22.856 315.919 23.128C315.519 23.4 315.319 23.784 315.319 24.28C315.319 24.712 315.471 25.056 315.775 25.312C316.079 25.552 316.487 25.672 316.999 25.672ZM331.581 18.088C331.581 18.168 331.549 18.24 331.485 18.304C331.437 18.352 331.373 18.376 331.293 18.376H328.989C328.909 18.376 328.869 18.416 328.869 18.496V23.584C328.869 24.112 328.973 24.504 329.181 24.76C329.405 25.016 329.757 25.144 330.237 25.144H331.029C331.109 25.144 331.173 25.176 331.221 25.24C331.285 25.288 331.317 25.352 331.317 25.432V27.712C331.317 27.888 331.221 27.992 331.029 28.024C330.357 28.056 329.877 28.072 329.589 28.072C328.261 28.072 327.269 27.856 326.613 27.424C325.957 26.976 325.621 26.144 325.605 24.928V18.496C325.605 18.416 325.565 18.376 325.485 18.376H324.117C324.037 18.376 323.965 18.352 323.901 18.304C323.853 18.24 323.829 18.168 323.829 18.088V15.952C323.829 15.872 323.853 15.808 323.901 15.76C323.965 15.696 324.037 15.664 324.117 15.664H325.485C325.565 15.664 325.605 15.624 325.605 15.544V12.688C325.605 12.608 325.629 12.544 325.677 12.496C325.741 12.432 325.813 12.4 325.893 12.4H328.581C328.661 12.4 328.725 12.432 328.773 12.496C328.837 12.544 328.869 12.608 328.869 12.688V15.544C328.869 15.624 328.909 15.664 328.989 15.664H331.293C331.373 15.664 331.437 15.696 331.485 15.76C331.549 15.808 331.581 15.872 331.581 15.952V18.088ZM343.439 28.192C342.159 28.192 341.039 27.992 340.079 27.592C339.119 27.176 338.375 26.592 337.847 25.84C337.335 25.072 337.079 24.184 337.079 23.176V22.648C337.079 22.568 337.103 22.504 337.151 22.456C337.215 22.392 337.287 22.36 337.367 22.36H340.103C340.183 22.36 340.247 22.392 340.295 22.456C340.359 22.504 340.391 22.568 340.391 22.648V23.008C340.391 23.648 340.687 24.192 341.279 24.64C341.871 25.072 342.671 25.288 343.679 25.288C344.527 25.288 345.159 25.112 345.575 24.76C345.991 24.392 346.199 23.944 346.199 23.416C346.199 23.032 346.071 22.712 345.815 22.456C345.559 22.184 345.207 21.952 344.759 21.76C344.327 21.552 343.631 21.272 342.671 20.92C341.599 20.552 340.687 20.176 339.935 19.792C339.199 19.408 338.575 18.888 338.063 18.232C337.567 17.56 337.319 16.736 337.319 15.76C337.319 14.8 337.567 13.96 338.063 13.24C338.559 12.52 339.247 11.968 340.127 11.584C341.007 11.2 342.023 11.008 343.175 11.008C344.391 11.008 345.471 11.224 346.415 11.656C347.375 12.088 348.119 12.696 348.647 13.48C349.191 14.248 349.463 15.144 349.463 16.168V16.528C349.463 16.608 349.431 16.68 349.367 16.744C349.319 16.792 349.255 16.816 349.175 16.816H346.415C346.335 16.816 346.263 16.792 346.199 16.744C346.151 16.68 346.127 16.608 346.127 16.528V16.336C346.127 15.664 345.847 15.096 345.287 14.632C344.743 14.152 343.991 13.912 343.031 13.912C342.279 13.912 341.687 14.072 341.255 14.392C340.839 14.712 340.631 15.152 340.631 15.712C340.631 16.112 340.751 16.448 340.991 16.72C341.247 16.992 341.615 17.24 342.095 17.464C342.591 17.672 343.351 17.96 344.375 18.328C345.511 18.744 346.399 19.112 347.039 19.432C347.695 19.752 348.279 20.232 348.791 20.872C349.319 21.496 349.583 22.312 349.583 23.32C349.583 24.824 349.031 26.016 347.927 26.896C346.823 27.76 345.327 28.192 343.439 28.192ZM356.704 28.192C355.36 28.192 354.208 27.84 353.248 27.136C352.288 26.432 351.632 25.472 351.28 24.256C351.056 23.504 350.944 22.688 350.944 21.808C350.944 20.864 351.056 20.016 351.28 19.264C351.648 18.08 352.312 17.152 353.272 16.48C354.232 15.808 355.384 15.472 356.728 15.472C358.04 15.472 359.16 15.808 360.088 16.48C361.016 17.136 361.672 18.056 362.056 19.24C362.312 20.04 362.44 20.88 362.44 21.76C362.44 22.624 362.328 23.432 362.104 24.184C361.752 25.432 361.096 26.416 360.136 27.136C359.192 27.84 358.048 28.192 356.704 28.192ZM356.704 25.288C357.232 25.288 357.68 25.128 358.048 24.808C358.416 24.488 358.68 24.048 358.84 23.488C358.968 22.976 359.032 22.416 359.032 21.808C359.032 21.136 358.968 20.568 358.84 20.104C358.664 19.56 358.392 19.136 358.024 18.832C357.656 18.528 357.208 18.376 356.68 18.376C356.136 18.376 355.68 18.528 355.312 18.832C354.96 19.136 354.704 19.56 354.544 20.104C354.416 20.488 354.352 21.056 354.352 21.808C354.352 22.528 354.408 23.088 354.52 23.488C354.68 24.048 354.944 24.488 355.312 24.808C355.696 25.128 356.16 25.288 356.704 25.288ZM364.424 28C364.344 28 364.272 27.976 364.208 27.928C364.16 27.864 364.136 27.792 364.136 27.712V11.488C364.136 11.408 364.16 11.344 364.208 11.296C364.272 11.232 364.344 11.2 364.424 11.2H367.232C367.312 11.2 367.376 11.232 367.424 11.296C367.488 11.344 367.52 11.408 367.52 11.488V27.712C367.52 27.792 367.488 27.864 367.424 27.928C367.376 27.976 367.312 28 367.232 28H364.424ZM376.595 18.088C376.595 18.168 376.563 18.24 376.499 18.304C376.451 18.352 376.387 18.376 376.307 18.376H374.003C373.923 18.376 373.883 18.416 373.883 18.496V23.584C373.883 24.112 373.987 24.504 374.195 24.76C374.419 25.016 374.771 25.144 375.251 25.144H376.043C376.123 25.144 376.187 25.176 376.235 25.24C376.299 25.288 376.331 25.352 376.331 25.432V27.712C376.331 27.888 376.235 27.992 376.043 28.024C375.371 28.056 374.891 28.072 374.603 28.072C373.275 28.072 372.283 27.856 371.627 27.424C370.971 26.976 370.635 26.144 370.619 24.928V18.496C370.619 18.416 370.579 18.376 370.499 18.376H369.131C369.051 18.376 368.979 18.352 368.915 18.304C368.867 18.24 368.843 18.168 368.843 18.088V15.952C368.843 15.872 368.867 15.808 368.915 15.76C368.979 15.696 369.051 15.664 369.131 15.664H370.499C370.579 15.664 370.619 15.624 370.619 15.544V12.688C370.619 12.608 370.643 12.544 370.691 12.496C370.755 12.432 370.827 12.4 370.907 12.4H373.595C373.675 12.4 373.739 12.432 373.787 12.496C373.851 12.544 373.883 12.608 373.883 12.688V15.544C373.883 15.624 373.923 15.664 374.003 15.664H376.307C376.387 15.664 376.451 15.696 376.499 15.76C376.563 15.808 376.595 15.872 376.595 15.952V18.088ZM388.908 20.56C389.004 21.168 389.036 21.848 389.004 22.6C388.988 22.792 388.884 22.888 388.692 22.888H381.276C381.18 22.888 381.148 22.928 381.18 23.008C381.228 23.328 381.316 23.648 381.444 23.968C381.86 24.864 382.708 25.312 383.988 25.312C385.012 25.296 385.82 24.88 386.412 24.064C386.476 23.968 386.548 23.92 386.628 23.92C386.676 23.92 386.732 23.952 386.796 24.016L388.524 25.72C388.604 25.8 388.644 25.872 388.644 25.936C388.644 25.968 388.612 26.032 388.548 26.128C388.02 26.784 387.34 27.296 386.508 27.664C385.676 28.016 384.764 28.192 383.772 28.192C382.396 28.192 381.228 27.88 380.268 27.256C379.324 26.632 378.644 25.76 378.228 24.64C377.892 23.84 377.724 22.792 377.724 21.496C377.724 20.616 377.844 19.84 378.084 19.168C378.452 18.032 379.092 17.128 380.004 16.456C380.932 15.784 382.028 15.448 383.292 15.448C384.892 15.448 386.172 15.912 387.132 16.84C388.108 17.768 388.7 19.008 388.908 20.56ZM383.316 18.376C382.308 18.376 381.644 18.848 381.324 19.792C381.26 20 381.204 20.256 381.156 20.56C381.156 20.64 381.196 20.68 381.276 20.68H385.428C385.524 20.68 385.556 20.64 385.524 20.56C385.444 20.096 385.404 19.872 385.404 19.888C385.26 19.408 385.004 19.04 384.636 18.784C384.284 18.512 383.844 18.376 383.316 18.376ZM396.034 28.192C394.754 28.192 393.642 27.872 392.698 27.232C391.77 26.592 391.106 25.712 390.706 24.592C390.434 23.792 390.298 22.848 390.298 21.76C390.298 20.688 390.434 19.76 390.706 18.976C391.09 17.888 391.754 17.032 392.698 16.408C393.642 15.784 394.754 15.472 396.034 15.472C397.314 15.472 398.434 15.792 399.394 16.432C400.37 17.072 401.018 17.88 401.338 18.856C401.466 19.24 401.53 19.528 401.53 19.72V19.768C401.53 19.912 401.45 20 401.29 20.032L398.53 20.44H398.482C398.338 20.44 398.242 20.36 398.194 20.2L398.122 19.816C398.01 19.4 397.762 19.056 397.378 18.784C396.994 18.512 396.538 18.376 396.01 18.376C395.498 18.376 395.066 18.504 394.714 18.76C394.362 19.016 394.114 19.368 393.97 19.816C393.794 20.296 393.706 20.952 393.706 21.784C393.706 22.616 393.786 23.272 393.946 23.752C394.09 24.232 394.338 24.608 394.69 24.88C395.058 25.152 395.498 25.288 396.01 25.288C396.506 25.288 396.938 25.16 397.306 24.904C397.69 24.632 397.954 24.264 398.098 23.8C398.114 23.768 398.122 23.72 398.122 23.656C398.138 23.64 398.146 23.616 398.146 23.584C398.162 23.392 398.274 23.312 398.482 23.344L401.242 23.776C401.402 23.808 401.482 23.896 401.482 24.04C401.482 24.168 401.434 24.408 401.338 24.76C401.002 25.832 400.346 26.672 399.37 27.28C398.41 27.888 397.298 28.192 396.034 28.192ZM413.489 15.496C414.065 15.496 414.521 15.608 414.857 15.832C414.985 15.896 415.033 16.016 415.001 16.192L414.497 18.928C414.481 19.12 414.369 19.176 414.161 19.096C413.921 19.016 413.641 18.976 413.321 18.976C413.193 18.976 413.017 18.992 412.793 19.024C412.217 19.072 411.729 19.288 411.329 19.672C410.929 20.04 410.729 20.536 410.729 21.16V27.712C410.729 27.792 410.697 27.864 410.633 27.928C410.585 27.976 410.521 28 410.441 28H407.633C407.553 28 407.481 27.976 407.417 27.928C407.369 27.864 407.345 27.792 407.345 27.712V15.952C407.345 15.872 407.369 15.808 407.417 15.76C407.481 15.696 407.553 15.664 407.633 15.664H410.441C410.521 15.664 410.585 15.696 410.633 15.76C410.697 15.808 410.729 15.872 410.729 15.952V16.864C410.729 16.912 410.745 16.944 410.777 16.96C410.809 16.976 410.833 16.968 410.849 16.936C411.505 15.976 412.385 15.496 413.489 15.496ZM417.877 14.272C417.333 14.272 416.877 14.096 416.509 13.744C416.157 13.376 415.981 12.92 415.981 12.376C415.981 11.816 416.157 11.36 416.509 11.008C416.861 10.656 417.317 10.48 417.877 10.48C418.437 10.48 418.893 10.656 419.245 11.008C419.597 11.36 419.773 11.816 419.773 12.376C419.773 12.92 419.589 13.376 419.221 13.744C418.869 14.096 418.421 14.272 417.877 14.272ZM416.437 28C416.357 28 416.285 27.976 416.221 27.928C416.173 27.864 416.149 27.792 416.149 27.712V15.928C416.149 15.848 416.173 15.784 416.221 15.736C416.285 15.672 416.357 15.64 416.437 15.64H419.245C419.325 15.64 419.389 15.672 419.437 15.736C419.501 15.784 419.533 15.848 419.533 15.928V27.712C419.533 27.792 419.501 27.864 419.437 27.928C419.389 27.976 419.325 28 419.245 28H416.437ZM429.226 15.952C429.226 15.872 429.25 15.808 429.298 15.76C429.362 15.696 429.434 15.664 429.514 15.664H432.322C432.402 15.664 432.466 15.696 432.514 15.76C432.578 15.808 432.61 15.872 432.61 15.952V26.896C432.61 28.992 432.002 30.488 430.786 31.384C429.586 32.28 428.034 32.728 426.13 32.728C425.57 32.728 424.946 32.688 424.258 32.608C424.098 32.592 424.018 32.488 424.018 32.296L424.114 29.824C424.114 29.616 424.226 29.528 424.45 29.56C425.026 29.656 425.554 29.704 426.034 29.704C427.058 29.704 427.842 29.48 428.386 29.032C428.946 28.584 429.226 27.864 429.226 26.872C429.226 26.824 429.21 26.8 429.178 26.8C429.146 26.784 429.114 26.792 429.082 26.824C428.474 27.48 427.586 27.808 426.418 27.808C425.378 27.808 424.418 27.56 423.538 27.064C422.674 26.552 422.058 25.736 421.69 24.616C421.45 23.88 421.33 22.928 421.33 21.76C421.33 20.512 421.474 19.496 421.762 18.712C422.098 17.736 422.666 16.952 423.466 16.36C424.266 15.768 425.194 15.472 426.25 15.472C427.482 15.472 428.426 15.84 429.082 16.576C429.114 16.608 429.146 16.624 429.178 16.624C429.21 16.608 429.226 16.576 429.226 16.528V15.952ZM429.034 23.704C429.162 23.224 429.226 22.568 429.226 21.736C429.226 21.24 429.21 20.856 429.178 20.584C429.146 20.312 429.09 20.056 429.01 19.816C428.866 19.384 428.626 19.04 428.29 18.784C427.954 18.512 427.538 18.376 427.042 18.376C426.562 18.376 426.154 18.512 425.818 18.784C425.482 19.04 425.234 19.384 425.074 19.816C424.85 20.296 424.738 20.944 424.738 21.76C424.738 22.656 424.834 23.296 425.026 23.68C425.17 24.112 425.418 24.464 425.77 24.736C426.138 24.992 426.57 25.12 427.066 25.12C427.578 25.12 428.002 24.992 428.338 24.736C428.674 24.464 428.906 24.12 429.034 23.704ZM440.978 15.472C442.258 15.472 443.29 15.864 444.074 16.648C444.858 17.432 445.25 18.496 445.25 19.84V27.712C445.25 27.792 445.218 27.864 445.154 27.928C445.106 27.976 445.042 28 444.962 28H442.154C442.074 28 442.002 27.976 441.938 27.928C441.89 27.864 441.866 27.792 441.866 27.712V20.536C441.866 19.896 441.682 19.376 441.314 18.976C440.962 18.576 440.49 18.376 439.898 18.376C439.306 18.376 438.826 18.576 438.458 18.976C438.106 19.376 437.93 19.896 437.93 20.536V27.712C437.93 27.792 437.898 27.864 437.834 27.928C437.786 27.976 437.722 28 437.642 28H434.834C434.754 28 434.682 27.976 434.618 27.928C434.57 27.864 434.546 27.792 434.546 27.712V11.488C434.546 11.408 434.57 11.344 434.618 11.296C434.682 11.232 434.754 11.2 434.834 11.2H437.642C437.722 11.2 437.786 11.232 437.834 11.296C437.898 11.344 437.93 11.408 437.93 11.488V16.792C437.93 16.84 437.946 16.872 437.978 16.888C438.01 16.904 438.034 16.896 438.05 16.864C438.706 15.936 439.682 15.472 440.978 15.472ZM454.271 18.088C454.271 18.168 454.239 18.24 454.175 18.304C454.127 18.352 454.063 18.376 453.983 18.376H451.679C451.599 18.376 451.559 18.416 451.559 18.496V23.584C451.559 24.112 451.663 24.504 451.871 24.76C452.095 25.016 452.447 25.144 452.927 25.144H453.719C453.799 25.144 453.863 25.176 453.911 25.24C453.975 25.288 454.007 25.352 454.007 25.432V27.712C454.007 27.888 453.911 27.992 453.719 28.024C453.047 28.056 452.567 28.072 452.279 28.072C450.951 28.072 449.959 27.856 449.303 27.424C448.647 26.976 448.311 26.144 448.295 24.928V18.496C448.295 18.416 448.255 18.376 448.175 18.376H446.807C446.727 18.376 446.655 18.352 446.591 18.304C446.543 18.24 446.519 18.168 446.519 18.088V15.952C446.519 15.872 446.543 15.808 446.591 15.76C446.655 15.696 446.727 15.664 446.807 15.664H448.175C448.255 15.664 448.295 15.624 448.295 15.544V12.688C448.295 12.608 448.319 12.544 448.367 12.496C448.431 12.432 448.503 12.4 448.583 12.4H451.271C451.351 12.4 451.415 12.432 451.463 12.496C451.527 12.544 451.559 12.608 451.559 12.688V15.544C451.559 15.624 451.599 15.664 451.679 15.664H453.983C454.063 15.664 454.127 15.696 454.175 15.76C454.239 15.808 454.271 15.872 454.271 15.952V18.088ZM466.585 15.472C467.865 15.472 468.897 15.864 469.681 16.648C470.465 17.432 470.857 18.496 470.857 19.84V27.712C470.857 27.792 470.825 27.864 470.761 27.928C470.713 27.976 470.649 28 470.569 28H467.761C467.681 28 467.609 27.976 467.545 27.928C467.497 27.864 467.473 27.792 467.473 27.712V20.536C467.473 19.896 467.289 19.376 466.921 18.976C466.569 18.576 466.097 18.376 465.505 18.376C464.913 18.376 464.433 18.576 464.065 18.976C463.713 19.376 463.537 19.896 463.537 20.536V27.712C463.537 27.792 463.505 27.864 463.441 27.928C463.393 27.976 463.329 28 463.249 28H460.441C460.361 28 460.289 27.976 460.225 27.928C460.177 27.864 460.153 27.792 460.153 27.712V15.952C460.153 15.872 460.177 15.808 460.225 15.76C460.289 15.696 460.361 15.664 460.441 15.664H463.249C463.329 15.664 463.393 15.696 463.441 15.76C463.505 15.808 463.537 15.872 463.537 15.952V16.792C463.537 16.84 463.553 16.872 463.585 16.888C463.617 16.904 463.641 16.896 463.657 16.864C464.313 15.936 465.289 15.472 466.585 15.472ZM478.175 28.192C476.831 28.192 475.679 27.84 474.719 27.136C473.759 26.432 473.103 25.472 472.751 24.256C472.527 23.504 472.415 22.688 472.415 21.808C472.415 20.864 472.527 20.016 472.751 19.264C473.119 18.08 473.783 17.152 474.743 16.48C475.703 15.808 476.855 15.472 478.199 15.472C479.511 15.472 480.631 15.808 481.559 16.48C482.487 17.136 483.143 18.056 483.527 19.24C483.783 20.04 483.911 20.88 483.911 21.76C483.911 22.624 483.799 23.432 483.575 24.184C483.223 25.432 482.567 26.416 481.607 27.136C480.663 27.84 479.519 28.192 478.175 28.192ZM478.175 25.288C478.703 25.288 479.151 25.128 479.519 24.808C479.887 24.488 480.151 24.048 480.311 23.488C480.439 22.976 480.503 22.416 480.503 21.808C480.503 21.136 480.439 20.568 480.311 20.104C480.135 19.56 479.863 19.136 479.495 18.832C479.127 18.528 478.679 18.376 478.151 18.376C477.607 18.376 477.151 18.528 476.783 18.832C476.431 19.136 476.175 19.56 476.015 20.104C475.887 20.488 475.823 21.056 475.823 21.808C475.823 22.528 475.879 23.088 475.991 23.488C476.151 24.048 476.415 24.488 476.783 24.808C477.167 25.128 477.631 25.288 478.175 25.288ZM487.999 28C487.823 28 487.711 27.92 487.663 27.76L484.207 15.976L484.183 15.88C484.183 15.72 484.271 15.64 484.447 15.64H487.351C487.527 15.64 487.639 15.72 487.687 15.88L489.415 23.128C489.431 23.176 489.455 23.2 489.487 23.2C489.519 23.2 489.543 23.176 489.559 23.128L491.359 15.88C491.407 15.72 491.519 15.64 491.695 15.64H494.215C494.391 15.64 494.503 15.72 494.551 15.88L496.447 23.152C496.463 23.2 496.487 23.224 496.519 23.224C496.551 23.224 496.575 23.2 496.591 23.152L498.463 15.88C498.511 15.72 498.623 15.64 498.799 15.64L501.679 15.688C501.775 15.688 501.839 15.72 501.871 15.784C501.919 15.832 501.935 15.904 501.919 16L498.415 27.76C498.367 27.92 498.263 28 498.103 28H495.199C495.023 28 494.911 27.92 494.863 27.76L493.015 21.328C492.999 21.28 492.975 21.256 492.943 21.256C492.911 21.256 492.887 21.28 492.871 21.328L491.239 27.76C491.191 27.92 491.079 28 490.903 28H487.999ZM504.249 28.096C503.705 28.096 503.249 27.92 502.881 27.568C502.529 27.2 502.353 26.744 502.353 26.2C502.353 25.64 502.529 25.184 502.881 24.832C503.233 24.48 503.689 24.304 504.249 24.304C504.809 24.304 505.265 24.48 505.617 24.832C505.969 25.184 506.145 25.64 506.145 26.2C506.145 26.744 505.961 27.2 505.593 27.568C505.241 27.92 504.793 28.096 504.249 28.096Z" fill="white"/>
<path d="M43.0171 19.6578C39.0288 19.6578 35.0405 19.6578 31.0522 19.6578C28.3038 19.6578 25.5554 19.6578 22.807 19.6578C20.7687 19.6578 17.4775 20.5247 15.5544 21.5C12.7975 22.8982 11.0642 24.7172 9.00305 26.9525C6.25498 29.9328 4.58227 33.2259 3.29961 37.0575C-1.8323 52.3874 9.23291 67.9231 19.0543 78.5" stroke="white" stroke-width="3" stroke-linecap="round"/>
<path d="M2.10095 71.3608C5.09618 72.1096 7.55432 74.0001 10.4081 75.4524C10.4081 75.4524 11.4013 76.2268 12.8879 76.9403C14.0543 77.5001 16.3211 78.5889 17.2688 79.1721C17.8713 79.5428 18.4449 79.6988 19.046 80.0813C20.2616 80.8549 20.2406 81.3365 19.9552 80.3293C18.3032 74.4986 20.6991 68.5957 20.6991 62.8057" stroke="white" stroke-width="3" stroke-linecap="round"/>
<path d="M524.054 19.6578C528.043 19.6578 532.031 19.6578 536.019 19.6578C538.768 19.6578 541.516 19.6578 544.264 19.6578C546.303 19.6578 549.594 20.5247 551.517 21.5C554.274 22.8982 556.007 24.7172 558.068 26.9525C560.816 29.9328 562.489 33.2259 563.772 37.0575C568.904 52.3874 557.838 67.9231 548.017 78.5" stroke="white" stroke-width="3" stroke-linecap="round"/>
<path d="M564.97 71.3608C561.975 72.1096 559.517 74.0001 556.663 75.4524C556.663 75.4524 555.67 76.2268 554.184 76.9403C553.017 77.5001 550.75 78.5889 549.803 79.1721C549.2 79.5428 548.627 79.6988 548.025 80.0813C546.81 80.8549 546.831 81.3365 547.116 80.3293C548.768 74.4986 546.372 68.5957 546.372 62.8057" stroke="white" stroke-width="3" stroke-linecap="round"/>
</svg>
