<svg width="144" height="27" viewBox="0 0 144 27" fill="none" xmlns="http://www.w3.org/2000/svg">
<path d="M9.552 26.288C7.68 26.288 6.036 25.928 4.62 25.208C3.204 24.464 2.112 23.432 1.344 22.112C0.576 20.792 0.192 19.268 0.192 17.54V9.224C0.192 7.496 0.576 5.972 1.344 4.652C2.112 3.332 3.204 2.312 4.62 1.592C6.036 0.872 7.68 0.512 9.552 0.512C11.4 0.512 13.02 0.86 14.412 1.556C15.828 2.228 16.92 3.2 17.688 4.472C18.48 5.72 18.876 7.172 18.876 8.828C18.876 9.044 18.732 9.176 18.444 9.224L14.232 9.476H14.16C13.92 9.476 13.8 9.344 13.8 9.08C13.8 7.808 13.404 6.788 12.612 6.02C11.844 5.252 10.824 4.868 9.552 4.868C8.256 4.868 7.212 5.252 6.42 6.02C5.652 6.788 5.268 7.808 5.268 9.08V17.756C5.268 19.004 5.652 20.012 6.42 20.78C7.212 21.548 8.256 21.932 9.552 21.932C10.824 21.932 11.844 21.548 12.612 20.78C13.404 20.012 13.8 19.004 13.8 17.756C13.8 17.492 13.944 17.36 14.232 17.36L18.444 17.54C18.564 17.54 18.66 17.576 18.732 17.648C18.828 17.72 18.876 17.804 18.876 17.9C18.876 19.556 18.48 21.02 17.688 22.292C16.92 23.564 15.828 24.548 14.412 25.244C13.02 25.94 11.4 26.288 9.552 26.288ZM30.4823 26.396C28.6103 26.396 26.9543 26.012 25.5143 25.244C24.0983 24.476 22.9943 23.408 22.2023 22.04C21.4103 20.648 21.0143 19.052 21.0143 17.252V9.548C21.0143 7.772 21.4103 6.2 22.2023 4.832C22.9943 3.464 24.0983 2.408 25.5143 1.664C26.9543 0.895999 28.6103 0.512 30.4823 0.512C32.3783 0.512 34.0343 0.895999 35.4503 1.664C36.8903 2.408 38.0063 3.464 38.7983 4.832C39.5903 6.2 39.9863 7.772 39.9863 9.548V17.252C39.9863 19.052 39.5903 20.648 38.7983 22.04C38.0063 23.432 36.8903 24.512 35.4503 25.28C34.0343 26.024 32.3783 26.396 30.4823 26.396ZM30.4823 22.04C31.8023 22.04 32.8703 21.62 33.6863 20.78C34.5023 19.94 34.9103 18.824 34.9103 17.432V9.512C34.9103 8.12 34.5023 7.004 33.6863 6.164C32.8943 5.3 31.8263 4.868 30.4823 4.868C29.1623 4.868 28.0943 5.3 27.2783 6.164C26.4863 7.004 26.0903 8.12 26.0903 9.512V17.432C26.0903 18.824 26.4863 19.94 27.2783 20.78C28.0943 21.62 29.1623 22.04 30.4823 22.04ZM51.9417 26.288C50.0937 26.288 48.4617 25.928 47.0457 25.208C45.6537 24.488 44.5617 23.48 43.7697 22.184C43.0017 20.864 42.6177 19.352 42.6177 17.648V1.232C42.6177 1.112 42.6537 1.016 42.7257 0.943999C42.8217 0.847998 42.9297 0.799998 43.0497 0.799998H47.2617C47.3817 0.799998 47.4777 0.847998 47.5497 0.943999C47.6457 1.016 47.6937 1.112 47.6937 1.232V17.684C47.6937 18.956 48.0777 19.988 48.8457 20.78C49.6377 21.548 50.6697 21.932 51.9417 21.932C53.2137 21.932 54.2337 21.548 55.0017 20.78C55.7937 19.988 56.1897 18.956 56.1897 17.684V1.232C56.1897 1.112 56.2257 1.016 56.2977 0.943999C56.3937 0.847998 56.5017 0.799998 56.6217 0.799998H60.8337C60.9537 0.799998 61.0497 0.847998 61.1217 0.943999C61.2177 1.016 61.2657 1.112 61.2657 1.232V17.648C61.2657 19.352 60.8697 20.864 60.0777 22.184C59.3097 23.48 58.2177 24.488 56.8017 25.208C55.4097 25.928 53.7897 26.288 51.9417 26.288ZM78.1823 26C77.9423 26 77.7743 25.892 77.6783 25.676L73.1783 15.704C73.1303 15.608 73.0583 15.56 72.9623 15.56H69.6143C69.4943 15.56 69.4343 15.62 69.4343 15.74V25.568C69.4343 25.688 69.3863 25.796 69.2903 25.892C69.2183 25.964 69.1223 26 69.0023 26H64.7903C64.6703 26 64.5623 25.964 64.4663 25.892C64.3943 25.796 64.3583 25.688 64.3583 25.568V1.232C64.3583 1.112 64.3943 1.016 64.4663 0.943999C64.5623 0.847998 64.6703 0.799998 64.7903 0.799998H75.0863C76.6223 0.799998 77.9663 1.112 79.1183 1.736C80.2943 2.36 81.1943 3.248 81.8183 4.4C82.4663 5.552 82.7903 6.884 82.7903 8.396C82.7903 10.028 82.3823 11.432 81.5663 12.608C80.7503 13.76 79.6103 14.576 78.1463 15.056C78.0263 15.104 77.9903 15.188 78.0383 15.308L82.9343 25.496C82.9823 25.592 83.0063 25.664 83.0063 25.712C83.0063 25.904 82.8743 26 82.6103 26H78.1823ZM69.6143 5.156C69.4943 5.156 69.4343 5.216 69.4343 5.336V11.492C69.4343 11.612 69.4943 11.672 69.6143 11.672H74.3303C75.3383 11.672 76.1543 11.372 76.7783 10.772C77.4263 10.172 77.7503 9.392 77.7503 8.432C77.7503 7.472 77.4263 6.692 76.7783 6.092C76.1543 5.468 75.3383 5.156 74.3303 5.156H69.6143ZM94.0316 26.288C92.1116 26.288 90.4316 25.988 88.9916 25.388C87.5516 24.764 86.4356 23.888 85.6436 22.76C84.8756 21.608 84.4916 20.276 84.4916 18.764V17.972C84.4916 17.852 84.5276 17.756 84.5996 17.684C84.6956 17.588 84.8036 17.54 84.9236 17.54H89.0276C89.1476 17.54 89.2436 17.588 89.3156 17.684C89.4116 17.756 89.4596 17.852 89.4596 17.972V18.512C89.4596 19.472 89.9036 20.288 90.7916 20.96C91.6796 21.608 92.8796 21.932 94.3916 21.932C95.6636 21.932 96.6116 21.668 97.2356 21.14C97.8596 20.588 98.1716 19.916 98.1716 19.124C98.1716 18.548 97.9796 18.068 97.5956 17.684C97.2116 17.276 96.6836 16.928 96.0116 16.64C95.3636 16.328 94.3196 15.908 92.8796 15.38C91.2716 14.828 89.9036 14.264 88.7756 13.688C87.6716 13.112 86.7356 12.332 85.9676 11.348C85.2236 10.34 84.8516 9.104 84.8516 7.64C84.8516 6.2 85.2236 4.94 85.9676 3.86C86.7116 2.78 87.7436 1.952 89.0636 1.376C90.3836 0.8 91.9076 0.512 93.6356 0.512C95.4596 0.512 97.0796 0.835999 98.4956 1.484C99.9356 2.132 101.052 3.044 101.844 4.22C102.66 5.372 103.068 6.716 103.068 8.252V8.792C103.068 8.912 103.02 9.02 102.924 9.116C102.852 9.188 102.756 9.224 102.636 9.224H98.4956C98.3756 9.224 98.2676 9.188 98.1716 9.116C98.0996 9.02 98.0636 8.912 98.0636 8.792V8.504C98.0636 7.496 97.6436 6.644 96.8036 5.948C95.9876 5.228 94.8596 4.868 93.4196 4.868C92.2916 4.868 91.4036 5.108 90.7556 5.588C90.1316 6.068 89.8196 6.728 89.8196 7.568C89.8196 8.168 89.9996 8.672 90.3596 9.08C90.7436 9.488 91.2956 9.86 92.0156 10.196C92.7596 10.508 93.8996 10.94 95.4356 11.492C97.1396 12.116 98.4716 12.668 99.4316 13.148C100.416 13.628 101.292 14.348 102.06 15.308C102.852 16.244 103.248 17.468 103.248 18.98C103.248 21.236 102.42 23.024 100.764 24.344C99.1076 25.64 96.8636 26.288 94.0316 26.288ZM123.218 4.724C123.218 4.844 123.17 4.952 123.074 5.048C123.002 5.12 122.906 5.156 122.786 5.156H110.978C110.858 5.156 110.798 5.216 110.798 5.336V10.916C110.798 11.036 110.858 11.096 110.978 11.096H118.718C118.838 11.096 118.934 11.144 119.006 11.24C119.102 11.312 119.15 11.408 119.15 11.528V15.02C119.15 15.14 119.102 15.248 119.006 15.344C118.934 15.416 118.838 15.452 118.718 15.452H110.978C110.858 15.452 110.798 15.512 110.798 15.632V21.464C110.798 21.584 110.858 21.644 110.978 21.644H122.786C122.906 21.644 123.002 21.692 123.074 21.788C123.17 21.86 123.218 21.956 123.218 22.076V25.568C123.218 25.688 123.17 25.796 123.074 25.892C123.002 25.964 122.906 26 122.786 26H106.154C106.034 26 105.926 25.964 105.83 25.892C105.758 25.796 105.722 25.688 105.722 25.568V1.232C105.722 1.112 105.758 1.016 105.83 0.943999C105.926 0.847998 106.034 0.799998 106.154 0.799998H122.786C122.906 0.799998 123.002 0.847998 123.074 0.943999C123.17 1.016 123.218 1.112 123.218 1.232V4.724ZM134.305 26.288C132.385 26.288 130.705 25.988 129.265 25.388C127.825 24.764 126.709 23.888 125.917 22.76C125.149 21.608 124.765 20.276 124.765 18.764V17.972C124.765 17.852 124.801 17.756 124.873 17.684C124.969 17.588 125.077 17.54 125.197 17.54H129.301C129.421 17.54 129.517 17.588 129.589 17.684C129.685 17.756 129.733 17.852 129.733 17.972V18.512C129.733 19.472 130.177 20.288 131.065 20.96C131.953 21.608 133.153 21.932 134.665 21.932C135.937 21.932 136.885 21.668 137.509 21.14C138.133 20.588 138.445 19.916 138.445 19.124C138.445 18.548 138.253 18.068 137.869 17.684C137.485 17.276 136.957 16.928 136.285 16.64C135.637 16.328 134.593 15.908 133.153 15.38C131.545 14.828 130.177 14.264 129.049 13.688C127.945 13.112 127.009 12.332 126.241 11.348C125.497 10.34 125.125 9.104 125.125 7.64C125.125 6.2 125.497 4.94 126.241 3.86C126.985 2.78 128.017 1.952 129.337 1.376C130.657 0.8 132.181 0.512 133.909 0.512C135.733 0.512 137.353 0.835999 138.769 1.484C140.209 2.132 141.325 3.044 142.117 4.22C142.933 5.372 143.341 6.716 143.341 8.252V8.792C143.341 8.912 143.293 9.02 143.197 9.116C143.125 9.188 143.029 9.224 142.909 9.224H138.769C138.649 9.224 138.541 9.188 138.445 9.116C138.373 9.02 138.337 8.912 138.337 8.792V8.504C138.337 7.496 137.917 6.644 137.077 5.948C136.261 5.228 135.133 4.868 133.693 4.868C132.565 4.868 131.677 5.108 131.029 5.588C130.405 6.068 130.093 6.728 130.093 7.568C130.093 8.168 130.273 8.672 130.633 9.08C131.017 9.488 131.569 9.86 132.289 10.196C133.033 10.508 134.173 10.94 135.709 11.492C137.413 12.116 138.745 12.668 139.705 13.148C140.689 13.628 141.565 14.348 142.333 15.308C143.125 16.244 143.521 17.468 143.521 18.98C143.521 21.236 142.693 23.024 141.037 24.344C139.381 25.64 137.137 26.288 134.305 26.288Z" fill="url(#paint0_linear_156_2281)"/>
<defs>
<linearGradient id="paint0_linear_156_2281" x1="-25.7018" y1="-34.2926" x2="225.195" y2="4.60504" gradientUnits="userSpaceOnUse">
<stop stop-color="#0043CE"/>
<stop offset="0.06" stop-color="#7FA9FF"/>
<stop offset="1" stop-color="#E80808"/>
</linearGradient>
</defs>
</svg>
