<svg width="20" height="20" viewBox="0 0 20 20" fill="none" xmlns="http://www.w3.org/2000/svg">
<path d="M1.66675 14.9998C1.66675 13.7162 1.66675 13.0743 1.95569 12.6028C2.11736 12.3389 2.33919 12.1171 2.60302 11.9554C3.07453 11.6665 3.71638 11.6665 5.00008 11.6665C6.28378 11.6665 6.92563 11.6665 7.39714 11.9554C7.66097 12.1171 7.8828 12.3389 8.04447 12.6028C8.33341 13.0743 8.33342 13.7162 8.33342 14.9998C8.33342 16.2835 8.33341 16.9254 8.04447 17.3969C7.8828 17.6608 7.66097 17.8826 7.39714 18.0443C6.92563 18.3332 6.28378 18.3332 5.00008 18.3332C3.71638 18.3332 3.07453 18.3332 2.60302 18.0443C2.33919 17.8826 2.11736 17.6608 1.95569 17.3969C1.66675 16.9254 1.66675 16.2835 1.66675 14.9998Z" stroke="#545454" stroke-width="1.5"/>
<path d="M11.6667 14.9998C11.6667 13.7162 11.6667 13.0743 11.9557 12.6028C12.1173 12.3389 12.3392 12.1171 12.603 11.9554C13.0745 11.6665 13.7164 11.6665 15.0001 11.6665C16.2837 11.6665 16.9257 11.6665 17.3972 11.9554C17.661 12.1171 17.8828 12.3389 18.0445 12.6028C18.3334 13.0743 18.3334 13.7162 18.3334 14.9998C18.3334 16.2835 18.3334 16.9254 18.0445 17.3969C17.8828 17.6608 17.661 17.8826 17.3972 18.0443C16.9257 18.3332 16.2837 18.3332 15.0001 18.3332C13.7164 18.3332 13.0745 18.3332 12.603 18.0443C12.3392 17.8826 12.1173 17.6608 11.9557 17.3969C11.6667 16.9254 11.6667 16.2835 11.6667 14.9998Z" stroke="#545454" stroke-width="1.5"/>
<path d="M1.66675 4.99984C1.66675 3.71614 1.66675 3.07429 1.95569 2.60278C2.11736 2.33895 2.33919 2.11712 2.60302 1.95545C3.07453 1.6665 3.71638 1.6665 5.00008 1.6665C6.28378 1.6665 6.92563 1.6665 7.39714 1.95545C7.66097 2.11712 7.8828 2.33895 8.04447 2.60278C8.33341 3.07429 8.33342 3.71614 8.33342 4.99984C8.33342 6.28354 8.33341 6.92539 8.04447 7.3969C7.8828 7.66073 7.66097 7.88255 7.39714 8.04423C6.92563 8.33317 6.28378 8.33317 5.00008 8.33317C3.71638 8.33317 3.07453 8.33317 2.60302 8.04423C2.33919 7.88255 2.11736 7.66073 1.95569 7.3969C1.66675 6.92539 1.66675 6.28354 1.66675 4.99984Z" stroke="#545454" stroke-width="1.5"/>
<path d="M11.6667 4.99984C11.6667 3.71614 11.6667 3.07429 11.9557 2.60278C12.1173 2.33895 12.3392 2.11712 12.603 1.95545C13.0745 1.6665 13.7164 1.6665 15.0001 1.6665C16.2837 1.6665 16.9257 1.6665 17.3972 1.95545C17.661 2.11712 17.8828 2.33895 18.0445 2.60278C18.3334 3.07429 18.3334 3.71614 18.3334 4.99984C18.3334 6.28354 18.3334 6.92539 18.0445 7.3969C17.8828 7.66073 17.661 7.88255 17.3972 8.04423C16.9257 8.33317 16.2837 8.33317 15.0001 8.33317C13.7164 8.33317 13.0745 8.33317 12.603 8.04423C12.3392 7.88255 12.1173 7.66073 11.9557 7.3969C11.6667 6.92539 11.6667 6.28354 11.6667 4.99984Z" stroke="#545454" stroke-width="1.5"/>
</svg>
