<svg width="16" height="17" viewBox="0 0 16 17" fill="none" xmlns="http://www.w3.org/2000/svg">
<path d="M11.6667 3.16675V3.66675H12.1667H14.6667C14.7551 3.66675 14.8399 3.70187 14.9024 3.76438C14.9649 3.82689 15 3.91168 15 4.00008C15 4.08849 14.9649 4.17327 14.9024 4.23578C14.8399 4.2983 14.7551 4.33341 14.6667 4.33341H13.8333H13.3333V4.83341V14.0001C13.3333 14.5305 13.1226 15.0392 12.7475 15.4143C12.3725 15.7894 11.8638 16.0001 11.3333 16.0001H4.66667C4.13623 16.0001 3.62753 15.7894 3.25245 15.4143L2.8989 15.7678L3.25245 15.4143C2.87738 15.0392 2.66667 14.5305 2.66667 14.0001V4.83341V4.33341H2.16667H1.33333C1.24493 4.33341 1.16014 4.2983 1.09763 4.23578C1.03512 4.17327 1 4.08849 1 4.00008C1 3.91168 1.03512 3.82689 1.09763 3.76438C1.16014 3.70187 1.24493 3.66675 1.33333 3.66675H3.83333H4.33333V3.16675V2.33341C4.33333 2.024 4.45625 1.72725 4.67504 1.50846L4.32149 1.1549L4.67504 1.50846C4.89383 1.28966 5.19058 1.16675 5.5 1.16675H10.5C10.8094 1.16675 11.1062 1.28966 11.325 1.50846C11.5437 1.72725 11.6667 2.024 11.6667 2.33341V3.16675ZM11 2.33341V1.83341H10.5H5.5H5V2.33341V3.16675V3.66675H5.5H10.5H11V3.16675V2.33341ZM12.6667 4.83341V4.33341H12.1667H3.83333H3.33333V4.83341V14.0001C3.33333 14.3537 3.47381 14.6928 3.72386 14.9429C3.97391 15.1929 4.31305 15.3334 4.66667 15.3334H11.3333C11.687 15.3334 12.0261 15.1929 12.2761 14.9429C12.5262 14.6928 12.6667 14.3537 12.6667 14.0001V4.83341Z" fill="#EF4444" stroke="#EF4444"/>
<path d="M5.5 6.5H7.16667V13.1667H5.5V6.5ZM8.83333 6.5H10.5V13.1667H8.83333V6.5Z" fill="#EF4444"/>
</svg>
