<svg width="19" height="20" viewBox="0 0 19 20" fill="none" xmlns="http://www.w3.org/2000/svg">
<path fill-rule="evenodd" clip-rule="evenodd" d="M14.75 3.28284V2.28284C14.75 1.7524 14.5393 1.2437 14.1642 0.868623C13.7891 0.493551 13.2804 0.282837 12.75 0.282837H6.75C6.21957 0.282837 5.71086 0.493551 5.33579 0.868623C4.96071 1.2437 4.75 1.7524 4.75 2.28284V3.28284H1.75C1.48478 3.28284 1.23043 3.38819 1.04289 3.57573C0.855357 3.76327 0.75 4.01762 0.75 4.28284C0.75 4.54805 0.855357 4.80241 1.04289 4.98994C1.23043 5.17748 1.48478 5.28284 1.75 5.28284H2.75V16.2828C2.75 17.0785 3.06607 17.8415 3.62868 18.4042C4.19129 18.9668 4.95435 19.2828 5.75 19.2828H13.75C14.5456 19.2828 15.3087 18.9668 15.8713 18.4042C16.4339 17.8415 16.75 17.0785 16.75 16.2828V5.28284H17.75C18.0152 5.28284 18.2696 5.17748 18.4571 4.98994C18.6446 4.80241 18.75 4.54805 18.75 4.28284C18.75 4.01762 18.6446 3.76327 18.4571 3.57573C18.2696 3.38819 18.0152 3.28284 17.75 3.28284H14.75ZM12.75 2.28284H6.75V3.28284H12.75V2.28284ZM14.75 5.28284H4.75V16.2828C4.75 16.5481 4.85536 16.8024 5.04289 16.9899C5.23043 17.1775 5.48478 17.2828 5.75 17.2828H13.75C14.0152 17.2828 14.2696 17.1775 14.4571 16.9899C14.6446 16.8024 14.75 16.5481 14.75 16.2828V5.28284Z" fill="#1C1C1C"/>
<path d="M6.75 7.28284H8.75V15.2828H6.75V7.28284ZM10.75 7.28284H12.75V15.2828H10.75V7.28284Z" fill="#1C1C1C"/>
</svg>
