<svg width="20" height="20" viewBox="0 0 20 20" fill="none" xmlns="http://www.w3.org/2000/svg">
<path d="M6.76664 7.74164L9.99997 10.975L13.2333 7.74164C13.3105 7.66449 13.402 7.60329 13.5028 7.56154C13.6037 7.51978 13.7117 7.49829 13.8208 7.49829C13.9299 7.49829 14.038 7.51978 14.1388 7.56154C14.2396 7.60329 14.3312 7.66449 14.4083 7.74164C14.4855 7.81879 14.5467 7.91039 14.5884 8.01119C14.6302 8.11199 14.6517 8.22003 14.6517 8.32914C14.6517 8.43825 14.6302 8.54629 14.5884 8.64709C14.5467 8.7479 14.4855 8.83949 14.4083 8.91664L10.5833 12.7416C10.5062 12.8189 10.4146 12.8802 10.3138 12.922C10.213 12.9638 10.1049 12.9853 9.9958 12.9853C9.88666 12.9853 9.77859 12.9638 9.67778 12.922C9.57697 12.8802 9.4854 12.8189 9.4083 12.7416L5.5833 8.91664C5.50605 8.83955 5.44476 8.74797 5.40294 8.64716C5.36112 8.54635 5.3396 8.43828 5.3396 8.32914C5.3396 8.22 5.36112 8.11193 5.40294 8.01112C5.44476 7.91031 5.50605 7.81874 5.5833 7.74164C5.9083 7.42498 6.44164 7.41664 6.76664 7.74164Z" fill="#121619"/>
</svg>
