<svg width="100" height="101" viewBox="0 0 100 101" fill="none" xmlns="http://www.w3.org/2000/svg">
<path d="M65.4687 80.4834C60.6973 82.9863 55.3881 84.2898 50 84.2813C31.5896 84.2813 16.6667 69.3584 16.6667 50.948C16.6667 32.5376 31.5896 17.6147 50 17.6147C68.4104 17.6147 83.3333 32.5376 83.3333 50.948C83.3333 51.2959 83.3271 51.6438 83.3167 51.9897H87.4854C87.4958 51.6438 87.5 51.2959 87.5 50.948C87.5 30.2376 70.7104 13.448 50 13.448C29.2896 13.448 12.5 30.2376 12.5 50.948C12.5 71.6584 29.2896 88.448 50 88.448C56.0823 88.4574 62.0748 86.9805 67.4563 84.1459L65.4687 80.4834Z" fill="#9DA1A7"/>
<path d="M28.6309 49.5939C28.3809 51.1314 29.4246 52.6043 30.8475 53.5168C32.335 54.4689 34.4559 54.9897 36.9517 54.621C38.0672 54.4698 39.1375 54.0822 40.091 53.484C41.0446 52.8858 41.8594 52.0908 42.4809 51.1522C43.5309 49.5605 43.9621 47.6251 43.4809 46.1897C43.425 46.0239 43.3282 45.8749 43.1996 45.7563C43.0709 45.6378 42.9144 45.5535 42.7446 45.5114C42.5748 45.4692 42.3971 45.4705 42.228 45.5152C42.0588 45.5598 41.9036 45.6464 41.7767 45.7668C38.035 49.3168 33.81 50.1897 30.0225 48.7835C29.878 48.7297 29.7234 48.7088 29.5698 48.722C29.4162 48.7353 29.2675 48.7825 29.1343 48.8603C29.0012 48.938 28.887 49.0443 28.7999 49.1715C28.7128 49.2988 28.6551 49.4416 28.6309 49.5939ZM70.4559 49.5939C70.7038 51.1314 69.66 52.6043 68.2371 53.5168C66.7496 54.4689 64.6308 54.9897 62.1329 54.621C61.0178 54.4696 59.9479 54.0818 58.9947 53.4836C58.0416 52.8854 57.2271 52.0905 56.6059 51.1522C55.5558 49.5605 55.1225 47.6251 55.6059 46.1897C55.6617 46.0239 55.7585 45.8749 55.8871 45.7563C56.0158 45.6378 56.1723 45.5535 56.3421 45.5114C56.5119 45.4692 56.6896 45.4705 56.8587 45.5152C57.0279 45.5598 57.1831 45.6464 57.31 45.7668C61.0517 49.3168 65.2767 50.1897 69.0642 48.7835C69.2087 48.7297 69.3633 48.7088 69.5169 48.722C69.6705 48.7353 69.8192 48.7825 69.9524 48.8603C70.0855 48.938 70.1997 49.0443 70.2868 49.1715C70.3738 49.2988 70.4316 49.4416 70.4559 49.5939Z" fill="#9DA1A7"/>
<path fill-rule="evenodd" clip-rule="evenodd" d="M75.0013 75.9479C77.2114 75.9479 79.3311 75.0699 80.8939 73.5071C82.4567 71.9443 83.3346 69.8247 83.3346 67.6146C83.3346 60.3229 75.0013 53.0312 75.0013 53.0312C75.0013 53.0312 66.668 60.3229 66.668 67.6146C66.668 69.8247 67.5459 71.9443 69.1087 73.5071C70.6716 75.0699 72.7912 75.9479 75.0013 75.9479ZM75.0013 71.7812C76.1064 71.7812 77.1662 71.3423 77.9476 70.5609C78.729 69.7795 79.168 68.7197 79.168 67.6146C79.168 65.3937 77.8055 62.6771 75.8555 60.1146C75.568 59.7396 75.2826 59.3833 75.0013 59.0479C74.7201 59.3813 74.4346 59.7396 74.1471 60.1146C72.1992 62.6771 70.8346 65.3937 70.8346 67.6146C70.8346 68.7197 71.2736 69.7795 72.055 70.5609C72.8364 71.3423 73.8962 71.7812 75.0013 71.7812Z" fill="#9DA1A7"/>
<path d="M43.332 70.948C46.6654 66.5042 53.332 66.5042 56.6654 70.948C56.9969 71.39 57.4904 71.6822 58.0374 71.7604C58.5844 71.8385 59.14 71.6962 59.582 71.3647C60.0241 71.0331 60.3163 70.5396 60.3944 69.9926C60.4726 69.4456 60.3302 68.89 59.9987 68.448C54.9987 61.7813 44.9987 61.7813 39.9987 68.448C39.6672 68.89 39.5248 69.4456 39.603 69.9926C39.6811 70.5396 39.9733 71.0331 40.4154 71.3647C40.8574 71.6962 41.413 71.8385 41.96 71.7604C42.507 71.6822 43.0005 71.39 43.332 70.948Z" fill="#9DA1A7"/>
</svg>
