<svg width="214" height="18" viewBox="0 0 214 18" fill="none" xmlns="http://www.w3.org/2000/svg">
<path d="M11.764 0.391999C11.844 0.263999 11.956 0.199999 12.1 0.199999H14.908C14.988 0.199999 15.052 0.231999 15.1 0.295999C15.164 0.343999 15.196 0.408 15.196 0.487999V16.712C15.196 16.792 15.164 16.864 15.1 16.928C15.052 16.976 14.988 17 14.908 17H12.1C12.02 17 11.948 16.976 11.884 16.928C11.836 16.864 11.812 16.792 11.812 16.712V6.128C11.812 6.064 11.796 6.032 11.764 6.032C11.732 6.032 11.7 6.056 11.668 6.104L9.124 10.088C9.044 10.216 8.932 10.28 8.788 10.28H7.372C7.228 10.28 7.116 10.216 7.036 10.088L4.492 6.104C4.46 6.056 4.428 6.04 4.396 6.056C4.364 6.056 4.348 6.088 4.348 6.152V16.712C4.348 16.792 4.316 16.864 4.252 16.928C4.204 16.976 4.14 17 4.06 17H1.252C1.172 17 1.1 16.976 1.036 16.928C0.988 16.864 0.964 16.792 0.964 16.712V0.487999C0.964 0.408 0.988 0.343999 1.036 0.295999C1.1 0.231999 1.172 0.199999 1.252 0.199999H4.06C4.204 0.199999 4.316 0.263999 4.396 0.391999L7.996 5.984C8.044 6.08 8.092 6.08 8.14 5.984L11.764 0.391999ZM28.1043 9.56C28.2003 10.168 28.2323 10.848 28.2003 11.6C28.1843 11.792 28.0803 11.888 27.8883 11.888H20.4723C20.3763 11.888 20.3443 11.928 20.3763 12.008C20.4243 12.328 20.5123 12.648 20.6403 12.968C21.0563 13.864 21.9043 14.312 23.1843 14.312C24.2083 14.296 25.0163 13.88 25.6083 13.064C25.6723 12.968 25.7443 12.92 25.8243 12.92C25.8723 12.92 25.9283 12.952 25.9923 13.016L27.7203 14.72C27.8003 14.8 27.8403 14.872 27.8403 14.936C27.8403 14.968 27.8083 15.032 27.7443 15.128C27.2163 15.784 26.5363 16.296 25.7043 16.664C24.8723 17.016 23.9603 17.192 22.9683 17.192C21.5923 17.192 20.4243 16.88 19.4643 16.256C18.5203 15.632 17.8403 14.76 17.4243 13.64C17.0883 12.84 16.9203 11.792 16.9203 10.496C16.9203 9.616 17.0403 8.84 17.2803 8.168C17.6483 7.032 18.2883 6.128 19.2003 5.456C20.1283 4.784 21.2243 4.448 22.4883 4.448C24.0883 4.448 25.3683 4.912 26.3283 5.84C27.3043 6.768 27.8963 8.008 28.1043 9.56ZM22.5123 7.376C21.5043 7.376 20.8403 7.848 20.5203 8.792C20.4563 9 20.4003 9.256 20.3523 9.56C20.3523 9.64 20.3923 9.68 20.4723 9.68H24.6243C24.7203 9.68 24.7523 9.64 24.7203 9.56C24.6403 9.096 24.6003 8.872 24.6003 8.888C24.4563 8.408 24.2003 8.04 23.8323 7.784C23.4803 7.512 23.0403 7.376 22.5123 7.376ZM40.4858 9.56C40.5818 10.168 40.6138 10.848 40.5818 11.6C40.5658 11.792 40.4618 11.888 40.2698 11.888H32.8538C32.7578 11.888 32.7258 11.928 32.7578 12.008C32.8058 12.328 32.8938 12.648 33.0218 12.968C33.4378 13.864 34.2858 14.312 35.5658 14.312C36.5898 14.296 37.3978 13.88 37.9898 13.064C38.0538 12.968 38.1258 12.92 38.2058 12.92C38.2538 12.92 38.3098 12.952 38.3738 13.016L40.1018 14.72C40.1818 14.8 40.2218 14.872 40.2218 14.936C40.2218 14.968 40.1898 15.032 40.1258 15.128C39.5978 15.784 38.9178 16.296 38.0858 16.664C37.2538 17.016 36.3418 17.192 35.3498 17.192C33.9738 17.192 32.8058 16.88 31.8458 16.256C30.9018 15.632 30.2218 14.76 29.8058 13.64C29.4698 12.84 29.3018 11.792 29.3018 10.496C29.3018 9.616 29.4218 8.84 29.6618 8.168C30.0298 7.032 30.6698 6.128 31.5818 5.456C32.5098 4.784 33.6058 4.448 34.8698 4.448C36.4698 4.448 37.7498 4.912 38.7098 5.84C39.6858 6.768 40.2778 8.008 40.4858 9.56ZM34.8938 7.376C33.8858 7.376 33.2218 7.848 32.9018 8.792C32.8378 9 32.7818 9.256 32.7338 9.56C32.7338 9.64 32.7738 9.68 32.8538 9.68H37.0058C37.1018 9.68 37.1338 9.64 37.1018 9.56C37.0218 9.096 36.9818 8.872 36.9818 8.888C36.8378 8.408 36.5818 8.04 36.2138 7.784C35.8618 7.512 35.4218 7.376 34.8938 7.376ZM48.7461 7.088C48.7461 7.168 48.7141 7.24 48.6501 7.304C48.6021 7.352 48.5381 7.376 48.4581 7.376H46.1541C46.0741 7.376 46.0341 7.416 46.0341 7.496V12.584C46.0341 13.112 46.1381 13.504 46.3461 13.76C46.5701 14.016 46.9221 14.144 47.4021 14.144H48.1941C48.2741 14.144 48.3381 14.176 48.3861 14.24C48.4501 14.288 48.4821 14.352 48.4821 14.432V16.712C48.4821 16.888 48.3861 16.992 48.1941 17.024C47.5221 17.056 47.0421 17.072 46.7541 17.072C45.4261 17.072 44.4341 16.856 43.7781 16.424C43.1221 15.976 42.7861 15.144 42.7701 13.928V7.496C42.7701 7.416 42.7301 7.376 42.6501 7.376H41.2821C41.2021 7.376 41.1301 7.352 41.0661 7.304C41.0181 7.24 40.9941 7.168 40.9941 7.088V4.952C40.9941 4.872 41.0181 4.808 41.0661 4.76C41.1301 4.696 41.2021 4.664 41.2821 4.664H42.6501C42.7301 4.664 42.7701 4.624 42.7701 4.544V1.688C42.7701 1.608 42.7941 1.544 42.8421 1.496C42.9061 1.432 42.9781 1.4 43.0581 1.4H45.7461C45.8261 1.4 45.8901 1.432 45.9381 1.496C46.0021 1.544 46.0341 1.608 46.0341 1.688V4.544C46.0341 4.624 46.0741 4.664 46.1541 4.664H48.4581C48.5381 4.664 48.6021 4.696 48.6501 4.76C48.7141 4.808 48.7461 4.872 48.7461 4.952V7.088ZM58.9 16.976C58.82 16.976 58.748 16.952 58.684 16.904C58.636 16.84 58.612 16.768 58.612 16.688V10.616C58.612 10.552 58.604 10.504 58.588 10.472L53.644 0.535999C53.612 0.471999 53.596 0.423999 53.596 0.391999C53.596 0.263999 53.684 0.199999 53.86 0.199999H56.884C57.044 0.199999 57.156 0.271999 57.22 0.415999L60.22 6.8C60.268 6.896 60.316 6.896 60.364 6.8L63.364 0.415999C63.428 0.271999 63.54 0.199999 63.7 0.199999H66.772C66.884 0.199999 66.956 0.231999 66.988 0.295999C67.036 0.343999 67.036 0.423999 66.988 0.535999L61.996 10.472C61.98 10.504 61.972 10.552 61.972 10.616V16.688C61.972 16.768 61.94 16.84 61.876 16.904C61.828 16.952 61.764 16.976 61.684 16.976H58.9ZM71.7901 17.192C70.4461 17.192 69.2941 16.84 68.3341 16.136C67.3741 15.432 66.7181 14.472 66.3661 13.256C66.1421 12.504 66.0301 11.688 66.0301 10.808C66.0301 9.864 66.1421 9.016 66.3661 8.264C66.7341 7.08 67.3981 6.152 68.3581 5.48C69.3181 4.808 70.4701 4.472 71.8141 4.472C73.1261 4.472 74.2461 4.808 75.1741 5.48C76.1021 6.136 76.7581 7.056 77.1421 8.24C77.3981 9.04 77.5261 9.88 77.5261 10.76C77.5261 11.624 77.4141 12.432 77.1901 13.184C76.8381 14.432 76.1821 15.416 75.2221 16.136C74.2781 16.84 73.1341 17.192 71.7901 17.192ZM71.7901 14.288C72.3181 14.288 72.7661 14.128 73.1341 13.808C73.5021 13.488 73.7661 13.048 73.9261 12.488C74.0541 11.976 74.1181 11.416 74.1181 10.808C74.1181 10.136 74.0541 9.568 73.9261 9.104C73.7501 8.56 73.4781 8.136 73.1101 7.832C72.7421 7.528 72.2941 7.376 71.7661 7.376C71.2221 7.376 70.7661 7.528 70.3981 7.832C70.0461 8.136 69.7901 8.56 69.6301 9.104C69.5021 9.488 69.4381 10.056 69.4381 10.808C69.4381 11.528 69.4941 12.088 69.6061 12.488C69.7661 13.048 70.0301 13.488 70.3981 13.808C70.7821 14.128 71.2461 14.288 71.7901 14.288ZM86.1814 4.952C86.1814 4.872 86.2054 4.808 86.2534 4.76C86.3174 4.696 86.3894 4.664 86.4694 4.664H89.2774C89.3574 4.664 89.4214 4.696 89.4694 4.76C89.5334 4.808 89.5654 4.872 89.5654 4.952V16.712C89.5654 16.792 89.5334 16.864 89.4694 16.928C89.4214 16.976 89.3574 17 89.2774 17H86.4694C86.3894 17 86.3174 16.976 86.2534 16.928C86.2054 16.864 86.1814 16.792 86.1814 16.712V15.896C86.1814 15.848 86.1654 15.824 86.1334 15.824C86.1014 15.808 86.0694 15.824 86.0374 15.872C85.3974 16.736 84.4054 17.168 83.0614 17.168C81.8454 17.168 80.8454 16.8 80.0614 16.064C79.2774 15.328 78.8854 14.296 78.8854 12.968V4.952C78.8854 4.872 78.9094 4.808 78.9574 4.76C79.0214 4.696 79.0934 4.664 79.1734 4.664H81.9574C82.0374 4.664 82.1014 4.696 82.1494 4.76C82.2134 4.808 82.2454 4.872 82.2454 4.952V12.128C82.2454 12.768 82.4134 13.288 82.7494 13.688C83.1014 14.088 83.5814 14.288 84.1894 14.288C84.7334 14.288 85.1814 14.128 85.5334 13.808C85.8854 13.472 86.1014 13.04 86.1814 12.512V4.952ZM97.4836 4.496C98.0596 4.496 98.5156 4.608 98.8516 4.832C98.9796 4.896 99.0276 5.016 98.9956 5.192L98.4916 7.928C98.4756 8.12 98.3636 8.176 98.1556 8.096C97.9156 8.016 97.6356 7.976 97.3156 7.976C97.1876 7.976 97.0116 7.992 96.7876 8.024C96.2116 8.072 95.7236 8.288 95.3236 8.672C94.9236 9.04 94.7236 9.536 94.7236 10.16V16.712C94.7236 16.792 94.6916 16.864 94.6276 16.928C94.5796 16.976 94.5156 17 94.4356 17H91.6276C91.5476 17 91.4756 16.976 91.4116 16.928C91.3636 16.864 91.3396 16.792 91.3396 16.712V4.952C91.3396 4.872 91.3636 4.808 91.4116 4.76C91.4756 4.696 91.5476 4.664 91.6276 4.664H94.4356C94.5156 4.664 94.5796 4.696 94.6276 4.76C94.6916 4.808 94.7236 4.872 94.7236 4.952V5.864C94.7236 5.912 94.7396 5.944 94.7716 5.96C94.8036 5.976 94.8276 5.968 94.8436 5.936C95.4996 4.976 96.3796 4.496 97.4836 4.496ZM104.396 17C104.316 17 104.244 16.976 104.18 16.928C104.132 16.864 104.108 16.792 104.108 16.712V0.487999C104.108 0.408 104.132 0.343999 104.18 0.295999C104.244 0.231999 104.316 0.199999 104.396 0.199999H107.204C107.284 0.199999 107.348 0.231999 107.396 0.295999C107.46 0.343999 107.492 0.408 107.492 0.487999V16.712C107.492 16.792 107.46 16.864 107.396 16.928C107.348 16.976 107.284 17 107.204 17H104.396ZM115.908 4.472C117.188 4.472 118.22 4.864 119.004 5.648C119.788 6.432 120.18 7.496 120.18 8.84V16.712C120.18 16.792 120.148 16.864 120.084 16.928C120.036 16.976 119.972 17 119.892 17H117.084C117.004 17 116.932 16.976 116.868 16.928C116.82 16.864 116.796 16.792 116.796 16.712V9.536C116.796 8.896 116.612 8.376 116.244 7.976C115.892 7.576 115.42 7.376 114.828 7.376C114.236 7.376 113.756 7.576 113.388 7.976C113.036 8.376 112.86 8.896 112.86 9.536V16.712C112.86 16.792 112.828 16.864 112.764 16.928C112.716 16.976 112.652 17 112.572 17H109.764C109.684 17 109.612 16.976 109.548 16.928C109.5 16.864 109.476 16.792 109.476 16.712V4.952C109.476 4.872 109.5 4.808 109.548 4.76C109.612 4.696 109.684 4.664 109.764 4.664H112.572C112.652 4.664 112.716 4.696 112.764 4.76C112.828 4.808 112.86 4.872 112.86 4.952V5.792C112.86 5.84 112.876 5.872 112.908 5.888C112.94 5.904 112.964 5.896 112.98 5.864C113.636 4.936 114.612 4.472 115.908 4.472ZM126.801 17.168C125.729 17.168 124.793 17.016 123.993 16.712C123.193 16.408 122.569 15.984 122.121 15.44C121.689 14.896 121.473 14.28 121.473 13.592V13.352C121.473 13.272 121.497 13.208 121.545 13.16C121.609 13.096 121.681 13.064 121.761 13.064H124.425C124.505 13.064 124.569 13.096 124.617 13.16C124.681 13.208 124.713 13.272 124.713 13.352V13.376C124.713 13.728 124.905 14.032 125.289 14.288C125.689 14.528 126.185 14.648 126.777 14.648C127.321 14.648 127.761 14.544 128.097 14.336C128.433 14.112 128.601 13.84 128.601 13.52C128.601 13.232 128.457 13.016 128.169 12.872C127.881 12.728 127.409 12.576 126.753 12.416C126.001 12.224 125.409 12.04 124.977 11.864C123.953 11.512 123.137 11.08 122.529 10.568C121.921 10.056 121.617 9.32 121.617 8.36C121.617 7.176 122.073 6.24 122.985 5.552C123.913 4.848 125.137 4.496 126.657 4.496C127.681 4.496 128.577 4.664 129.345 5C130.113 5.32 130.705 5.776 131.121 6.368C131.553 6.96 131.769 7.632 131.769 8.384C131.769 8.464 131.737 8.536 131.673 8.6C131.625 8.648 131.561 8.672 131.481 8.672H128.913C128.833 8.672 128.761 8.648 128.697 8.6C128.649 8.536 128.625 8.464 128.625 8.384C128.625 8.032 128.441 7.736 128.073 7.496C127.721 7.256 127.249 7.136 126.657 7.136C126.129 7.136 125.697 7.232 125.361 7.424C125.025 7.616 124.857 7.88 124.857 8.216C124.857 8.536 125.017 8.776 125.337 8.936C125.673 9.096 126.225 9.264 126.993 9.44C127.169 9.488 127.369 9.544 127.593 9.608C127.817 9.656 128.057 9.72 128.313 9.8C129.449 10.136 130.345 10.568 131.001 11.096C131.657 11.624 131.985 12.392 131.985 13.4C131.985 14.584 131.513 15.512 130.569 16.184C129.641 16.84 128.385 17.168 126.801 17.168ZM140.265 7.088C140.265 7.168 140.233 7.24 140.169 7.304C140.121 7.352 140.057 7.376 139.977 7.376H137.673C137.593 7.376 137.553 7.416 137.553 7.496V12.584C137.553 13.112 137.657 13.504 137.865 13.76C138.089 14.016 138.441 14.144 138.921 14.144H139.713C139.793 14.144 139.857 14.176 139.905 14.24C139.969 14.288 140.001 14.352 140.001 14.432V16.712C140.001 16.888 139.905 16.992 139.713 17.024C139.041 17.056 138.561 17.072 138.273 17.072C136.945 17.072 135.953 16.856 135.297 16.424C134.641 15.976 134.305 15.144 134.289 13.928V7.496C134.289 7.416 134.249 7.376 134.169 7.376H132.801C132.721 7.376 132.649 7.352 132.585 7.304C132.537 7.24 132.513 7.168 132.513 7.088V4.952C132.513 4.872 132.537 4.808 132.585 4.76C132.649 4.696 132.721 4.664 132.801 4.664H134.169C134.249 4.664 134.289 4.624 134.289 4.544V1.688C134.289 1.608 134.313 1.544 134.361 1.496C134.425 1.432 134.497 1.4 134.577 1.4H137.265C137.345 1.4 137.409 1.432 137.457 1.496C137.521 1.544 137.553 1.608 137.553 1.688V4.544C137.553 4.624 137.593 4.664 137.673 4.664H139.977C140.057 4.664 140.121 4.696 140.169 4.76C140.233 4.808 140.265 4.872 140.265 4.952V7.088ZM147.726 4.496C148.302 4.496 148.758 4.608 149.094 4.832C149.222 4.896 149.27 5.016 149.238 5.192L148.734 7.928C148.718 8.12 148.606 8.176 148.398 8.096C148.158 8.016 147.878 7.976 147.558 7.976C147.43 7.976 147.254 7.992 147.03 8.024C146.454 8.072 145.966 8.288 145.566 8.672C145.166 9.04 144.966 9.536 144.966 10.16V16.712C144.966 16.792 144.934 16.864 144.87 16.928C144.822 16.976 144.758 17 144.678 17H141.87C141.79 17 141.718 16.976 141.654 16.928C141.606 16.864 141.582 16.792 141.582 16.712V4.952C141.582 4.872 141.606 4.808 141.654 4.76C141.718 4.696 141.79 4.664 141.87 4.664H144.678C144.758 4.664 144.822 4.696 144.87 4.76C144.934 4.808 144.966 4.872 144.966 4.952V5.864C144.966 5.912 144.982 5.944 145.014 5.96C145.046 5.976 145.07 5.968 145.086 5.936C145.742 4.976 146.622 4.496 147.726 4.496ZM157.25 4.952C157.25 4.872 157.274 4.808 157.322 4.76C157.386 4.696 157.458 4.664 157.538 4.664H160.346C160.426 4.664 160.49 4.696 160.538 4.76C160.602 4.808 160.634 4.872 160.634 4.952V16.712C160.634 16.792 160.602 16.864 160.538 16.928C160.49 16.976 160.426 17 160.346 17H157.538C157.458 17 157.386 16.976 157.322 16.928C157.274 16.864 157.25 16.792 157.25 16.712V15.896C157.25 15.848 157.234 15.824 157.202 15.824C157.17 15.808 157.138 15.824 157.106 15.872C156.466 16.736 155.474 17.168 154.13 17.168C152.914 17.168 151.914 16.8 151.13 16.064C150.346 15.328 149.954 14.296 149.954 12.968V4.952C149.954 4.872 149.978 4.808 150.026 4.76C150.09 4.696 150.162 4.664 150.242 4.664H153.026C153.106 4.664 153.17 4.696 153.218 4.76C153.282 4.808 153.314 4.872 153.314 4.952V12.128C153.314 12.768 153.482 13.288 153.818 13.688C154.17 14.088 154.65 14.288 155.258 14.288C155.802 14.288 156.25 14.128 156.602 13.808C156.954 13.472 157.17 13.04 157.25 12.512V4.952ZM167.832 17.192C166.552 17.192 165.44 16.872 164.496 16.232C163.568 15.592 162.904 14.712 162.504 13.592C162.232 12.792 162.096 11.848 162.096 10.76C162.096 9.688 162.232 8.76 162.504 7.976C162.888 6.888 163.552 6.032 164.496 5.408C165.44 4.784 166.552 4.472 167.832 4.472C169.112 4.472 170.232 4.792 171.192 5.432C172.168 6.072 172.816 6.88 173.136 7.856C173.264 8.24 173.328 8.528 173.328 8.72V8.768C173.328 8.912 173.248 9 173.088 9.032L170.328 9.44H170.28C170.136 9.44 170.04 9.36 169.992 9.2L169.92 8.816C169.808 8.4 169.56 8.056 169.176 7.784C168.792 7.512 168.336 7.376 167.808 7.376C167.296 7.376 166.864 7.504 166.512 7.76C166.16 8.016 165.912 8.368 165.768 8.816C165.592 9.296 165.504 9.952 165.504 10.784C165.504 11.616 165.584 12.272 165.744 12.752C165.888 13.232 166.136 13.608 166.488 13.88C166.856 14.152 167.296 14.288 167.808 14.288C168.304 14.288 168.736 14.16 169.104 13.904C169.488 13.632 169.752 13.264 169.896 12.8C169.912 12.768 169.92 12.72 169.92 12.656C169.936 12.64 169.944 12.616 169.944 12.584C169.96 12.392 170.072 12.312 170.28 12.344L173.04 12.776C173.2 12.808 173.28 12.896 173.28 13.04C173.28 13.168 173.232 13.408 173.136 13.76C172.8 14.832 172.144 15.672 171.168 16.28C170.208 16.888 169.096 17.192 167.832 17.192ZM181.658 7.088C181.658 7.168 181.626 7.24 181.562 7.304C181.514 7.352 181.45 7.376 181.37 7.376H179.066C178.986 7.376 178.946 7.416 178.946 7.496V12.584C178.946 13.112 179.05 13.504 179.258 13.76C179.482 14.016 179.834 14.144 180.314 14.144H181.106C181.186 14.144 181.25 14.176 181.298 14.24C181.362 14.288 181.394 14.352 181.394 14.432V16.712C181.394 16.888 181.298 16.992 181.106 17.024C180.434 17.056 179.954 17.072 179.666 17.072C178.338 17.072 177.346 16.856 176.69 16.424C176.034 15.976 175.698 15.144 175.682 13.928V7.496C175.682 7.416 175.642 7.376 175.562 7.376H174.194C174.114 7.376 174.042 7.352 173.978 7.304C173.93 7.24 173.906 7.168 173.906 7.088V4.952C173.906 4.872 173.93 4.808 173.978 4.76C174.042 4.696 174.114 4.664 174.194 4.664H175.562C175.642 4.664 175.682 4.624 175.682 4.544V1.688C175.682 1.608 175.706 1.544 175.754 1.496C175.818 1.432 175.89 1.4 175.97 1.4H178.658C178.738 1.4 178.802 1.432 178.85 1.496C178.914 1.544 178.946 1.608 178.946 1.688V4.544C178.946 4.624 178.986 4.664 179.066 4.664H181.37C181.45 4.664 181.514 4.696 181.562 4.76C181.626 4.808 181.658 4.872 181.658 4.952V7.088ZM188.259 17.192C186.915 17.192 185.763 16.84 184.803 16.136C183.843 15.432 183.187 14.472 182.835 13.256C182.611 12.504 182.499 11.688 182.499 10.808C182.499 9.864 182.611 9.016 182.835 8.264C183.203 7.08 183.867 6.152 184.827 5.48C185.787 4.808 186.939 4.472 188.283 4.472C189.595 4.472 190.715 4.808 191.643 5.48C192.571 6.136 193.227 7.056 193.611 8.24C193.867 9.04 193.995 9.88 193.995 10.76C193.995 11.624 193.883 12.432 193.659 13.184C193.307 14.432 192.651 15.416 191.691 16.136C190.747 16.84 189.603 17.192 188.259 17.192ZM188.259 14.288C188.787 14.288 189.235 14.128 189.603 13.808C189.971 13.488 190.235 13.048 190.395 12.488C190.523 11.976 190.587 11.416 190.587 10.808C190.587 10.136 190.523 9.568 190.395 9.104C190.219 8.56 189.947 8.136 189.579 7.832C189.211 7.528 188.763 7.376 188.235 7.376C187.691 7.376 187.235 7.528 186.867 7.832C186.515 8.136 186.259 8.56 186.099 9.104C185.971 9.488 185.907 10.056 185.907 10.808C185.907 11.528 185.963 12.088 186.075 12.488C186.235 13.048 186.499 13.488 186.867 13.808C187.251 14.128 187.715 14.288 188.259 14.288ZM201.595 4.496C202.171 4.496 202.627 4.608 202.963 4.832C203.091 4.896 203.139 5.016 203.107 5.192L202.603 7.928C202.587 8.12 202.475 8.176 202.267 8.096C202.027 8.016 201.747 7.976 201.427 7.976C201.299 7.976 201.123 7.992 200.899 8.024C200.323 8.072 199.835 8.288 199.435 8.672C199.035 9.04 198.835 9.536 198.835 10.16V16.712C198.835 16.792 198.803 16.864 198.739 16.928C198.691 16.976 198.627 17 198.547 17H195.739C195.659 17 195.587 16.976 195.523 16.928C195.475 16.864 195.451 16.792 195.451 16.712V4.952C195.451 4.872 195.475 4.808 195.523 4.76C195.587 4.696 195.659 4.664 195.739 4.664H198.547C198.627 4.664 198.691 4.696 198.739 4.76C198.803 4.808 198.835 4.872 198.835 4.952V5.864C198.835 5.912 198.851 5.944 198.883 5.96C198.915 5.976 198.939 5.968 198.955 5.936C199.611 4.976 200.491 4.496 201.595 4.496ZM208.651 17.168C207.579 17.168 206.643 17.016 205.843 16.712C205.043 16.408 204.419 15.984 203.971 15.44C203.539 14.896 203.323 14.28 203.323 13.592V13.352C203.323 13.272 203.347 13.208 203.395 13.16C203.459 13.096 203.531 13.064 203.611 13.064H206.275C206.355 13.064 206.419 13.096 206.467 13.16C206.531 13.208 206.563 13.272 206.563 13.352V13.376C206.563 13.728 206.755 14.032 207.139 14.288C207.539 14.528 208.035 14.648 208.627 14.648C209.171 14.648 209.611 14.544 209.947 14.336C210.283 14.112 210.451 13.84 210.451 13.52C210.451 13.232 210.307 13.016 210.019 12.872C209.731 12.728 209.259 12.576 208.603 12.416C207.851 12.224 207.259 12.04 206.827 11.864C205.803 11.512 204.987 11.08 204.379 10.568C203.771 10.056 203.467 9.32 203.467 8.36C203.467 7.176 203.923 6.24 204.835 5.552C205.763 4.848 206.987 4.496 208.507 4.496C209.531 4.496 210.427 4.664 211.195 5C211.963 5.32 212.555 5.776 212.971 6.368C213.403 6.96 213.619 7.632 213.619 8.384C213.619 8.464 213.587 8.536 213.523 8.6C213.475 8.648 213.411 8.672 213.331 8.672H210.763C210.683 8.672 210.611 8.648 210.547 8.6C210.499 8.536 210.475 8.464 210.475 8.384C210.475 8.032 210.291 7.736 209.923 7.496C209.571 7.256 209.099 7.136 208.507 7.136C207.979 7.136 207.547 7.232 207.211 7.424C206.875 7.616 206.707 7.88 206.707 8.216C206.707 8.536 206.867 8.776 207.187 8.936C207.523 9.096 208.075 9.264 208.843 9.44C209.019 9.488 209.219 9.544 209.443 9.608C209.667 9.656 209.907 9.72 210.163 9.8C211.299 10.136 212.195 10.568 212.851 11.096C213.507 11.624 213.835 12.392 213.835 13.4C213.835 14.584 213.363 15.512 212.419 16.184C211.491 16.84 210.235 17.168 208.651 17.168Z" fill="url(#paint0_linear_167_4969)"/>
<defs>
<linearGradient id="paint0_linear_167_4969" x1="-36.0619" y1="-23.3834" x2="302.802" y2="91.078" gradientUnits="userSpaceOnUse">
<stop stop-color="#0043CE"/>
<stop offset="0.06" stop-color="#7FA9FF"/>
<stop offset="1" stop-color="#E80808"/>
</linearGradient>
</defs>
</svg>
