<svg width="40" height="40" viewBox="0 0 40 40" fill="none" xmlns="http://www.w3.org/2000/svg">
<path d="M16.2787 31.4144L20 23.3334L23.7213 31.4144C24.8007 33.7582 25.3403 34.93 24.7687 35.776C24.753 35.7992 24.7368 35.822 24.7202 35.8445C24.1098 36.6667 22.7398 36.6667 20 36.6667C17.2602 36.6667 15.8901 36.6667 15.2799 35.8445C15.2632 35.822 15.247 35.7992 15.2314 35.776C14.6597 34.93 15.1994 33.7582 16.2787 31.4144Z" stroke="#6F6F6F" stroke-width="3" stroke-linecap="round" stroke-linejoin="round"/>
<path d="M19.9998 23.3333C21.8408 23.3333 23.3332 21.8409 23.3332 20C23.3332 18.159 21.8408 16.6666 19.9998 16.6666C18.1589 16.6666 16.6665 18.159 16.6665 20C16.6665 21.8409 18.1589 23.3333 19.9998 23.3333Z" stroke="#6F6F6F" stroke-width="3" stroke-linecap="round"/>
<path d="M6.66683 30.0017C4.5738 27.2159 3.3335 23.7527 3.3335 20C3.3335 10.7953 10.7954 3.33337 20.0002 3.33337C29.2048 3.33337 36.6668 10.7953 36.6668 20C36.6668 23.7527 35.4265 27.2159 33.3335 30.0017" stroke="#6F6F6F" stroke-width="3" stroke-linecap="round"/>
<path d="M12.5463 26.6667C10.9629 24.8975 10 22.5612 10 20C10 14.4771 14.4771 10 20 10C25.5228 10 30 14.4771 30 20C30 22.5612 29.0372 24.8975 27.4537 26.6667" stroke="#6F6F6F" stroke-width="3" stroke-linecap="round"/>
</svg>
