<svg width="40" height="40" viewBox="0 0 40 40" fill="none" xmlns="http://www.w3.org/2000/svg">
<path d="M16.2787 31.4143L20 23.3333L23.7213 31.4143C24.8007 33.7581 25.3403 34.93 24.7687 35.776C24.753 35.7991 24.7368 35.822 24.7202 35.8445C24.1098 36.6666 22.7398 36.6666 20 36.6666C17.2602 36.6666 15.8901 36.6666 15.2799 35.8445C15.2632 35.822 15.247 35.7991 15.2314 35.776C14.6597 34.93 15.1994 33.7581 16.2787 31.4143Z" stroke="white" stroke-width="3" stroke-linecap="round" stroke-linejoin="round"/>
<path d="M20 23.3334C21.8409 23.3334 23.3333 21.841 23.3333 20C23.3333 18.1591 21.8409 16.6667 20 16.6667C18.159 16.6667 16.6666 18.1591 16.6666 20C16.6666 21.841 18.159 23.3334 20 23.3334Z" stroke="white" stroke-width="3" stroke-linecap="round"/>
<path d="M6.66671 30.0016C4.57367 27.2158 3.33337 23.7526 3.33337 20C3.33337 10.7952 10.7953 3.33331 20 3.33331C29.2047 3.33331 36.6667 10.7952 36.6667 20C36.6667 23.7526 35.4264 27.2158 33.3334 30.0016" stroke="white" stroke-width="3" stroke-linecap="round"/>
<path d="M12.5463 26.6667C10.9629 24.8975 10 22.5612 10 20C10 14.4771 14.4771 10 20 10C25.5228 10 30 14.4771 30 20C30 22.5612 29.0372 24.8975 27.4537 26.6667" stroke="white" stroke-width="3" stroke-linecap="round"/>
</svg>
