<svg width="20" height="20" viewBox="0 0 20 20" fill="none" xmlns="http://www.w3.org/2000/svg">
<path d="M4.06549 2.40561L4.5982 2.93355L4.5982 2.93354L4.06549 2.40561ZM15.9343 2.40561L15.4016 2.93355L15.4016 2.93355L15.9343 2.40561ZM16.2816 17.6757L15.8755 17.0452L15.8754 17.0452L16.2816 17.6757ZM14.1908 16.9228L13.7907 17.5572L13.7908 17.5573L14.1908 16.9228ZM13.3603 16.5332L13.3356 17.2828L13.3358 17.2828L13.3603 16.5332ZM12.4757 16.9228L12.8757 17.5572L12.8758 17.5572L12.4757 16.9228ZM10.8833 17.9271L11.2832 18.5615L11.2833 18.5615L10.8833 17.9271ZM9.11658 17.9271L8.71651 18.5615L8.7166 18.5615L9.11658 17.9271ZM7.52419 16.9228L7.12408 17.5572L7.12412 17.5572L7.52419 16.9228ZM6.69369 16.5332L6.66895 17.2828L6.66918 17.2828L6.69369 16.5332ZM5.80898 16.9228L6.20902 17.5572L6.20905 17.5572L5.80898 16.9228ZM3.71821 17.6757L4.12437 17.0452L4.12429 17.0452L3.71821 17.6757ZM13.3333 5.75008C13.7475 5.75008 14.0833 5.4143 14.0833 5.00008C14.0833 4.58587 13.7475 4.25008 13.3333 4.25008V5.75008ZM6.66659 4.25008C6.25237 4.25008 5.91659 4.58587 5.91659 5.00008C5.91659 5.4143 6.25237 5.75008 6.66659 5.75008V4.25008ZM8.33325 9.08342C8.74747 9.08342 9.08325 8.74763 9.08325 8.33342C9.08325 7.9192 8.74747 7.58342 8.33325 7.58342V9.08342ZM6.66659 7.58342C6.25237 7.58342 5.91659 7.9192 5.91659 8.33342C5.91659 8.74763 6.25237 9.08342 6.66659 9.08342V7.58342ZM12.5667 9.23928C12.7218 9.62336 13.1589 9.80896 13.543 9.65384C13.927 9.49872 14.1126 9.06162 13.9575 8.67755L12.5667 9.23928ZM12.8333 7.50008C12.8333 7.08587 12.4975 6.75008 12.0833 6.75008C11.669 6.75008 11.3333 7.08587 11.3333 7.50008H12.8333ZM11.5998 11.5942C11.4447 11.2101 11.0076 11.0245 10.6235 11.1797C10.2395 11.3348 10.0539 11.7719 10.209 12.156L11.5998 11.5942ZM11.3333 13.3334C11.3333 13.7476 11.669 14.0834 12.0833 14.0834C12.4975 14.0834 12.8333 13.7476 12.8333 13.3334H11.3333ZM4.08325 15.5382V6.71197H2.58325V15.5382H4.08325ZM4.08325 6.71197C4.08325 5.50178 4.08482 4.66892 4.16821 4.04303C4.24882 3.43803 4.39345 3.14014 4.5982 2.93355L3.53278 1.87767C3.00528 2.40993 2.7838 3.07604 2.68135 3.84492C2.58169 4.59292 2.58325 5.54381 2.58325 6.71197H4.08325ZM4.5982 2.93354C4.80201 2.72788 5.09452 2.5832 5.6909 2.5023C6.30955 2.41837 7.13335 2.41675 8.33325 2.41675V0.916748C7.17613 0.916748 6.23216 0.915127 5.48925 1.01591C4.72406 1.11972 4.06119 1.34447 3.53277 1.87767L4.5982 2.93354ZM8.33325 2.41675H11.6666V0.916748H8.33325V2.41675ZM11.6666 2.41675C12.8665 2.41675 13.6903 2.41837 14.3089 2.5023C14.9053 2.5832 15.1978 2.72788 15.4016 2.93355L16.467 1.87766C15.9386 1.34447 15.2758 1.11972 14.5106 1.01591C13.7677 0.915127 12.8237 0.916748 11.6666 0.916748V2.41675ZM15.4016 2.93355C15.6064 3.14014 15.751 3.43804 15.8316 4.04303C15.915 4.66892 15.9166 5.50178 15.9166 6.71197H17.4166C17.4166 5.54381 17.4181 4.59292 17.3185 3.84492C17.216 3.07603 16.9945 2.40992 16.467 1.87766L15.4016 2.93355ZM15.9166 6.71197V15.5382H17.4166V6.71197H15.9166ZM15.9166 15.5382C15.9166 16.1918 15.9148 16.6012 15.8756 16.8831C15.8364 17.1652 15.7856 17.1031 15.8755 17.0452L16.6876 18.3063C17.1626 18.0005 17.3043 17.4995 17.3613 17.0898C17.4183 16.6798 17.4166 16.1445 17.4166 15.5382H15.9166ZM15.8754 17.0452C15.9419 17.0024 15.9017 17.0961 15.5314 16.9024C15.3806 16.8234 15.223 16.7214 15.0602 16.6095C14.9174 16.5113 14.7291 16.3756 14.5908 16.2884L13.7908 17.5573C13.8971 17.6243 14.0139 17.7104 14.2106 17.8457C14.3874 17.9672 14.604 18.1101 14.8361 18.2315C15.2316 18.4384 15.9921 18.7544 16.6877 18.3062L15.8754 17.0452ZM14.5909 16.2885C14.4013 16.1688 14.2138 16.0496 14.044 15.9646C13.8598 15.8723 13.6438 15.792 13.3848 15.7836L13.3358 17.2828C13.3012 17.2816 13.2983 17.2687 13.3723 17.3058C13.4607 17.35 13.5762 17.4219 13.7907 17.5572L14.5909 16.2885ZM13.3851 15.7836C13.1115 15.7745 12.8801 15.8452 12.6721 15.9428C12.4854 16.0305 12.2831 16.1576 12.0756 16.2885L12.8758 17.5572C13.1049 17.4127 13.2238 17.3409 13.3096 17.3006C13.3742 17.2703 13.3668 17.2838 13.3356 17.2828L13.3851 15.7836ZM12.0756 16.2884L10.4832 17.2927L11.2833 18.5615L12.8757 17.5572L12.0756 16.2884ZM10.4833 17.2926C10.2552 17.4364 10.1323 17.5128 10.0382 17.5592C9.95995 17.5979 9.96347 17.5834 9.99992 17.5834V19.0834C10.2754 19.0834 10.5058 19.0012 10.702 18.9044C10.8825 18.8153 11.0817 18.6886 11.2832 18.5615L10.4833 17.2926ZM9.99992 17.5834C10.0364 17.5834 10.0399 17.5979 9.96159 17.5592C9.86756 17.5128 9.74464 17.4364 9.51657 17.2926L8.7166 18.5615C8.91811 18.6886 9.11736 18.8153 9.29785 18.9044C9.49407 19.0012 9.72447 19.0834 9.99992 19.0834V17.5834ZM9.51666 17.2927L7.92427 16.2885L7.12412 17.5572L8.71651 18.5615L9.51666 17.2927ZM7.92431 16.2885C7.73462 16.1688 7.5471 16.0496 7.37731 15.9645C7.19317 15.8723 6.97719 15.792 6.7182 15.7836L6.66918 17.2828C6.63447 17.2816 6.63166 17.2687 6.70567 17.3058C6.79403 17.35 6.90961 17.4219 7.12408 17.5572L7.92431 16.2885ZM6.71844 15.7836C6.44488 15.7745 6.21345 15.8452 6.00549 15.9428C5.81874 16.0305 5.61646 16.1576 5.4089 16.2885L6.20905 17.5572C6.43821 17.4127 6.55712 17.3409 6.64296 17.3006C6.70759 17.2703 6.70016 17.2838 6.66895 17.2828L6.71844 15.7836ZM5.40894 16.2884C5.27069 16.3756 5.08241 16.5113 4.93959 16.6095C4.77681 16.7214 4.61928 16.8234 4.46842 16.9024C4.09809 17.0961 4.05786 17.0024 4.12437 17.0452L3.31205 18.3063C4.00766 18.7543 4.76826 18.4384 5.16377 18.2315C5.39582 18.1101 5.61246 17.9672 5.78926 17.8457C5.98601 17.7104 6.10271 17.6243 6.20902 17.5572L5.40894 16.2884ZM4.12429 17.0452C4.21424 17.1031 4.16347 17.1652 4.12422 16.8831C4.08501 16.6012 4.08325 16.1918 4.08325 15.5382H2.58325C2.58325 16.1445 2.5815 16.6798 2.63852 17.0898C2.69552 17.4995 2.83722 18.0005 3.31213 18.3063L4.12429 17.0452ZM13.3333 4.25008H6.66659V5.75008H13.3333V4.25008ZM8.33325 7.58342H6.66659V9.08342H8.33325V7.58342ZM12.0833 7.47925C11.0759 7.47925 10.0833 8.21374 10.0833 9.323H11.5833C11.5833 9.26319 11.6092 9.18757 11.6932 9.11403C11.7788 9.03919 11.9144 8.97925 12.0833 8.97925V7.47925ZM10.0833 9.323C10.0833 10.4323 11.0759 11.1667 12.0833 11.1667V9.66675C11.9144 9.66675 11.7788 9.60681 11.6932 9.53197C11.6092 9.45842 11.5833 9.38281 11.5833 9.323H10.0833ZM12.0833 11.1667C12.2521 11.1667 12.3877 11.2267 12.4733 11.3015C12.5573 11.3751 12.5833 11.4507 12.5833 11.5105H14.0833C14.0833 10.4012 13.0906 9.66675 12.0833 9.66675V11.1667ZM12.5833 11.5105C12.5833 11.5703 12.5573 11.6459 12.4733 11.7195C12.3877 11.7943 12.2521 11.8542 12.0833 11.8542V13.3542C13.0906 13.3542 14.0833 12.6198 14.0833 11.5105H12.5833ZM12.0833 8.97925C12.3608 8.97925 12.5236 9.13254 12.5667 9.23928L13.9575 8.67755C13.6575 7.93462 12.8942 7.47925 12.0833 7.47925V8.97925ZM12.8333 8.22925V7.50008H11.3333V8.22925H12.8333ZM12.0833 11.8542C11.8057 11.8542 11.643 11.701 11.5998 11.5942L10.209 12.156C10.509 12.8989 11.2723 13.3542 12.0833 13.3542V11.8542ZM11.3333 12.6042V13.3334H12.8333V12.6042H11.3333Z" fill="#fff"/>
</svg>
