<svg width="39" height="52" viewBox="0 0 39 52" fill="none" xmlns="http://www.w3.org/2000/svg">
<path d="M58.7568 32.5586C55.5553 32.5586 52.4256 31.6092 49.7635 29.8305C47.1015 28.0518 45.0267 25.5237 43.8015 22.5658C42.5764 19.6079 42.2558 16.3531 42.8804 13.2131C43.505 10.073 45.0467 7.18867 47.3106 4.92481C49.5744 2.66095 52.4588 1.11924 55.5988 0.494639C58.7389 -0.129959 61.9937 0.190608 64.9515 1.4158C67.9094 2.64099 70.4376 4.71579 72.2163 7.37781C73.995 10.0398 74.9443 13.1695 74.9443 16.3711L75.0183 18.6836C75.0183 22.9351 74.1809 27.1451 72.5539 31.073C70.9269 35.0009 68.5422 38.5699 65.5359 41.5762C62.5296 44.5825 58.9606 46.9672 55.0327 48.5942C51.1048 50.2212 46.8949 51.0586 42.6433 51.0586V41.8086C45.6815 41.8168 48.6911 41.2226 51.4982 40.0604C54.3053 38.8982 56.8541 37.191 58.9973 35.0376C59.8303 34.2062 60.5988 33.3125 61.296 32.3643C60.456 32.4963 59.6071 32.5628 58.7568 32.5632V32.5586ZM17.1318 32.5586C13.9303 32.5586 10.8006 31.6092 8.13855 29.8305C5.47653 28.0518 3.40174 25.5237 2.17654 22.5658C0.95135 19.6079 0.630783 16.3531 1.25538 13.2131C1.87998 10.073 3.42169 7.18867 5.68555 4.92481C7.94941 2.66095 10.8338 1.11924 13.9738 0.494639C17.1139 -0.129959 20.3687 0.190608 23.3265 1.4158C26.2844 2.64099 28.8126 4.71579 30.5913 7.37781C32.37 10.0398 33.3193 13.1695 33.3193 16.3711L33.3933 18.6836C33.3933 27.27 29.9824 35.5047 23.9109 41.5762C17.8394 47.6477 9.60473 51.0586 1.01834 51.0586V41.8086C4.0565 41.8168 7.06613 41.2226 9.87321 40.0604C12.6803 38.8982 15.2291 37.191 17.3723 35.0376C18.2053 34.2062 18.9738 33.3125 19.671 32.3643C18.831 32.4963 17.9821 32.5628 17.1318 32.5632V32.5586Z" fill="#FEE2E2"/>
</svg>
