<svg width="75" height="75" viewBox="0 0 75 75" fill="none" xmlns="http://www.w3.org/2000/svg">
<g clip-path="url(#clip0_364_282)">
<path d="M58.3115 46.5586C55.1099 46.5586 51.9803 45.6092 49.3182 43.8305C46.6562 42.0518 44.5814 39.5237 43.3562 36.5658C42.131 33.6079 41.8105 30.3531 42.4351 27.2131C43.0597 24.073 44.6014 21.1887 46.8652 18.9248C49.1291 16.6609 52.0134 15.1192 55.1535 14.4946C58.2936 13.87 61.5483 14.1906 64.5062 15.4158C67.4641 16.641 69.9922 18.7158 71.771 21.3778C73.5497 24.0398 74.499 27.1695 74.499 30.3711L74.573 32.6836C74.573 36.9351 73.7356 41.1451 72.1086 45.073C70.4816 49.0009 68.0969 52.5699 65.0906 55.5762C62.0843 58.5825 58.5153 60.9672 54.5874 62.5942C50.6595 64.2212 46.4496 65.0586 42.198 65.0586V55.8086C45.2362 55.8168 48.2458 55.2226 51.0529 54.0604C53.86 52.8982 56.4088 51.191 58.552 49.0376C59.385 48.2062 60.1535 47.3125 60.8507 46.3643C60.0107 46.4963 59.1618 46.5628 58.3115 46.5632V46.5586ZM16.6865 46.5586C13.4849 46.5586 10.3553 45.6092 7.69324 43.8305C5.03122 42.0518 2.95642 39.5237 1.73123 36.5658C0.506037 33.6079 0.185471 30.3531 0.810069 27.2131C1.43467 24.073 2.97638 21.1887 5.24024 18.9248C7.5041 16.6609 10.3884 15.1192 13.5285 14.4946C16.6686 13.87 19.9233 14.1906 22.8812 15.4158C25.8391 16.641 28.3672 18.7158 30.1459 21.3778C31.9247 24.0398 32.874 27.1695 32.874 30.3711L32.948 32.6836C32.948 41.27 29.5371 49.5047 23.4656 55.5762C17.3941 61.6477 9.15941 65.0586 0.573031 65.0586V55.8086C3.61118 55.8168 6.62082 55.2226 9.4279 54.0604C12.235 52.8982 14.7838 51.191 16.927 49.0376C17.76 48.2062 18.5284 47.3125 19.2257 46.3643C18.3857 46.4963 17.5368 46.5628 16.6865 46.5632V46.5586Z" fill="#FEE2E2"/>
</g>
<defs>
<clipPath id="clip0_364_282">
<rect width="74" height="74" fill="white" transform="translate(0.499023 0.308594)"/>
</clipPath>
</defs>
</svg>
