<svg width="75" height="52" viewBox="0 0 75 52" fill="none" xmlns="http://www.w3.org/2000/svg">
<path d="M58.3613 32.5586C55.1598 32.5586 52.0301 31.6092 49.368 29.8305C46.706 28.0518 44.6312 25.5237 43.406 22.5658C42.1808 19.6079 41.8603 16.3531 42.4849 13.2131C43.1095 10.073 44.6512 7.18867 46.915 4.92481C49.1789 2.66095 52.0632 1.11924 55.2033 0.494639C58.3434 -0.129959 61.5981 0.190608 64.556 1.4158C67.5139 2.64099 70.042 4.71579 71.8208 7.37781C73.5995 10.0398 74.5488 13.1695 74.5488 16.3711L74.6228 18.6836C74.6228 22.9351 73.7854 27.1451 72.1584 31.073C70.5314 35.0009 68.1467 38.5699 65.1404 41.5762C62.1341 44.5825 58.5651 46.9672 54.6372 48.5942C50.7093 50.2212 46.4994 51.0586 42.2478 51.0586V41.8086C45.286 41.8168 48.2956 41.2226 51.1027 40.0604C53.9098 38.8982 56.4586 37.191 58.6018 35.0376C59.4348 34.2062 60.2033 33.3125 60.9005 32.3643C60.0605 32.4963 59.2116 32.5628 58.3613 32.5632V32.5586ZM16.7363 32.5586C13.5348 32.5586 10.4051 31.6092 7.74304 29.8305C5.08102 28.0518 3.00623 25.5237 1.78104 22.5658C0.555842 19.6079 0.235275 16.3531 0.859874 13.2131C1.48447 10.073 3.02618 7.18867 5.29004 4.92481C7.55391 2.66095 10.4382 1.11924 13.5783 0.494639C16.7184 -0.129959 19.9731 0.190608 22.931 1.4158C25.8889 2.64099 28.417 4.71579 30.1957 7.37781C31.9745 10.0398 32.9238 13.1695 32.9238 16.3711L32.9978 18.6836C32.9978 27.27 29.5869 35.5047 23.5154 41.5762C17.4439 47.6477 9.20922 51.0586 0.622835 51.0586V41.8086C3.66099 41.8168 6.67062 41.2226 9.4777 40.0604C12.2848 38.8982 14.8336 37.191 16.9768 35.0376C17.8098 34.2062 18.5783 33.3125 19.2755 32.3643C18.4355 32.4963 17.5866 32.5628 16.7363 32.5632V32.5586Z" fill="#FFE9B4"/>
</svg>
