<svg width="16" height="12" viewBox="0 0 16 12" fill="none" xmlns="http://www.w3.org/2000/svg">
<path d="M12.15 6.99994H1C0.71667 6.99994 0.479004 6.90394 0.287004 6.71194C0.0950036 6.51994 -0.000663206 6.28261 3.4602e-06 5.99994C3.4602e-06 5.71661 0.0960036 5.47894 0.288004 5.28694C0.480004 5.09494 0.717337 4.99927 1 4.99994H12.15L9.3 2.14994C9.1 1.94994 9.004 1.71661 9.012 1.44994C9.02 1.18327 9.116 0.94994 9.3 0.74994C9.5 0.54994 9.73767 0.445606 10.013 0.43694C10.2883 0.428273 10.5257 0.524273 10.725 0.72494L15.3 5.29994C15.4 5.39994 15.471 5.50827 15.513 5.62494C15.555 5.74161 15.5757 5.86661 15.575 5.99994C15.575 6.13327 15.554 6.25827 15.512 6.37494C15.47 6.49161 15.3993 6.59994 15.3 6.69994L10.725 11.2749C10.525 11.4749 10.2877 11.5709 10.013 11.5629C9.73834 11.5549 9.50067 11.4506 9.3 11.2499C9.11667 11.0499 9.02067 10.8166 9.012 10.5499C9.00334 10.2833 9.09934 10.0499 9.3 9.84994L12.15 6.99994Z" fill="black"/>
</svg>
