<svg width="40" height="40" viewBox="0 0 40 40" fill="none" xmlns="http://www.w3.org/2000/svg">
<path d="M26.6668 36.6667C24.8902 34.5922 22.5563 33.3334 20.0002 33.3334C17.444 33.3334 15.1102 34.5922 13.3335 36.6667" stroke="#6F6F6F" stroke-width="3" stroke-linecap="round"/>
<path d="M19.9998 21.6666C17.8863 21.6666 15.6517 22.0321 13.8999 22.5213C12.5808 22.8896 11.5198 24.5691 11.6832 25.9326C11.7437 26.4378 12.1787 26.6666 12.6361 26.6666H27.3637C27.821 26.6666 28.256 26.4378 28.3165 25.9326C28.48 24.5691 27.4188 22.8896 26.0998 22.5213C24.348 22.0321 22.1133 21.6666 19.9998 21.6666Z" stroke="#6F6F6F" stroke-width="3" stroke-linecap="round"/>
<path d="M35.0002 16.6666C33.1592 16.6666 31.6668 18.159 31.6668 20V21.6666C31.6668 23.5076 30.1745 25 28.3335 25" stroke="#6F6F6F" stroke-width="3" stroke-linecap="round" stroke-linejoin="round"/>
<path d="M5 16.6666C6.84095 16.6666 8.33333 18.159 8.33333 20V21.6666C8.33333 23.5076 9.82572 25 11.6667 25" stroke="#6F6F6F" stroke-width="3" stroke-linecap="round" stroke-linejoin="round"/>
<path d="M20 26.6666V36.6666" stroke="#6F6F6F" stroke-width="3" stroke-linecap="round" stroke-linejoin="round"/>
<path d="M21.366 16.6667H18.6337C16.2967 16.6667 15.1282 16.6667 14.283 15.9607C13.4377 15.2547 13.1543 14.0421 12.5875 11.6169C11.6964 7.80384 11.2508 5.89729 12.1865 4.61534C13.1222 3.33337 14.9593 3.33337 18.6337 3.33337H21.366C25.0403 3.33337 26.8775 3.33337 27.8132 4.61534C28.7488 5.89729 28.3033 7.80384 27.4122 11.6169C26.8453 14.0421 26.562 15.2547 25.7167 15.9607C24.8715 16.6667 23.703 16.6667 21.366 16.6667Z" stroke="#6F6F6F" stroke-width="3" stroke-linecap="round" stroke-linejoin="round"/>
<path d="M20 16.6666V21.6666" stroke="#6F6F6F" stroke-width="3" stroke-linecap="round" stroke-linejoin="round"/>
</svg>
