<svg width="43" height="37" viewBox="0 0 43 37" fill="none" xmlns="http://www.w3.org/2000/svg">
<path fill-rule="evenodd" clip-rule="evenodd" d="M0.5 4.37695C0.5 2.30653 2.17957 0.626953 4.25 0.626953H38.75C40.8204 0.626953 42.5 2.30653 42.5 4.37695V26.877C42.5 28.9474 40.8204 30.627 38.75 30.627H26V33.627H33.5C34.3284 33.627 35 34.2985 35 35.127C35 35.9554 34.3284 36.627 33.5 36.627H9.5C8.67157 36.627 8 35.9554 8 35.127C8 34.2985 8.67157 33.627 9.5 33.627H17V30.627H4.25C2.17957 30.627 0.5 28.9474 0.5 26.877V4.37695ZM20 30.627V33.627H23V30.627H20ZM4.25 27.627C3.83643 27.627 3.5 27.2905 3.5 26.877V4.37695C3.5 3.96338 3.83643 3.62695 4.25 3.62695H38.75C39.1636 3.62695 39.5 3.96338 39.5 4.37695V26.877C39.5 27.2905 39.1636 27.627 38.75 27.627H4.25Z" fill="#1C1C1C"/>
</svg>
