<svg width="20" height="21" viewBox="0 0 20 21" fill="none" xmlns="http://www.w3.org/2000/svg">
<path fill-rule="evenodd" clip-rule="evenodd" d="M14.1667 4.66675V3.83341C14.1667 3.39139 13.9911 2.96746 13.6785 2.6549C13.3659 2.34234 12.942 2.16675 12.5 2.16675H7.5C7.05797 2.16675 6.63405 2.34234 6.32149 2.6549C6.00893 2.96746 5.83333 3.39139 5.83333 3.83341V4.66675H3.33333C3.11232 4.66675 2.90036 4.75455 2.74408 4.91083C2.5878 5.06711 2.5 5.27907 2.5 5.50008C2.5 5.7211 2.5878 5.93306 2.74408 6.08934C2.90036 6.24562 3.11232 6.33341 3.33333 6.33341H4.16667V15.5001C4.16667 16.1631 4.43006 16.799 4.8989 17.2678C5.36774 17.7367 6.00363 18.0001 6.66667 18.0001H13.3333C13.9964 18.0001 14.6323 17.7367 15.1011 17.2678C15.5699 16.799 15.8333 16.1631 15.8333 15.5001V6.33341H16.6667C16.8877 6.33341 17.0996 6.24562 17.2559 6.08934C17.4122 5.93306 17.5 5.7211 17.5 5.50008C17.5 5.27907 17.4122 5.06711 17.2559 4.91083C17.0996 4.75455 16.8877 4.66675 16.6667 4.66675H14.1667ZM12.5 3.83341H7.5V4.66675H12.5V3.83341ZM14.1667 6.33341H5.83333V15.5001C5.83333 15.7211 5.92113 15.9331 6.07741 16.0893C6.23369 16.2456 6.44565 16.3334 6.66667 16.3334H13.3333C13.5543 16.3334 13.7663 16.2456 13.9226 16.0893C14.0789 15.9331 14.1667 15.7211 14.1667 15.5001V6.33341Z" fill="#EF4444"/>
<path d="M7.5 8H9.16667V14.6667H7.5V8ZM10.8333 8H12.5V14.6667H10.8333V8Z" fill="#EF4444"/>
</svg>
