<svg width="40" height="31" viewBox="0 0 40 31" fill="none" xmlns="http://www.w3.org/2000/svg">
<path d="M0.5 0.626953V3.62695H33.5V27.627H12.5V30.627H39.5V27.627H36.5V0.626953H0.5ZM6.503 5.12695C4.91313 5.13248 3.3899 5.76631 2.26541 6.89024C1.14091 8.01418 0.506325 9.53708 0.5 11.127C0.5 14.4255 3.206 17.127 6.503 17.127C8.09207 17.1206 9.61422 16.4864 10.7376 15.3624C11.861 14.2385 12.4945 12.716 12.5 11.127C12.5 7.83145 9.797 5.12695 6.503 5.12695ZM15.5 6.62695V9.62695H23V6.62695H15.5ZM26 6.62695V9.62695H30.5V6.62695H26ZM6.503 8.12695C8.174 8.12695 9.5 9.45145 9.5 11.127C9.5 12.807 8.1755 14.127 6.503 14.127C4.823 14.127 3.5 12.807 3.5 11.127C3.5 9.45145 4.8245 8.12695 6.503 8.12695ZM15.5 12.627V15.627H30.5V12.627H15.5ZM0.5 18.627V30.627H3.5V21.627H8V30.627H11V22.614L14.096 24.252C14.9735 24.717 16.028 24.7155 16.904 24.252V24.255L22.199 21.4545L20.7995 18.7995L15.503 21.6L10.859 19.149C10.2109 18.8065 9.48902 18.6274 8.756 18.627H0.5Z" fill="#1C1C1C"/>
</svg>
