<svg width="16" height="16" viewBox="0 0 16 16" fill="none" xmlns="http://www.w3.org/2000/svg">
<path d="M2 15.8409C1.45 15.8409 0.979002 15.6449 0.587002 15.2529C0.195002 14.8609 -0.000664969 14.3902 1.69779e-06 13.8409V11.8409C1.69779e-06 11.5575 0.0960018 11.3199 0.288002 11.1279C0.480002 10.9359 0.717335 10.8402 1 10.8409C1.28333 10.8409 1.521 10.9369 1.713 11.1289C1.905 11.3209 2.00067 11.5582 2 11.8409V13.8409H14V11.8409C14 11.5575 14.096 11.3199 14.288 11.1279C14.48 10.9359 14.7173 10.8402 15 10.8409C15.2833 10.8409 15.521 10.9369 15.713 11.1289C15.905 11.3209 16.0007 11.5582 16 11.8409V13.8409C16 14.3909 15.804 14.8619 15.412 15.2539C15.02 15.6459 14.5493 15.8415 14 15.8409H2ZM7 3.69087L5.125 5.56587C4.925 5.76587 4.68734 5.86187 4.412 5.85387C4.13667 5.84587 3.89933 5.74154 3.7 5.54087C3.51667 5.34087 3.42067 5.10754 3.412 4.84087C3.40334 4.5742 3.49933 4.34087 3.7 4.14087L7.3 0.540869C7.4 0.440869 7.50834 0.370202 7.625 0.328869C7.74167 0.287536 7.86667 0.266536 8 0.265869C8.13334 0.265869 8.25834 0.286869 8.375 0.328869C8.49167 0.370869 8.6 0.441535 8.7 0.540869L12.3 4.14087C12.5 4.34087 12.596 4.5742 12.588 4.84087C12.58 5.10754 12.484 5.34087 12.3 5.54087C12.1 5.74087 11.8623 5.8452 11.587 5.85387C11.3117 5.86253 11.0743 5.76654 10.875 5.56587L9 3.69087V10.8409C9 11.1242 8.904 11.3619 8.712 11.5539C8.52 11.7459 8.28267 11.8415 8 11.8409C7.71667 11.8409 7.479 11.7449 7.287 11.5529C7.095 11.3609 6.99934 11.1235 7 10.8409V3.69087Z" fill="#0043CE"/>
</svg>
