<svg width="24" height="25" viewBox="0 0 24 25" fill="none" xmlns="http://www.w3.org/2000/svg">
<path d="M20.16 6.94571C17.28 2.50571 11.4 1.18571 6.83998 3.94571C2.39998 6.70571 0.95998 12.7057 3.83998 17.1457L4.07998 17.5057L3.11998 21.1057L6.71998 20.1457L7.07998 20.3857C8.63998 21.2257 10.32 21.7057 12 21.7057C13.8 21.7057 15.6 21.2257 17.16 20.2657C21.6 17.3857 22.92 11.5057 20.16 6.94571ZM17.64 16.1857C17.16 16.9057 16.56 17.3857 15.72 17.5057C15.24 17.5057 14.64 17.7457 12.24 16.7857C10.2 15.8257 8.51998 14.2657 7.31998 12.4657C6.59998 11.6257 6.23998 10.5457 6.11998 9.46571C6.11998 8.50571 6.47998 7.66571 7.07998 7.06571C7.31998 6.82571 7.55998 6.70571 7.79998 6.70571H8.39998C8.63998 6.70571 8.87998 6.70571 8.99998 7.18571C9.23998 7.78571 9.83998 9.22571 9.83998 9.34571C9.95998 9.46571 9.95998 9.70571 9.83998 9.82571C9.95998 10.0657 9.83998 10.3057 9.71998 10.4257C9.59998 10.5457 9.47998 10.7857 9.35998 10.9057C9.11998 11.0257 8.99998 11.2657 9.11998 11.5057C9.59998 12.2257 10.2 12.9457 10.8 13.5457C11.52 14.1457 12.24 14.6257 13.08 14.9857C13.32 15.1057 13.56 15.1057 13.68 14.8657C13.8 14.6257 14.4 14.0257 14.64 13.7857C14.88 13.5457 15 13.5457 15.24 13.6657L17.16 14.6257C17.4 14.7457 17.64 14.8657 17.76 14.9857C17.88 15.3457 17.88 15.8257 17.64 16.1857Z" fill="#1C1C1C"/>
</svg>
