<svg width="25" height="25" viewBox="0 0 25 25" fill="none" xmlns="http://www.w3.org/2000/svg">
<path d="M9.27749 16.6701L5.80749 13.2001C5.62051 13.0131 5.36692 12.9081 5.10249 12.9081C4.83806 12.9081 4.58447 13.0131 4.39749 13.2001C4.21051 13.3871 4.10547 13.6407 4.10547 13.9051C4.10547 14.036 4.13126 14.1657 4.18136 14.2866C4.23147 14.4076 4.30491 14.5175 4.39749 14.6101L8.57749 18.7901C8.96749 19.1801 9.59749 19.1801 9.98749 18.7901L20.5675 8.21008C20.7545 8.0231 20.8595 7.7695 20.8595 7.50508C20.8595 7.24065 20.7545 6.98706 20.5675 6.80008C20.3805 6.6131 20.1269 6.50806 19.8625 6.50806C19.5981 6.50806 19.3445 6.6131 19.1575 6.80008L9.27749 16.6701Z" fill="#FFC334"/>
</svg>
